<svg version="1.1" id="Layer_1" xmlns="http://www.w3.org/2000/svg" xmlns:xlink="http://www.w3.org/1999/xlink" x="0px" y="0px"
	 width="100%" viewBox="0 0 200 200" enable-background="new 0 0 200 200" xml:space="preserve">
<path fill="#3252F8" opacity="1.000000" stroke="none" 
	d="
M84.000000,1.000000 
	C94.354225,1.000000 104.708458,1.000000 115.638023,1.372186 
	C117.313126,2.094239 118.391403,2.549533 119.515762,2.778746 
	C161.337082,11.304524 191.369629,41.993282 199.288513,84.240654 
	C199.534790,85.554543 200.415222,86.749557 201.000000,88.000000 
	C201.000000,90.041664 201.000000,92.083336 200.706299,94.851036 
	C200.347702,98.738312 200.282806,101.899551 200.169083,105.390427 
	C200.413513,106.480042 200.706741,107.240021 201.000000,108.000000 
	C201.000000,110.041664 201.000000,112.083336 200.610107,114.612038 
	C199.800507,116.502991 199.271194,117.884438 198.977936,119.314285 
	C195.833450,134.646088 190.133438,148.816055 179.917313,161.207672 
	C179.516174,161.671158 179.332962,161.976883 179.139587,162.210114 
	C179.129425,162.137634 179.274658,162.119308 179.061523,162.289474 
	C178.682648,162.779190 178.516876,163.098724 178.351639,163.366547 
	C178.352158,163.314804 178.455444,163.320953 178.186615,163.438232 
	C177.607590,164.032745 177.297409,164.509979 176.993622,164.993591 
	C177.000000,165.000000 176.986771,164.987747 176.662170,165.078674 
	C175.594086,166.203934 174.850616,167.238281 174.042755,168.467621 
	C173.819504,168.906952 173.596771,169.055466 173.066315,169.260529 
	C172.587738,169.712585 172.353027,170.012314 172.043121,170.505356 
	C171.802078,170.943497 171.572662,171.085709 170.970612,171.210236 
	C170.168106,171.943787 169.674637,172.592407 169.178436,173.192444 
	C169.175705,173.143860 169.272980,173.140854 169.033600,173.270828 
	C168.568176,173.680908 168.342133,173.961014 168.121582,174.197235 
	C168.127060,174.153351 168.214539,174.166473 167.883057,174.207550 
	C166.696121,175.160980 165.840668,176.073318 164.992615,176.992828 
	C165.000000,177.000000 164.985809,176.985184 164.670410,177.048264 
	C163.617844,177.832504 162.880661,178.553665 162.148621,179.207092 
	C162.153763,179.139343 162.289047,179.151871 162.038361,179.259308 
	C161.542236,179.629059 161.296799,179.891373 160.949585,180.366821 
	C160.628342,180.833023 160.351273,180.967377 159.665619,180.996277 
	C158.338013,181.843674 157.361450,182.677856 156.378143,183.464325 
	C156.371384,183.416595 156.467499,183.409012 156.202438,183.483704 
	C155.671768,183.803894 155.406143,184.049393 155.146393,184.248260 
	C155.152237,184.201645 155.245102,184.216095 154.946472,184.270325 
	C154.224945,184.731949 153.802048,185.139328 153.307495,185.377136 
	C153.235840,185.207565 153.412827,185.530441 153.058563,185.485138 
	C151.471115,186.301819 150.237915,187.163803 149.003296,188.007385 
	C149.001862,187.988968 149.031540,188.011200 148.639145,187.999496 
	C145.559860,189.429779 142.872971,190.871780 140.187637,192.275894 
	C140.189194,192.238022 140.256042,192.273758 139.858551,192.240570 
	C135.974152,193.614883 132.487259,195.022354 128.693604,196.604553 
	C127.920670,196.821808 127.454506,196.864334 126.715149,196.761917 
	C124.619812,197.244293 122.797668,197.871597 120.661568,198.633545 
	C119.894646,198.775223 119.441689,198.782257 118.626869,198.627411 
	C110.235268,198.655441 102.206245,198.891495 94.175484,199.014709 
	C90.452644,199.071823 86.726433,198.909195 82.662750,198.880356 
	C81.891541,198.793259 81.459343,198.671982 80.843552,198.272797 
	C75.728119,196.709793 70.796265,195.424698 65.898087,194.091766 
	C65.931770,194.043945 65.900040,194.156525 65.719147,193.863617 
	C61.316338,191.746078 57.094418,189.921478 52.905586,188.085648 
	C52.938671,188.074432 52.956112,188.142090 52.760490,187.957062 
	C52.224758,187.666153 51.884655,187.560272 51.587708,187.453079 
	C51.630863,187.451782 51.627148,187.538055 51.497833,187.217392 
	C49.175255,185.656235 46.981987,184.415726 44.836128,183.163055 
	C44.883545,183.150909 44.905861,183.246231 44.738197,183.036606 
	C44.257656,182.662231 43.944782,182.497498 43.670998,182.330933 
	C43.710087,182.329086 43.708992,182.407333 43.558372,182.151794 
	C42.894276,181.625275 42.380798,181.354294 41.905678,181.076935 
	C41.944038,181.070541 41.955868,181.147415 41.791275,180.858170 
	C40.895493,180.121109 40.164299,179.673294 39.214878,178.986694 
	C36.930458,177.147308 34.716328,175.703873 32.822048,173.920670 
	C20.406338,162.233047 11.354527,148.354065 6.023211,132.120605 
	C4.267255,126.773849 2.669885,121.375023 1.000000,116.000000 
	C1.000000,105.979103 1.000000,95.958214 1.378936,85.388290 
	C2.070225,84.085281 2.498600,83.357872 2.678317,82.573502 
	C12.507207,39.675030 38.536549,12.882530 81.642197,2.981947 
	C82.532883,2.777373 83.218643,1.680564 84.000000,1.000000 
M50.330303,32.773281 
	C25.057253,53.285027 12.644537,79.274818 16.972517,112.149231 
	C18.063763,120.438103 19.674761,128.517349 23.691261,136.289642 
	C39.224236,166.347366 63.295006,183.213409 97.163712,185.372467 
	C132.043045,187.595932 165.041763,166.445694 179.073792,133.306091 
	C192.563156,101.448090 184.396271,62.756046 159.275192,39.506721 
	C128.554306,11.074823 86.559738,8.294991 50.330303,32.773281 
z"/>
<path fill="#FCFDFE" opacity="1.000000" stroke="none" 
	d="
M118.988731,198.789276 
	C119.441689,198.782257 119.894646,198.775223 121.011108,198.636261 
	C123.445854,197.971848 125.217102,197.439346 126.988350,196.906845 
	C127.454506,196.864334 127.920670,196.821808 129.045364,196.603882 
	C133.221283,195.043564 136.738663,193.658661 140.256042,192.273758 
	C140.256042,192.273758 140.189194,192.238022 140.551376,192.247101 
	C143.619553,190.841187 146.325546,189.426193 149.031540,188.011200 
	C149.031540,188.011200 149.001862,187.988968 149.326599,187.969711 
	C150.905167,187.143784 152.158997,186.337112 153.412827,185.530426 
	C153.412827,185.530441 153.235840,185.207565 153.601761,185.307617 
	C154.393478,185.010468 154.819290,184.613281 155.245102,184.216095 
	C155.245102,184.216095 155.152237,184.201645 155.422638,184.195160 
	C155.951187,183.928787 156.209351,183.668900 156.467499,183.409012 
	C156.467499,183.409012 156.371384,183.416595 156.689514,183.373474 
	C158.010666,182.547913 159.013657,181.765488 160.016663,180.983063 
	C160.351273,180.967377 160.628342,180.833023 161.220428,180.291992 
	C161.825027,179.719955 162.057037,179.435913 162.289047,179.151871 
	C162.289047,179.151871 162.153763,179.139343 162.459320,179.143250 
	C163.505188,178.426498 164.245499,177.705841 164.985809,176.985199 
	C164.985809,176.985184 165.000000,177.000000 165.295135,176.904083 
	C166.465042,175.927597 167.339798,175.047043 168.214539,174.166473 
	C168.214539,174.166473 168.127060,174.153351 168.393341,174.111359 
	C168.864075,173.759857 169.068527,173.450348 169.272980,173.140854 
	C169.272980,173.140854 169.175705,173.143860 169.470093,173.087158 
	C170.269531,172.395416 170.774597,171.760376 171.279663,171.125336 
	C171.572662,171.085709 171.802078,170.943497 172.324158,170.398849 
	C172.890335,169.768753 173.100266,169.438477 173.310181,169.108200 
	C173.596771,169.055466 173.819504,168.906952 174.339111,168.342926 
	C175.462189,167.011414 176.224487,165.999573 176.986771,164.987747 
	C176.986771,164.987747 177.000000,165.000000 177.258026,164.876678 
	C177.829178,164.275894 178.142319,163.798431 178.455444,163.320953 
	C178.455444,163.320953 178.352158,163.314804 178.599731,163.229156 
	C178.989761,162.802109 179.132202,162.460709 179.274658,162.119308 
	C179.274658,162.119308 179.129425,162.137634 179.394745,162.088409 
	C179.818451,161.709427 179.976837,161.379669 180.135223,161.049896 
	C190.133438,148.816055 195.833450,134.646088 198.977936,119.314285 
	C199.271194,117.884438 199.800507,116.502991 200.610107,115.049538 
	C201.000000,143.593994 201.000000,172.187988 201.000000,201.000000 
	C172.312805,201.000000 143.625061,201.000000 114.575668,200.653122 
	C115.805595,199.800583 117.397163,199.294937 118.988731,198.789276 
z"/>
<path fill="#FCFDFE" opacity="1.000000" stroke="none" 
	d="
M201.000000,87.531342 
	C200.415222,86.749557 199.534790,85.554543 199.288513,84.240654 
	C191.369629,41.993282 161.337082,11.304524 119.515762,2.778746 
	C118.391403,2.549533 117.313126,2.094239 116.106682,1.372186 
	C144.261078,1.000000 172.522171,1.000000 201.000000,1.000000 
	C201.000000,29.687197 201.000000,58.374939 201.000000,87.531342 
z"/>
<path fill="#FCFDFE" opacity="1.000000" stroke="none" 
	d="
M81.027138,198.550705 
	C81.459343,198.671982 81.891541,198.793259 82.970093,199.041443 
	C84.744293,199.778900 85.872147,200.389450 87.000000,201.000000 
	C58.406857,201.000000 29.813711,201.000000 1.000000,201.000000 
	C1.000000,172.979492 1.000000,144.958405 1.000000,116.468658 
	C2.669885,121.375023 4.267255,126.773849 6.023211,132.120605 
	C11.354527,148.354065 20.406338,162.233047 32.822048,173.920670 
	C34.716328,175.703873 36.930458,177.147308 39.377953,179.271072 
	C40.491459,180.245300 41.223663,180.696365 41.955868,181.147415 
	C41.955868,181.147415 41.944038,181.070541 42.036385,181.347412 
	C42.655487,181.885300 43.182240,182.146317 43.708992,182.407333 
	C43.708992,182.407333 43.710087,182.329086 43.807320,182.572571 
	C44.238323,182.959457 44.572090,183.102844 44.905861,183.246231 
	C44.905861,183.246231 44.883545,183.150909 45.014465,183.450455 
	C47.305973,185.012680 49.466564,186.275360 51.627151,187.538055 
	C51.627148,187.538055 51.630863,187.451782 51.767014,187.665100 
	C52.254147,187.966293 52.605129,188.054184 52.956112,188.142090 
	C52.956112,188.142090 52.938671,188.074432 53.105099,188.364197 
	C57.481033,190.488159 61.690540,192.322342 65.900040,194.156525 
	C65.900040,194.156525 65.931770,194.043945 66.160645,194.335938 
	C71.268715,195.935516 76.147926,197.243118 81.027138,198.550705 
z"/>
<path fill="#FCFDFE" opacity="1.000000" stroke="none" 
	d="
M83.531342,1.000000 
	C83.218643,1.680564 82.532883,2.777373 81.642197,2.981947 
	C38.536549,12.882530 12.507207,39.675030 2.678317,82.573502 
	C2.498600,83.357872 2.070225,84.085281 1.378936,84.919632 
	C1.000000,57.073532 1.000000,29.147066 1.000000,1.000000 
	C28.353832,1.000000 55.708260,1.000000 83.531342,1.000000 
z"/>
<path fill="#4B63E5" opacity="1.000000" stroke="none" 
	d="
M87.449982,201.000000 
	C85.872147,200.389450 84.744293,199.778900 83.309097,199.007263 
	C86.726433,198.909195 90.452644,199.071823 94.175484,199.014709 
	C102.206245,198.891495 110.235268,198.655441 118.626869,198.627426 
	C117.397163,199.294937 115.805595,199.800583 114.107010,200.653122 
	C111.958336,201.000000 109.916664,201.000000 107.125725,200.745132 
	C102.917633,200.660172 99.458817,200.830093 96.000000,201.000000 
	C93.299988,201.000000 90.599968,201.000000 87.449982,201.000000 
z"/>
<path fill="#7795FF" opacity="1.000000" stroke="none" 
	d="
M96.458069,201.000000 
	C99.458817,200.830093 102.917633,200.660172 106.688225,200.745132 
	C103.638710,201.000000 100.277428,201.000000 96.458069,201.000000 
z"/>
<path fill="#7692FF" opacity="1.000000" stroke="none" 
	d="
M200.217896,105.060791 
	C200.282806,101.899551 200.347702,98.738312 200.706299,95.288536 
	C201.000000,98.030594 201.000000,101.061188 200.805359,104.572418 
	C200.610703,105.053062 200.217896,105.060791 200.217896,105.060791 
z"/>
<path fill="#8CA6FF" opacity="1.000000" stroke="none" 
	d="
M200.169083,105.390427 
	C200.217896,105.060791 200.610703,105.053062 200.805359,105.026535 
	C201.000000,105.750000 201.000000,106.500000 201.000000,107.625000 
	C200.706741,107.240021 200.413513,106.480042 200.169083,105.390427 
z"/>
<path fill="#FCFCFC" opacity="1.000000" stroke="none" 
	d="
M50.611923,32.552830 
	C86.559738,8.294991 128.554306,11.074823 159.275192,39.506721 
	C184.396271,62.756046 192.563156,101.448090 179.073792,133.306091 
	C165.041763,166.445694 132.043045,187.595932 97.163712,185.372467 
	C63.295006,183.213409 39.224236,166.347366 23.691261,136.289642 
	C19.674761,128.517349 18.063763,120.438103 16.972517,112.149231 
	C12.644537,79.274818 25.057253,53.285027 50.611923,32.552830 
M149.135742,54.915886 
	C147.702469,46.387886 141.530823,41.159988 133.769928,41.899761 
	C126.008476,42.639584 120.882050,48.554111 120.875450,56.975182 
	C120.851967,86.967262 120.898903,116.959419 120.856972,146.951462 
	C120.850151,151.828812 122.720474,155.724075 126.501785,158.621307 
	C131.022858,162.085358 136.129944,162.319092 141.151062,160.074249 
	C147.198013,157.370773 149.253357,152.157730 149.243256,145.805267 
	C149.195526,115.813011 149.204987,85.820663 149.135742,54.915886 
M115.024178,82.634918 
	C115.023148,82.135735 115.024277,81.636543 115.020775,81.137375 
	C114.949463,70.968048 109.645432,64.765305 100.975838,64.711967 
	C92.175468,64.657829 86.707932,70.726089 86.682251,80.826248 
	C86.627663,102.290840 86.602898,123.756012 86.733002,145.219940 
	C86.750656,148.133270 87.171799,151.298950 88.375725,153.898788 
	C91.124413,159.834488 97.894569,162.580536 104.395813,161.019058 
	C110.603798,159.528015 114.963089,153.994919 114.991776,146.996536 
	C115.078377,125.864952 115.024368,104.732796 115.024178,82.634918 
M52.537064,99.394592 
	C52.448734,115.547447 52.120453,131.704071 52.373936,147.851562 
	C52.499508,155.850693 59.161098,161.656677 66.776001,161.503296 
	C74.739845,161.342896 80.771828,155.320206 80.849907,146.977112 
	C80.988670,132.150757 80.947495,117.321793 80.861984,102.494614 
	C80.814812,94.313965 75.896629,88.607788 68.292946,87.549065 
	C61.203262,86.561905 55.222919,90.800797 52.537064,99.394592 
z"/>
<path fill="#4B63E5" opacity="1.000000" stroke="none" 
	d="
M80.843552,198.272797 
	C76.147926,197.243118 71.268715,195.935516 66.126961,194.383759 
	C70.796265,195.424698 75.728119,196.709793 80.843552,198.272797 
z"/>
<path fill="#4B63E5" opacity="1.000000" stroke="none" 
	d="
M65.719154,193.863602 
	C61.690540,192.322342 57.481033,190.488159 53.072014,188.375427 
	C57.094418,189.921478 61.316338,191.746078 65.719154,193.863602 
z"/>
<path fill="#4B63E5" opacity="1.000000" stroke="none" 
	d="
M139.858551,192.240570 
	C136.738663,193.658661 133.221283,195.043564 129.352142,196.429138 
	C132.487259,195.022354 135.974152,193.614883 139.858551,192.240570 
z"/>
<path fill="#4B63E5" opacity="1.000000" stroke="none" 
	d="
M148.639145,187.999496 
	C146.325546,189.426193 143.619553,190.841187 140.549820,192.284973 
	C142.872971,190.871780 145.559860,189.429779 148.639145,187.999496 
z"/>
<path fill="#4B63E5" opacity="1.000000" stroke="none" 
	d="
M126.715149,196.761917 
	C125.217102,197.439346 123.445854,197.971848 121.325073,198.501617 
	C122.797668,197.871597 124.619812,197.244293 126.715149,196.761917 
z"/>
<path fill="#4B63E5" opacity="1.000000" stroke="none" 
	d="
M51.497837,187.217392 
	C49.466564,186.275360 47.305973,185.012680 44.967049,183.462616 
	C46.981987,184.415726 49.175255,185.656235 51.497837,187.217392 
z"/>
<path fill="#4B63E5" opacity="1.000000" stroke="none" 
	d="
M153.058563,185.485138 
	C152.158997,186.337112 150.905167,187.143784 149.328033,187.988129 
	C150.237915,187.163803 151.471115,186.301819 153.058563,185.485138 
z"/>
<path fill="#4B63E5" opacity="1.000000" stroke="none" 
	d="
M167.883057,174.207550 
	C167.339798,175.047043 166.465042,175.927597 165.287750,176.896912 
	C165.840668,176.073318 166.696121,175.160980 167.883057,174.207550 
z"/>
<path fill="#4B63E5" opacity="1.000000" stroke="none" 
	d="
M176.662170,165.078674 
	C176.224487,165.999573 175.462189,167.011414 174.403534,168.147934 
	C174.850616,167.238281 175.594086,166.203934 176.662170,165.078674 
z"/>
<path fill="#4B63E5" opacity="1.000000" stroke="none" 
	d="
M159.665604,180.996277 
	C159.013657,181.765488 158.010666,182.547913 156.696289,183.421204 
	C157.361450,182.677856 158.338013,181.843674 159.665604,180.996277 
z"/>
<path fill="#4B63E5" opacity="1.000000" stroke="none" 
	d="
M170.970612,171.210236 
	C170.774597,171.760376 170.269531,172.395416 169.472809,173.135742 
	C169.674637,172.592407 170.168106,171.943787 170.970612,171.210236 
z"/>
<path fill="#4B63E5" opacity="1.000000" stroke="none" 
	d="
M164.670410,177.048279 
	C164.245499,177.705841 163.505188,178.426498 162.454178,179.210999 
	C162.880661,178.553665 163.617844,177.832504 164.670410,177.048279 
z"/>
<path fill="#4B63E5" opacity="1.000000" stroke="none" 
	d="
M41.791275,180.858170 
	C41.223663,180.696365 40.491459,180.245300 39.596180,179.509857 
	C40.164299,179.673294 40.895493,180.121109 41.791275,180.858170 
z"/>
<path fill="#4B63E5" opacity="1.000000" stroke="none" 
	d="
M43.558372,182.151794 
	C43.182240,182.146317 42.655487,181.885300 41.998028,181.353790 
	C42.380798,181.354294 42.894276,181.625275 43.558372,182.151794 
z"/>
<path fill="#4B63E5" opacity="1.000000" stroke="none" 
	d="
M154.946472,184.270325 
	C154.819290,184.613281 154.393478,185.010468 153.673401,185.477188 
	C153.802048,185.139328 154.224945,184.731949 154.946472,184.270325 
z"/>
<path fill="#4B63E5" opacity="1.000000" stroke="none" 
	d="
M178.186615,163.438232 
	C178.142319,163.798431 177.829178,164.275894 177.251648,164.870285 
	C177.297409,164.509979 177.607590,164.032745 178.186615,163.438232 
z"/>
<path fill="#4B63E5" opacity="1.000000" stroke="none" 
	d="
M162.038361,179.259308 
	C162.057037,179.435913 161.825027,179.719955 161.322174,180.078842 
	C161.296799,179.891373 161.542236,179.629059 162.038361,179.259308 
z"/>
<path fill="#4B63E5" opacity="1.000000" stroke="none" 
	d="
M44.738197,183.036606 
	C44.572090,183.102844 44.238323,182.959457 43.768227,182.574417 
	C43.944782,182.497498 44.257656,182.662231 44.738197,183.036606 
z"/>
<path fill="#4B63E5" opacity="1.000000" stroke="none" 
	d="
M156.202438,183.483704 
	C156.209351,183.668900 155.951187,183.928787 155.416779,184.241776 
	C155.406143,184.049393 155.671768,183.803894 156.202438,183.483704 
z"/>
<path fill="#4B63E5" opacity="1.000000" stroke="none" 
	d="
M52.760490,187.957062 
	C52.605129,188.054184 52.254147,187.966293 51.723854,187.666382 
	C51.884655,187.560272 52.224758,187.666153 52.760490,187.957062 
z"/>
<path fill="#4B63E5" opacity="1.000000" stroke="none" 
	d="
M173.066315,169.260529 
	C173.100266,169.438477 172.890335,169.768753 172.399353,170.205521 
	C172.353027,170.012314 172.587738,169.712585 173.066315,169.260529 
z"/>
<path fill="#4B63E5" opacity="1.000000" stroke="none" 
	d="
M179.061523,162.289474 
	C179.132202,162.460709 178.989761,162.802109 178.599213,163.280884 
	C178.516876,163.098724 178.682648,162.779190 179.061523,162.289474 
z"/>
<path fill="#4B63E5" opacity="1.000000" stroke="none" 
	d="
M179.917313,161.207672 
	C179.976837,161.379669 179.818451,161.709427 179.404907,162.160889 
	C179.332962,161.976883 179.516174,161.671158 179.917313,161.207672 
z"/>
<path fill="#4B63E5" opacity="1.000000" stroke="none" 
	d="
M169.033600,173.270828 
	C169.068527,173.450348 168.864075,173.759857 168.387863,174.155243 
	C168.342133,173.961014 168.568176,173.680908 169.033600,173.270828 
z"/>
<path fill="#F7D20A" opacity="1.000000" stroke="none" 
	d="
M149.164917,55.372116 
	C149.204987,85.820663 149.195526,115.813011 149.243256,145.805267 
	C149.253357,152.157730 147.198013,157.370773 141.151062,160.074249 
	C136.129944,162.319092 131.022858,162.085358 126.501785,158.621307 
	C122.720474,155.724075 120.850151,151.828812 120.856972,146.951462 
	C120.898903,116.959419 120.851967,86.967262 120.875450,56.975182 
	C120.882050,48.554111 126.008476,42.639584 133.769928,41.899761 
	C141.530823,41.159988 147.702469,46.387886 149.164917,55.372116 
z"/>
<path fill="#ED5FA8" opacity="1.000000" stroke="none" 
	d="
M115.024673,83.117889 
	C115.024368,104.732796 115.078377,125.864952 114.991776,146.996536 
	C114.963089,153.994919 110.603798,159.528015 104.395813,161.019058 
	C97.894569,162.580536 91.124413,159.834488 88.375725,153.898788 
	C87.171799,151.298950 86.750656,148.133270 86.733002,145.219940 
	C86.602898,123.756012 86.627663,102.290840 86.682251,80.826248 
	C86.707932,70.726089 92.175468,64.657829 100.975838,64.711967 
	C109.645432,64.765305 114.949463,70.968048 115.020775,81.137375 
	C115.024277,81.636543 115.023148,82.135735 115.024673,83.117889 
z"/>
<path fill="#6163EC" opacity="1.000000" stroke="none" 
	d="
M52.633831,98.987152 
	C55.222919,90.800797 61.203262,86.561905 68.292946,87.549065 
	C75.896629,88.607788 80.814812,94.313965 80.861984,102.494614 
	C80.947495,117.321793 80.988670,132.150757 80.849907,146.977112 
	C80.771828,155.320206 74.739845,161.342896 66.776001,161.503296 
	C59.161098,161.656677 52.499508,155.850693 52.373936,147.851562 
	C52.120453,131.704071 52.448734,115.547447 52.633831,98.987152 
z"/>
</svg>