<svg clip-rule="evenodd" fill-rule="evenodd" stroke-linejoin="round" stroke-miterlimit="2" width="64" height="64" viewBox= "100 0 320 320" xmlns="http://www.w3.org/2000/svg"><g fill-rule="nonzero" transform="matrix(.635145 0 0 .635145 791.323 462.982)"><path d="m-1017.6-560.2c0-36.7 29.7-66.4 66.4-66.4h292.3c36.7 0 66.4 29.7 66.4 66.4v292.3c0 36.7-29.7 66.4-66.4 66.4h-292.3c-36.7 0-66.4-29.7-66.4-66.4z" fill="#fa0f00"/><path d="m-951.2-626.6h292.3c36.7 0 66.4 29.7 66.4 66.4v292.3c0 36.7-29.7 66.4-66.4 66.4h-292.3c-36.7 0-66.4-29.7-66.4-66.4v-292.3c0-36.7 29.7-66.4 66.4-66.4z" fill="#fa0f00"/><path d="m-771.4-530.5 102.2 233h-72.5l-63.3-144.2-38.5 87.9h45.2l24.7 56.3h-167.2l102.2-233z" fill="#fff"/></g></svg>