
<svg version="1.0" xmlns="http://www.w3.org/2000/svg"
 width="541.000000pt" height="145.000000pt" viewBox="0 0 541.000000 145.000000"
 preserveAspectRatio="xMidYMid meet">
<g transform="translate(0.000000,145.000000) scale(0.100000,-0.100000)"
fill="#000000" stroke="none">
<path d="M1018 1141 c-27 -24 -33 -36 -33 -70 0 -99 111 -146 181 -76 18 19
24 35 24 70 0 96 -100 140 -172 76z"/>
<path d="M3060 1157 c-70 -35 -64 -156 9 -187 44 -18 95 -5 125 31 75 89 -28
209 -134 156z"/>
<path d="M397 1153 c-10 -15 -337 -846 -337 -854 0 -5 42 -9 93 -9 l92 0 40
105 39 105 173 0 172 0 39 -102 40 -103 96 -3 97 -3 -14 33 c-7 18 -85 214
-172 436 l-159 402 -97 0 c-54 0 -100 -3 -102 -7z m152 -348 c28 -71 49 -130
47 -132 -2 -2 -48 -2 -103 -1 l-99 3 50 132 c28 72 52 130 53 129 1 -1 24 -60
52 -131z"/>
<path d="M1810 725 l0 -435 85 0 c76 0 85 2 85 19 0 17 3 17 47 -5 71 -37 170
-34 251 7 148 74 208 256 138 423 -20 47 -91 123 -141 149 -59 31 -193 31
-252 0 l-43 -23 0 150 0 150 -85 0 -85 0 0 -435z m376 5 c98 -48 117 -160 43
-245 -76 -87 -215 -52 -249 62 -18 60 -6 107 40 153 53 53 100 62 166 30z"/>
<path d="M3760 1011 l0 -148 -42 21 c-34 16 -61 21 -128 21 -75 0 -91 -3 -132
-27 -61 -36 -123 -108 -142 -165 -23 -66 -21 -180 4 -246 25 -66 87 -132 154
-163 67 -31 171 -33 235 -4 52 24 51 24 51 5 0 -12 16 -15 85 -15 l85 0 0 435
0 435 -85 0 -85 0 0 -149z m-54 -296 c107 -82 73 -240 -58 -276 -35 -9 -46 -7
-86 13 -68 34 -95 78 -90 151 4 46 10 63 34 88 60 65 135 74 200 24z"/>
<path d="M1570 899 c-14 -5 -37 -22 -52 -36 l-28 -27 0 32 0 32 -85 0 -85 0 0
-305 0 -305 85 0 85 0 0 173 c0 193 8 222 70 265 38 26 73 28 114 7 16 -9 33
-12 36 -8 4 4 18 39 30 76 21 64 21 70 6 85 -19 20 -138 27 -176 11z"/>
<path d="M2775 895 c-16 -9 -40 -26 -52 -37 l-23 -21 0 31 0 32 -85 0 -85 0 0
-305 0 -305 84 0 85 0 3 183 c3 182 3 184 30 219 15 19 41 41 59 48 31 13 35
13 118 -11 9 -3 21 19 38 69 23 68 24 75 9 90 -23 24 -141 28 -181 7z"/>
<path d="M4195 887 c-227 -108 -235 -456 -13 -566 51 -26 73 -31 132 -31 49 0
85 7 114 20 l43 20 -6 -23 c-21 -70 -71 -98 -175 -99 -56 0 -77 4 -119 27 -28
16 -53 26 -55 24 -2 -2 -18 -33 -36 -68 l-32 -65 22 -18 c69 -56 281 -80 387
-44 68 23 134 82 164 148 23 52 24 61 27 371 l3 317 -90 0 c-74 0 -91 -3 -91
-15 0 -19 0 -19 -41 2 -21 11 -63 19 -109 21 -63 2 -83 -1 -125 -21z m199
-151 c42 -17 82 -70 91 -117 9 -51 -23 -122 -67 -149 -121 -73 -267 54 -210
183 36 81 111 114 186 83z"/>
<path d="M4937 896 c-70 -25 -131 -84 -168 -161 -24 -50 -29 -73 -29 -137 0
-134 56 -235 162 -289 54 -28 195 -38 263 -19 51 14 135 64 135 80 0 6 -21 33
-46 60 l-45 49 -46 -25 c-85 -45 -185 -26 -231 44 l-14 22 207 0 208 0 -5 84
c-3 64 -10 96 -32 139 -33 67 -100 130 -163 151 -56 19 -144 20 -196 2z m151
-150 c22 -12 62 -62 62 -78 0 -5 -52 -8 -115 -8 -73 0 -115 4 -115 10 0 19 33
61 59 75 32 18 79 18 109 1z"/>
<path d="M1000 595 l0 -305 90 0 90 0 0 305 0 305 -90 0 -90 0 0 -305z"/>
<path d="M3030 595 l0 -305 85 0 85 0 0 305 0 305 -85 0 -85 0 0 -305z"/>
</g>
</svg>
