<svg xmlns="http://www.w3.org/2000/svg" xmlns:xlink="http://www.w3.org/1999/xlink" width="357" height="51" viewBox="0 -30 90 90"><defs>
<path id="logo-horizontal-a" d="M56.8415888,3.02095862 L61.682243,7.59724138 L48.2943925,21.0334552 C42.4640187,14.253269 33.6665888,9.9537931 24.0420561,9.9537931 C14.4178738,9.91862069 5.90116822,14.253269 0.0711448598,21.0334552 C8.93306075,8.40515172 23.4935748,0 40.0535047,0 C45.9177896,0 51.5404937,1.03490324 56.7524366,2.93148567 L56.8415888,3.02095862 Z"></path> 
<path id="logo-horizontal-d" d="M56.7524365,2.93148561 C51.5404936,1.03490322 45.9177896,1.0658141e-14 40.0535047,1.0658141e-14 C23.4935748,1.0658141e-14 8.93306075,8.40515172 0.0711448598,21.0334552 L-13.317757,7.5975931 L24.0420561,-29.8965517 L56.7524365,2.93148561 L56.7524365,2.93148561 Z"></path> 
<filter id="logo-horizontal-c" width="165.6%" height="170.7%" x="-16.4%" y="-22.6%" filterUnits="objectBoundingBox"><feOffset dx="18" dy="8" in="SourceAlpha" result="shadowOffsetOuter1"></feOffset> 
<feGaussianBlur in="shadowOffsetOuter1" result="shadowBlurOuter1" stdDeviation="2.5"></feGaussianBlur> <feColorMatrix in="shadowBlurOuter1" values="0 0 0 0 0   0 0 0 0 0   0 0 0 0 0.501960784  0 0 0 1 0"></feColorMatrix></filter></defs>
 <g fill="none" fill-rule="evenodd"><g fill="#020202" transform="translate(94 8)"><path d="M255.953991,12.1836783 C255.953991,14.8208957 253.825357,16.9569826 251.199704,16.9569826 L245.426021,16.9569826 L245.426021,7.08441739 L251.199704,7.08441739 C253.825357,7.08441739 255.953991,9.22124348 255.953991,11.8584609 L255.953991,12.1836783 Z M251.199704,0.501721739 L238.871308,0.501721739 L238.871308,33.4129826 L245.426021,33.4129826 L245.426021,23.5396783 L251.199704,23.5396783 C257.445773,23.5396783 262.508704,18.4552 262.508704,12.1836783 L262.508704,11.8584609 C262.508704,5.5862 257.445773,0.501721739 251.199704,0.501721739 L251.199704,0.501721739 Z"></path> <polygon points="211.462 33.414 218.016 33.414 218.016 .502 211.462 .502"></polygon>
  <polygon points="184.891 .502 184.891 13.903 173.073 13.903 173.073 .502 166.518 .502 166.518 33.413 173.073 33.413 173.073 20.485 184.891 20.485 184.891 33.413 191.446 33.413 191.446 .502"></polygon> <path d="M141.95204 16.5040435C141.004371 15.7796957 139.940054 15.1913478 138.784448 14.7537826 137.618699 14.3117826 136.483379 13.9008261 135.41544 13.537913 134.690922 13.3028696 134.00915 13.0633913 133.38534 12.8253913 132.783991 12.5947826 132.252919 12.336087 131.812412 12.0566957 131.36466 11.775087 131.01834 11.4358261 130.782148 11.0544348 130.547404 10.6678696 130.426409 10.1822609 130.426409 9.61091304 130.426409 8.94495652 130.577834 8.38765217 130.87561 7.95747826 131.169765 7.53395652 131.536371 7.1836087 131.969633 6.91308696 132.401445 6.647 132.894117 6.46369565 133.429536 6.36908696 133.959159 6.27595652 134.486608 6.22865217 135.002464 6.22865217 136.005922 6.22865217 137.057922 6.48808696 138.134555 6.99882609 139.166993 7.48665217 140.021925 8.14891304 140.680511 8.9663913L145.407991 3.87821739C144.034305 2.62095652 142.420803 1.65343478 140.610958 1.00226087 138.755467.337782609 136.914467 0 135.1365 0 133.651963 0 132.163079.191434783 130.712594.569869565 129.261385.947565217 127.942762 1.55069565 126.789329 2.36521739 125.638795 3.18047826 124.696197 4.23078261 123.989792 5.49321739 123.284112 6.75565217 122.9262 8.296 122.9262 10.0706522 122.9262 11.5141739 123.157321 12.7566522 123.613043 13.7626087 124.06804 14.7685652 124.679533 15.6348261 125.430858 16.3384783 126.182908 17.0480435 127.053054 17.6371304 128.009418 18.0857826 128.978823 18.5425652 129.981555 18.9424348 130.990809 19.2743043 132.066718 19.6194783 132.986131 19.9276957 133.804112 20.2159565 134.631511 20.5086522 135.336467 20.8383043 135.897969 21.1923478 136.461644 21.550087 136.903599 21.9551304 137.213693 22.3956522 137.528134 22.8428261 137.687528 23.392 137.687528 24.0283913 137.687528 24.6862174 137.560737 25.262 137.313677 25.7387391 137.061544 26.2154783 136.723194 26.6005652 136.306597 26.8836522 135.887825 27.1682174 135.395878 27.375913 134.846693 27.4986087 134.299682 27.6227826 133.73166 27.6863478 133.157842 27.6863478 131.884139 27.6863478 130.585803 27.3485652 129.29906 26.6848261 128.064481 26.0484348 127.042911 25.2472174 126.263329 24.304087L121.397467 29.3538261C122.777674 30.7921739 124.520864 31.920087 126.584291 32.7065217 128.690464 33.5077391 130.903142 33.9135217 133.157842 33.9135217 134.70179 33.9135217 136.21893 33.6991739 137.669415 33.274913 139.119175 32.8543478 140.422583 32.1965217 141.544137 31.3236087 142.664966 30.4514348 143.569889 29.3301739 144.233547 27.9908696 144.897206 26.6530435 145.231933 25.0417391 145.231933 23.2013043 145.231933 21.6099565 144.92039 20.2625217 144.305999 19.2011304 143.685812 18.1338261 142.893189 17.226913 141.95204 16.5040435M91.0362545 16.9573522L85.2618468 16.9573522 85.2618468 7.08404783 91.0362545 7.08404783C93.6619074 7.08404783 95.7898165 9.22087391 95.7898165 11.8580913L95.7898165 12.1833087C95.7898165 14.8205261 93.6619074 16.9573522 91.0362545 16.9573522M91.0362545.501352174L79.0643207.501352174 78.7071333 33.412613 85.2618468 33.412613 85.2618468 23.5400478 90.1059736 23.5400478 94.8124419 33.6203087 102.301059 33.6661348 96.6679322 21.9723522C97.3192738 21.5747 98.0039433 21.1134826 98.1133455 21.0225696 100.802756 18.8495261 102.34453 15.6269174 102.34453 12.1833087L102.34453 11.8580913C102.34453 5.58583043 97.2815989.501352174 91.0362545.501352174"></path> <polygon points="50.82 33.414 57.375 33.414 57.375 .502 50.82 .502"></polygon> 
  <path d="M11.9538209,20.2101174 L16.0487961,8.4002913 L16.062562,8.43503043 L16.2328237,8.92285652 L20.1756501,20.2101174 L11.9538209,20.2101174 Z M24.7864821,33.4124652 L32.1620744,33.4124652 L20.3654738,0.501204348 L11.8118154,0.501204348 L-1.42108547e-14,33.4124652 L7.37414325,33.4124652 L9.87300551,26.2096391 L22.2651598,26.1941174 L24.7864821,33.4124652 Z"></path></g> 
  <path fill="#0034B3" d="M-2.84217094e-14,37.4941448 L37.3598131,0 L70.1593458,32.9175103 L75,37.4937931 L61.6121495,50.9300069 C55.7817757,44.1498207 46.9843458,39.8503448 37.3598131,39.8503448 C27.7356308,39.8151724 19.2189252,44.1498207 13.3889019,50.9300069 L-2.84217094e-14,37.4941448 Z M41.2296729,19.0933448 C41.2296729,17.0048069 39.5425234,15.3119586 37.4617991,15.3119586 C35.3807243,15.3119586 33.6939252,17.0048069 33.6939252,19.0933448 C33.6939252,21.1822345 35.3807243,22.8754345 37.4617991,22.8754345 C39.5425234,22.8754345 41.2296729,21.1822345 41.2296729,19.0933448 Z"></path> <path fill="#004BFF" d="M70.0701935,32.8280373 C64.8582506,30.9314549 59.2355466,29.8965517 53.3712617,29.8965517 C36.8113318,29.8965517 22.2508178,38.3017034 13.3889019,50.9300069 L-2.84217094e-14,37.4941448 L37.3598131,-2.84217094e-14 L70.0701935,32.8280373 Z M41.2296729,19.0933448 C41.2296729,17.0048069 39.5425234,15.3119586 37.4617991,15.3119586 C35.3807243,15.3119586 33.6939252,17.0048069 33.6939252,19.0933448 C33.6939252,21.1822345 35.3807243,22.8754345 37.4617991,22.8754345 C39.5425234,22.8754345 41.2296729,21.1822345 41.2296729,19.0933448 Z"></path> <g transform="translate(13.318 29.897)"><mask id="logo-horizontal-b" fill="#fff"><use xlink:href="#logo-horizontal-a"></use></mask> <g fill="#000" mask="url(#logo-horizontal-b)" opacity=".5"><use filter="url(#logo-horizontal-c)" xlink:href="#logo-horizontal-d"></use>
</g></g></g></svg>