
<svg width="24" height="24" viewBox="0 0 24 24" fill="none" xmlns="http://www.w3.org/2000/svg">
<rect width="24" height="24" rx="2" fill="#224C96"/>
<g clip-path="url(#clip0_834_1435)">
<path d="M14.3704 9.03704L12 11.4074L9.4489 11.4074C9.33343 11.6666 8.99977 12.3334 9.4489 12.5926L12 12.5926L14.3704 14.963L15.5259 14.3704L13.0371 12L15.5259 9.62963L14.3704 9.03704Z" fill="white"/>
<path d="M14 18H18V14H14V18ZM15 15H17V17H15V15Z" fill="white"/>
<path d="M14 10H18V6H14V10ZM15 7H17V9H15V7Z" fill="white"/>
<path d="M7.66665 10.8333C8.44442 10.8333 8.83331 11.5036 8.83331 12C8.83331 12.7778 8.18121 13.1667 7.66665 13.1667C6.88887 13.1667 6.49998 12.5934 6.49998 12C6.49998 11.4066 6.88887 10.8333 7.66665 10.8333ZM7.66665 9.66667C6.37554 9.66667 5.33331 10.7089 5.33331 12C5.33331 13.2911 6.37554 14.3333 7.66665 14.3333C8.95776 14.3333 9.99998 13.2911 9.99998 12C9.99998 10.7089 8.95776 9.66667 7.66665 9.66667Z" fill="white"/>
</g>
<defs>
<clipPath id="clip0_834_1435">
<rect width="16" height="16" fill="white" transform="translate(4 20) rotate(-90)"/>
</clipPath>
</defs>
</svg>
