
<svg width="24" height="24" viewBox="0 0 24 24" fill="none" xmlns="http://www.w3.org/2000/svg">
<rect width="24" height="24" rx="2" fill="#7A50CE"/>
<g clip-path="url(#clip0_834_1436)">
<path d="M6.66667 12.6667C7.4 12.6667 8 12.0667 8 11.3333C8 10.6 7.4 10 6.66667 10C5.93333 10 5.33333 10.6 5.33333 11.3333C5.33333 12.0667 5.93333 12.6667 6.66667 12.6667ZM7.42 13.4C7.17333 13.36 6.92667 13.3333 6.66667 13.3333C6.00667 13.3333 5.38 13.4733 4.81333 13.72C4.32 13.9333 4 14.4133 4 14.9533V16H7V14.9267C7 14.3733 7.15333 13.8533 7.42 13.4ZM17.3333 12.6667C18.0667 12.6667 18.6667 12.0667 18.6667 11.3333C18.6667 10.6 18.0667 10 17.3333 10C16.6 10 16 10.6 16 11.3333C16 12.0667 16.6 12.6667 17.3333 12.6667ZM20 14.9533C20 14.4133 19.68 13.9333 19.1867 13.72C18.62 13.4733 17.9933 13.3333 17.3333 13.3333C17.0733 13.3333 16.8267 13.36 16.58 13.4C16.8467 13.8533 17 14.3733 17 14.9267V16H20V14.9533ZM14.8267 13.1C14.0467 12.7533 13.0867 12.5 12 12.5C10.9133 12.5 9.95333 12.76 9.17333 13.1C8.45333 13.42 8 14.14 8 14.9267V16H16V14.9267C16 14.14 15.5467 13.42 14.8267 13.1ZM9.38 14.6667C9.44 14.5133 9.46667 14.4067 9.98667 14.2067C10.6333 13.9533 11.3133 13.8333 12 13.8333C12.6867 13.8333 13.3667 13.9533 14.0133 14.2067C14.5267 14.4067 14.5533 14.5133 14.62 14.6667H9.38ZM12 9C12.6667 9 13 9.57455 13 10C13 10.6667 12.4411 11 12 11C11.3333 11 11 10.5086 11 10C11 9.49135 11.3333 9 12 9ZM12 8C10.8933 8 10 8.89333 10 10C10 11.1067 10.8933 12 12 12C13.1067 12 14 11.1067 14 10C14 8.89333 13.1067 8 12 8Z" fill="white"/>
</g>
<defs>
<clipPath id="clip0_834_1436">
<rect width="16" height="16" fill="white" transform="translate(4 4)"/>
</clipPath>
</defs>
</svg>
