
<svg xmlns="http://www.w3.org/2000/svg" viewBox="-55 -45 190 190"><path fill="#5757f5" d="M43.1 67.2l34.5 54a4.3 4.3 0 003.8 1.9H94a4.3 4.3 0 004.4-4.4V4.4a4.4 4.4 0 00-7.9-2.7L43.1 61.9a4.8 4.8 0 000 5.3zM4.4 123H27a4.3 4.3 0 004.4-4.3v-29a4.4 4.4 0 00-7.9-2.7L1 116a4.4 4.4 0 003.5 7z"/><path fill="#242a35" d="M410.5 57.9a8 8 0 00-.8-1l-.5-.3-.2-.2a20.6 20.6 0 00-3.5-2.4 23 23 0 00-4.3-2 28.7 28.7 0 00-4.7-1.2 27.6 27.6 0 00-12.4.6 30 30 0 00-6.9 2.9 29 29 0 00-5.8 4.5 32.7 32.7 0 00-4.6 5.8 26.2 26.2 0 00-3 6.8 27.7 27.7 0 000 15.3 27.4 27.4 0 003 6.8 32.7 32.7 0 004.6 5.8 29.3 29.3 0 005.9 4.5 33.7 33.7 0 006.8 2.9 26.7 26.7 0 0012.7.6 21.7 21.7 0 004.8-1.3 31.5 31.5 0 004.2-2.1 38 38 0 003.9-2.7 10.4 10.4 0 001-1l.1-.2a3.6 3.6 0 00.7-1.2v-.3a3 3 0 00-.3-1.7l-.2-.2a3.6 3.6 0 00-.3-.5l-.4-.5-2.2-3a3.2 3.2 0 00-1.2-.8 2.1 2.1 0 00-1.3 0 5.8 5.8 0 00-1.7 1.2l-.7.6c-.7.5-1 .9-2 1.5a14.2 14.2 0 01-2.6 1.6 12.7 12.7 0 01-3.1 1.1 17.5 17.5 0 01-10.9-1.1 19.6 19.6 0 01-5.9-4.1 19.4 19.4 0 01-4-6 17.8 17.8 0 010-14.7 20.2 20.2 0 014-6 21.5 21.5 0 016-4.3 16 16 0 0110-1.2 22 22 0 013.4 1.1 21.7 21.7 0 013 1.6c2 1.1 4.3 4.5 6.5 1.8l3.1-4.2a1.9 1.9 0 00.4-1.5 2.8 2.8 0 00-.6-1.3zm-195 45.3L181 24.3a3.2 3.2 0 00-3-2h-5.5a3.1 3.1 0 00-3 2L134.8 103a3 3 0 00.2 3 3.1 3.1 0 002.7 1.6h5.1a3 3 0 003-2l8.3-19.4h42.1l8.3 19.4a3.2 3.2 0 003 2h5a3.1 3.1 0 002.7-1.2 3.2 3.2 0 00.4-3.3zm-57-27V76l16.9-39L192 76.2zm374.5-6a29.5 29.5 0 00-4-8.5 28.7 28.7 0 00-4.4-4.8 20.3 20.3 0 00-5.4-3.5 29.5 29.5 0 00-6-2.2 27.3 27.3 0 00-14.1.3 26.6 26.6 0 00-6.7 2.9 31.4 31.4 0 00-5.7 4.5 25.3 25.3 0 00-4.2 5.8 29.2 29.2 0 00-2.8 7 27 27 0 00-.6 11.7 29 29 0 00.9 4.5 29.5 29.5 0 004 8.6 28.6 28.6 0 004.5 4.8 20.5 20.5 0 005.4 3.4 28.8 28.8 0 006 2.3 27.6 27.6 0 0020.8-3.2 31.4 31.4 0 005.7-4.5 23.4 23.4 0 004-5.7l.1-.2a1.8 1.8 0 00.2-1.9 1.5 1.5 0 00-1.3-.8h-8.3a2.3 2.3 0 00-1.8.9 17.3 17.3 0 01-3.6 3.3A17.7 17.7 0 01511 97a18.4 18.4 0 01-11.2-.3 20.3 20.3 0 01-5.4-3 15.2 15.2 0 01-3.8-4.5 24.8 24.8 0 01-1.8-6v-.3h42.7c1.8 0 2.7-1.2 2.7-3a29 29 0 00-1.2-9.7zm-9 3.8l-34.5.2.1-.3a20.4 20.4 0 012.6-5.5 19.2 19.2 0 015-5.1A17.7 17.7 0 01502 61a18.4 18.4 0 0111.2.4 20.3 20.3 0 015.4 2.9 15.1 15.1 0 013.9 4.6 16 16 0 011.7 4.7l.1.3zM276.7 99.2a31.8 31.8 0 004.5-5.8 29.9 29.9 0 003-6.9 27.9 27.9 0 000-15.2 29.9 29.9 0 00-3-6.9A29.1 29.1 0 00271 54.1a30.8 30.8 0 00-6.8-3 27.5 27.5 0 00-18.5 1.2 29.8 29.8 0 00-6.8 4.3l-.4.4v-3.1a2.5 2.5 0 00-2.8-2.9h-4.4a2.6 2.6 0 00-3 2.9v66.3a2.7 2.7 0 002.8 2.9h4.5a3 3 0 002.1-.8 2.7 2.7 0 00.8-2v-19.4l.4.3a28.6 28.6 0 006.7 4.2 27.4 27.4 0 0018.5 1.2 29.9 29.9 0 006.9-3 28.5 28.5 0 005.8-4.4zm-13.2-2.8a16.8 16.8 0 01-14.1 0 18 18 0 01-5.9-4.2 20.2 20.2 0 01-4-6.1 18.7 18.7 0 010-14.5 20.3 20.3 0 014-6 19.5 19.5 0 015.9-4.2 16.8 16.8 0 0114.1 0 19.7 19.7 0 015.8 4.2 20.3 20.3 0 014 6 18.6 18.6 0 010 14.5 22 22 0 01-4 6 18.6 18.6 0 01-5.8 4.3zm40.7-45.3h-4.4A2.6 2.6 0 00297 54v66.3a2.8 2.8 0 00.8 2 2.7 2.7 0 002 .8h4.4a3 3 0 002.1-.8 2.7 2.7 0 00.8-2v-19.4l.4.3a28.4 28.4 0 006.8 4.2 27.4 27.4 0 0018.5 1.2 30 30 0 006.8-3 29.2 29.2 0 005.9-4.4 31.7 31.7 0 004.5-5.9 29.9 29.9 0 002.9-6.8 27.7 27.7 0 000-15.2 29.7 29.7 0 00-3-7A29 29 0 00339.6 54a31.1 31.1 0 00-6.8-2.9 27.5 27.5 0 00-18.5 1.2 29.8 29.8 0 00-6.8 4.3l-.4.4v-3a2.5 2.5 0 00-2.8-2.9zm4 20.6a20.4 20.4 0 014-6 19.5 19.5 0 015.8-4.2 16.8 16.8 0 0114.1 0 19.8 19.8 0 015.9 4.1 20.3 20.3 0 014 6 18.6 18.6 0 010 14.5 21.4 21.4 0 01-4 6.1 18.6 18.6 0 01-5.8 4.3 16.8 16.8 0 01-14.1 0 18.1 18.1 0 01-5.9-4.3 20 20 0 01-4-6 18.7 18.7 0 010-14.5zM468 53.2a2.6 2.6 0 00-3-2.8h-4.3a2.5 2.5 0 00-2.8 2.8V85a11.8 11.8 0 01-1.2 5.4 11.6 11.6 0 01-3 4 14.5 14.5 0 01-4.2 2.4 13.3 13.3 0 01-10.5-.5 11.2 11.2 0 01-3.9-3.4 11.8 11.8 0 01-2.1-4.5 22 22 0 01-.7-5V54a5 5 0 00-.6-2.8 3.4 3.4 0 00-2.8-1h-3.2a3.5 3.5 0 00-2.5 1 4 4 0 00-1 3v29.2a29.8 29.8 0 001.4 9.5 23.3 23.3 0 004.3 7.7 19.5 19.5 0 007 5.2 25.8 25.8 0 0014.8 1.4 22.6 22.6 0 003.9-1.3 13.3 13.3 0 003.2-2.1l.7-.7.4-.3v2.2a2.4 2.4 0 00.7 1.8 2.7 2.7 0 002.2 1h4.5a2.7 2.7 0 001.9-.8 2.4 2.4 0 00.8-2zm111.6 31.1a14.7 14.7 0 00-3.9-5 23.9 23.9 0 00-6-3.6 42.2 42.2 0 00-7.6-2.3 27 27 0 01-3.7-1.1 14.4 14.4 0 01-3-1.6 7 7 0 01-3-3.4 5.3 5.3 0 010-3.2c.4-1.1 1.9-4.4 7.6-4.7 5.4-.4 8.2 2.5 9.1 3.8l2.5 3a2.8 2.8 0 00.6.4 2.5 2.5 0 002.3-.3l3.4-2.5a2.4 2.4 0 001.2-2.1v-.1a5.7 5.7 0 00-.8-1.8 44.5 44.5 0 00-3.2-4 15.8 15.8 0 00-3.5-3.2 16.3 16.3 0 00-4.5-1.9 24 24 0 00-13.5.5 16.7 16.7 0 00-6 3.3 14.6 14.6 0 00-4 5.1 15.7 15.7 0 000 12.7A13.6 13.6 0 00547 77a26.9 26.9 0 005.3 3.6 41 41 0 007 2.5l2.2.6 2.2.5a17 17 0 013.7 1.4 7.8 7.8 0 012.6 2 5.4 5.4 0 01-.1 6.2 9.5 9.5 0 01-2.7 2.3 13 13 0 01-3.3 1.4 13.6 13.6 0 01-6 0 15.4 15.4 0 01-3-1.2 12.9 12.9 0 01-2.7-1.8 14.6 14.6 0 01-2-2.7 4.3 4.3 0 00-1-1.5 2.5 2.5 0 00-2.8-.3l-4 1.9a3 3 0 00-1 .6 2.5 2.5 0 00-.4.7 2.2 2.2 0 00-.1 1.3 4.1 4.1 0 00.3 1.2 17.9 17.9 0 002.9 5 16.8 16.8 0 005 4 19.1 19.1 0 005.6 2.3 26.6 26.6 0 0013.8-.5 18.8 18.8 0 006.6-3.3 14.6 14.6 0 004.4-5.4 16 16 0 000-13.5z"/></svg>
