<svg version="1.1" id="Layer_1" xmlns="http://www.w3.org/2000/svg" xmlns:xlink="http://www.w3.org/1999/xlink" x="0px" y="0px"
	 width="100%" viewBox="0 0 200 200" enable-background="new 0 0 200 200" xml:space="preserve">
<path fill="#233075" opacity="1.000000" stroke="none" 
	d="
M111.000000,201.000000 
	C75.188759,201.000000 39.877419,200.964844 4.566480,201.067535 
	C1.776337,201.075638 0.896262,200.745285 0.902656,197.570465 
	C1.032493,133.111053 1.025719,68.651283 0.915754,4.191802 
	C0.910822,1.300585 1.651157,0.927630 4.304371,0.931255 
	C68.763924,1.019326 133.223633,1.018622 197.683182,0.933135 
	C200.310608,0.929651 201.090851,1.261407 201.085785,4.179364 
	C200.973648,68.805397 200.979645,133.431702 201.073135,198.057800 
	C201.076950,200.694611 200.308029,201.060486 197.945694,201.053711 
	C169.130646,200.971039 140.315277,201.000000 111.000000,201.000000 
z"/>
<path fill="#15DF7F" opacity="1.000000" stroke="none" 
	d="
M72.205246,93.182297 
	C72.057098,93.777725 71.915504,93.969971 71.548462,94.196625 
	C65.986702,98.692596 61.332642,103.884705 56.391743,108.772476 
	C52.618053,112.505600 49.079021,116.480682 45.323730,120.770447 
	C45.063984,121.057053 45.007874,121.004883 45.032600,121.033257 
	C43.076683,122.903229 41.597401,122.191849 39.728458,120.549522 
	C37.157753,118.290550 35.073849,115.540916 32.438488,113.422089 
	C29.021687,110.674965 29.404408,108.232613 32.622093,105.235504 
	C32.917076,104.894775 32.954670,104.958885 32.922981,104.939468 
	C35.524414,102.575752 37.742249,99.812531 40.608505,97.215775 
	C40.825397,96.946938 40.846436,96.840240 40.899574,96.828720 
	C42.172329,95.767021 43.406433,94.731766 44.620300,93.166916 
	C44.830563,92.874641 44.820671,92.830894 44.843025,92.832680 
	C49.075718,88.774300 44.322620,87.621956 42.240471,85.287224 
	C41.988049,85.053207 41.943611,85.075752 41.944462,85.050850 
	C41.219601,83.391724 39.510681,82.721458 38.196625,81.220184 
	C37.965839,81.002571 38.008556,80.976906 38.004517,81.001495 
	C37.097393,79.699898 36.072819,78.562454 34.824837,77.469818 
	C32.665737,75.579483 31.037546,75.824844 29.279478,77.666702 
	C25.435215,81.694191 21.294321,85.431396 17.443981,89.943466 
	C17.281298,90.275551 17.240751,90.160568 17.298243,90.140305 
	C16.647461,90.299522 16.518898,90.891289 16.157410,91.677155 
	C15.927114,91.873131 15.937984,91.933205 15.908113,91.926926 
	C14.623121,93.053246 13.326896,93.126671 11.786960,92.376366 
	C4.182011,88.670975 1.886758,78.041092 7.581188,71.775284 
	C13.615940,65.135002 20.310616,59.123306 26.613342,52.169880 
	C26.865379,51.850159 26.972427,51.890076 26.917465,51.881340 
	C27.822985,51.118355 29.236826,50.881802 29.774349,49.190331 
	C29.933889,48.918285 29.963032,48.988163 29.936636,48.960777 
	C30.899158,48.192272 31.884178,47.447094 32.746250,46.134422 
	C32.930740,45.886478 32.957935,45.939610 32.928284,45.936226 
	C35.096951,45.154186 36.098286,43.098812 37.721653,41.235489 
	C37.869270,40.921528 37.869576,40.855091 37.902489,40.859596 
	C38.931793,40.173481 39.721619,39.265129 40.709679,38.140305 
	C40.876278,37.890491 40.939888,37.924099 40.904022,37.926590 
	C41.169640,37.778427 41.433445,37.578152 41.787090,37.112404 
	C41.914616,36.896568 41.967972,36.928757 41.947380,36.903778 
	C43.099270,35.702393 45.067089,35.386997 45.758644,33.209648 
	C45.933441,32.918591 45.963757,32.989372 45.937180,32.961212 
	C48.483822,30.819391 50.515350,28.161972 53.242111,26.156530 
	C59.432133,21.603977 66.101837,21.867382 71.359070,27.442102 
	C79.448944,36.020535 88.085678,44.052036 96.244736,52.561451 
	C100.784134,57.295773 101.244286,57.056282 105.934906,52.302685 
	C113.707848,44.425388 121.591530,36.655834 129.456650,28.869137 
	C137.568756,20.837910 143.394806,21.028318 151.802795,28.704662 
	C152.094055,28.960239 152.030106,28.978685 152.025101,28.945789 
	C152.214874,29.186701 152.433685,29.439724 152.871155,29.831230 
	C153.065735,29.990536 153.002457,29.985411 153.012604,29.955339 
	C153.819275,30.869335 154.717255,31.714157 155.848572,32.758259 
	C156.090454,32.949173 156.039032,32.979641 156.046432,32.950684 
	C160.637695,38.644295 166.195099,43.395473 171.786652,48.648750 
	C172.075211,48.897022 172.098953,48.900364 172.101532,48.912075 
	C176.624451,54.690845 182.228027,59.380466 187.787003,64.649048 
	C188.075195,64.896988 188.099014,64.900276 188.101562,64.912033 
	C189.695526,68.400352 193.487869,69.863426 195.326233,73.349220 
	C198.325409,79.036041 198.062988,85.838371 193.198639,89.723114 
	C190.484604,91.890572 188.536896,94.815720 185.508316,97.105370 
	C185.416290,97.529915 185.412689,97.384041 185.485626,97.382256 
	C182.446503,99.423195 180.812363,103.086472 177.398224,105.178787 
	C177.385956,105.546158 177.389862,105.388863 177.468506,105.390839 
	C174.272614,107.216141 172.717300,110.926353 169.436356,113.147308 
	C169.416290,113.529915 169.412689,113.384041 169.485626,113.382256 
	C166.447021,115.418648 164.819122,119.083481 161.408295,121.171982 
	C161.397964,121.539101 161.398346,121.375488 161.480164,121.375694 
	C158.515732,123.374367 156.773010,126.796379 153.508698,129.012619 
	C153.412308,129.363281 153.268448,129.250153 153.329956,129.317902 
	C151.782303,130.175323 151.320389,132.300629 149.424713,133.117645 
	C149.406876,133.457794 149.405518,133.386902 149.440964,133.386230 
	C143.827301,138.160385 139.110687,143.908127 133.446854,149.084137 
	C133.406143,149.458221 133.404938,149.386749 133.440674,149.386154 
	C127.827232,154.160324 123.110733,159.908203 117.446838,165.084167 
	C117.406136,165.458237 117.404938,165.386749 117.440681,165.386154 
	C113.460686,169.124008 109.401169,172.816086 105.416885,177.040482 
	C105.327477,177.398361 105.326416,177.302017 105.374588,177.301483 
	C101.468948,181.218353 101.086014,181.235657 96.988434,177.437714 
	C96.618332,177.210236 96.799370,177.206558 96.801193,177.297089 
	C95.833298,175.859665 93.904282,175.202835 92.864746,173.409363 
	C92.522537,173.391205 92.636398,173.386688 92.638649,173.443619 
	C87.240746,168.117813 87.223564,168.101379 92.698166,162.379013 
	C96.548294,158.354645 100.767189,154.686508 104.453186,149.988098 
	C104.594994,149.610428 104.608543,149.673950 104.576065,149.674255 
	C110.130272,146.224060 113.423271,140.480728 118.071365,136.086716 
	C119.050224,135.161362 119.957687,134.173523 121.284409,133.112671 
	C123.669876,130.216171 126.382690,128.124664 128.706055,125.174011 
	C128.927322,124.894630 128.951553,124.952133 128.922806,124.940010 
	C131.692719,122.726730 134.175415,120.206093 136.656128,117.190231 
	C136.872437,116.915703 136.861481,116.862434 136.888123,116.867828 
	C138.294571,115.911118 139.313934,114.572357 140.710770,113.157242 
	C140.904175,112.888557 140.970551,112.970993 140.929062,112.938141 
	C142.288559,111.936996 143.291092,110.551384 144.743042,109.157562 
	C144.948929,108.894295 144.961212,108.957382 144.929077,108.956673 
	C150.231247,103.755310 150.494308,104.818336 144.907364,98.707565 
	C144.219879,97.955627 143.312637,97.112549 141.948669,96.479759 
	C141.592407,96.386162 141.726517,96.269020 141.673004,96.340164 
	C139.702759,93.588921 137.985764,90.523849 133.710907,90.272507 
	C133.384796,90.374825 133.115280,90.786453 132.937836,90.956848 
	C126.786629,94.979263 122.568901,100.661316 117.502930,105.976852 
	C117.348862,106.333771 117.042046,106.054733 117.191689,106.198685 
	C109.910789,112.910919 103.801132,120.764587 96.479691,127.962021 
	C96.309105,128.319016 96.100723,128.089050 96.212280,128.197021 
	C90.483414,132.799896 85.708626,138.389038 80.431129,143.972900 
	C80.271179,144.319565 80.258469,144.258102 80.289513,144.262680 
	C78.102577,145.332840 76.577888,147.282333 74.970505,148.974838 
	C72.911736,151.142654 71.504646,152.162308 69.149010,149.345200 
	C68.046036,148.026154 66.101318,147.412308 64.969749,145.436920 
	C64.571426,145.267029 64.733276,145.269211 64.732162,145.350128 
	C62.986012,142.692307 58.854416,140.984818 59.238724,137.618011 
	C59.579159,134.635574 63.567657,133.230042 65.525642,130.198410 
	C65.750137,129.846771 65.749527,129.757690 65.794067,129.757370 
	C71.354347,124.970665 76.397369,119.706779 81.529465,114.028198 
	C81.684235,113.679863 81.972763,113.954445 81.824844,113.821648 
	C87.337845,108.504913 93.611855,103.900986 97.273232,96.670151 
	C97.084991,96.336769 96.884712,96.011986 96.835907,95.827545 
	C96.675850,94.539650 95.556015,94.179321 94.740097,93.214180 
	C94.391411,93.090202 94.179649,93.073326 94.104141,92.998627 
	C93.853447,92.783508 93.678261,92.643097 93.289131,92.242569 
	C93.075195,91.982468 92.926620,91.847275 92.917297,91.747269 
	C92.678726,90.586548 91.588585,90.197960 90.760864,89.185669 
	C90.417740,89.034721 90.233017,89.037720 90.176102,88.964966 
	C89.925224,88.772484 89.731247,88.652756 89.363220,88.238701 
	C89.189178,87.944382 88.927475,87.634918 88.850777,87.447342 
	C84.556686,81.293144 81.811928,81.897552 78.180550,87.480782 
	C77.918243,87.749939 77.894821,87.884743 77.829193,87.904037 
	C77.486954,88.528839 76.792168,88.474274 76.276596,89.100311 
	C76.203003,89.381889 76.117905,89.171127 76.223282,89.128586 
	C75.894844,89.194107 75.551750,89.432655 75.239914,90.121422 
	C74.760193,90.928375 74.339973,91.415611 73.702072,92.013138 
	C72.989044,92.198723 72.585838,92.432739 72.205246,93.182297 
z"/>
<path fill="#25BF8B" opacity="1.000000" stroke="none" 
	d="
M151.956558,28.651890 
	C151.934845,28.911804 151.756149,28.894934 151.619186,28.810442 
	C140.137878,21.727909 138.109924,21.745760 126.379295,33.195251 
	C119.354454,40.051743 112.411934,46.995899 105.562943,54.027786 
	C102.303551,57.374226 99.344650,57.324162 96.155128,54.091171 
	C89.507355,47.352791 82.817436,40.655998 76.163666,33.923515 
	C74.527428,32.267925 73.032112,30.469374 71.354256,28.859262 
	C64.919563,22.684370 59.204777,22.568649 52.405552,28.204014 
	C50.508537,29.776302 49.135750,32.043324 46.251266,32.866974 
	C47.842796,29.747110 50.648754,27.337601 53.467648,25.056660 
	C59.190277,20.426144 65.885307,21.210815 71.801468,27.052172 
	C80.081337,35.227352 88.293602,43.471291 96.502228,51.718227 
	C100.773201,56.009132 101.231262,56.007694 105.592850,51.620094 
	C113.560242,43.605183 121.552902,35.615299 129.555237,27.635233 
	C137.149033,20.062563 144.351501,20.303720 151.956558,28.651890 
z"/>
<path fill="#24BE8A" opacity="1.000000" stroke="none" 
	d="
M26.576813,52.016018 
	C23.466600,58.743160 17.173702,63.102253 12.185402,68.602982 
	C10.959237,69.955101 9.594457,71.184303 8.402775,72.564445 
	C1.704107,80.322495 7.147666,90.650459 15.518171,91.870750 
	C14.746670,93.721367 13.370572,94.521172 11.406349,93.046883 
	C2.799710,86.586998 0.545319,77.451515 8.321487,69.953941 
	C14.385190,64.107483 20.304672,58.111443 26.576813,52.016018 
z"/>
<path fill="#25BF8B" opacity="1.000000" stroke="none" 
	d="
M185.737457,97.411148 
	C186.138962,94.206215 188.705246,92.275826 191.017197,90.168571 
	C197.823654,83.964783 198.030548,77.067322 191.504486,70.433121 
	C190.101608,69.007011 188.589981,67.720909 188.156494,65.273605 
	C190.813400,66.583656 192.863373,68.976265 194.946060,71.290161 
	C199.698074,76.569725 199.557953,84.049995 194.612869,89.112640 
	C191.857727,91.933258 188.916168,94.571785 185.737457,97.411148 
z"/>
<path fill="#24BE8A" opacity="1.000000" stroke="none" 
	d="
M45.375164,120.940422 
	C51.877552,110.504143 60.854931,102.028847 71.035667,94.325012 
	C63.522171,103.806534 54.229858,111.952705 45.375164,120.940422 
z"/>
<path fill="#25BF8B" opacity="1.000000" stroke="none" 
	d="
M104.290382,149.741318 
	C102.797432,155.560867 97.611900,158.802155 93.543076,162.783417 
	C90.024536,166.226227 89.166069,169.083939 92.536774,173.177582 
	C85.566315,168.569382 85.524460,168.138062 91.568298,162.154266 
	C95.705444,158.058212 99.846474,153.966080 104.290382,149.741318 
z"/>
<path fill="#24BE8A" opacity="1.000000" stroke="none" 
	d="
M96.585075,128.135132 
	C96.756279,127.264641 96.961937,125.990410 97.689430,125.191208 
	C102.817230,119.557961 108.015335,113.986877 113.289787,108.490768 
	C114.164276,107.579521 115.521851,107.131897 116.998756,106.406334 
	C111.252556,114.244957 103.805161,120.859589 96.585075,128.135132 
z"/>
<path fill="#24BE8A" opacity="1.000000" stroke="none" 
	d="
M17.587875,90.145874 
	C19.919418,84.061470 25.135794,79.947357 30.183102,76.133812 
	C33.846794,73.365669 36.452408,76.746109 37.934700,80.683105 
	C37.104465,80.327415 36.079395,79.743515 35.336826,78.908409 
	C33.175434,76.477669 31.347572,76.801018 29.180992,79.041481 
	C25.534868,82.811951 21.668293,86.369232 17.587875,90.145874 
z"/>
<path fill="#24BE8A" opacity="1.000000" stroke="none" 
	d="
M32.600639,104.996124 
	C30.701611,111.423065 35.951115,118.819244 44.684803,121.005722 
	C43.671204,124.029709 41.910702,124.003601 39.763306,121.798630 
	C37.123707,119.088287 34.427273,116.433083 31.743141,113.766396 
	C27.437281,109.488510 27.446556,109.275368 32.600639,104.996124 
z"/>
<path fill="#25BF8B" opacity="1.000000" stroke="none" 
	d="
M187.933411,64.599731 
	C181.595642,61.042812 176.084457,56.182674 172.156494,49.273621 
	C177.839890,53.533226 182.759186,58.975563 187.933411,64.599731 
z"/>
<path fill="#25BF8B" opacity="1.000000" stroke="none" 
	d="
M171.933441,48.599762 
	C165.580963,45.049667 160.095749,40.151970 156.115265,33.272846 
	C161.847916,37.487793 166.737991,42.978840 171.933441,48.599762 
z"/>
<path fill="#24BE8A" opacity="1.000000" stroke="none" 
	d="
M97.012634,96.648270 
	C97.802803,97.642059 97.780289,99.042831 96.821175,100.077080 
	C92.331367,104.918526 88.370117,110.342926 82.022720,113.628342 
	C86.278358,107.668747 92.964142,103.550369 97.012634,96.648270 
z"/>
<path fill="#24BE8A" opacity="1.000000" stroke="none" 
	d="
M65.470627,130.008423 
	C65.493507,130.629562 65.482574,131.751404 64.942368,132.142883 
	C59.331779,136.208771 61.195141,140.440826 64.619873,145.095062 
	C61.985878,144.634491 60.753838,142.052689 58.808468,140.323242 
	C57.261326,138.947830 57.749638,137.421921 59.185291,136.068024 
	C61.226192,134.143356 63.192783,132.139893 65.470627,130.008423 
z"/>
<path fill="#24BE8A" opacity="1.000000" stroke="none" 
	d="
M117.654686,106.203773 
	C120.826668,99.884705 125.352310,94.456703 132.430695,91.161102 
	C128.117798,96.397263 123.273048,101.467125 117.654686,106.203773 
z"/>
<path fill="#24BE8A" opacity="1.000000" stroke="none" 
	d="
M81.404922,113.857338 
	C78.353600,120.641968 72.511795,125.212685 66.170090,129.690033 
	C70.384872,123.982101 75.980988,119.227951 81.404922,113.857338 
z"/>
<path fill="#25BF8B" opacity="1.000000" stroke="none" 
	d="
M121.788467,132.757843 
	C116.334656,138.393204 112.487198,145.684174 104.890045,149.588135 
	C109.376694,143.785629 114.717026,138.381927 120.591263,133.056732 
	C121.096489,132.770111 121.306877,132.633636 121.788467,132.757843 
z"/>
<path fill="#24BE8A" opacity="1.000000" stroke="none" 
	d="
M80.558105,144.147491 
	C83.786385,137.470993 89.366478,132.618210 95.977646,128.366196 
	C91.164230,133.528488 86.004623,138.751953 80.558105,144.147491 
z"/>
<path fill="#25BF8B" opacity="1.000000" stroke="none" 
	d="
M117.720192,165.338562 
	C121.169426,158.834839 126.635468,153.867020 133.150055,149.493484 
	C129.000534,155.318253 123.437935,160.191071 117.720192,165.338562 
z"/>
<path fill="#24BE8A" opacity="1.000000" stroke="none" 
	d="
M64.674011,145.599823 
	C65.285797,145.654861 66.108032,145.922394 66.696800,146.450302 
	C70.172981,149.567123 73.446915,150.067535 76.728310,146.111115 
	C77.402992,145.297638 78.646446,144.955887 79.974144,144.331970 
	C79.675354,145.010910 79.043617,145.766785 78.382874,146.496353 
	C71.332207,154.281403 71.321556,154.279861 64.674011,145.599823 
z"/>
<path fill="#25BF8B" opacity="1.000000" stroke="none" 
	d="
M133.720215,149.338531 
	C137.169449,142.834839 142.635468,137.867004 149.150055,133.493484 
	C145.000504,139.318207 139.437958,144.191071 133.720215,149.338531 
z"/>
<path fill="#24BE8A" opacity="1.000000" stroke="none" 
	d="
M141.772614,96.667023 
	C143.495956,96.524727 144.925400,97.569336 146.285660,98.787895 
	C150.651306,102.698738 150.461761,105.364555 145.224380,108.845612 
	C148.279861,103.638817 148.279861,103.638817 141.772614,96.667023 
z"/>
<path fill="#25BF8B" opacity="1.000000" stroke="none" 
	d="
M105.652405,177.297424 
	C107.367897,171.720032 112.442192,168.998260 117.150085,165.493469 
	C114.269539,169.932144 110.166672,173.606400 105.652405,177.297424 
z"/>
<path fill="#24BE8A" opacity="1.000000" stroke="none" 
	d="
M78.226463,87.625259 
	C78.440628,84.822975 80.079292,82.820305 83.071838,82.492790 
	C85.992630,82.173119 87.586182,84.102943 88.691963,86.923302 
	C85.271492,83.536293 81.848045,83.178215 78.226463,87.625259 
z"/>
<path fill="#25BF8B" opacity="1.000000" stroke="none" 
	d="
M169.737396,113.411194 
	C170.575287,109.642197 173.244415,107.163902 177.199921,105.477448 
	C175.763855,108.701859 172.894287,110.981148 169.737396,113.411194 
z"/>
<path fill="#25BF8B" opacity="1.000000" stroke="none" 
	d="
M96.708252,177.540344 
	C99.293800,178.296204 101.978584,179.111389 105.084976,177.395416 
	C101.995720,182.662262 100.610817,182.753708 96.708252,177.540344 
z"/>
<path fill="#24BE8A" opacity="1.000000" stroke="none" 
	d="
M133.706726,90.469978 
	C138.610168,88.312950 139.665298,92.618073 141.569580,96.057144 
	C138.882492,94.730995 137.473816,91.325966 133.706726,90.469978 
z"/>
<path fill="#25BF8B" opacity="1.000000" stroke="none" 
	d="
M153.727325,129.266754 
	C154.558472,125.478958 157.712357,123.528305 161.225647,121.487900 
	C159.823456,124.714973 156.824615,126.838135 153.727325,129.266754 
z"/>
<path fill="#24BE8A" opacity="1.000000" stroke="none" 
	d="
M122.318222,132.815338 
	C121.863892,133.000412 121.668121,132.982315 121.179222,132.935394 
	C122.893906,129.870010 125.459419,127.362694 128.608124,125.000259 
	C127.778542,128.263733 125.071846,130.350876 122.318222,132.815338 
z"/>
<path fill="#24BE8A" opacity="1.000000" stroke="none" 
	d="
M136.561768,117.023804 
	C135.517319,120.537689 132.881775,122.961128 129.223389,124.831627 
	C130.656708,121.678360 133.584991,119.528847 136.561768,117.023804 
z"/>
<path fill="#24BE8A" opacity="1.000000" stroke="none" 
	d="
M40.517845,97.050217 
	C39.466614,100.539619 36.745537,102.855324 33.216202,104.819008 
	C34.645653,101.685387 37.530796,99.516342 40.517845,97.050217 
z"/>
<path fill="#25BF8B" opacity="1.000000" stroke="none" 
	d="
M177.710327,105.425903 
	C178.919296,101.984123 181.647766,99.551567 185.224640,97.492844 
	C183.759247,100.694946 180.877487,102.981796 177.710327,105.425903 
z"/>
<path fill="#25BF8B" opacity="1.000000" stroke="none" 
	d="
M161.720856,121.420273 
	C162.922302,117.975365 165.652359,115.550278 169.224640,113.492844 
	C167.762238,116.693062 164.880157,118.975586 161.720856,121.420273 
z"/>
<path fill="#24BE8A" opacity="1.000000" stroke="none" 
	d="
M42.132935,85.341156 
	C45.217682,86.601189 49.169979,87.820938 45.129440,92.692749 
	C47.017792,89.349976 43.828045,87.783928 42.132935,85.341156 
z"/>
<path fill="#25BF8B" opacity="1.000000" stroke="none" 
	d="
M37.572121,41.041252 
	C37.344257,43.341190 36.160202,45.183842 33.243401,45.872070 
	C34.357414,44.342220 35.816193,42.751602 37.572121,41.041252 
z"/>
<path fill="#25BF8B" opacity="1.000000" stroke="none" 
	d="
M45.632950,33.030884 
	C45.630581,34.903313 44.606846,36.264854 42.262920,36.827248 
	C43.062012,35.633595 44.197235,34.388390 45.632950,33.030884 
z"/>
<path fill="#24BE8A" opacity="1.000000" stroke="none" 
	d="
M140.596542,112.991508 
	C140.439453,114.734863 139.320374,116.003487 137.230103,116.783165 
	C137.517212,115.147293 138.833466,114.058723 140.596542,112.991508 
z"/>
<path fill="#24BE8A" opacity="1.000000" stroke="none" 
	d="
M144.637299,108.998596 
	C144.455902,110.748550 143.284683,111.995369 141.206757,112.810616 
	C141.501007,111.156250 142.834961,110.058716 144.637299,108.998596 
z"/>
<path fill="#25BF8B" opacity="1.000000" stroke="none" 
	d="
M92.635300,173.705597 
	C94.421738,173.841858 95.724197,175.010086 96.679214,177.066284 
	C94.911949,176.914597 93.721924,175.597443 92.635300,173.705597 
z"/>
<path fill="#24BE8A" opacity="1.000000" stroke="none" 
	d="
M44.531071,92.980148 
	C44.364033,94.669655 43.323242,95.967056 41.258961,96.730064 
	C41.511597,95.104065 42.867462,94.091240 44.531071,92.980148 
z"/>
<path fill="#24BE8A" opacity="1.000000" stroke="none" 
	d="
M38.107407,81.289902 
	C39.830620,81.461288 41.020943,82.668594 41.841652,84.713562 
	C40.317963,84.299995 39.330761,82.887932 38.107407,81.289902 
z"/>
<path fill="#25BF8B" opacity="1.000000" stroke="none" 
	d="
M149.713104,133.343353 
	C149.943436,131.657990 151.102875,130.402298 153.085114,129.491730 
	C152.834366,131.164200 151.512817,132.271973 149.713104,133.343353 
z"/>
<path fill="#25BF8B" opacity="1.000000" stroke="none" 
	d="
M32.648125,46.023220 
	C32.657936,47.279148 31.887402,48.260189 30.228348,48.851440 
	C30.728666,48.008919 31.547091,47.084442 32.648125,46.023220 
z"/>
<path fill="#25BF8B" opacity="1.000000" stroke="none" 
	d="
M155.958832,32.662987 
	C154.770386,32.580685 153.818924,31.775955 153.128815,30.230831 
	C153.957581,30.742445 154.892395,31.559624 155.958832,32.662987 
z"/>
<path fill="#25BF8B" opacity="1.000000" stroke="none" 
	d="
M29.638241,49.024975 
	C29.613251,50.278996 28.847267,51.246658 27.174978,51.781418 
	C27.689199,50.958958 28.515896,50.045311 29.638241,49.024975 
z"/>
<path fill="#25BF8B" opacity="1.000000" stroke="none" 
	d="
M40.601830,38.025536 
	C40.527218,39.184662 39.749428,40.116779 38.230957,40.768555 
	C38.732723,39.962925 39.530048,39.061752 40.601830,38.025536 
z"/>
<path fill="#24BE8A" opacity="1.000000" stroke="none" 
	d="
M90.558502,89.378555 
	C91.127655,89.691132 91.837570,90.347542 92.727737,91.325607 
	C92.171745,91.005630 91.435509,90.364006 90.558502,89.378555 
z"/>
<path fill="#24BE8A" opacity="1.000000" stroke="none" 
	d="
M94.541153,93.419571 
	C95.083839,93.729492 95.776268,94.368774 96.627907,95.325577 
	C96.088371,95.011711 95.389633,94.380325 94.541153,93.419571 
z"/>
<path fill="#24BE8A" opacity="1.000000" stroke="none" 
	d="
M76.468201,89.288193 
	C76.565140,88.982422 76.927277,88.582962 77.526489,88.053406 
	C77.420174,88.347046 77.076782,88.770767 76.468201,89.288193 
z"/>
<path fill="#24BE8A" opacity="1.000000" stroke="none" 
	d="
M16.196093,91.748238 
	C16.250914,91.406265 16.574715,90.939400 17.127125,90.296288 
	C17.058846,90.621140 16.761959,91.122238 16.196093,91.748238 
z"/>
<path fill="#25BF8B" opacity="1.000000" stroke="none" 
	d="
M152.982330,29.735531 
	C152.809570,29.772995 152.553406,29.555458 152.158661,29.125408 
	C152.313049,29.102108 152.605988,29.291319 152.982330,29.735531 
z"/>
<path fill="#24BE8A" opacity="1.000000" stroke="none" 
	d="
M72.429520,93.375992 
	C72.413933,93.202904 72.692139,92.866714 73.227364,92.326981 
	C73.230698,92.486595 72.977005,92.849747 72.429520,93.375992 
z"/>
<path fill="#25BF8B" opacity="1.000000" stroke="none" 
	d="
M41.666798,36.981499 
	C41.745346,37.184078 41.532478,37.434536 41.072086,37.788513 
	C41.051765,37.641529 41.235371,37.353977 41.666798,36.981499 
z"/>
<path fill="#24BE8A" opacity="1.000000" stroke="none" 
	d="
M89.250610,88.177368 
	C89.452530,88.091400 89.679008,88.282204 89.993904,88.704498 
	C89.770607,88.864792 89.501556,88.704178 89.250610,88.177368 
z"/>
<path fill="#24BE8A" opacity="1.000000" stroke="none" 
	d="
M75.448105,90.289215 
	C75.413010,90.121429 75.645607,89.801720 76.103439,89.284027 
	C76.124382,89.436462 75.920090,89.786873 75.448105,90.289215 
z"/>
<path fill="#24BE8A" opacity="1.000000" stroke="none" 
	d="
M93.144951,92.215317 
	C93.347496,92.122551 93.581055,92.310722 93.902252,92.735458 
	C93.675026,92.906136 93.403709,92.747543 93.144951,92.215317 
z"/>
</svg>
