
<svg width="120" height="24" viewBox="0 -3 25 27" fill="none" xmlns="http://www.w3.org/2000/svg">
<path fill-rule="evenodd" clip-rule="evenodd" d="M12 20.5846C14.2992 20.5846 16.3873 19.6807 17.9283 18.209L11.9889 12.3816L6.00463 18.1442C7.55187 19.6542 9.66728 20.5846 12 20.5846ZM13.4272 9.0081L19.9019 15.3606C20.3414 14.3285 20.5846 13.1926 20.5846 12C20.5846 7.25885 16.7412 3.41538 12 3.41538C7.25885 3.41538 3.41538 7.25885 3.41538 12C3.41538 13.1593 3.64517 14.2649 4.06167 15.2737L10.5821 8.99481C11.3778 8.22857 12.6387 8.23446 13.4272 9.0081ZM12 24C18.6274 24 24 18.6274 24 12C24 5.37258 18.6274 0 12 0C5.37258 0 0 5.37258 0 12C0 18.6274 5.37258 24 12 24ZM88.0243 6.67214C87.1763 5.69614 86.0163 5.20814 84.5443 5.20814C82.9923 5.20814 81.6883 5.71214 80.6323 6.72014V0.840144H77.1283V18.4801H80.6323V11.6641C80.6323 10.6241 80.8963 9.80014 81.4243 9.19214C81.9523 8.58414 82.6563 8.28014 83.5363 8.28014C84.3204 8.28014 84.8883 8.52014 85.2403 9.00014C85.6083 9.48014 85.7923 10.2081 85.7923 11.1841V18.4801H89.2963V10.6081C89.2963 8.96014 88.8723 7.64814 88.0243 6.67214ZM42.8393 5.49615H40.2233L39.8393 6.74414C38.6553 5.68814 37.2393 5.16014 35.5913 5.16014C33.6393 5.16014 32.0153 5.80814 30.7193 7.10414C29.4393 8.40014 28.7993 10.0241 28.7993 11.9761C28.7993 13.9441 29.4393 15.5841 30.7193 16.8961C32.0153 18.1921 33.6393 18.8401 35.5913 18.8401C37.2073 18.8401 38.6073 18.3281 39.7913 17.3041L40.0793 18.4561H42.8393V5.49615ZM35.8553 15.5281C34.8473 15.5281 34.0073 15.1921 33.3353 14.5201C32.6793 13.8481 32.3513 13.0001 32.3513 11.9761C32.3513 11.3041 32.5033 10.7041 32.8073 10.1761C33.1113 9.63214 33.5273 9.20814 34.0553 8.90414C34.5993 8.58414 35.2073 8.42414 35.8793 8.42414C36.8873 8.42414 37.7273 8.76014 38.3993 9.43215C39.0713 10.1041 39.4073 10.9521 39.4073 11.9761C39.4073 13.0001 39.0713 13.8481 38.3993 14.5201C37.7273 15.1921 36.8793 15.5281 35.8553 15.5281ZM57.5376 7.10414C56.2576 5.80814 54.6416 5.16014 52.6896 5.16014C51.0736 5.16014 49.6896 5.67214 48.5376 6.69614L47.9376 5.52014H45.6096V23.1601H49.1136V17.7841C50.1696 18.5041 51.3616 18.8641 52.6896 18.8641C54.6256 18.8641 56.2416 18.2161 57.5376 16.9201C58.8336 15.6081 59.4816 13.9681 59.4816 12.0001C59.4816 10.0321 58.8336 8.40014 57.5376 7.10414ZM52.3776 15.5521C51.3696 15.5521 50.5296 15.2161 49.8576 14.5441C49.2016 13.8721 48.8736 13.0241 48.8736 12.0001C48.8736 11.3281 49.0176 10.7201 49.3056 10.1761C49.6096 9.63214 50.0336 9.20814 50.5776 8.90414C51.1216 8.60014 51.7296 8.44814 52.4016 8.44814C53.0736 8.44814 53.6736 8.60014 54.2016 8.90414C54.7456 9.20814 55.1696 9.63214 55.4736 10.1761C55.7776 10.7201 55.9296 11.3281 55.9296 12.0001C55.9296 13.0241 55.5936 13.8721 54.9216 14.5441C54.2496 15.2161 53.4016 15.5521 52.3776 15.5521ZM68.449 5.16014C70.401 5.16014 72.017 5.80814 73.297 7.10414C74.593 8.40014 75.241 10.0321 75.241 12.0001C75.241 13.9681 74.593 15.6081 73.297 16.9201C72.001 18.2161 70.385 18.8641 68.449 18.8641C67.121 18.8641 65.929 18.5041 64.873 17.7841V23.1601H61.369V5.52014H63.697L64.297 6.69614C65.449 5.67214 66.833 5.16014 68.449 5.16014ZM65.617 14.5441C66.289 15.2161 67.129 15.5521 68.137 15.5521C69.161 15.5521 70.009 15.2161 70.681 14.5441C71.353 13.8721 71.689 13.0241 71.689 12.0001C71.689 11.3281 71.537 10.7201 71.233 10.1761C70.929 9.63214 70.505 9.20814 69.961 8.90414C69.433 8.60014 68.833 8.44814 68.161 8.44814C67.489 8.44814 66.881 8.60014 66.337 8.90414C65.793 9.20814 65.369 9.63214 65.065 10.1761C64.777 10.7201 64.633 11.3281 64.633 12.0001C64.633 13.0241 64.961 13.8721 65.617 14.5441ZM102.223 17.2561C101.119 18.3121 99.6473 18.8401 97.8074 18.8401C95.9833 18.8401 94.5113 18.3041 93.3913 17.2321C92.2873 16.1601 91.7353 14.7521 91.7353 13.0081V5.52014H95.2393V12.6001C95.2393 13.5281 95.4633 14.2561 95.9114 14.7841C96.3754 15.2961 97.0073 15.5521 97.8074 15.5521C98.6234 15.5521 99.2553 15.2961 99.7034 14.7841C100.167 14.2561 100.399 13.5281 100.399 12.6001V5.52014H103.903V13.0081C103.903 14.7681 103.343 16.1841 102.223 17.2561ZM119.523 0.840144H116.019V6.21614C114.963 5.51214 113.779 5.16014 112.467 5.16014C111.171 5.16014 110.003 5.45614 108.963 6.04814C107.923 6.64014 107.107 7.45614 106.515 8.49615C105.939 9.53615 105.651 10.7041 105.651 12.0001C105.651 13.2961 105.939 14.4721 106.515 15.5281C107.107 16.5681 107.923 17.3841 108.963 17.9761C110.003 18.5681 111.171 18.8641 112.467 18.8641C114.019 18.8641 115.371 18.3761 116.523 17.4001L116.931 18.4801H119.523V0.840144ZM112.731 15.5521C111.723 15.5521 110.883 15.2161 110.211 14.5441C109.539 13.8721 109.203 13.0241 109.203 12.0001C109.203 10.9761 109.539 10.1281 110.211 9.45614C110.883 8.78414 111.723 8.44814 112.731 8.44814C113.755 8.44814 114.603 8.78414 115.275 9.45614C115.947 10.1281 116.283 10.9761 116.283 12.0001C116.283 13.0081 115.947 13.8561 115.275 14.5441C114.603 15.2161 113.755 15.5521 112.731 15.5521Z" fill="#0084FF"/>
</svg>
