<svg version="1.1" id="Layer_1" xmlns="http://www.w3.org/2000/svg" xmlns:xlink="http://www.w3.org/1999/xlink" x="0px" y="0px"
	 width="100%" viewBox="0 0 200 200" enable-background="new 0 0 200 200" xml:space="preserve">
<path fill="#F9FBFE" opacity="1.000000" stroke="none" 
	d="
M0.999999,154.000000 
	C1.000000,119.645775 1.000000,85.291542 1.422753,50.467316 
	C3.790524,49.667507 5.723748,49.198151 7.682647,49.032585 
	C15.248725,48.393101 16.904152,46.757259 16.947598,38.896061 
	C16.965744,35.612698 17.927225,33.151295 21.357031,32.827099 
	C29.278288,32.078354 31.836409,26.792639 33.160271,20.000507 
	C33.385021,18.847416 35.100178,17.385235 36.332851,17.151171 
	C39.020554,16.640816 41.868080,17.023109 44.594425,16.641493 
	C45.765095,16.477633 47.719547,15.352066 47.745102,14.609326 
	C47.944645,8.809162 49.873569,4.098638 55.000000,1.000000 
	C84.020897,1.000000 113.041786,1.000000 142.539612,1.401508 
	C144.017212,5.772813 144.338516,9.123798 149.332932,11.732377 
	C152.932358,13.612354 156.037155,17.255550 160.607040,18.219372 
	C160.994736,18.301142 161.253876,18.944899 161.593796,19.307850 
	C165.415009,23.387842 169.176041,27.527914 173.116379,31.489584 
	C173.949615,32.327324 175.404709,32.749725 176.639450,32.944942 
	C179.734375,33.434250 182.968002,33.329075 185.943649,34.174484 
	C187.502701,34.617428 189.501129,36.377415 189.811844,37.855637 
	C191.165375,44.295326 192.137573,50.829823 192.933044,57.368237 
	C193.812347,64.595444 193.870117,64.837051 201.000000,66.000000 
	C201.000000,91.687561 201.000000,117.375122 200.567657,143.531342 
	C192.299820,144.026718 192.006760,144.321167 192.000061,152.174667 
	C191.999496,152.839371 191.945160,153.509384 192.009155,154.167862 
	C192.334686,157.517212 191.725800,159.951172 187.607437,160.427856 
	C186.332474,160.575424 185.137299,162.293381 184.108841,163.470016 
	C182.772141,164.999283 181.644669,166.710693 180.415131,168.334625 
	C179.429031,169.637039 177.628860,170.893417 177.574478,172.226685 
	C177.392929,176.677109 174.543823,178.186615 171.014755,178.930862 
	C168.248260,179.514297 165.371552,179.575195 162.384277,179.884781 
	C161.937881,182.437546 161.733582,185.275055 160.871033,187.895950 
	C160.374557,189.404572 159.002762,191.454773 157.699539,191.732147 
	C149.865479,193.399506 141.974258,194.953140 134.023788,195.849823 
	C130.344482,196.264786 128.962769,197.602203 129.000000,201.000000 
	C113.312439,201.000000 97.624878,201.000000 81.464005,200.629684 
	C78.822502,194.540833 76.914261,193.941162 71.668823,195.347656 
	C68.881508,196.095047 65.585106,195.188995 62.563934,194.730133 
	C60.648010,194.439133 58.846191,193.228241 56.940281,193.070908 
	C50.686298,192.554611 44.389366,192.511459 38.153133,191.862091 
	C36.690636,191.709808 34.278679,189.955551 34.210587,188.823608 
	C33.652573,179.547028 29.798754,178.153137 21.831444,175.895325 
	C20.183884,175.428421 18.490824,173.665222 17.682316,172.063538 
	C16.674175,170.066391 16.087496,167.602402 16.158907,165.366837 
	C16.311348,160.594635 13.573132,160.159027 9.825475,159.866165 
	C7.586792,159.691208 5.330241,158.397568 3.319753,157.205383 
	C2.278912,156.588165 1.756582,155.096573 0.999999,154.000000 
M62.582611,68.074669 
	C61.059177,69.715088 59.535744,71.355507 57.381901,73.262451 
	C56.006985,73.420692 54.632069,73.578941 51.873306,73.896461 
	C53.817642,76.452225 55.202595,78.272697 57.131599,80.808311 
	C54.617214,81.231178 52.544270,81.579796 49.542450,82.084633 
	C49.057991,86.997940 47.915100,92.389542 48.146454,97.721519 
	C48.478737,105.379807 46.314167,113.366081 50.779232,120.692772 
	C51.558746,121.971886 50.345501,124.452309 50.086250,126.382416 
	C49.925423,127.579727 49.337902,129.033478 49.796425,129.939835 
	C51.039181,132.396362 52.737911,134.622223 54.855675,137.855316 
	C59.812061,135.232178 63.996738,139.027817 66.964691,141.079758 
	C66.398483,142.278976 65.138741,143.697525 65.377411,144.788193 
	C65.622849,145.909729 67.178085,147.150696 68.422699,147.582275 
	C77.151352,150.609055 85.793465,154.270477 94.795097,155.944733 
	C98.662041,156.663971 103.074226,155.067322 106.852623,157.814102 
	C107.004700,157.924652 107.590942,157.721924 107.744850,157.503235 
	C109.880699,154.468384 115.744255,153.590012 113.264847,147.799210 
	C112.922760,147.000275 113.859985,145.653580 114.792702,144.937576 
	C120.119705,151.022141 125.485374,157.073486 130.754227,163.208008 
	C132.790298,165.578613 135.175842,166.424850 137.647995,164.465622 
	C140.435150,162.256760 139.740631,159.562637 137.666138,157.102219 
	C134.903687,153.825851 132.129013,150.559769 130.188202,147.140976 
	C137.586670,146.842590 139.005447,137.882019 145.636490,136.459473 
	C145.732224,136.438934 145.796555,136.180222 145.840469,136.022858 
	C148.060226,128.068985 154.126144,121.580345 153.321869,112.329559 
	C152.590607,103.918579 153.704971,95.351456 153.879272,86.850571 
	C153.896194,86.024696 153.221863,84.908340 152.523987,84.395767 
	C150.402344,82.837463 148.047623,81.597771 145.914154,80.053711 
	C144.851669,79.284760 143.392212,78.192703 143.281998,77.125946 
	C142.712402,71.613487 142.521164,66.061943 142.198395,60.531303 
	C141.930893,60.531303 141.587860,60.451565 141.300644,60.544434 
	C139.614151,61.089725 137.076294,62.657566 136.414383,62.075085 
	C133.733047,59.715473 136.743851,58.289566 137.899780,56.451256 
	C138.757065,55.087910 138.959396,53.312737 139.453476,51.721012 
	C138.993484,51.621628 138.533478,51.522240 138.073471,51.422855 
	C132.271912,57.568432 132.271912,57.568432 130.196198,56.050495 
	C132.784012,53.181919 135.511871,50.436539 137.858521,47.396873 
	C138.618912,46.411934 138.380371,44.655819 138.804825,42.662025 
	C140.161484,39.783218 139.678802,36.931950 136.660172,36.160873 
	C134.885101,35.707443 132.326996,37.159939 130.510162,38.349442 
	C128.623932,39.584389 127.206924,41.535988 124.781509,43.045479 
	C123.234138,42.032303 121.686775,41.019127 119.183266,39.379894 
	C119.980461,43.073631 120.556526,45.742775 121.067917,48.758011 
	C120.959732,48.977016 120.793808,49.135544 119.707771,49.115582 
	C113.362053,49.622860 107.016327,50.130138 100.330482,50.664608 
	C99.902725,47.459671 98.565346,46.209286 94.237152,48.565777 
	C88.815804,51.517433 82.735085,53.261223 76.926025,55.492676 
	C76.328941,55.722038 75.643280,55.816319 74.999382,55.813648 
	C68.101006,55.785019 65.142906,58.789513 64.994492,66.600174 
	C64.986549,66.993561 64.978607,67.386955 64.488419,68.070450 
	C64.116798,68.098839 63.745171,68.127228 62.582611,68.074669 
M135.439072,147.706955 
	C135.708237,147.989151 135.977417,148.271332 136.246597,148.553513 
	C136.363403,148.441940 136.587891,148.239456 136.581497,148.231873 
	C136.330261,147.934235 136.058014,147.654343 135.439072,147.706955 
z"/>
<path fill="#F6F9FE" opacity="1.000000" stroke="none" 
	d="
M201.000000,65.531342 
	C193.870117,64.837051 193.812347,64.595444 192.933044,57.368237 
	C192.137573,50.829823 191.165375,44.295326 189.811844,37.855637 
	C189.501129,36.377415 187.502701,34.617428 185.943649,34.174484 
	C182.968002,33.329075 179.734375,33.434250 176.639450,32.944942 
	C175.404709,32.749725 173.949615,32.327324 173.116379,31.489584 
	C169.176041,27.527914 165.415009,23.387842 161.593796,19.307850 
	C161.253876,18.944899 160.994736,18.301142 160.607040,18.219372 
	C156.037155,17.255550 152.932358,13.612354 149.332932,11.732377 
	C144.338516,9.123798 144.017212,5.772813 143.008270,1.401508 
	C162.264313,1.000000 181.528625,1.000000 201.000000,1.000000 
	C201.000000,22.353781 201.000000,43.708233 201.000000,65.531342 
z"/>
<path fill="#F6F9FE" opacity="1.000000" stroke="none" 
	d="
M129.468658,201.000000 
	C128.962769,197.602203 130.344482,196.264786 134.023788,195.849823 
	C141.974258,194.953140 149.865479,193.399506 157.699539,191.732147 
	C159.002762,191.454773 160.374557,189.404572 160.871033,187.895950 
	C161.733582,185.275055 161.937881,182.437546 162.384277,179.884781 
	C165.371552,179.575195 168.248260,179.514297 171.014755,178.930862 
	C174.543823,178.186615 177.392929,176.677109 177.574478,172.226685 
	C177.628860,170.893417 179.429031,169.637039 180.415131,168.334625 
	C181.644669,166.710693 182.772141,164.999283 184.108841,163.470016 
	C185.137299,162.293381 186.332474,160.575424 187.607437,160.427856 
	C191.725800,159.951172 192.334686,157.517212 192.009155,154.167862 
	C191.945160,153.509384 191.999496,152.839371 192.000061,152.174667 
	C192.006760,144.321167 192.299820,144.026718 200.567657,144.000000 
	C201.000000,162.935333 201.000000,181.870682 201.000000,201.000000 
	C177.312790,201.000000 153.625061,201.000000 129.468658,201.000000 
z"/>
<path fill="#F5F8FE" opacity="1.000000" stroke="none" 
	d="
M54.531342,1.000000 
	C49.873569,4.098638 47.944645,8.809162 47.745102,14.609326 
	C47.719547,15.352066 45.765095,16.477633 44.594425,16.641493 
	C41.868080,17.023109 39.020554,16.640816 36.332851,17.151171 
	C35.100178,17.385235 33.385021,18.847416 33.160271,20.000507 
	C31.836409,26.792639 29.278288,32.078354 21.357031,32.827099 
	C17.927225,33.151295 16.965744,35.612698 16.947598,38.896061 
	C16.904152,46.757259 15.248725,48.393101 7.682647,49.032585 
	C5.723748,49.198151 3.790524,49.667507 1.422753,49.998657 
	C1.000000,33.736351 1.000000,17.472702 1.000000,1.000000 
	C18.687012,1.000000 36.374847,1.000000 54.531342,1.000000 
z"/>
<path fill="#F6F8FE" opacity="1.000000" stroke="none" 
	d="
M0.999999,154.468658 
	C1.756582,155.096573 2.278912,156.588165 3.319753,157.205383 
	C5.330241,158.397568 7.586792,159.691208 9.825475,159.866165 
	C13.573132,160.159027 16.311348,160.594635 16.158907,165.366837 
	C16.087496,167.602402 16.674175,170.066391 17.682316,172.063538 
	C18.490824,173.665222 20.183884,175.428421 21.831444,175.895325 
	C29.798754,178.153137 33.652573,179.547028 34.210587,188.823608 
	C34.278679,189.955551 36.690636,191.709808 38.153133,191.862091 
	C44.389366,192.511459 50.686298,192.554611 56.940281,193.070908 
	C58.846191,193.228241 60.648010,194.439133 62.563934,194.730133 
	C65.585106,195.188995 68.881508,196.095047 71.668823,195.347656 
	C76.914261,193.941162 78.822502,194.540833 80.995346,200.629684 
	C54.425518,201.000000 27.851038,201.000000 1.000000,201.000000 
	C1.000000,185.646881 1.000000,170.292099 0.999999,154.468658 
z"/>
<path fill="#FCFDFD" opacity="1.000000" stroke="none" 
	d="
M114.204941,144.560455 
	C113.859985,145.653580 112.922760,147.000275 113.264847,147.799210 
	C115.744255,153.590012 109.880699,154.468384 107.744850,157.503235 
	C107.590942,157.721924 107.004700,157.924652 106.852623,157.814102 
	C103.074226,155.067322 98.662041,156.663971 94.795097,155.944733 
	C85.793465,154.270477 77.151352,150.609055 68.422699,147.582275 
	C67.178085,147.150696 65.622849,145.909729 65.377411,144.788193 
	C65.138741,143.697525 66.398483,142.278976 66.964691,141.079758 
	C63.996738,139.027817 59.812061,135.232178 54.855675,137.855316 
	C52.737911,134.622223 51.039181,132.396362 49.796425,129.939835 
	C49.337902,129.033478 49.925423,127.579727 50.086250,126.382416 
	C50.345501,124.452309 51.558746,121.971886 50.779232,120.692772 
	C46.314167,113.366081 48.478737,105.379807 48.146454,97.721519 
	C47.915100,92.389542 49.057991,86.997940 49.542450,82.084633 
	C52.544270,81.579796 54.617214,81.231178 57.131599,80.808311 
	C55.202595,78.272697 53.817642,76.452225 51.873306,73.896461 
	C54.632069,73.578941 56.006985,73.420692 58.025459,73.273544 
	C60.061741,73.528786 61.454460,73.772942 62.957924,74.183411 
	C63.068668,74.349716 63.113644,74.746788 63.075310,75.195190 
	C63.036976,77.625801 63.036976,79.608009 63.036976,81.590210 
	C63.463173,81.785172 63.889370,81.980133 64.315567,82.175095 
	C65.256393,81.355164 66.197220,80.535240 67.408585,79.930092 
	C71.133331,84.072968 74.587547,88.001053 78.019623,91.957603 
	C77.997490,91.986069 78.065353,91.961670 78.136551,92.315361 
	C82.218338,97.314339 91.954636,97.016678 95.111671,92.096039 
	C95.035271,92.042152 95.158470,92.182816 95.472145,92.073425 
	C98.849838,88.304230 101.913849,84.644424 104.989082,80.992310 
	C105.000305,81.000000 104.983482,80.978310 105.283661,80.854080 
	C106.486130,79.531982 107.388405,78.334122 108.484985,77.055496 
	C108.923790,76.803436 109.068184,76.570168 109.367050,76.157608 
	C109.792488,75.717865 109.963348,75.395439 110.083130,75.066605 
	C110.032043,75.060188 110.104843,75.133018 110.409546,75.032913 
	C111.253395,74.042671 111.792526,73.152527 112.271126,72.303604 
	C112.210587,72.344833 112.351883,72.306183 112.634674,72.223152 
	C113.368408,71.520370 113.819344,70.900620 114.131073,70.215820 
	C113.991867,70.150764 114.272964,70.264626 114.582397,70.153442 
	C116.946602,67.374580 119.001358,64.706909 121.030540,62.018940 
	C121.004967,61.998638 121.033928,62.057076 121.278595,61.970360 
	C121.687790,61.589272 121.852318,61.294899 122.244553,60.903141 
	C122.756325,60.602585 122.929382,60.329163 123.229965,59.906082 
	C123.623825,59.542862 123.779160,59.259048 123.965271,58.986168 
	C123.996056,58.997097 123.964134,58.940090 124.235123,58.839951 
	C124.785141,58.252357 125.064171,57.764908 125.243942,57.156536 
	C125.144691,57.035618 125.305969,57.303707 125.550903,57.223343 
	C125.965546,56.855301 126.135246,56.567627 126.316154,56.285622 
	C126.327354,56.291286 126.343826,56.310249 126.633316,56.212482 
	C127.307808,55.427235 127.692818,54.739754 128.045807,54.027531 
	C128.013794,54.002785 128.043442,54.078091 128.296158,53.994827 
	C128.718811,53.613007 128.888763,53.314457 129.272369,52.907650 
	C129.753647,52.598110 129.923309,52.333923 130.307526,51.885338 
	C132.424026,49.516460 134.228027,47.269073 136.021210,45.012924 
	C136.010376,45.004162 136.022125,45.033241 136.317825,44.923172 
	C137.275284,44.292892 137.937027,43.772678 138.598770,43.252457 
	C138.380371,44.655819 138.618912,46.411934 137.858521,47.396873 
	C135.511871,50.436539 132.784012,53.181919 130.196198,56.050495 
	C132.271912,57.568432 132.271912,57.568432 138.073471,51.422855 
	C138.533478,51.522240 138.993484,51.621628 139.453476,51.721012 
	C138.959396,53.312737 138.757065,55.087910 137.899780,56.451256 
	C136.743851,58.289566 133.733047,59.715473 136.414383,62.075085 
	C137.076294,62.657566 139.614151,61.089725 141.300644,60.544434 
	C141.587860,60.451565 141.930893,60.531303 142.198395,60.531303 
	C142.521164,66.061943 142.712402,71.613487 143.281998,77.125946 
	C143.392212,78.192703 144.851669,79.284760 145.914154,80.053711 
	C148.047623,81.597771 150.402344,82.837463 152.523987,84.395767 
	C153.221863,84.908340 153.896194,86.024696 153.879272,86.850571 
	C153.704971,95.351456 152.590607,103.918579 153.321869,112.329559 
	C154.126144,121.580345 148.060226,128.068985 145.840469,136.022858 
	C145.796555,136.180222 145.732224,136.438934 145.636490,136.459473 
	C139.005447,137.882019 137.586670,146.842590 129.626221,147.152527 
	C128.862823,147.026047 128.782089,146.836548 128.867996,146.167206 
	C128.251526,143.968277 127.855278,142.029892 126.868095,140.464081 
	C125.120911,137.692780 122.450111,135.386475 121.207314,132.445480 
	C119.793549,129.099930 118.147095,128.459137 114.898041,129.947342 
	C114.447975,129.930740 114.267647,129.936050 114.045624,129.962738 
	C114.003937,129.984116 114.061874,129.910477 114.055237,129.552063 
	C112.992966,128.163406 111.937325,127.133194 110.920929,126.046631 
	C110.960175,125.990295 110.904297,126.115166 110.845901,125.856232 
	C110.495522,125.420021 110.203537,125.242737 109.952423,125.035866 
	C109.993286,125.006279 109.933739,125.087738 109.868179,124.835594 
	C109.520058,124.399406 109.237503,124.215355 108.977814,124.016197 
	C109.000679,124.001083 108.967606,124.044983 108.897858,123.800507 
	C108.554520,123.371185 108.280922,123.186340 107.767334,122.831635 
	C107.042236,122.045082 106.557114,121.428375 106.056335,120.469910 
	C105.314011,119.460754 104.587334,118.793350 103.919716,118.067322 
	C103.978767,118.008705 103.866180,118.123711 103.901993,117.745483 
	C101.801712,113.444321 101.085838,108.172203 95.010483,107.990616 
	C94.999695,108.000000 95.016487,107.976570 94.946411,107.741081 
	C94.693138,107.204254 94.426834,107.029831 93.887360,106.822762 
	C93.455780,106.437126 93.217117,106.208061 92.908096,105.614670 
	C88.594994,105.559364 84.355103,105.865402 80.073662,106.096115 
	C80.032112,106.020805 80.146774,106.149055 79.884598,106.205956 
	C79.473839,106.570480 79.325256,106.878105 79.088593,107.108185 
	C79.000511,107.030640 79.191406,107.166748 78.916023,107.238472 
	C78.501366,107.643242 78.362083,107.976288 78.148392,108.482574 
	C78.073990,108.655815 77.811302,108.926353 77.559998,108.922112 
	C77.141899,108.935257 76.975105,108.952637 76.402176,108.979233 
	C73.320221,108.233307 70.644394,107.478165 67.585297,106.614861 
	C65.351776,110.356216 68.894913,111.993927 71.075371,114.509323 
	C71.047623,115.585648 71.033134,116.304459 71.008774,117.012024 
	C70.998901,117.000786 71.025108,117.013672 70.783302,117.112198 
	C70.399429,117.515480 70.257370,117.820229 70.058990,118.069626 
	C70.002663,118.014275 70.130692,118.106522 69.866470,118.196030 
	C69.464027,118.614265 69.325821,118.942986 69.065498,119.529556 
	C68.680489,120.059242 68.417587,120.331085 68.057861,120.293365 
	C67.657555,119.685593 67.354073,119.387383 67.035416,118.659241 
	C67.058769,115.974915 67.133774,113.487984 63.818687,114.125450 
	C62.773315,114.326469 61.965561,115.763229 61.049057,116.634415 
	C62.554184,117.426750 64.039986,118.260109 65.577225,118.984261 
	C65.992348,119.179817 66.563431,119.044296 67.062813,119.422729 
	C67.032738,120.510323 67.002777,121.235939 66.873611,122.180000 
	C66.599678,122.678589 66.362350,122.887695 65.808701,123.106491 
	C65.394295,123.489761 65.233620,123.792290 65.052094,124.043503 
	C65.031258,123.992203 65.096573,124.082138 64.767456,124.054810 
	C64.000237,124.039383 63.562119,124.051277 62.753212,124.011185 
	C59.632050,123.277702 53.757641,128.150635 54.203117,130.809052 
	C54.300991,131.393112 54.734062,132.245895 55.196270,132.391190 
	C58.152180,133.320374 61.159336,134.086548 64.542702,134.910675 
	C66.260033,134.898300 67.584290,134.881577 69.101173,135.118958 
	C69.864372,134.587967 70.434959,133.802887 71.003159,132.741211 
	C70.971893,132.282501 70.943024,132.100372 70.896286,131.933411 
	C70.878418,131.948547 70.876968,131.901657 71.135452,131.827118 
	C71.539139,131.441360 71.684326,131.130112 71.827194,130.875671 
	C71.824875,130.932480 71.810562,130.812057 72.177017,130.835907 
	C73.352104,129.562119 74.160736,128.264496 74.985260,126.982651 
	C75.001160,126.998451 74.963524,126.975655 75.207253,126.881226 
	C75.601883,126.485527 75.752792,126.184258 75.922401,125.946838 
	C75.941101,126.010704 75.882187,125.889786 76.212036,125.926163 
	C76.981781,125.947044 77.421684,125.931541 78.215347,126.073326 
	C79.917152,126.207077 82.341499,126.482529 82.444145,126.113022 
	C83.320465,122.958527 83.775536,119.687004 84.412117,116.454666 
	C84.467545,116.458809 84.508789,116.355576 84.886414,116.539574 
	C86.580009,116.451698 87.895988,116.179825 89.488106,116.016342 
	C90.569702,117.217010 91.375153,118.309296 92.134178,119.832809 
	C91.734665,124.350113 94.205757,125.563576 97.924225,125.875938 
	C98.855804,126.826683 99.540520,127.660858 100.077896,128.852722 
	C99.025566,130.873322 98.120583,132.536240 96.355042,135.780426 
	C100.255356,135.343384 102.893539,135.047760 105.762695,134.851990 
	C106.379547,135.481720 106.765427,136.011597 107.113037,136.949615 
	C107.992683,140.739700 108.621895,144.408676 113.691628,143.889435 
	C114.087471,144.089035 114.200172,144.295273 114.204941,144.560455 
M80.484032,140.616547 
	C78.425858,140.449539 76.367683,140.282532 74.309509,140.115524 
	C74.291550,140.824448 74.273582,141.533386 74.255615,142.242325 
	C76.388329,143.910843 78.526314,145.337875 80.484032,140.616547 
M51.780903,115.665802 
	C52.379391,115.409470 52.977879,115.153130 53.576363,114.896790 
	C53.088661,114.403343 52.600956,113.909889 52.113255,113.416443 
	C51.849957,114.011650 51.586662,114.606850 51.780903,115.665802 
M87.800713,123.398727 
	C87.796455,123.788254 87.792191,124.177773 87.787933,124.567291 
	C87.949570,124.568863 88.251709,124.581314 88.252548,124.570435 
	C88.282555,124.182838 88.284370,123.793068 87.800713,123.398727 
z"/>
<path fill="#FCFDFD" opacity="1.000000" stroke="none" 
	d="
M65.004242,66.009659 
	C65.142906,58.789513 68.101006,55.785019 74.999382,55.813648 
	C75.643280,55.816319 76.328941,55.722038 76.926025,55.492676 
	C82.735085,53.261223 88.815804,51.517433 94.237152,48.565777 
	C98.565346,46.209286 99.902725,47.459671 100.330482,50.664608 
	C107.016327,50.130138 113.362053,49.622860 119.942001,49.465271 
	C115.021729,56.094475 109.867233,62.373993 104.728363,68.666580 
	C104.743996,68.679657 104.740524,68.717812 104.484833,68.800308 
	C104.067589,69.190735 103.906036,69.498665 103.828735,69.798203 
	C103.912987,69.789803 103.749374,69.746109 103.436508,69.855011 
	C101.311028,72.204475 99.498413,74.445038 97.847244,76.827370 
	C98.008682,76.969139 97.679565,76.694786 97.366241,76.785400 
	C95.715538,78.587479 94.378166,80.298935 92.914246,82.293427 
	C91.822144,83.643021 90.856590,84.709579 89.526535,85.818260 
	C86.872818,87.346443 85.071030,87.252197 83.569397,84.608574 
	C82.871735,83.380341 81.518478,82.524506 80.326477,81.193100 
	C77.427582,77.329643 74.664627,73.772957 71.936844,69.813965 
	C71.980942,68.608025 71.989861,67.804390 71.998322,66.639587 
	C71.761078,65.274475 71.524307,64.270523 71.150406,62.685158 
	C69.765724,64.142426 68.882713,65.071732 67.625214,66.000771 
	C66.501900,66.003555 65.753075,66.006607 65.004242,66.009659 
M106.867828,55.658211 
	C105.731003,55.816513 104.594177,55.974819 103.457359,56.133121 
	C103.655312,56.791515 103.853264,57.449909 104.051224,58.108303 
	C104.946915,57.511745 105.842606,56.915188 106.867828,55.658211 
M99.089462,53.265175 
	C98.122070,53.756813 97.154686,54.248447 96.187294,54.740082 
	C96.558067,55.201351 96.928833,55.662617 97.299606,56.123886 
	C98.056602,55.326172 98.813599,54.528461 99.089462,53.265175 
M90.106598,78.615295 
	C89.999359,79.274445 89.892120,79.933594 89.784882,80.592743 
	C90.352402,80.527916 90.919922,80.463089 91.487442,80.398262 
	C91.223656,79.715813 90.959869,79.033363 90.106598,78.615295 
M90.634789,68.325897 
	C89.957764,68.055191 89.280731,67.784485 88.603706,67.513786 
	C88.534760,68.081039 88.465813,68.648293 88.396866,69.215546 
	C89.054077,69.115150 89.711288,69.014748 90.634789,68.325897 
M79.285515,74.532883 
	C79.396904,73.959564 79.508286,73.386238 79.619675,72.812920 
	C79.212120,72.807716 78.804558,72.802513 78.397003,72.797310 
	C78.494102,73.373375 78.591202,73.949440 79.285515,74.532883 
M81.398605,66.199287 
	C81.788139,66.203545 82.177666,66.207809 82.567200,66.212074 
	C82.568779,66.050438 82.581230,65.748306 82.570358,65.747459 
	C82.182755,65.717461 81.792961,65.715645 81.398605,66.199287 
z"/>
<path fill="#13BCDC" opacity="1.000000" stroke="none" 
	d="
M114.498825,144.749023 
	C114.200172,144.295273 114.087471,144.089035 113.541527,143.571289 
	C111.194588,140.981064 109.172943,138.761276 107.151306,136.541473 
	C106.765427,136.011597 106.379547,135.481720 105.619736,134.540161 
	C103.572281,132.250656 101.898758,130.372849 100.225235,128.495041 
	C99.540520,127.660858 98.855804,126.826683 97.805145,125.543213 
	C95.686325,123.196480 93.933464,121.299026 92.180595,119.401581 
	C91.375153,118.309296 90.569702,117.217010 89.265274,115.711960 
	C87.347130,115.651321 85.927956,116.003441 84.508789,116.355576 
	C84.508789,116.355576 84.467545,116.458809 84.121490,116.488449 
	C82.807976,117.615974 81.840515,118.713852 80.637939,119.914810 
	C80.226616,120.304428 80.050415,120.590973 79.901489,120.943085 
	C79.928764,121.008659 79.856911,120.882362 79.544388,121.005257 
	C78.115303,122.715363 76.998749,124.302574 75.882187,125.889786 
	C75.882187,125.889786 75.941101,126.010704 75.672684,126.031693 
	C75.257355,126.360344 75.110443,126.667999 74.963524,126.975655 
	C74.963524,126.975655 75.001160,126.998451 74.688263,127.108292 
	C73.520424,128.416107 72.665497,129.614090 71.810562,130.812057 
	C71.810562,130.812057 71.824875,130.932480 71.580276,130.962570 
	C71.182777,131.295654 71.029869,131.598663 70.876968,131.901657 
	C70.876968,131.901657 70.878418,131.948547 70.647568,132.001221 
	C70.233574,132.336777 70.050423,132.619675 69.653564,132.954926 
	C69.439857,133.007278 69.063309,133.235016 68.673737,133.191330 
	C66.607948,132.650452 64.931717,132.153259 63.208534,131.477509 
	C63.161572,131.298965 62.946014,130.999176 62.981247,130.623672 
	C62.937195,129.501190 62.857910,128.754211 62.862858,127.771759 
	C62.975468,127.371994 63.003841,127.207703 63.305618,126.891220 
	C64.084869,125.853394 64.590721,124.967766 65.096573,124.082138 
	C65.096573,124.082138 65.031258,123.992203 65.303238,123.959122 
	C65.737625,123.625938 65.900024,123.325851 66.062424,123.025757 
	C66.362350,122.887695 66.599678,122.678589 67.108353,122.109306 
	C67.679749,121.414413 67.917213,121.008667 68.154678,120.602921 
	C68.417587,120.331085 68.680489,120.059242 69.305267,119.412582 
	C69.821663,118.727341 69.976173,118.416931 70.130692,118.106522 
	C70.130692,118.106522 70.002663,118.014275 70.304367,117.976921 
	C70.745743,117.630936 70.885422,117.322304 71.025108,117.013672 
	C71.025108,117.013672 70.998901,117.000786 71.310226,116.892105 
	C72.482224,115.570694 73.342911,114.357971 74.403976,113.032822 
	C74.859299,112.726616 75.024071,112.474022 75.342941,112.056870 
	C75.737747,111.640701 75.888283,111.330276 76.245285,110.891937 
	C76.703484,110.544884 76.876617,110.275261 77.205574,109.876480 
	C77.737350,109.581284 77.861122,109.290802 77.811302,108.926353 
	C77.811302,108.926353 78.073990,108.655815 78.389374,108.369858 
	C78.866982,107.778191 79.029198,107.472473 79.191406,107.166748 
	C79.191406,107.166748 79.000511,107.030640 79.329498,107.023727 
	C79.821243,106.727570 79.984009,106.438309 80.146774,106.149055 
	C80.146774,106.149055 80.032112,106.020805 80.527077,106.065872 
	C85.008469,106.065964 88.994888,106.020981 92.981316,105.975998 
	C93.217117,106.208061 93.455780,106.437126 93.937897,107.069427 
	C94.457809,107.642616 94.737152,107.809593 95.016487,107.976570 
	C95.016487,107.976570 94.999695,108.000000 95.103104,108.314606 
	C98.093071,111.794037 100.979630,114.958870 103.866180,118.123711 
	C103.866180,118.123711 103.978767,118.008705 103.977798,118.369736 
	C104.675224,119.424400 105.373611,120.118034 106.071991,120.811668 
	C106.557114,121.428375 107.042236,122.045082 107.825287,123.083557 
	C108.404686,123.685219 108.686142,123.865105 108.967606,124.044983 
	C108.967606,124.044983 109.000679,124.001083 109.043152,124.269943 
	C109.368332,124.721786 109.651039,124.904762 109.933739,125.087738 
	C109.933739,125.087738 109.993286,125.006279 110.022278,125.286919 
	C110.335609,125.750092 110.619949,125.932632 110.904297,126.115166 
	C110.904297,126.115166 110.960175,125.990295 110.970398,126.365448 
	C112.007706,127.797226 113.034790,128.853851 114.061874,129.910477 
	C114.061874,129.910477 114.003937,129.984116 114.088310,130.215607 
	C114.450424,130.628937 114.728157,130.810791 115.002945,130.996323 
	C115.000000,131.000000 115.007896,130.995743 115.054428,131.255585 
	C115.381348,131.703705 115.661728,131.891953 115.967972,132.042755 
	C115.993843,132.005280 115.918900,132.057007 115.984207,132.310089 
	C116.330658,132.752350 116.611801,132.941513 116.938232,133.078094 
	C116.983521,133.025497 116.866219,133.099716 116.928909,133.358749 
	C117.270676,133.822739 117.549759,134.027710 117.996223,134.517410 
	C121.716415,138.733292 125.269226,142.664429 128.822037,146.595566 
	C128.782089,146.836548 128.862823,147.026047 129.211914,147.226685 
	C132.129013,150.559769 134.903687,153.825851 137.666138,157.102219 
	C139.740631,159.562637 140.435150,162.256760 137.647995,164.465622 
	C135.175842,166.424850 132.790298,165.578613 130.754227,163.208008 
	C125.485374,157.073486 120.119705,151.022141 114.498825,144.749023 
z"/>
<path fill="#F18E53" opacity="1.000000" stroke="none" 
	d="
M104.712738,68.653519 
	C109.867233,62.373993 115.021729,56.094475 120.373184,49.524277 
	C120.793808,49.135544 120.959732,48.977016 121.397186,48.399956 
	C123.012543,46.419327 124.298630,44.796749 125.584709,43.174171 
	C127.206924,41.535988 128.623932,39.584389 130.510162,38.349442 
	C132.326996,37.159939 134.885101,35.707443 136.660172,36.160873 
	C139.678802,36.931950 140.161484,39.783218 138.701797,42.957245 
	C137.937027,43.772678 137.275284,44.292892 136.310562,44.553478 
	C136.335678,43.377155 136.753586,42.480633 136.965363,41.537807 
	C137.158737,40.676968 137.441895,39.146988 137.138474,38.993538 
	C136.240250,38.539291 134.754333,38.124485 134.059296,38.569832 
	C128.782883,41.950699 124.511795,46.212040 123.150635,51.606186 
	C120.787331,53.593708 118.753059,54.927071 117.207573,56.689140 
	C114.630043,59.627914 112.365372,62.841087 109.637733,65.999458 
	C107.775238,66.924629 106.243988,67.789070 104.712738,68.653519 
z"/>
<path fill="#F18E53" opacity="1.000000" stroke="none" 
	d="
M71.901672,70.216270 
	C74.664627,73.772957 77.427582,77.329643 80.196846,81.329086 
	C80.203156,81.771828 79.952400,82.045700 79.611252,81.987198 
	C76.730820,78.994690 74.457230,75.753036 71.551414,73.243408 
	C69.840340,71.765625 67.125992,71.449501 63.948017,70.271927 
	C64.906250,73.717964 65.381065,75.425491 65.573822,77.011948 
	C64.565720,76.176170 63.839684,75.461479 63.113644,74.746788 
	C63.113644,74.746788 63.068668,74.349716 62.980103,73.761482 
	C63.052208,71.500702 63.212879,69.828163 63.373550,68.155617 
	C63.745171,68.127228 64.116798,68.098839 65.115372,67.947433 
	C66.505852,67.718155 67.269386,67.611893 68.326080,67.673111 
	C69.050018,67.967270 69.480804,68.093941 70.035461,68.480103 
	C70.740112,69.231812 71.320892,69.724045 71.901672,70.216270 
z"/>
<path fill="#FCF5EE" opacity="1.000000" stroke="none" 
	d="
M62.978081,68.115143 
	C63.212879,69.828163 63.052208,71.500702 62.869358,73.595169 
	C61.454460,73.772942 60.061741,73.528786 58.340668,73.140274 
	C59.535744,71.355507 61.059177,69.715088 62.978081,68.115143 
z"/>
<path fill="#FCFDFD" opacity="1.000000" stroke="none" 
	d="
M125.183105,43.109825 
	C124.298630,44.796749 123.012543,46.419327 121.429520,48.226906 
	C120.556526,45.742775 119.980461,43.073631 119.183266,39.379894 
	C121.686775,41.019127 123.234138,42.032303 125.183105,43.109825 
z"/>
<path fill="#FCF5EE" opacity="1.000000" stroke="none" 
	d="
M68.032913,67.505623 
	C67.269386,67.611893 66.505852,67.718155 65.356491,67.802383 
	C64.978607,67.386955 64.986549,66.993561 64.999367,66.304916 
	C65.753075,66.006607 66.501900,66.003555 67.630508,66.251839 
	C68.017830,66.837326 68.025375,67.171471 68.032913,67.505623 
z"/>
<path fill="#FCFDFD" opacity="1.000000" stroke="none" 
	d="
M135.613800,147.539551 
	C136.058014,147.654343 136.330261,147.934235 136.581497,148.231873 
	C136.587891,148.239456 136.363403,148.441940 136.246597,148.553513 
	C135.977417,148.271332 135.708237,147.989151 135.613800,147.539551 
z"/>
<path fill="#FB8136" opacity="1.000000" stroke="none" 
	d="
M104.728363,68.666588 
	C106.243988,67.789070 107.775238,66.924629 109.648972,66.386780 
	C110.683853,67.823982 111.376244,68.934578 112.065811,70.426529 
	C112.159279,71.307320 112.255585,71.806747 112.351883,72.306183 
	C112.351883,72.306183 112.210587,72.344833 111.919609,72.329330 
	C111.120705,73.253563 110.612778,74.193291 110.104843,75.133018 
	C110.104843,75.133018 110.032043,75.060188 109.813423,75.166756 
	C109.434021,75.607193 109.273247,75.941063 109.112473,76.274933 
	C109.068184,76.570168 108.923790,76.803436 108.084251,77.020462 
	C106.653969,78.370239 105.818726,79.674271 104.983482,80.978310 
	C104.983482,80.978310 105.000305,81.000000 104.629807,80.997345 
	C101.225693,84.724068 98.192078,88.453438 95.158463,92.182816 
	C95.158470,92.182816 95.035271,92.042152 94.711121,92.086716 
	C88.908623,95.713348 83.488678,93.675117 78.065353,91.961670 
	C78.065353,91.961670 77.997490,91.986069 77.980614,91.607468 
	C76.624855,88.827324 75.285973,86.425781 74.381950,84.015945 
	C76.547318,84.005615 78.277832,84.003571 80.015869,84.239944 
	C80.023399,84.478371 80.026451,84.955437 79.877243,85.259117 
	C79.246185,86.511543 78.764336,87.460297 78.282494,88.409042 
	C78.768097,88.626900 79.253693,88.844757 79.739296,89.062607 
	C80.168938,88.022415 80.598579,86.982216 81.403488,85.995819 
	C84.513153,86.857414 87.354156,90.827499 89.891037,85.776138 
	C90.856590,84.709579 91.822144,83.643021 93.258347,82.247925 
	C95.045837,80.177849 96.362701,78.436317 97.679565,76.694786 
	C97.679565,76.694786 98.008682,76.969139 98.206451,76.894630 
	C100.185944,74.462120 101.967659,72.104118 103.749374,69.746109 
	C103.749374,69.746109 103.912987,69.789803 104.109268,69.745331 
	C104.450539,69.373177 104.595535,69.045494 104.740524,68.717812 
	C104.740524,68.717812 104.743996,68.679657 104.728363,68.666588 
z"/>
<path fill="#FD8032" opacity="1.000000" stroke="none" 
	d="
M112.068634,70.045174 
	C111.376244,68.934578 110.683853,67.823982 109.980225,66.326050 
	C112.365372,62.841087 114.630043,59.627914 117.207573,56.689140 
	C118.753059,54.927071 120.787331,53.593708 123.150635,51.606186 
	C124.511795,46.212040 128.782883,41.950699 134.059296,38.569832 
	C134.754333,38.124485 136.240250,38.539291 137.138474,38.993538 
	C137.441895,39.146988 137.158737,40.676968 136.965363,41.537807 
	C136.753586,42.480633 136.335678,43.377155 136.014862,44.663544 
	C136.022125,45.033241 136.010376,45.004162 135.647507,45.006042 
	C133.521439,47.340893 131.758224,49.673862 129.995026,52.006832 
	C129.923309,52.333923 129.753647,52.598110 129.032104,53.006863 
	C128.399918,53.502247 128.221680,53.790169 128.043442,54.078087 
	C128.043442,54.078091 128.013794,54.002785 127.696976,54.058830 
	C127.034714,54.846668 126.689270,55.578461 126.343826,56.310249 
	C126.343826,56.310249 126.327354,56.291286 126.028809,56.306915 
	C125.588837,56.649597 125.447403,56.976654 125.305969,57.303707 
	C125.305969,57.303707 125.144691,57.035618 124.932602,57.189423 
	C124.468384,57.875519 124.216255,58.407803 123.964127,58.940086 
	C123.964134,58.940090 123.996056,58.997097 123.742935,59.084892 
	C123.211861,59.375031 123.045731,59.645966 122.991432,59.985485 
	C122.929382,60.329163 122.756325,60.602585 122.007462,61.000809 
	C121.373085,61.482933 121.203514,61.770008 121.033936,62.057076 
	C121.033928,62.057076 121.004967,61.998638 120.678604,62.036388 
	C118.325821,64.804306 116.299393,67.534470 114.272964,70.264633 
	C114.272964,70.264626 113.991867,70.150764 113.768990,70.125427 
	C113.053619,70.081787 112.561127,70.063484 112.068634,70.045174 
z"/>
<path fill="#F9FBFE" opacity="1.000000" stroke="none" 
	d="
M63.032219,127.043411 
	C63.003841,127.207703 62.975468,127.371994 62.644669,127.975388 
	C62.543503,129.276047 62.744759,130.137619 62.946014,130.999176 
	C62.946014,130.999176 63.161572,131.298965 63.146042,131.824539 
	C63.470222,133.202194 63.809929,134.054260 64.149635,134.906342 
	C61.159336,134.086548 58.152180,133.320374 55.196270,132.391190 
	C54.734062,132.245895 54.300991,131.393112 54.203117,130.809052 
	C53.757641,128.150635 59.632050,123.277702 62.719215,124.382034 
	C63.048077,125.551056 63.040150,126.297234 63.032219,127.043411 
z"/>
<path fill="#F9FBFE" opacity="1.000000" stroke="none" 
	d="
M128.867996,146.167206 
	C125.269226,142.664429 121.716415,138.733292 117.953789,134.246613 
	C117.451393,133.493942 117.158806,133.296829 116.866219,133.099716 
	C116.866219,133.099716 116.983521,133.025497 116.885406,132.816010 
	C116.497833,132.423355 116.208366,132.240173 115.918900,132.057007 
	C115.918900,132.057007 115.993843,132.005280 115.908371,131.792267 
	C115.551231,131.384750 115.279564,131.190247 115.007896,130.995743 
	C115.007896,130.995743 115.000000,131.000000 115.048317,130.741257 
	C115.120346,130.311432 115.144058,130.140350 115.167770,129.969269 
	C118.147095,128.459137 119.793549,129.099930 121.207314,132.445480 
	C122.450111,135.386475 125.120911,137.692780 126.868095,140.464081 
	C127.855278,142.029892 128.251526,143.968277 128.867996,146.167206 
z"/>
<path fill="#FBFDFE" opacity="1.000000" stroke="none" 
	d="
M75.098679,112.162613 
	C75.024071,112.474022 74.859299,112.726616 74.068680,113.016678 
	C72.718201,113.459244 71.903412,113.805519 71.088631,114.151794 
	C68.894913,111.993927 65.351776,110.356216 67.585297,106.614861 
	C70.644394,107.478165 73.320221,108.233307 76.442703,109.225822 
	C76.889343,109.463196 76.971161,109.955170 76.971161,109.955170 
	C76.876617,110.275261 76.703484,110.544884 75.994217,110.990997 
	C75.390671,111.532852 75.244675,111.847733 75.098679,112.162613 
z"/>
<path fill="#F18E53" opacity="1.000000" stroke="none" 
	d="
M78.136551,92.315361 
	C83.488678,93.675117 88.908623,95.713348 94.787521,92.140602 
	C91.954636,97.016678 82.218338,97.314339 78.136551,92.315361 
z"/>
<path fill="#F18E53" opacity="1.000000" stroke="none" 
	d="
M73.947090,84.024231 
	C75.285973,86.425781 76.624855,88.827324 78.002747,91.579010 
	C74.587547,88.001053 71.133331,84.072968 67.370621,79.676033 
	C66.984596,78.874527 66.907074,78.541862 67.174088,78.181610 
	C69.661446,80.110748 71.804268,82.067490 73.947090,84.024231 
z"/>
<path fill="#F9FBFE" opacity="1.000000" stroke="none" 
	d="
M80.873062,119.811737 
	C81.840515,118.713852 82.807976,117.615974 84.066055,116.484299 
	C83.775536,119.687004 83.320465,122.958527 82.444145,126.113022 
	C82.341499,126.482529 79.917152,126.207077 78.396774,125.773788 
	C78.768578,123.838768 79.312744,122.360565 79.856911,120.882362 
	C79.856911,120.882362 79.928764,121.008659 80.165924,120.877365 
	C80.559738,120.434631 80.716400,120.123184 80.873062,119.811737 
z"/>
<path fill="#F9FBFE" opacity="1.000000" stroke="none" 
	d="
M100.077896,128.852722 
	C101.898758,130.372849 103.572281,132.250656 105.388763,134.440308 
	C102.893539,135.047760 100.255356,135.343384 96.355042,135.780426 
	C98.120583,132.536240 99.025566,130.873322 100.077896,128.852722 
z"/>
<path fill="#F18E53" opacity="1.000000" stroke="none" 
	d="
M95.472137,92.073425 
	C98.192078,88.453438 101.225693,84.724068 104.618576,80.989655 
	C101.913849,84.644424 98.849838,88.304230 95.472137,92.073425 
z"/>
<path fill="#FBFDFE" opacity="1.000000" stroke="none" 
	d="
M67.062927,119.060745 
	C66.563431,119.044296 65.992348,119.179817 65.577225,118.984261 
	C64.039986,118.260109 62.554184,117.426750 61.049057,116.634415 
	C61.965561,115.763229 62.773315,114.326469 63.818687,114.125450 
	C67.133774,113.487984 67.058769,115.974915 67.005432,118.624680 
	C66.990616,119.020050 67.062927,119.060738 67.062927,119.060745 
z"/>
<path fill="#BAF7FC" opacity="1.000000" stroke="none" 
	d="
M103.901993,117.745483 
	C100.979630,114.958870 98.093071,111.794037 95.113892,108.305222 
	C101.085838,108.172203 101.801712,113.444321 103.901993,117.745483 
z"/>
<path fill="#F9FBFE" opacity="1.000000" stroke="none" 
	d="
M80.633774,140.965546 
	C78.526314,145.337875 76.388329,143.910843 74.255615,142.242325 
	C74.273582,141.533386 74.291550,140.824448 74.309509,140.115524 
	C76.367683,140.282532 78.425858,140.449539 80.633774,140.965546 
z"/>
<path fill="#FCF5EE" opacity="1.000000" stroke="none" 
	d="
M66.829544,78.209206 
	C66.907074,78.541862 66.984596,78.874527 67.100090,79.461250 
	C66.197220,80.535240 65.256393,81.355164 64.315567,82.175095 
	C63.889370,81.980133 63.463173,81.785172 63.036976,81.590210 
	C63.036976,79.608009 63.036976,77.625801 63.075310,75.195190 
	C63.839684,75.461479 64.565720,76.176170 65.594398,76.999168 
	C65.897034,77.107475 65.863281,77.086006 65.934647,77.344971 
	C66.296654,77.793076 66.587296,77.982208 66.865456,78.178467 
	C66.852966,78.185600 66.829544,78.209206 66.829544,78.209206 
z"/>
<path fill="#F18E53" opacity="1.000000" stroke="none" 
	d="
M114.582405,70.153442 
	C116.299393,67.534470 118.325821,64.804306 120.704178,62.056690 
	C119.001358,64.706909 116.946602,67.374580 114.582405,70.153442 
z"/>
<path fill="#F9FBFE" opacity="1.000000" stroke="none" 
	d="
M107.113037,136.949615 
	C109.172943,138.761276 111.194588,140.981064 113.366333,143.518997 
	C108.621895,144.408676 107.992683,140.739700 107.113037,136.949615 
z"/>
<path fill="#BAF7FC" opacity="1.000000" stroke="none" 
	d="
M92.908096,105.614670 
	C88.994888,106.020981 85.008469,106.065964 80.568626,106.141190 
	C84.355103,105.865402 88.594994,105.559364 92.908096,105.614670 
z"/>
<path fill="#F18E53" opacity="1.000000" stroke="none" 
	d="
M130.307526,51.885338 
	C131.758224,49.673862 133.521439,47.340893 135.658340,45.014809 
	C134.228027,47.269073 132.424026,49.516460 130.307526,51.885338 
z"/>
<path fill="#F9FBFE" opacity="1.000000" stroke="none" 
	d="
M92.134178,119.832809 
	C93.933464,121.299026 95.686325,123.196480 97.558273,125.426651 
	C94.205757,125.563576 91.734665,124.350113 92.134178,119.832809 
z"/>
<path fill="#BAF7FC" opacity="1.000000" stroke="none" 
	d="
M64.542702,134.910675 
	C63.809929,134.054260 63.470222,133.202194 63.193005,132.003082 
	C64.931717,132.153259 66.607948,132.650452 68.666069,133.464844 
	C69.001495,134.142990 68.955025,134.503922 68.908554,134.864853 
	C67.584290,134.881577 66.260033,134.898300 64.542702,134.910675 
z"/>
<path fill="#BAF7FC" opacity="1.000000" stroke="none" 
	d="
M79.544388,121.005257 
	C79.312744,122.360565 78.768578,123.838768 78.042999,125.616501 
	C77.421684,125.931541 76.981781,125.947044 76.212036,125.926163 
	C76.998749,124.302574 78.115303,122.715363 79.544388,121.005257 
z"/>
<path fill="#F18E53" opacity="1.000000" stroke="none" 
	d="
M105.283661,80.854080 
	C105.818726,79.674271 106.653969,78.370239 107.889954,77.101227 
	C107.388405,78.334122 106.486130,79.531982 105.283661,80.854080 
z"/>
<path fill="#BAF7FC" opacity="1.000000" stroke="none" 
	d="
M72.177017,130.835907 
	C72.665497,129.614090 73.520424,128.416107 74.672363,127.092499 
	C74.160736,128.264496 73.352104,129.562119 72.177017,130.835907 
z"/>
<path fill="#BAF7FC" opacity="1.000000" stroke="none" 
	d="
M114.055237,129.552063 
	C113.034790,128.853851 112.007706,127.797226 110.931152,126.421783 
	C111.937325,127.133194 112.992966,128.163406 114.055237,129.552063 
z"/>
<path fill="#F9FBFE" opacity="1.000000" stroke="none" 
	d="
M51.552132,115.433929 
	C51.586662,114.606850 51.849957,114.011650 52.113255,113.416443 
	C52.600956,113.909889 53.088661,114.403343 53.576363,114.896790 
	C52.977879,115.153130 52.379391,115.409470 51.552132,115.433929 
z"/>
<path fill="#BAF7FC" opacity="1.000000" stroke="none" 
	d="
M71.075371,114.509315 
	C71.903412,113.805519 72.718201,113.459244 73.868294,113.129112 
	C73.342911,114.357971 72.482224,115.570694 71.320099,116.903336 
	C71.033134,116.304459 71.047623,115.585648 71.075371,114.509315 
z"/>
<path fill="#F9FBFE" opacity="1.000000" stroke="none" 
	d="
M69.101173,135.118958 
	C68.955025,134.503922 69.001495,134.142990 69.055634,133.508545 
	C69.063309,133.235016 69.439857,133.007278 69.937126,133.002899 
	C70.624779,133.004929 70.815163,133.011368 71.005539,133.017792 
	C70.434959,133.802887 69.864372,134.587967 69.101173,135.118958 
z"/>
<path fill="#F9FBFE" opacity="1.000000" stroke="none" 
	d="
M84.886414,116.539566 
	C85.927956,116.003441 87.347130,115.651321 88.989136,115.603569 
	C87.895988,116.179825 86.580009,116.451698 84.886414,116.539566 
z"/>
<path fill="#BAF7FC" opacity="1.000000" stroke="none" 
	d="
M63.305618,126.891220 
	C63.040150,126.297234 63.048077,125.551056 63.090004,124.434029 
	C63.562119,124.051277 64.000237,124.039383 64.767456,124.054810 
	C64.590721,124.967766 64.084869,125.853394 63.305618,126.891220 
z"/>
<path fill="#BAF7FC" opacity="1.000000" stroke="none" 
	d="
M106.056343,120.469910 
	C105.373611,120.118034 104.675224,119.424400 103.918747,118.428360 
	C104.587334,118.793350 105.314011,119.460754 106.056343,120.469910 
z"/>
<path fill="#F18E53" opacity="1.000000" stroke="none" 
	d="
M110.409546,75.032913 
	C110.612778,74.193291 111.120705,73.253563 111.980148,72.288101 
	C111.792526,73.152527 111.253395,74.042671 110.409546,75.032913 
z"/>
<path fill="#F9FBFE" opacity="1.000000" stroke="none" 
	d="
M88.045425,123.401161 
	C88.284370,123.793068 88.282555,124.182838 88.252548,124.570435 
	C88.251709,124.581314 87.949570,124.568863 87.787933,124.567291 
	C87.792191,124.177773 87.796455,123.788254 88.045425,123.401161 
z"/>
<path fill="#F18E53" opacity="1.000000" stroke="none" 
	d="
M126.633316,56.212482 
	C126.689270,55.578461 127.034714,54.846668 127.728996,54.083580 
	C127.692818,54.739754 127.307808,55.427235 126.633316,56.212482 
z"/>
<path fill="#F18E53" opacity="1.000000" stroke="none" 
	d="
M112.065811,70.426529 
	C112.561127,70.063484 113.053619,70.081787 113.908195,70.190491 
	C113.819344,70.900620 113.368408,71.520370 112.634674,72.223152 
	C112.255585,71.806747 112.159279,71.307320 112.065811,70.426529 
z"/>
<path fill="#BAF7FC" opacity="1.000000" stroke="none" 
	d="
M68.057861,120.293358 
	C67.917213,121.008667 67.679749,121.414413 67.207558,121.890862 
	C67.002777,121.235939 67.032738,120.510323 67.062813,119.422722 
	C67.062927,119.060738 66.990616,119.020050 67.020599,119.054611 
	C67.354073,119.387383 67.657555,119.685593 68.057861,120.293358 
z"/>
<path fill="#F18E53" opacity="1.000000" stroke="none" 
	d="
M124.235123,58.839951 
	C124.216255,58.407803 124.468384,57.875519 125.031853,57.310341 
	C125.064171,57.764908 124.785141,58.252357 124.235123,58.839951 
z"/>
<path fill="#BAF7FC" opacity="1.000000" stroke="none" 
	d="
M71.003159,132.741211 
	C70.815163,133.011368 70.624779,133.004929 70.150833,132.950531 
	C70.050423,132.619675 70.233574,132.336777 70.665436,131.986084 
	C70.943024,132.100372 70.971893,132.282501 71.003159,132.741211 
z"/>
<path fill="#F18E53" opacity="1.000000" stroke="none" 
	d="
M123.229965,59.906082 
	C123.045731,59.645966 123.211861,59.375031 123.712158,59.073959 
	C123.779160,59.259048 123.623825,59.542862 123.229965,59.906082 
z"/>
<path fill="#BAF7FC" opacity="1.000000" stroke="none" 
	d="
M71.135452,131.827118 
	C71.029869,131.598663 71.182777,131.295654 71.582603,130.905762 
	C71.684326,131.130112 71.539139,131.441360 71.135452,131.827118 
z"/>
<path fill="#BAF7FC" opacity="1.000000" stroke="none" 
	d="
M114.898041,129.947342 
	C115.144058,130.140350 115.120346,130.311432 115.051270,130.737579 
	C114.728157,130.810791 114.450424,130.628937 114.129997,130.194229 
	C114.267647,129.936050 114.447975,129.930740 114.898041,129.947342 
z"/>
<path fill="#F18E53" opacity="1.000000" stroke="none" 
	d="
M125.550911,57.223343 
	C125.447403,56.976654 125.588837,56.649597 126.017609,56.301247 
	C126.135246,56.567627 125.965546,56.855301 125.550911,57.223343 
z"/>
<path fill="#F18E53" opacity="1.000000" stroke="none" 
	d="
M121.278595,61.970360 
	C121.203514,61.770008 121.373085,61.482933 121.779755,61.098198 
	C121.852318,61.294899 121.687790,61.589272 121.278595,61.970360 
z"/>
<path fill="#F18E53" opacity="1.000000" stroke="none" 
	d="
M128.296158,53.994823 
	C128.221680,53.790169 128.399918,53.502247 128.818420,53.115116 
	C128.888763,53.314457 128.718811,53.613007 128.296158,53.994823 
z"/>
<path fill="#BAF7FC" opacity="1.000000" stroke="none" 
	d="
M75.207253,126.881226 
	C75.110443,126.667999 75.257355,126.360344 75.653992,125.967834 
	C75.752792,126.184258 75.601883,126.485527 75.207253,126.881226 
z"/>
<path fill="#BAF7FC" opacity="1.000000" stroke="none" 
	d="
M110.845901,125.856232 
	C110.619949,125.932632 110.335609,125.750092 109.981407,125.316505 
	C110.203537,125.242737 110.495522,125.420021 110.845901,125.856232 
z"/>
<path fill="#BAF7FC" opacity="1.000000" stroke="none" 
	d="
M109.868179,124.835594 
	C109.651039,124.904762 109.368332,124.721786 109.020287,124.285065 
	C109.237503,124.215355 109.520058,124.399406 109.868179,124.835594 
z"/>
<path fill="#BAF7FC" opacity="1.000000" stroke="none" 
	d="
M108.897858,123.800507 
	C108.686142,123.865105 108.404686,123.685219 108.065277,123.253418 
	C108.280922,123.186340 108.554520,123.371185 108.897858,123.800507 
z"/>
<path fill="#BAF7FC" opacity="1.000000" stroke="none" 
	d="
M65.808701,123.106491 
	C65.900024,123.325851 65.737625,123.625938 65.324081,124.010422 
	C65.233620,123.792290 65.394295,123.489761 65.808701,123.106491 
z"/>
<path fill="#BAF7FC" opacity="1.000000" stroke="none" 
	d="
M69.866470,118.196030 
	C69.976173,118.416931 69.821663,118.727341 69.427383,119.154732 
	C69.325821,118.942986 69.464027,118.614265 69.866470,118.196030 
z"/>
<path fill="#BAF7FC" opacity="1.000000" stroke="none" 
	d="
M70.783302,117.112198 
	C70.885422,117.322304 70.745743,117.630936 70.360687,118.032272 
	C70.257370,117.820229 70.399429,117.515480 70.783302,117.112198 
z"/>
<path fill="#BAF7FC" opacity="1.000000" stroke="none" 
	d="
M77.205574,109.876480 
	C76.971161,109.955170 76.889343,109.463196 76.848824,109.216606 
	C76.975105,108.952637 77.141899,108.935257 77.559998,108.922112 
	C77.861122,109.290802 77.737350,109.581284 77.205574,109.876480 
z"/>
<path fill="#F18E53" opacity="1.000000" stroke="none" 
	d="
M109.367050,76.157608 
	C109.273247,75.941063 109.434021,75.607193 109.864502,75.173172 
	C109.963348,75.395439 109.792488,75.717865 109.367050,76.157608 
z"/>
<path fill="#BAF7FC" opacity="1.000000" stroke="none" 
	d="
M94.946411,107.741081 
	C94.737152,107.809593 94.457809,107.642616 94.127937,107.228989 
	C94.426834,107.029831 94.693138,107.204254 94.946411,107.741081 
z"/>
<path fill="#BAF7FC" opacity="1.000000" stroke="none" 
	d="
M78.916031,107.238472 
	C79.029198,107.472473 78.866982,107.778191 78.463783,108.196625 
	C78.362083,107.976288 78.501366,107.643242 78.916031,107.238472 
z"/>
<path fill="#BAF7FC" opacity="1.000000" stroke="none" 
	d="
M79.884598,106.205956 
	C79.984009,106.438309 79.821243,106.727570 79.417572,107.101273 
	C79.325256,106.878105 79.473839,106.570480 79.884598,106.205956 
z"/>
<path fill="#F18E53" opacity="1.000000" stroke="none" 
	d="
M80.026451,84.955437 
	C80.026451,84.955437 80.023399,84.478371 80.013535,83.913483 
	C79.986588,82.914299 79.969498,82.480003 79.952400,82.045700 
	C79.952400,82.045700 80.203156,81.771828 80.332779,81.635841 
	C81.518478,82.524506 82.871735,83.380341 83.569397,84.608574 
	C85.071030,87.252197 86.872818,87.346443 89.526535,85.818260 
	C87.354156,90.827499 84.513153,86.857414 81.287766,85.784790 
	C80.594986,85.256775 80.338211,85.068596 80.026451,84.955437 
z"/>
<path fill="#F18E53" opacity="1.000000" stroke="none" 
	d="
M103.436508,69.855011 
	C101.967659,72.104118 100.185944,74.462120 98.045013,76.752861 
	C99.498413,74.445038 101.311028,72.204475 103.436508,69.855011 
z"/>
<path fill="#F18E53" opacity="1.000000" stroke="none" 
	d="
M97.366241,76.785400 
	C96.362701,78.436317 95.045837,80.177849 93.384888,81.964890 
	C94.378166,80.298935 95.715538,78.587479 97.366241,76.785400 
z"/>
<path fill="#F9FBFE" opacity="1.000000" stroke="none" 
	d="
M68.326073,67.673111 
	C68.025375,67.171471 68.017830,66.837326 68.004990,66.252106 
	C68.882713,65.071732 69.765724,64.142426 71.150406,62.685158 
	C71.524307,64.270523 71.761078,65.274475 71.675659,66.671005 
	C70.872833,67.449272 70.392204,67.834946 69.911583,68.220612 
	C69.480804,68.093941 69.050018,67.967270 68.326073,67.673111 
z"/>
<path fill="#F9FBFE" opacity="1.000000" stroke="none" 
	d="
M106.803062,55.988419 
	C105.842606,56.915188 104.946915,57.511745 104.051224,58.108303 
	C103.853264,57.449909 103.655312,56.791515 103.457359,56.133121 
	C104.594177,55.974819 105.731003,55.816513 106.803062,55.988419 
z"/>
<path fill="#F9FBFE" opacity="1.000000" stroke="none" 
	d="
M99.330032,53.497963 
	C98.813599,54.528461 98.056602,55.326172 97.299606,56.123886 
	C96.928833,55.662617 96.558067,55.201351 96.187294,54.740082 
	C97.154686,54.248447 98.122070,53.756813 99.330032,53.497963 
z"/>
<path fill="#F9FBFE" opacity="1.000000" stroke="none" 
	d="
M90.401337,78.483109 
	C90.959869,79.033363 91.223656,79.715813 91.487442,80.398262 
	C90.919922,80.463089 90.352402,80.527916 89.784882,80.592743 
	C89.892120,79.933594 89.999359,79.274445 90.401337,78.483109 
z"/>
<path fill="#F9FBFE" opacity="1.000000" stroke="none" 
	d="
M90.501648,68.620117 
	C89.711288,69.014748 89.054077,69.115150 88.396866,69.215546 
	C88.465813,68.648293 88.534760,68.081039 88.603706,67.513786 
	C89.280731,67.784485 89.957764,68.055191 90.501648,68.620117 
z"/>
<path fill="#F9FBFE" opacity="1.000000" stroke="none" 
	d="
M78.986908,74.529190 
	C78.591202,73.949440 78.494102,73.373375 78.397003,72.797310 
	C78.804558,72.802513 79.212120,72.807716 79.619675,72.812920 
	C79.508286,73.386238 79.396904,73.959564 78.986908,74.529190 
z"/>
<path fill="#FCF5EE" opacity="1.000000" stroke="none" 
	d="
M70.035461,68.480103 
	C70.392204,67.834946 70.872833,67.449272 71.676117,67.032181 
	C71.989861,67.804390 71.980942,68.608025 71.936844,69.813965 
	C71.320892,69.724045 70.740112,69.231812 70.035461,68.480103 
z"/>
<path fill="#F9FBFE" opacity="1.000000" stroke="none" 
	d="
M81.401047,65.954590 
	C81.792961,65.715645 82.182755,65.717461 82.570358,65.747459 
	C82.581230,65.748306 82.568779,66.050438 82.567200,66.212074 
	C82.177666,66.207809 81.788139,66.203545 81.401047,65.954590 
z"/>
<path fill="#F18E53" opacity="1.000000" stroke="none" 
	d="
M104.484833,68.800308 
	C104.595535,69.045494 104.450539,69.373177 104.025009,69.753723 
	C103.906036,69.498665 104.067589,69.190735 104.484833,68.800308 
z"/>
<path fill="#BAF7FC" opacity="1.000000" stroke="none" 
	d="
M62.981247,130.623672 
	C62.744759,130.137619 62.543503,129.276047 62.560436,128.210861 
	C62.857910,128.754211 62.937195,129.501190 62.981247,130.623672 
z"/>
<path fill="#BAF7FC" opacity="1.000000" stroke="none" 
	d="
M115.984207,132.310089 
	C116.208366,132.240173 116.497833,132.423355 116.840118,132.868591 
	C116.611801,132.941513 116.330658,132.752350 115.984207,132.310089 
z"/>
<path fill="#BAF7FC" opacity="1.000000" stroke="none" 
	d="
M116.928909,133.358749 
	C117.158806,133.296829 117.451393,133.493942 117.786407,133.961868 
	C117.549759,134.027710 117.270676,133.822739 116.928909,133.358749 
z"/>
<path fill="#BAF7FC" opacity="1.000000" stroke="none" 
	d="
M115.054428,131.255585 
	C115.279564,131.190247 115.551231,131.384750 115.882507,131.829742 
	C115.661728,131.891953 115.381348,131.703705 115.054428,131.255585 
z"/>
<path fill="#BAF7FC" opacity="1.000000" stroke="none" 
	d="
M80.637939,119.914810 
	C80.716400,120.123184 80.559738,120.434631 80.138649,120.811798 
	C80.050415,120.590973 80.226616,120.304428 80.637939,119.914810 
z"/>
<path fill="#BAF7FC" opacity="1.000000" stroke="none" 
	d="
M75.342941,112.056870 
	C75.244675,111.847733 75.390671,111.532852 75.787750,111.118912 
	C75.888283,111.330276 75.737747,111.640701 75.342941,112.056870 
z"/>
<path fill="#FD8033" opacity="1.000000" stroke="none" 
	d="
M79.611252,81.987198 
	C79.969498,82.480003 79.986588,82.914299 80.006012,83.675064 
	C78.277832,84.003571 76.547318,84.005615 74.381950,84.015945 
	C71.804268,82.067490 69.661446,80.110748 67.174088,78.181610 
	C66.829544,78.209206 66.852966,78.185600 66.803101,77.913559 
	C66.456581,77.456345 66.159935,77.271172 65.863281,77.086006 
	C65.863281,77.086006 65.897034,77.107475 65.876457,77.120255 
	C65.381065,75.425491 64.906250,73.717964 63.948017,70.271927 
	C67.125992,71.449501 69.840340,71.765625 71.551414,73.243408 
	C74.457230,75.753036 76.730820,78.994690 79.611252,81.987198 
z"/>
<path fill="#FD8033" opacity="1.000000" stroke="none" 
	d="
M79.877243,85.259117 
	C80.338211,85.068596 80.594986,85.256775 80.912498,85.730995 
	C80.598579,86.982216 80.168938,88.022415 79.739296,89.062607 
	C79.253693,88.844757 78.768097,88.626900 78.282494,88.409042 
	C78.764336,87.460297 79.246185,86.511543 79.877243,85.259117 
z"/>
<path fill="#F18E53" opacity="1.000000" stroke="none" 
	d="
M65.934647,77.344971 
	C66.159935,77.271172 66.456581,77.456345 66.815590,77.906433 
	C66.587296,77.982208 66.296654,77.793076 65.934647,77.344971 
z"/>
</svg>
