<svg version="1.1" id="Layer_1" xmlns="http://www.w3.org/2000/svg" xmlns:xlink="http://www.w3.org/1999/xlink" x="0px" y="0px"
	 width="100%" viewBox="0 0 200 200" enable-background="new 0 0 200 200" xml:space="preserve">
<path fill="#3A71FB" opacity="1.000000" stroke="none" 
	d="
M142.000000,1.000000 
	C144.041672,1.000000 146.083328,1.000000 148.661469,1.374799 
	C150.749725,2.214729 152.272583,2.856318 153.858017,3.116381 
	C164.222809,4.816564 173.519516,8.667414 181.103043,16.535898 
	C181.652496,17.035923 182.096252,17.291679 182.425812,17.593462 
	C182.311646,17.639486 182.550720,17.534597 182.501556,17.897039 
	C184.046768,19.784389 185.641113,21.309298 187.177094,22.852844 
	C187.118713,22.871481 187.084503,22.753784 187.221619,22.992886 
	C187.628525,23.477152 187.898331,23.722319 188.377274,24.075607 
	C188.839767,24.402325 188.972366,24.678833 189.005005,25.374449 
	C190.082550,27.116802 191.139297,28.497965 192.160431,29.882629 
	C192.124817,29.886131 192.135849,29.815405 192.177155,30.123100 
	C192.558517,30.936543 192.898575,31.442287 193.187744,31.924618 
	C193.136841,31.901205 193.186462,31.800735 193.206085,32.110252 
	C193.559158,32.922985 193.892593,33.426205 194.181519,33.917339 
	C194.136978,33.905254 194.164169,33.817070 194.128937,34.229668 
	C195.508774,39.093571 196.923843,43.544872 198.398041,48.105499 
	C198.457153,48.214821 198.241852,48.339039 198.184998,48.849525 
	C198.406921,54.828976 198.959198,60.300011 198.917755,65.766548 
	C198.724777,91.213417 198.342209,116.658821 198.103287,142.105453 
	C198.075500,145.063217 198.517578,148.025375 198.785233,151.308807 
	C198.549194,152.419800 198.269745,153.207504 197.744843,154.266083 
	C196.735153,158.095200 195.970917,161.653442 195.183060,165.151688 
	C195.159454,165.091690 195.280670,165.047729 195.030899,165.281372 
	C194.534592,166.366898 194.288040,167.218750 194.025482,168.042892 
	C194.009476,168.015167 194.071777,168.000443 193.861206,168.217331 
	C193.460190,168.997437 193.269745,169.560669 193.064056,170.084076 
	C193.048828,170.044250 193.128876,170.014908 192.912170,170.220276 
	C192.473145,170.968155 192.250809,171.510666 192.013397,172.029541 
	C191.998306,172.005920 192.052460,172.020447 191.749023,172.134247 
	C191.135284,172.982895 190.824997,173.717712 190.488358,174.403503 
	C190.462006,174.354446 190.564621,174.311218 190.280579,174.454620 
	C189.742126,175.152237 189.487732,175.706421 189.216370,176.206665 
	C189.199417,176.152740 189.308609,176.123352 189.082687,176.294037 
	C188.676712,176.793274 188.496658,177.121826 188.325165,177.360718 
	C188.333740,177.271027 188.512177,177.296051 188.231659,177.419250 
	C187.641937,178.045563 187.332764,178.548676 187.011078,179.026093 
	C186.998581,179.000397 187.055542,179.005157 186.847733,179.161209 
	C186.441376,179.599701 186.242828,179.882126 186.040283,180.101288 
	C186.036285,180.037994 186.162903,180.031006 185.942474,180.194199 
	C185.511139,180.654160 185.300217,180.950928 185.087830,181.165039 
	C185.086365,181.082382 185.251709,181.081711 185.016266,181.234741 
	C184.558655,181.686035 184.336487,181.984268 184.129227,182.220428 
	C184.144150,182.158340 184.267319,182.192032 183.947327,182.251083 
	C183.147842,182.961548 182.668365,183.612961 182.171600,184.203918 
	C182.154312,184.143478 182.276215,184.112610 182.033585,184.251282 
	C181.551727,184.672699 181.312500,184.955414 181.072937,185.157135 
	C181.072586,185.076157 181.234543,185.077499 180.998413,185.218536 
	C180.521957,185.633850 180.281616,185.908127 180.044067,186.114319 
	C180.046844,186.046219 180.182968,186.053024 179.953552,186.182770 
	C179.485001,186.566940 179.245850,186.821365 179.009018,187.043823 
	C179.011353,187.011856 179.071121,187.034988 178.746735,187.087585 
	C177.661835,187.857254 176.901306,188.574310 176.148087,189.250092 
	C176.155380,189.208817 176.236954,189.228241 175.865662,189.197693 
	C174.125366,190.291580 172.756378,191.416016 171.355988,192.481140 
	C171.324585,192.421844 171.446884,192.366608 171.177185,192.431885 
	C170.609894,192.709717 170.312286,192.922272 170.030502,193.092529 
	C170.046326,193.050201 170.130508,193.083008 169.820190,193.120346 
	C168.983734,193.476761 168.457581,193.795853 167.882050,194.205536 
	C167.832672,194.296158 167.636505,194.232071 167.207001,194.202606 
	C162.519241,195.525726 158.260971,196.878326 153.898193,198.319366 
	C153.793671,198.407806 153.542068,198.299713 153.043930,198.231125 
	C144.710388,198.475082 136.874985,198.787628 128.568863,199.079315 
	C116.994896,199.049011 105.891273,198.988937 94.788719,199.071960 
	C92.520477,199.088913 90.256248,199.642960 87.565308,199.961792 
	C85.444305,199.941223 83.748169,199.908264 81.678360,199.696411 
	C79.836174,199.353333 78.368118,199.051346 76.899086,199.046478 
	C63.505142,199.001999 50.148071,198.733795 37.253933,194.383057 
	C36.203270,194.028549 34.969128,194.217804 33.861107,194.145386 
	C33.901974,194.136398 33.916843,194.218750 33.746788,193.910934 
	C32.324123,193.116974 31.071520,192.630844 29.854031,192.135208 
	C29.889147,192.125702 29.881563,192.198074 29.798901,191.858063 
	C28.134752,190.675476 26.553267,189.832916 24.747196,188.935928 
	C24.237446,188.721268 24.052359,188.483231 23.805845,187.945847 
	C23.349680,187.509460 23.055019,187.294586 22.817720,187.098785 
	C22.875082,187.117844 22.834019,187.231552 22.795437,186.877563 
	C20.862045,184.999146 18.967234,183.474701 17.039022,181.968170 
	C17.005621,181.986084 17.051130,181.925415 17.022266,181.575272 
	C15.949241,180.180405 14.905078,179.135681 13.893991,178.070755 
	C13.927068,178.050552 13.966360,178.117371 13.838186,177.899277 
	C13.459179,177.458679 13.208346,177.236176 12.980217,177.007965 
	C13.002919,177.002228 12.969836,177.035599 12.962801,176.665054 
	C11.305513,173.860962 9.655263,171.427429 8.002602,168.996948 
	C8.000191,169.000000 8.006302,168.996933 8.009742,168.596649 
	C6.574969,159.141464 5.238711,150.068512 3.642095,141.041626 
	C3.098475,137.968140 1.899514,135.010544 1.000000,132.000000 
	C1.000000,109.979103 1.000000,87.958214 1.264933,65.231720 
	C1.353244,63.017414 1.176622,61.508709 1.000000,60.000000 
	C1.000000,57.958332 1.000000,55.916668 1.374991,53.306213 
	C2.686556,48.905220 3.528854,45.047058 4.575406,41.245125 
	C10.254154,20.615271 28.196228,5.529717 49.839527,2.966566 
	C51.283730,2.795534 52.615784,1.677545 54.000000,1.000000 
	C56.370556,1.000000 58.741116,1.000000 61.715302,1.262088 
	C63.212620,1.349451 64.106308,1.174725 65.000000,1.000000 
	C88.687561,1.000000 112.375122,1.000000 136.762711,1.271302 
	C138.975159,1.361736 140.487579,1.180868 142.000000,1.000000 
M18.994675,66.604469 
	C18.913132,84.091454 18.673149,101.579712 18.812714,119.064926 
	C18.889702,128.710464 19.148830,138.397354 20.127550,147.983765 
	C22.029980,166.617752 33.715420,179.213486 52.335903,181.177185 
	C84.032860,184.519867 115.899117,184.200485 147.602936,181.457214 
	C167.657715,179.721924 180.290283,168.018799 181.204559,148.206924 
	C182.659927,116.670204 182.698364,84.960396 181.149200,53.431232 
	C180.145493,33.003258 166.610352,20.890936 146.103500,20.068214 
	C117.677979,18.927803 89.185768,19.386744 60.721821,19.339064 
	C56.765438,19.332438 52.778549,20.186077 48.855259,20.909735 
	C35.076210,23.451302 23.685400,34.518414 21.040365,48.297428 
	C19.946239,53.997147 19.664724,59.852848 18.994675,66.604469 
z"/>
<path fill="#F9FCFE" opacity="1.000000" stroke="none" 
	d="
M167.636505,194.232071 
	C167.636505,194.232071 167.832672,194.296158 168.204834,194.199860 
	C169.094833,193.763382 169.612671,193.423203 170.130508,193.083008 
	C170.130508,193.083008 170.046326,193.050201 170.318359,193.070709 
	C170.875900,192.849670 171.161392,192.608139 171.446884,192.366608 
	C171.446884,192.366608 171.324585,192.421844 171.672760,192.381104 
	C173.426285,191.302994 174.831619,190.265625 176.236954,189.228241 
	C176.236954,189.228241 176.155380,189.208817 176.459137,189.175568 
	C177.532303,188.439880 178.301712,187.737442 179.071136,187.035004 
	C179.071121,187.034988 179.011353,187.011856 179.280991,186.974976 
	C179.761398,186.643066 179.972183,186.348038 180.182968,186.053024 
	C180.182968,186.053024 180.046844,186.046219 180.322601,186.028732 
	C180.810425,185.699997 181.022491,185.388748 181.234543,185.077499 
	C181.234543,185.077499 181.072586,185.076157 181.353424,185.065353 
	C181.848251,184.740570 182.062241,184.426590 182.276215,184.112610 
	C182.276215,184.112610 182.154312,184.143478 182.455719,184.092682 
	C183.260513,183.425262 183.763916,182.808655 184.267319,182.192032 
	C184.267319,182.192032 184.144150,182.158340 184.405731,182.116791 
	C184.862122,181.744080 185.056915,181.412888 185.251709,181.081711 
	C185.251709,181.081711 185.086365,181.082382 185.358582,181.057556 
	C185.808167,180.698837 185.985535,180.364914 186.162903,180.031006 
	C186.162903,180.031006 186.036285,180.037994 186.298233,179.999496 
	C186.725296,179.642395 186.890427,179.323776 187.055542,179.005157 
	C187.055542,179.005157 186.998581,179.000397 187.285583,178.904144 
	C187.885788,178.303940 188.198975,177.799988 188.512177,177.296051 
	C188.512177,177.296051 188.333740,177.271027 188.580627,177.216415 
	C188.987885,176.815659 189.148239,176.469498 189.308609,176.123352 
	C189.308609,176.123352 189.199417,176.152740 189.474915,176.044022 
	C190.021805,175.393951 190.293213,174.852585 190.564621,174.311218 
	C190.564621,174.311218 190.462006,174.354446 190.732773,174.231415 
	C191.353180,173.412399 191.702820,172.716415 192.052460,172.020447 
	C192.052460,172.020447 191.998306,172.005920 192.267700,171.858398 
	C192.734360,171.145538 192.931610,170.580231 193.128876,170.014908 
	C193.128876,170.014908 193.048828,170.044250 193.305939,169.891876 
	C193.732620,169.159805 193.902191,168.580124 194.071777,168.000443 
	C194.071777,168.000443 194.009476,168.015167 194.285126,167.823303 
	C194.800751,166.770203 195.040710,165.908966 195.280670,165.047729 
	C195.280670,165.047729 195.159454,165.091690 195.451889,164.899048 
	C196.492981,161.136002 197.241638,157.565598 197.990295,153.995209 
	C198.269745,153.207504 198.549194,152.419800 198.885574,150.946259 
	C199.628342,148.840286 200.314178,147.420151 201.000000,146.000000 
	C201.000000,164.261429 201.000000,182.522858 201.000000,201.000000 
	C182.312988,201.000000 163.625153,201.000000 144.616089,200.638000 
	C147.377258,199.617249 150.459671,198.958481 153.542068,198.299713 
	C153.542068,198.299713 153.793671,198.407806 154.313171,198.351883 
	C159.100632,196.941330 163.368561,195.586700 167.636505,194.232071 
z"/>
<path fill="#FAFDFE" opacity="1.000000" stroke="none" 
	d="
M180.997330,16.291632 
	C173.519516,8.667414 164.222809,4.816564 153.858017,3.116381 
	C152.272583,2.856318 150.749725,2.214729 149.098969,1.374799 
	C166.265350,1.000000 183.530685,1.000000 201.000000,1.000000 
	C201.000000,20.687092 201.000000,40.374886 200.652557,60.335548 
	C199.617371,56.518620 198.929611,52.428829 198.241852,48.339039 
	C198.241852,48.339039 198.457153,48.214821 198.413940,47.681259 
	C196.968552,42.704151 195.566360,38.260612 194.164169,33.817070 
	C194.164169,33.817070 194.136978,33.905254 194.160568,33.605400 
	C193.851593,32.803944 193.519028,32.302341 193.186462,31.800735 
	C193.186462,31.800735 193.136841,31.901205 193.175537,31.605305 
	C192.854782,30.811405 192.495316,30.313406 192.135849,29.815407 
	C192.135849,29.815405 192.124817,29.886131 192.097809,29.554502 
	C191.041931,27.819668 190.013062,26.416462 188.984192,25.013256 
	C188.972366,24.678833 188.839767,24.402325 188.297302,23.795483 
	C187.700302,23.189421 187.392395,22.971603 187.084503,22.753784 
	C187.084503,22.753784 187.118713,22.871481 187.074753,22.537247 
	C185.537430,20.646873 184.044083,19.090736 182.550720,17.534597 
	C182.550720,17.534597 182.311646,17.639486 182.305435,17.359673 
	C181.865265,16.817116 181.431290,16.554373 180.997330,16.291632 
z"/>
<path fill="#FAFDFE" opacity="1.000000" stroke="none" 
	d="
M23.967350,188.167374 
	C24.052359,188.483231 24.237446,188.721268 24.923738,189.215332 
	C26.843765,190.432129 28.362665,191.315094 29.881563,192.198074 
	C29.881563,192.198074 29.889147,192.125702 30.053719,192.406860 
	C31.451143,193.198273 32.683994,193.708511 33.916847,194.218750 
	C33.916843,194.218750 33.901974,194.136398 34.105858,194.412750 
	C38.065945,195.840836 41.791817,197.106964 45.586555,198.113403 
	C49.690857,199.201950 53.859451,200.048111 58.000000,201.000000 
	C39.078018,201.000000 20.156038,201.000000 1.000000,201.000000 
	C1.000000,184.646515 1.000000,168.291916 1.333923,151.640259 
	C3.780665,157.227783 5.893484,163.112350 8.006303,168.996933 
	C8.006302,168.996933 8.000191,169.000000 8.036453,169.346283 
	C9.705088,172.140244 11.337460,174.587921 12.969833,177.035599 
	C12.969836,177.035599 13.002919,177.002228 13.047162,177.270370 
	C13.383056,177.731461 13.674707,177.924423 13.966360,178.117371 
	C13.966360,178.117371 13.927068,178.050552 13.962217,178.384628 
	C15.015288,179.787613 16.033211,180.856506 17.051132,181.925415 
	C17.051130,181.925415 17.005621,181.986084 17.162327,182.274017 
	C19.157362,184.118500 20.995687,185.675034 22.834015,187.231552 
	C22.834019,187.231552 22.875082,187.117844 22.921066,187.372665 
	C23.300482,187.807449 23.633915,187.987411 23.967350,188.167374 
z"/>
<path fill="#FAFDFE" opacity="1.000000" stroke="none" 
	d="
M53.531342,1.000000 
	C52.615784,1.677545 51.283730,2.795534 49.839527,2.966566 
	C28.196228,5.529717 10.254154,20.615271 4.575406,41.245125 
	C3.528854,45.047058 2.686556,48.905220 1.374991,52.868713 
	C1.000000,35.739201 1.000000,18.478403 1.000000,1.000000 
	C18.353622,1.000000 35.708153,1.000000 53.531342,1.000000 
z"/>
<path fill="#4F77E6" opacity="1.000000" stroke="none" 
	d="
M198.184998,48.849525 
	C198.929611,52.428829 199.617371,56.518620 200.652557,60.804207 
	C201.000000,66.354927 201.000000,71.709862 200.750916,77.864822 
	C200.351807,89.697510 200.157516,100.729919 200.097351,111.763062 
	C200.087845,113.507011 200.683929,115.254265 201.000000,117.000000 
	C201.000000,126.354225 201.000000,135.708450 201.000000,145.531342 
	C200.314178,147.420151 199.628342,148.840286 198.842163,150.622971 
	C198.517578,148.025375 198.075500,145.063217 198.103287,142.105453 
	C198.342209,116.658821 198.724777,91.213417 198.917755,65.766548 
	C198.959198,60.300011 198.406921,54.828976 198.184998,48.849525 
z"/>
<path fill="#4C78E7" opacity="1.000000" stroke="none" 
	d="
M58.468407,201.000000 
	C53.859451,200.048111 49.690857,199.201950 45.586555,198.113403 
	C41.791817,197.106964 38.065945,195.840836 34.064995,194.421738 
	C34.969128,194.217804 36.203270,194.028549 37.253933,194.383057 
	C50.148071,198.733795 63.505142,199.001999 76.899086,199.046478 
	C78.368118,199.051346 79.836174,199.353333 81.316269,199.736374 
	C80.218567,200.303482 79.109283,200.651733 78.000000,201.000000 
	C71.645599,201.000000 65.291206,201.000000 58.468407,201.000000 
z"/>
<path fill="#4C78E7" opacity="1.000000" stroke="none" 
	d="
M8.009743,168.596649 
	C5.893484,163.112350 3.780665,157.227783 1.333923,151.171600 
	C1.000000,148.299988 1.000000,145.599976 1.275779,142.269684 
	C1.646770,140.781128 1.741982,139.922867 1.879742,138.684525 
	C1.614860,136.869644 1.307430,135.434814 1.000000,134.000000 
	C1.000000,133.555557 1.000000,133.111099 1.000000,132.333328 
	C1.899514,135.010544 3.098475,137.968140 3.642095,141.041626 
	C5.238711,150.068512 6.574969,159.141464 8.009743,168.596649 
z"/>
<path fill="#4C78E7" opacity="1.000000" stroke="none" 
	d="
M87.990173,199.949432 
	C90.256248,199.642960 92.520477,199.088913 94.788719,199.071960 
	C105.891273,198.988937 116.994896,199.049011 128.561035,199.394684 
	C129.015945,200.153931 129.007965,200.576965 129.000000,201.000000 
	C124.975456,201.000000 120.950912,201.000000 116.123215,200.764313 
	C106.210091,200.335541 97.100136,200.142487 87.990173,199.949432 
z"/>
<path fill="#557BDD" opacity="1.000000" stroke="none" 
	d="
M129.466125,201.000000 
	C129.007965,200.576965 129.015945,200.153931 129.031738,199.415527 
	C136.874985,198.787628 144.710388,198.475082 153.043930,198.231125 
	C150.459671,198.958481 147.377258,199.617249 144.147430,200.638000 
	C139.310745,201.000000 134.621490,201.000000 129.466125,201.000000 
z"/>
<path fill="#75A3FF" opacity="1.000000" stroke="none" 
	d="
M201.000000,116.531342 
	C200.683929,115.254265 200.087845,113.507011 200.097351,111.763062 
	C200.157516,100.729919 200.351807,89.697510 200.750916,78.332428 
	C201.000000,90.687561 201.000000,103.375122 201.000000,116.531342 
z"/>
<path fill="#72A4FF" opacity="1.000000" stroke="none" 
	d="
M87.565308,199.961807 
	C97.100136,200.142487 106.210091,200.335541 115.660027,200.764313 
	C103.645775,201.000000 91.291542,201.000000 78.468658,201.000000 
	C79.109283,200.651733 80.218567,200.303482 81.689949,199.915253 
	C83.748169,199.908264 85.444305,199.941223 87.565308,199.961807 
z"/>
<path fill="#85AFFF" opacity="1.000000" stroke="none" 
	d="
M1.000000,134.416656 
	C1.307430,135.434814 1.614860,136.869644 1.670061,138.675186 
	C1.417831,139.045914 1.000000,139.000000 1.000000,139.000000 
	C1.000000,137.611115 1.000000,136.222214 1.000000,134.416656 
z"/>
<path fill="#9EC6FF" opacity="1.000000" stroke="none" 
	d="
M141.583344,1.000000 
	C140.487579,1.180868 138.975159,1.361736 137.231369,1.271302 
	C138.388885,1.000000 139.777786,1.000000 141.583344,1.000000 
z"/>
<path fill="#9CC2FF" opacity="1.000000" stroke="none" 
	d="
M1.000000,60.416664 
	C1.176622,61.508709 1.353244,63.017414 1.264933,64.763062 
	C1.000000,63.611111 1.000000,62.222221 1.000000,60.416664 
z"/>
<path fill="#92B9FF" opacity="1.000000" stroke="none" 
	d="
M64.625000,1.000000 
	C64.106308,1.174725 63.212620,1.349451 62.159466,1.262088 
	C62.750000,1.000000 63.500000,1.000000 64.625000,1.000000 
z"/>
<path fill="#A6CCFF" opacity="1.000000" stroke="none" 
	d="
M1.000000,139.375000 
	C1.000000,139.000000 1.417831,139.045914 1.627512,139.055252 
	C1.741982,139.922867 1.646770,140.781128 1.275779,141.819702 
	C1.000000,141.250000 1.000000,140.500000 1.000000,139.375000 
z"/>
<path fill="#FAFCFE" opacity="1.000000" stroke="none" 
	d="
M19.004158,66.121040 
	C19.664724,59.852848 19.946239,53.997147 21.040365,48.297428 
	C23.685400,34.518414 35.076210,23.451302 48.855259,20.909735 
	C52.778549,20.186077 56.765438,19.332438 60.721821,19.339064 
	C89.185768,19.386744 117.677979,18.927803 146.103500,20.068214 
	C166.610352,20.890936 180.145493,33.003258 181.149200,53.431232 
	C182.698364,84.960396 182.659927,116.670204 181.204559,148.206924 
	C180.290283,168.018799 167.657715,179.721924 147.602936,181.457214 
	C115.899117,184.200485 84.032860,184.519867 52.335903,181.177185 
	C33.715420,179.213486 22.029980,166.617752 20.127550,147.983765 
	C19.148830,138.397354 18.889702,128.710464 18.812714,119.064926 
	C18.673149,101.579712 18.913132,84.091454 19.004158,66.121040 
M118.877739,159.781723 
	C119.226830,159.929199 119.575920,160.076660 119.905678,160.128494 
	C119.905678,160.128494 119.810699,160.150787 120.134819,160.684570 
	C120.696724,160.939438 121.258629,161.194290 121.783470,161.341400 
	C121.783470,161.341400 121.678429,161.385544 122.166428,161.891464 
	C131.775818,166.637100 141.283356,167.094406 150.851746,161.246063 
	C150.851746,161.246063 150.952499,161.057770 151.607391,160.947083 
	C152.764084,159.980972 153.920776,159.014847 155.018997,158.021179 
	C155.018997,158.021179 155.014145,158.085632 155.554367,157.950363 
	C155.736801,157.641327 155.919250,157.332291 156.023483,157.023392 
	C156.023483,157.023392 156.024231,157.101593 156.560043,156.952255 
	C156.740707,156.642395 156.921371,156.332520 157.023544,156.023270 
	C157.023544,156.023270 157.024796,156.101746 157.557999,155.947830 
	C157.735825,155.637192 157.913635,155.326569 158.026443,155.022766 
	C158.026443,155.022766 158.054718,155.081696 158.639999,154.791031 
	C159.448914,153.515610 160.257812,152.240173 161.257599,150.860916 
	C161.257599,150.860916 161.232941,150.645020 161.802475,150.140182 
	C166.649628,140.577438 167.039124,131.082169 161.346436,121.754745 
	C161.346436,121.754745 161.426254,121.746368 161.275681,121.105270 
	C160.374771,119.918701 159.473862,118.732124 158.563766,117.792641 
	C158.563766,117.792641 158.548431,117.550766 158.365128,117.064682 
	C158.090240,116.864319 157.815338,116.663956 157.572495,116.364822 
	C157.572495,116.364822 157.479233,116.319145 157.214020,115.777298 
	C156.138763,114.880486 155.063507,113.983673 153.798843,112.832428 
	C153.798843,112.832428 153.488586,112.766548 153.088577,112.190392 
	C149.001892,110.467369 145.022125,107.667526 140.805923,107.248878 
	C132.418365,106.416039 123.859558,106.404556 115.460670,107.112053 
	C112.762901,107.339302 110.345322,110.892670 107.377792,113.307114 
	C107.289948,113.859894 107.202103,114.412666 106.851677,115.878662 
	C106.822128,122.954124 106.143959,130.107162 106.977882,137.079361 
	C107.593010,142.222290 110.181618,147.129181 111.933701,152.056976 
	C111.933701,152.056976 111.848755,152.015579 111.949997,152.655167 
	C112.246063,152.956924 112.542130,153.258698 112.858398,153.828690 
	C112.858398,153.828690 113.080208,153.980881 113.259590,154.608627 
	C114.665085,155.926086 116.070580,157.243530 117.572395,158.553391 
	C117.572395,158.553391 117.495453,158.494949 117.782959,158.977463 
	C118.113838,159.134430 118.444710,159.291382 118.781166,159.269791 
	C118.781166,159.269791 118.602524,159.270767 118.877739,159.781723 
M44.066673,45.582222 
	C35.611961,55.569103 33.579376,66.739250 39.334152,78.502892 
	C44.892921,89.865845 54.663944,95.090645 67.304657,94.971504 
	C72.957115,94.918221 78.613037,95.061646 84.262634,94.922653 
	C90.939339,94.758377 94.750954,90.973793 94.924339,84.317337 
	C95.071487,78.668167 94.942085,73.012199 94.967445,67.359383 
	C95.025909,54.324001 89.618080,44.417534 77.627304,38.976490 
	C65.405029,33.430405 54.303150,36.088573 44.066673,45.582222 
M139.863174,36.490154 
	C120.815445,34.964947 106.876221,47.675549 106.810768,66.644394 
	C106.790642,72.475975 106.746956,78.308578 106.827911,84.139130 
	C106.921783,90.900002 110.602928,94.769775 117.270103,94.915260 
	C123.931465,95.060623 130.611526,95.194572 137.260681,94.869316 
	C149.326706,94.279083 158.068024,88.107590 162.868622,77.252533 
	C170.725891,59.485775 159.986145,40.244545 139.863174,36.490154 
M36.722385,131.411682 
	C34.340237,147.686905 45.199425,162.433914 60.788033,165.081329 
	C77.248665,167.876816 93.334808,154.456726 94.586449,140.081406 
	C95.291855,131.979767 95.091187,123.763657 94.764122,115.620583 
	C94.555618,110.429344 90.376900,106.991875 84.974060,106.866089 
	C78.480064,106.714905 71.979477,106.748299 65.483055,106.820107 
	C51.031223,106.979866 39.785522,116.346382 36.722385,131.411682 
z"/>
<path fill="#4F77E6" opacity="1.000000" stroke="none" 
	d="
M194.128937,34.229668 
	C195.566360,38.260612 196.968552,42.704151 198.354828,47.571934 
	C196.923843,43.544872 195.508774,39.093571 194.128937,34.229668 
z"/>
<path fill="#4F77E6" opacity="1.000000" stroke="none" 
	d="
M167.207001,194.202606 
	C163.368561,195.586700 159.100632,196.941330 154.417694,198.263443 
	C158.260971,196.878326 162.519241,195.525726 167.207001,194.202606 
z"/>
<path fill="#4F77E6" opacity="1.000000" stroke="none" 
	d="
M197.744843,154.266083 
	C197.241638,157.565598 196.492981,161.136002 195.475494,164.959045 
	C195.970917,161.653442 196.735153,158.095200 197.744843,154.266083 
z"/>
<path fill="#4C78E7" opacity="1.000000" stroke="none" 
	d="
M12.962798,176.665054 
	C11.337460,174.587921 9.705088,172.140244 8.038864,169.343231 
	C9.655263,171.427429 11.305513,173.860962 12.962798,176.665054 
z"/>
<path fill="#4C78E7" opacity="1.000000" stroke="none" 
	d="
M22.795435,186.877563 
	C20.995687,185.675034 19.157362,184.118500 17.195728,182.256104 
	C18.967234,183.474701 20.862045,184.999146 22.795435,186.877563 
z"/>
<path fill="#4F77E6" opacity="1.000000" stroke="none" 
	d="
M182.501556,17.897039 
	C184.044083,19.090736 185.537430,20.646873 187.133133,22.518608 
	C185.641113,21.309298 184.046768,19.784389 182.501556,17.897039 
z"/>
<path fill="#4F77E6" opacity="1.000000" stroke="none" 
	d="
M175.865662,189.197693 
	C174.831619,190.265625 173.426285,191.302994 171.704163,192.440399 
	C172.756378,191.416016 174.125366,190.291580 175.865662,189.197693 
z"/>
<path fill="#4C78E7" opacity="1.000000" stroke="none" 
	d="
M29.798901,191.858063 
	C28.362665,191.315094 26.843765,190.432129 25.148323,189.269745 
	C26.553267,189.832916 28.134752,190.675476 29.798901,191.858063 
z"/>
<path fill="#4F77E6" opacity="1.000000" stroke="none" 
	d="
M189.005005,25.374447 
	C190.013062,26.416462 191.041931,27.819668 192.133423,29.551001 
	C191.139297,28.497965 190.082550,27.116802 189.005005,25.374447 
z"/>
<path fill="#4C78E7" opacity="1.000000" stroke="none" 
	d="
M17.022266,181.575272 
	C16.033211,180.856506 15.015288,179.787613 13.929141,178.404831 
	C14.905078,179.135681 15.949241,180.180405 17.022266,181.575272 
z"/>
<path fill="#4C78E7" opacity="1.000000" stroke="none" 
	d="
M33.746788,193.910919 
	C32.683994,193.708511 31.451143,193.198273 30.018604,192.416382 
	C31.071520,192.630844 32.324123,193.116974 33.746788,193.910919 
z"/>
<path fill="#4F77E6" opacity="1.000000" stroke="none" 
	d="
M191.749023,172.134247 
	C191.702820,172.716415 191.353180,173.412399 190.759125,174.280457 
	C190.824997,173.717712 191.135284,172.982895 191.749023,172.134247 
z"/>
<path fill="#4F77E6" opacity="1.000000" stroke="none" 
	d="
M178.746735,187.087585 
	C178.301712,187.737442 177.532303,188.439880 176.451843,189.216858 
	C176.901306,188.574310 177.661835,187.857254 178.746735,187.087585 
z"/>
<path fill="#4F77E6" opacity="1.000000" stroke="none" 
	d="
M183.947327,182.251083 
	C183.763916,182.808655 183.260513,183.425262 182.472992,184.153122 
	C182.668365,183.612961 183.147842,182.961548 183.947327,182.251083 
z"/>
<path fill="#4F77E6" opacity="1.000000" stroke="none" 
	d="
M195.030899,165.281372 
	C195.040710,165.908966 194.800751,166.770203 194.301147,167.851028 
	C194.288040,167.218750 194.534592,166.366898 195.030899,165.281372 
z"/>
<path fill="#4F77E6" opacity="1.000000" stroke="none" 
	d="
M193.861206,168.217331 
	C193.902191,168.580124 193.732620,169.159805 193.321167,169.931686 
	C193.269745,169.560669 193.460190,168.997437 193.861206,168.217331 
z"/>
<path fill="#4F77E6" opacity="1.000000" stroke="none" 
	d="
M181.103043,16.535898 
	C181.431290,16.554373 181.865265,16.817116 182.419617,17.313648 
	C182.096252,17.291679 181.652496,17.035923 181.103043,16.535898 
z"/>
<path fill="#4F77E6" opacity="1.000000" stroke="none" 
	d="
M193.206085,32.110252 
	C193.519028,32.302341 193.851593,32.803944 194.205109,33.617485 
	C193.892593,33.426205 193.559158,32.922985 193.206085,32.110252 
z"/>
<path fill="#4F77E6" opacity="1.000000" stroke="none" 
	d="
M169.820190,193.120346 
	C169.612671,193.423203 169.094833,193.763382 168.254211,194.109253 
	C168.457581,193.795853 168.983734,193.476761 169.820190,193.120346 
z"/>
<path fill="#4F77E6" opacity="1.000000" stroke="none" 
	d="
M192.177155,30.123102 
	C192.495316,30.313406 192.854782,30.811405 193.226440,31.628717 
	C192.898575,31.442287 192.558517,30.936543 192.177155,30.123102 
z"/>
<path fill="#4F77E6" opacity="1.000000" stroke="none" 
	d="
M192.912170,170.220276 
	C192.931610,170.580231 192.734360,171.145538 192.282791,171.882019 
	C192.250809,171.510666 192.473145,170.968155 192.912170,170.220276 
z"/>
<path fill="#4F77E6" opacity="1.000000" stroke="none" 
	d="
M190.280579,174.454620 
	C190.293213,174.852585 190.021805,175.393951 189.491867,176.097961 
	C189.487732,175.706421 189.742126,175.152237 190.280579,174.454620 
z"/>
<path fill="#4F77E6" opacity="1.000000" stroke="none" 
	d="
M188.231659,177.419250 
	C188.198975,177.799988 187.885788,178.303940 187.298096,178.929840 
	C187.332764,178.548676 187.641937,178.045563 188.231659,177.419250 
z"/>
<path fill="#4F77E6" opacity="1.000000" stroke="none" 
	d="
M187.221619,22.992886 
	C187.392395,22.971603 187.700302,23.189421 188.088165,23.687363 
	C187.898331,23.722319 187.628525,23.477152 187.221619,22.992886 
z"/>
<path fill="#4F77E6" opacity="1.000000" stroke="none" 
	d="
M189.082687,176.294037 
	C189.148239,176.469498 188.987885,176.815659 188.572052,177.306091 
	C188.496658,177.121826 188.676712,176.793274 189.082687,176.294037 
z"/>
<path fill="#4F77E6" opacity="1.000000" stroke="none" 
	d="
M171.177185,192.431885 
	C171.161392,192.608139 170.875900,192.849670 170.302551,193.113022 
	C170.312286,192.922272 170.609894,192.709717 171.177185,192.431885 
z"/>
<path fill="#4C78E7" opacity="1.000000" stroke="none" 
	d="
M13.838186,177.899277 
	C13.674707,177.924423 13.383056,177.731461 13.024460,177.276093 
	C13.208346,177.236176 13.459179,177.458679 13.838186,177.899277 
z"/>
<path fill="#4C78E7" opacity="1.000000" stroke="none" 
	d="
M23.805843,187.945847 
	C23.633915,187.987411 23.300482,187.807449 22.863705,187.353607 
	C23.055019,187.294586 23.349680,187.509460 23.805843,187.945847 
z"/>
<path fill="#4F77E6" opacity="1.000000" stroke="none" 
	d="
M179.953552,186.182770 
	C179.972183,186.348038 179.761398,186.643066 179.278656,187.006927 
	C179.245850,186.821365 179.485001,186.566940 179.953552,186.182770 
z"/>
<path fill="#4F77E6" opacity="1.000000" stroke="none" 
	d="
M180.998413,185.218536 
	C181.022491,185.388748 180.810425,185.699997 180.319824,186.096832 
	C180.281616,185.908127 180.521957,185.633850 180.998413,185.218536 
z"/>
<path fill="#4F77E6" opacity="1.000000" stroke="none" 
	d="
M182.033585,184.251282 
	C182.062241,184.426590 181.848251,184.740570 181.353760,185.146332 
	C181.312500,184.955414 181.551727,184.672699 182.033585,184.251282 
z"/>
<path fill="#4F77E6" opacity="1.000000" stroke="none" 
	d="
M185.016266,181.234741 
	C185.056915,181.412888 184.862122,181.744080 184.390808,182.178879 
	C184.336487,181.984268 184.558655,181.686035 185.016266,181.234741 
z"/>
<path fill="#4F77E6" opacity="1.000000" stroke="none" 
	d="
M185.942474,180.194199 
	C185.985535,180.364914 185.808167,180.698837 185.360046,181.140228 
	C185.300217,180.950928 185.511139,180.654160 185.942474,180.194199 
z"/>
<path fill="#4F77E6" opacity="1.000000" stroke="none" 
	d="
M186.847748,179.161209 
	C186.890427,179.323776 186.725296,179.642395 186.302231,180.062775 
	C186.242828,179.882126 186.441376,179.599701 186.847748,179.161209 
z"/>
<path fill="#3A71FC" opacity="1.000000" stroke="none" 
	d="
M44.311329,45.322601 
	C54.303150,36.088573 65.405029,33.430405 77.627304,38.976490 
	C89.618080,44.417534 95.025909,54.324001 94.967445,67.359383 
	C94.942085,73.012199 95.071487,78.668167 94.924339,84.317337 
	C94.750954,90.973793 90.939339,94.758377 84.262634,94.922653 
	C78.613037,95.061646 72.957115,94.918221 67.304657,94.971504 
	C54.663944,95.090645 44.892921,89.865845 39.334152,78.502892 
	C33.579376,66.739250 35.611961,55.569103 44.311329,45.322601 
z"/>
<path fill="#3A71FC" opacity="1.000000" stroke="none" 
	d="
M140.276016,36.581493 
	C159.986145,40.244545 170.725891,59.485775 162.868622,77.252533 
	C158.068024,88.107590 149.326706,94.279083 137.260681,94.869316 
	C130.611526,95.194572 123.931465,95.060623 117.270103,94.915260 
	C110.602928,94.769775 106.921783,90.900002 106.827911,84.139130 
	C106.746956,78.308578 106.790642,72.475975 106.810768,66.644394 
	C106.876221,47.675549 120.815445,34.964947 140.276016,36.581493 
z"/>
<path fill="#3A71FC" opacity="1.000000" stroke="none" 
	d="
M36.782833,130.997437 
	C39.785522,116.346382 51.031223,106.979866 65.483055,106.820107 
	C71.979477,106.748299 78.480064,106.714905 84.974060,106.866089 
	C90.376900,106.991875 94.555618,110.429344 94.764122,115.620583 
	C95.091187,123.763657 95.291855,131.979767 94.586449,140.081406 
	C93.334808,154.456726 77.248665,167.876816 60.788033,165.081329 
	C45.199425,162.433914 34.340237,147.686905 36.782833,130.997437 
z"/>
<path fill="#3770FE" opacity="1.000000" stroke="none" 
	d="
M107.114258,114.965446 
	C107.202103,114.412666 107.289948,113.859894 107.941635,113.054535 
	C111.166451,111.224541 113.810402,108.339302 116.491425,108.304436 
	C126.195488,108.178261 136.092911,106.311134 145.585464,110.128975 
	C148.157394,111.163391 150.850891,111.895622 153.488586,112.766548 
	C153.488586,112.766548 153.798843,112.832428 153.926849,113.317017 
	C155.196320,114.640785 156.337784,115.479965 157.479233,116.319145 
	C157.479233,116.319145 157.572495,116.364822 157.631592,116.670769 
	C157.976593,117.168060 158.262512,117.359413 158.548431,117.550766 
	C158.548431,117.550766 158.563766,117.792641 158.504669,118.022888 
	C159.439117,119.417549 160.432693,120.581963 161.426254,121.746368 
	C161.426254,121.746368 161.346436,121.754745 161.294525,122.119263 
	C164.077087,130.683258 165.527451,138.885025 161.633392,147.217667 
	C161.171265,148.206528 161.350830,149.495285 161.232941,150.645020 
	C161.232941,150.645020 161.257599,150.860916 160.821106,151.007187 
	C159.607986,152.462860 158.831345,153.772278 158.054718,155.081696 
	C158.054718,155.081696 158.026443,155.022766 157.837814,155.154358 
	C157.441055,155.557877 157.232925,155.829819 157.024796,156.101746 
	C157.024796,156.101746 157.023544,156.023270 156.840317,156.156525 
	C156.446136,156.560379 156.235184,156.830994 156.024231,157.101593 
	C156.024231,157.101593 156.023483,157.023392 155.839844,157.154480 
	C155.442184,157.552246 155.228165,157.818939 155.014145,158.085632 
	C155.014145,158.085632 155.018997,158.021179 154.690201,158.036285 
	C153.225098,159.053513 152.088806,160.055649 150.952499,161.057770 
	C150.952499,161.057770 150.851746,161.246063 150.314728,161.200073 
	C148.648010,161.397156 147.464783,161.499619 146.397324,161.906128 
	C139.435791,164.557220 132.525314,165.039261 125.545334,161.899750 
	C124.409134,161.388718 122.974907,161.540253 121.678429,161.385529 
	C121.678429,161.385544 121.783470,161.341400 121.632767,161.126099 
	C120.924942,160.657471 120.367821,160.404129 119.810699,160.150787 
	C119.810699,160.150787 119.905678,160.128494 119.746658,159.952911 
	C119.259270,159.608490 118.930893,159.439621 118.602524,159.270767 
	C118.602524,159.270767 118.781166,159.269791 118.633476,159.118042 
	C118.155670,158.809189 117.825562,158.652069 117.495453,158.494949 
	C117.495453,158.494949 117.572395,158.553391 117.523743,158.188446 
	C116.010132,156.542618 114.545174,155.261749 113.080208,153.980881 
	C113.080208,153.980881 112.858398,153.828690 112.747162,153.399231 
	C112.373535,152.651703 112.111145,152.333633 111.848755,152.015579 
	C111.848755,152.015579 111.933701,152.056976 111.919754,151.703384 
	C109.732697,143.947021 107.225937,136.677917 107.860573,128.682983 
	C108.219719,124.158722 107.401947,119.541046 107.114258,114.965446 
z"/>
<path fill="#517AE6" opacity="1.000000" stroke="none" 
	d="
M153.288574,112.478470 
	C150.850891,111.895622 148.157394,111.163391 145.585464,110.128975 
	C136.092911,106.311134 126.195488,108.178261 116.491425,108.304436 
	C113.810402,108.339302 111.166451,111.224541 108.152519,112.863152 
	C110.345322,110.892670 112.762901,107.339302 115.460670,107.112053 
	C123.859558,106.404556 132.418365,106.416039 140.805923,107.248878 
	C145.022125,107.667526 149.001892,110.467369 153.288574,112.478470 
z"/>
<path fill="#517AE6" opacity="1.000000" stroke="none" 
	d="
M106.982971,115.422058 
	C107.401947,119.541046 108.219719,124.158722 107.860573,128.682983 
	C107.225937,136.677917 109.732697,143.947021 111.898361,151.745514 
	C110.181618,147.129181 107.593010,142.222290 106.977882,137.079361 
	C106.143959,130.107162 106.822128,122.954124 106.982971,115.422058 
z"/>
<path fill="#517AE6" opacity="1.000000" stroke="none" 
	d="
M121.922424,161.638489 
	C122.974907,161.540253 124.409134,161.388718 125.545334,161.899750 
	C132.525314,165.039261 139.435791,164.557220 146.397324,161.906128 
	C147.464783,161.499619 148.648010,161.397156 150.209061,161.184662 
	C141.283356,167.094406 131.775818,166.637100 121.922424,161.638489 
z"/>
<path fill="#517AE6" opacity="1.000000" stroke="none" 
	d="
M161.517700,150.392609 
	C161.350830,149.495285 161.171265,148.206528 161.633392,147.217667 
	C165.527451,138.885025 164.077087,130.683258 161.307159,122.081177 
	C167.039124,131.082169 166.649628,140.577438 161.517700,150.392609 
z"/>
<path fill="#517AE6" opacity="1.000000" stroke="none" 
	d="
M113.169899,154.294754 
	C114.545174,155.261749 116.010132,156.542618 117.475586,158.192230 
	C116.070580,157.243530 114.665085,155.926086 113.169899,154.294754 
z"/>
<path fill="#517AE6" opacity="1.000000" stroke="none" 
	d="
M158.347351,154.936371 
	C158.831345,153.772278 159.607986,152.462860 160.725662,151.059113 
	C160.257812,152.240173 159.448914,153.515610 158.347351,154.936371 
z"/>
<path fill="#517AE6" opacity="1.000000" stroke="none" 
	d="
M161.350967,121.425819 
	C160.432693,120.581963 159.439117,119.417549 158.509247,117.899345 
	C159.473862,118.732124 160.374771,119.918701 161.350967,121.425819 
z"/>
<path fill="#517AE6" opacity="1.000000" stroke="none" 
	d="
M151.279938,161.002426 
	C152.088806,160.055649 153.225098,159.053513 154.719421,158.050049 
	C153.920776,159.014847 152.764084,159.980972 151.279938,161.002426 
z"/>
<path fill="#517AE6" opacity="1.000000" stroke="none" 
	d="
M157.346619,116.048218 
	C156.337784,115.479965 155.196320,114.640785 154.021561,113.444229 
	C155.063507,113.983673 156.138763,114.880486 157.346619,116.048218 
z"/>
<path fill="#517AE6" opacity="1.000000" stroke="none" 
	d="
M119.972763,160.417679 
	C120.367821,160.404129 120.924942,160.657471 121.651291,161.179977 
	C121.258629,161.194290 120.696724,160.939438 119.972763,160.417679 
z"/>
<path fill="#517AE6" opacity="1.000000" stroke="none" 
	d="
M156.292145,157.026917 
	C156.235184,156.830994 156.446136,156.560379 156.879562,156.156219 
	C156.921371,156.332520 156.740707,156.642395 156.292145,157.026917 
z"/>
<path fill="#517AE6" opacity="1.000000" stroke="none" 
	d="
M158.456787,117.307724 
	C158.262512,117.359413 157.976593,117.168060 157.615570,116.720154 
	C157.815338,116.663956 158.090240,116.864319 158.456787,117.307724 
z"/>
<path fill="#517AE6" opacity="1.000000" stroke="none" 
	d="
M111.899376,152.335373 
	C112.111145,152.333633 112.373535,152.651703 112.737061,153.265106 
	C112.542130,153.258698 112.246063,152.956924 111.899376,152.335373 
z"/>
<path fill="#517AE6" opacity="1.000000" stroke="none" 
	d="
M157.291397,156.024780 
	C157.232925,155.829819 157.441055,155.557877 157.870316,155.150940 
	C157.913635,155.326569 157.735825,155.637192 157.291397,156.024780 
z"/>
<path fill="#517AE6" opacity="1.000000" stroke="none" 
	d="
M155.284256,158.018005 
	C155.228165,157.818939 155.442184,157.552246 155.878952,157.154419 
	C155.919250,157.332291 155.736801,157.641327 155.284256,158.018005 
z"/>
<path fill="#517AE6" opacity="1.000000" stroke="none" 
	d="
M117.639206,158.736206 
	C117.825562,158.652069 118.155670,158.809189 118.630692,159.207321 
	C118.444710,159.291382 118.113838,159.134430 117.639206,158.736206 
z"/>
<path fill="#517AE6" opacity="1.000000" stroke="none" 
	d="
M118.740128,159.526245 
	C118.930893,159.439621 119.259270,159.608490 119.756325,160.000732 
	C119.575920,160.076660 119.226830,159.929199 118.740128,159.526245 
z"/>
</svg>