<svg version="1.1" id="Layer_1" xmlns="http://www.w3.org/2000/svg" xmlns:xlink="http://www.w3.org/1999/xlink" x="0px" y="0px"
	 width="100%" viewBox="0 0 200 200" enable-background="new 0 0 200 200" xml:space="preserve">
<path fill="#212025" opacity="1.000000" stroke="none" 
	d="
M109.000000,201.000000 
	C72.689072,201.000000 36.878147,201.000000 1.033611,201.000000 
	C1.033611,134.397446 1.033611,67.794861 1.033611,1.096142 
	C67.560760,1.096142 134.121704,1.096142 200.841324,1.096142 
	C200.841324,67.666367 200.841324,134.333145 200.841324,201.000000 
	C170.461807,201.000000 139.980911,201.000000 109.000000,201.000000 
M70.546814,164.920593 
	C70.705498,164.617508 70.864174,164.314438 70.998749,163.999832 
	C70.998749,163.999832 71.014191,164.021973 71.649529,163.833954 
	C74.779358,160.793777 77.909180,157.753601 81.171265,155.608322 
	C80.471313,160.564011 79.771370,165.519714 78.898308,171.701019 
	C81.132484,169.775223 82.475822,168.646332 83.787529,167.481796 
	C91.185989,160.913467 98.576851,154.336578 106.905655,147.857544 
	C110.570061,147.863480 114.234489,147.880997 117.898865,147.873184 
	C128.385941,147.850784 134.979965,142.395706 136.096863,131.951828 
	C138.309586,111.261398 140.181137,90.534111 142.120468,69.815201 
	C142.442093,66.379143 142.571960,62.920113 146.873764,62.151173 
	C154.147034,60.851093 158.179855,56.584133 159.180313,49.313877 
	C159.291687,48.504635 159.688431,47.734840 159.951324,46.946255 
	C162.333084,39.802074 161.722473,38.988552 153.949020,38.969337 
	C151.190445,38.962517 148.431839,38.968243 144.725876,38.968243 
	C146.756653,36.109856 148.436722,34.278934 149.437683,32.131474 
	C150.017059,30.888426 149.502792,29.135611 149.480713,27.612211 
	C147.847061,27.913527 145.599258,27.653149 144.705124,28.630806 
	C142.724289,30.796680 141.656082,33.778255 139.763199,36.050186 
	C138.500473,37.565762 136.457932,38.431637 134.764404,39.588284 
	C134.375259,39.101681 133.986099,38.615078 133.596939,38.128475 
	C135.471848,34.865368 137.362289,31.611059 139.216934,28.336475 
	C140.807220,25.528627 140.476715,22.654978 137.339874,21.901659 
	C135.710480,21.510361 133.449158,23.610519 131.532333,24.689983 
	C131.202316,24.875824 131.175446,25.590223 130.996750,26.055939 
	C123.195908,46.385731 115.442604,66.733971 107.566628,87.034607 
	C104.597740,94.687035 99.302055,98.140572 91.023331,98.181198 
	C83.361267,98.218803 75.698853,98.185471 68.036598,98.184639 
	C60.108612,98.183784 52.180622,98.184448 44.129738,98.184448 
	C43.944885,105.272858 48.929546,107.063492 54.050396,108.874382 
	C54.050396,114.083023 54.050396,119.065598 53.826775,124.826256 
	C53.867561,125.911499 53.908348,126.996742 53.633572,128.695358 
	C51.280483,133.998993 48.894543,139.288376 46.583519,144.610275 
	C44.264042,149.951645 46.376160,153.346481 52.215591,153.755371 
	C53.839081,153.869049 55.465866,153.935745 57.801537,154.062576 
	C55.650417,164.454987 53.599819,174.361771 51.549221,184.268555 
	C51.975498,184.459854 52.401775,184.651169 52.828053,184.842484 
	C55.884472,181.228241 58.940895,177.614014 62.436577,173.735855 
	C62.706612,173.307663 62.976646,172.879471 63.804058,172.216736 
	C63.994755,171.873138 64.185448,171.529541 64.929344,170.858490 
	C65.907089,169.718567 66.884842,168.578629 68.407082,167.284470 
	C68.954758,166.533585 69.502426,165.782700 70.000671,165.001450 
	C70.000671,165.001450 70.027802,165.052734 70.546814,164.920593 
z"/>
<path fill="#FAF9FA" opacity="1.000000" stroke="none" 
	d="
M54.050396,124.048164 
	C54.050396,119.065598 54.050396,114.083023 54.050396,108.874382 
	C48.929546,107.063492 43.944885,105.272858 44.129738,98.184448 
	C52.180622,98.184448 60.108612,98.183784 68.036598,98.184639 
	C75.698853,98.185471 83.361267,98.218803 91.023331,98.181198 
	C99.302055,98.140572 104.597740,94.687035 107.566628,87.034607 
	C115.442604,66.733971 123.195908,46.385731 130.996750,26.055939 
	C131.175446,25.590223 131.202316,24.875824 131.532333,24.689983 
	C133.449158,23.610519 135.710480,21.510361 137.339874,21.901659 
	C140.476715,22.654978 140.807220,25.528627 139.216934,28.336475 
	C137.362289,31.611059 135.471848,34.865368 133.596939,38.128475 
	C133.986099,38.615078 134.375259,39.101681 134.764404,39.588284 
	C136.457932,38.431637 138.500473,37.565762 139.763199,36.050186 
	C141.656082,33.778255 142.724289,30.796680 144.705124,28.630806 
	C145.599258,27.653149 147.847061,27.913527 149.480713,27.612211 
	C149.502792,29.135611 150.017059,30.888426 149.437683,32.131474 
	C148.436722,34.278934 146.756653,36.109856 144.725876,38.968243 
	C148.431839,38.968243 151.190445,38.962517 153.949020,38.969337 
	C161.722473,38.988552 162.333084,39.802074 159.951324,46.946255 
	C159.688431,47.734840 159.291687,48.504635 159.180313,49.313877 
	C158.179855,56.584133 154.147034,60.851093 146.873764,62.151173 
	C142.571960,62.920113 142.442093,66.379143 142.120468,69.815201 
	C140.181137,90.534111 138.309586,111.261398 136.096863,131.951828 
	C134.979965,142.395706 128.385941,147.850784 117.898865,147.873184 
	C114.234489,147.880997 110.570061,147.863480 106.570213,147.499146 
	C111.245514,140.372238 111.245514,140.372238 106.095154,133.931732 
	C106.879333,132.608490 107.694145,131.184830 108.556885,129.790817 
	C109.519379,128.235626 110.576942,126.737656 111.503021,125.161827 
	C114.507088,120.050079 112.549194,116.153625 106.763725,115.941528 
	C102.279053,115.777122 97.753250,115.572853 93.308083,116.014198 
	C91.283737,116.215187 89.409935,117.932335 87.354507,118.794792 
	C86.904877,118.434906 86.568581,118.242020 86.065079,117.789612 
	C85.635818,117.212662 85.373772,116.895248 85.004288,116.231087 
	C83.311501,115.282585 81.747520,114.240158 80.136757,114.162025 
	C75.377449,113.931183 70.598137,114.156479 65.829544,114.060081 
	C61.717232,113.976952 59.028618,115.804848 57.269722,119.479179 
	C56.476528,121.136169 55.140266,122.533195 54.050396,124.048164 
M132.228760,44.997753 
	C133.240082,47.009190 133.880753,49.417858 135.424667,50.858532 
	C136.157547,51.542412 139.039993,50.897358 140.200134,49.943745 
	C142.541916,48.018856 142.846344,45.143143 140.479507,43.041485 
	C137.609695,40.493198 134.739151,41.166531 132.228760,44.997753 
z"/>
<path fill="#26EDE1" opacity="1.000000" stroke="none" 
	d="
M85.111717,116.577835 
	C85.373772,116.895248 85.635818,117.212662 85.952789,118.131866 
	C82.598457,125.472275 79.104172,132.169617 75.805237,138.961823 
	C72.849518,145.047379 74.808067,148.888885 81.043327,150.319519 
	C77.584892,155.085892 74.299538,159.553940 71.014191,164.021973 
	C71.014191,164.021973 70.998749,163.999832 70.772949,164.099792 
	C70.374023,164.484070 70.200912,164.768402 70.027802,165.052734 
	C70.027802,165.052734 70.000671,165.001450 69.716354,165.035690 
	C68.908882,165.859528 68.385735,166.649109 67.862595,167.438705 
	C66.884842,168.578629 65.907089,169.718567 64.355003,171.115967 
	C63.602665,171.732727 63.424671,172.091995 63.246677,172.451279 
	C62.976646,172.879471 62.706612,173.307663 61.874813,173.899323 
	C59.078716,175.809128 56.844383,177.555450 53.721107,179.996552 
	C55.667305,171.976990 57.269306,165.089188 59.025696,158.240967 
	C60.160564,153.816086 59.276436,152.379791 54.852688,152.077454 
	C46.440620,151.502563 45.739517,150.165558 49.258617,142.338882 
	C51.352364,137.682266 53.125992,132.881729 55.035233,128.099426 
	C55.026924,128.052948 55.121281,128.049820 55.415695,127.944252 
	C56.105007,127.160629 56.499901,126.482574 56.941227,125.452934 
	C58.936737,121.286209 59.488747,116.036423 65.388405,116.055496 
	C71.963333,116.076744 78.537323,116.391075 85.111717,116.577835 
z"/>
<path fill="#F6557C" opacity="1.000000" stroke="none" 
	d="
M87.467850,118.961784 
	C89.409935,117.932335 91.283737,116.215187 93.308083,116.014198 
	C97.753250,115.572853 102.279053,115.777122 106.763725,115.941528 
	C112.549194,116.153625 114.507088,120.050079 111.503021,125.161827 
	C110.576942,126.737656 109.519379,128.235626 108.556885,129.790817 
	C107.694145,131.184830 106.879333,132.608490 106.095154,133.931732 
	C111.245514,140.372238 111.245514,140.372238 106.102539,147.451660 
	C98.576851,154.336578 91.185989,160.913467 83.787529,167.481796 
	C82.475822,168.646332 81.132484,169.775223 78.898308,171.701019 
	C79.771370,165.519714 80.471313,160.564011 81.263229,154.904114 
	C81.630287,153.456131 81.905388,152.712326 82.484802,151.899536 
	C84.740753,149.489182 82.970703,148.798660 81.163185,147.978088 
	C76.328720,145.783310 75.648254,143.968903 77.855095,139.075195 
	C78.741989,137.108505 79.898888,135.264954 80.820709,133.312393 
	C83.071289,128.545319 85.256386,123.747330 87.467850,118.961784 
z"/>
<path fill="#35C5BA" opacity="1.000000" stroke="none" 
	d="
M55.043541,128.145889 
	C53.125992,132.881729 51.352364,137.682266 49.258617,142.338882 
	C45.739517,150.165558 46.440620,151.502563 54.852688,152.077454 
	C59.276436,152.379791 60.160564,153.816086 59.025696,158.240967 
	C57.269306,165.089188 55.667305,171.976990 53.721107,179.996552 
	C56.844383,177.555450 59.078716,175.809128 61.655182,174.031296 
	C58.940895,177.614014 55.884472,181.228241 52.828053,184.842484 
	C52.401775,184.651169 51.975498,184.459854 51.549221,184.268555 
	C53.599819,174.361771 55.650417,164.454987 57.801537,154.062576 
	C55.465866,153.935745 53.839081,153.869049 52.215591,153.755371 
	C46.376160,153.346481 44.264042,149.951645 46.583519,144.610275 
	C48.894543,139.288376 51.280483,133.998993 54.063908,128.420166 
	C54.677341,128.145279 54.860439,128.145584 55.043541,128.145889 
z"/>
<path fill="#C2FBF8" opacity="1.000000" stroke="none" 
	d="
M55.035233,128.099426 
	C54.860439,128.145584 54.677341,128.145279 54.221687,128.113480 
	C53.908348,126.996742 53.867561,125.911499 53.938583,124.437210 
	C55.140266,122.533195 56.476528,121.136169 57.269722,119.479179 
	C59.028618,115.804848 61.717232,113.976952 65.829544,114.060081 
	C70.598137,114.156479 75.377449,113.931183 80.136757,114.162025 
	C81.747520,114.240158 83.311501,115.282585 85.004288,116.231087 
	C78.537323,116.391075 71.963333,116.076744 65.388405,116.055496 
	C59.488747,116.036423 58.936737,121.286209 56.647923,125.566559 
	C55.912552,126.704437 55.516914,127.377129 55.121277,128.049820 
	C55.121281,128.049820 55.026924,128.052948 55.035233,128.099426 
z"/>
<path fill="#35C5BA" opacity="1.000000" stroke="none" 
	d="
M82.180481,151.968536 
	C81.905388,152.712326 81.630287,153.456131 81.197098,154.456665 
	C77.909180,157.753601 74.779358,160.793777 71.331863,163.927963 
	C74.299538,159.553940 77.584892,155.085892 81.243607,150.507263 
	C81.804810,150.920609 81.992645,151.444580 82.180481,151.968536 
z"/>
<path fill="#35C5BA" opacity="1.000000" stroke="none" 
	d="
M68.134842,167.361588 
	C68.385735,166.649109 68.908882,165.859528 69.741066,165.050873 
	C69.502426,165.782700 68.954758,166.533585 68.134842,167.361588 
z"/>
<path fill="#35C5BA" opacity="1.000000" stroke="none" 
	d="
M70.287308,164.986664 
	C70.200912,164.768402 70.374023,164.484070 70.785004,164.105545 
	C70.864174,164.314438 70.705498,164.617508 70.287308,164.986664 
z"/>
<path fill="#35C5BA" opacity="1.000000" stroke="none" 
	d="
M63.525368,172.334015 
	C63.424671,172.091995 63.602665,171.732727 64.078400,171.279694 
	C64.185448,171.529541 63.994755,171.873138 63.525368,172.334015 
z"/>
<path fill="#80ABB3" opacity="1.000000" stroke="none" 
	d="
M82.484802,151.899536 
	C81.992645,151.444580 81.804810,150.920609 81.416702,150.208923 
	C74.808067,148.888885 72.849518,145.047379 75.805237,138.961823 
	C79.104172,132.169617 82.598457,125.472275 86.119995,118.391388 
	C86.568581,118.242020 86.904877,118.434906 87.354507,118.794792 
	C85.256386,123.747330 83.071289,128.545319 80.820709,133.312393 
	C79.898888,135.264954 78.741989,137.108505 77.855095,139.075195 
	C75.648254,143.968903 76.328720,145.783310 81.163185,147.978088 
	C82.970703,148.798660 84.740753,149.489182 82.484802,151.899536 
z"/>
<path fill="#323234" opacity="1.000000" stroke="none" 
	d="
M132.368332,44.650696 
	C134.739151,41.166531 137.609695,40.493198 140.479507,43.041485 
	C142.846344,45.143143 142.541916,48.018856 140.200134,49.943745 
	C139.039993,50.897358 136.157547,51.542412 135.424667,50.858532 
	C133.880753,49.417858 133.240082,47.009190 132.368332,44.650696 
z"/>
<path fill="#35C5BA" opacity="1.000000" stroke="none" 
	d="
M55.415695,127.944252 
	C55.516914,127.377129 55.912552,126.704437 56.601494,125.918137 
	C56.499901,126.482574 56.105007,127.160629 55.415695,127.944252 
z"/>
</svg>
