<svg viewBox="0 -3 45 40" fill="none" xmlns="http://www.w3.org/2000/svg" style="transform:translateY(3px);">
<path d="M48.108 16.0139C48.108 9.67674 52.1793 5.2854 58.0285 5.2854C60.2961 5.2854 62.3575 5.91649 64.0066 7.17867V11.1493C62.2544 9.46637 60.2703 8.62492 58.1316 8.62492C54.1634 8.62492 51.6124 11.4648 51.6124 16.0139C51.6124 20.4842 54.1634 23.403 58.1316 23.403C60.2703 23.403 62.2286 22.5615 64.0066 20.8786V24.8492C62.3575 26.1114 60.2961 26.7425 58.0285 26.7425C52.1793 26.7425 48.108 22.3511 48.108 16.0139Z" fill="#090051"/>
<path d="M80.369 19.9057H70.1393C70.4485 22.4826 72.0203 23.7448 74.7774 23.7448C76.6069 23.7448 78.2818 23.2452 79.596 22.3249V25.4014C78.256 26.2692 76.5296 26.7425 74.6744 26.7425C69.9074 26.7425 66.9441 23.7448 66.9441 18.959C66.9441 14.2522 69.7785 11.0178 73.9271 11.0178C77.7922 11.0178 80.3948 14.0155 80.3948 18.5646V19.9057H80.369ZM70.2166 17.3287H77.3026C77.0707 15.0936 75.9112 13.9366 73.9529 13.9366C71.943 13.9103 70.6031 15.1462 70.2166 17.3287Z" fill="#090051"/>
<path d="M96.2934 16.5136V26.4269H93.0466V17.1447C93.0466 15.2514 91.9902 14.1207 90.3153 14.1207C88.9238 14.1207 87.6612 14.9358 87.0428 16.2506V26.4269H83.7961V11.3334H86.8109V13.5159C87.7901 11.9119 89.3361 11.0178 91.2429 11.0178C94.3093 11.0178 96.2934 13.2003 96.2934 16.5136Z" fill="#090051"/>
<path d="M99.437 25.4014V22.0356C100.957 23.2452 102.735 23.8237 104.822 23.8237C106.781 23.8237 107.708 23.2978 107.708 22.1934C107.708 21.3256 107.193 20.7997 106.033 20.5368L103.251 19.9057C100.88 19.3535 99.6173 17.8809 99.6173 15.6721C99.6173 12.8059 101.885 11.0178 105.595 11.0178C107.425 11.0178 109.022 11.4123 110.182 12.1485V15.5143C108.894 14.4362 107.348 13.884 105.544 13.884C103.714 13.884 102.761 14.4625 102.761 15.5406C102.761 16.3295 103.276 16.8291 104.307 17.0395L107.09 17.6969C109.589 18.3017 110.904 19.7216 110.904 21.9304C110.904 24.9018 108.533 26.6899 104.694 26.6899C102.658 26.7425 100.88 26.2692 99.437 25.4014Z" fill="#090051"/>
<path d="M122.86 11.3334H126.106V26.4007H123.169V24.1393C122.19 25.7959 120.669 26.7162 118.737 26.7162C115.748 26.7162 113.712 24.5074 113.712 21.2468V11.3334H116.959V20.5894C116.959 22.4563 118.041 23.6133 119.69 23.6133C121.082 23.6133 122.293 22.7982 122.885 21.4308V11.3334H122.86Z" fill="#090051"/>
<path d="M129.585 25.4014V22.0356C131.105 23.2452 132.883 23.8237 134.97 23.8237C136.929 23.8237 137.856 23.2978 137.856 22.1934C137.856 21.3256 137.341 20.7997 136.181 20.5368L133.399 19.9057C131.028 19.3535 129.765 17.8809 129.765 15.6721C129.765 12.8059 132.033 11.0178 135.743 11.0178C137.573 11.0178 139.171 11.4123 140.33 12.1485V15.5143C139.042 14.4362 137.496 13.884 135.692 13.884C133.862 13.884 132.909 14.4625 132.909 15.5406C132.909 16.3295 133.424 16.8291 134.455 17.0395L137.238 17.6969C139.737 18.3017 141.052 19.7216 141.052 21.9304C141.052 24.9018 138.681 26.6899 134.842 26.6899C132.78 26.7425 131.028 26.2692 129.585 25.4014Z" fill="#090051"/>
<path d="M38.4709 17.0131L29.8904 1.84068C29.2462 0.709977 28.0609 0 26.7725 0H11.6985C10.4101 0 9.22478 0.709977 8.58059 1.84068L7.49836 3.76025H26.7467L24.608 7.52049H5.35965L3.22094 11.307H22.4693L20.3306 15.0673H1.08224L0 17.0131L1.05647 18.8538H20.3048L22.4178 22.6141H3.16941L5.30811 26.3743H24.5565L26.6952 30.1346H7.44682L8.58059 32.133C9.22478 33.2637 10.4101 33.9737 11.6985 33.9737H26.7725C28.0609 33.9737 29.2462 33.2637 29.8904 32.133L38.4709 17.0131Z" fill="#EF54AC"/>
</svg>