<svg viewBox="-11 0 42 35" fill="none" xmlns="http://www.w3.org/2000/svg" class="tw-h-8 tw-w-auto sm:tw-h-8">
		<path d="M36.9107 27.6328C40.3106 27.6328 42.3652 25.4822 42.9522 22.9407H39.9437C39.4301 24.3092 38.4028 25.189 36.9352 25.189C34.9051 25.189 33.5843 23.6005 33.5843 21.1811C33.5843 18.7617 34.8806 17.1732 36.9841 17.1732C38.9898 17.1732 39.9926 18.6151 39.5279 21.0345H42.3407C43.2457 17.3198 40.8732 14.7294 37.0086 14.7294C33.144 14.7294 30.6736 17.2954 30.6736 21.1811C30.6736 25.0423 33.1684 27.6328 36.9107 27.6328Z" fill="#0B2C25"></path>
		<path d="M51.0133 14.7294C49.1299 14.7294 47.6624 15.7069 46.953 17.3198V10.1838H44.1647V27.2907H46.953V21.3033C46.953 18.8106 48.2494 17.1488 50.0594 17.1488C51.5759 17.1488 52.2607 18.2485 52.2607 19.9347V27.2907H55.0491V19.9347C55.0491 16.7333 53.7283 14.7294 51.0133 14.7294Z" fill="#0B2C25"></path>
		<path d="M61.9447 14.7294C58.765 14.7294 56.368 16.5378 57.0284 19.2505H59.8412C59.5477 17.8819 60.4527 17.1488 61.9203 17.1488C63.877 17.1488 64.5374 18.4929 64.5374 20.3502C63.6814 20.1547 62.703 20.0325 61.7491 20.0325C58.3003 20.0325 56.1479 21.5232 56.1479 23.9915C56.1479 26.1176 57.7622 27.6328 60.3549 27.6328C62.3606 27.6328 63.8526 26.7286 64.7576 25.1645V27.2907H67.3258V20.3502C67.3258 16.9533 65.5158 14.7294 61.9447 14.7294ZM60.9175 25.4089C59.7189 25.4089 58.9852 24.8957 58.9852 23.9182C58.9852 22.794 59.9635 22.0609 61.9692 22.0609C62.8497 22.0609 63.8281 22.2075 64.6353 22.4763C64.1706 24.2603 62.703 25.4089 60.9175 25.4089Z" fill="#0B2C25"></path>
		<path d="M83.3034 14.7294C81.4689 14.7294 80.0258 15.7069 79.3165 17.3198C78.8028 15.7313 77.5065 14.7294 75.7209 14.7294C73.8376 14.7294 72.4678 15.8047 71.8319 17.2465V15.0715H69.0435V27.2907H71.8319V21.3277C71.8319 18.7861 73.0793 17.1488 74.7181 17.1488C76.0634 17.1488 76.7238 18.2241 76.7238 19.8125V27.2907H79.5121V21.3033C79.5121 18.8106 80.6862 17.1976 82.3739 17.1976C83.6947 17.1976 84.3551 18.2485 84.3551 19.8125V27.2907H87.1435V19.5193C87.1435 16.5378 85.8227 14.7294 83.3034 14.7294Z" fill="#0B2C25"></path>
		<path d="M97.4615 23.4294C97.0457 24.5536 95.9695 25.189 94.5998 25.189C92.643 25.189 91.5179 23.9915 91.2733 21.9631H99.9808C101.155 17.9552 98.9291 14.7294 94.6242 14.7294C90.7597 14.7294 88.3137 17.2954 88.3137 21.1811C88.3137 25.0668 90.7352 27.6328 94.5509 27.6328C97.6083 27.6328 99.7852 25.9954 100.494 23.4294H97.4615ZM94.5753 17.0754C96.5076 17.0754 97.5104 18.2241 97.3392 19.9836H91.3222C91.6157 18.1019 92.7409 17.0754 94.5753 17.0754Z" fill="#0B2C25"></path>
		<path d="M104.763 27.2907V10.1838H101.975V27.2907H104.763Z" fill="#0B2C25"></path>
		<path d="M115.437 23.4294C115.021 24.5536 113.945 25.189 112.576 25.189C110.619 25.189 109.494 23.9915 109.249 21.9631H117.957C119.131 17.9552 116.905 14.7294 112.6 14.7294C108.735 14.7294 106.289 17.2954 106.289 21.1811C106.289 25.0668 108.711 27.6328 112.527 27.6328C115.584 27.6328 117.761 25.9954 118.47 23.4294H115.437ZM112.551 17.0754C114.483 17.0754 115.486 18.2241 115.315 19.9836H109.298C109.591 18.1019 110.717 17.0754 112.551 17.0754Z" fill="#0B2C25"></path>
		<path d="M125.527 27.6328C129.245 27.6328 131.765 25.0423 131.765 21.1811C131.765 17.3198 129.245 14.7294 125.527 14.7294C121.785 14.7294 119.29 17.3198 119.29 21.1811C119.29 25.0423 121.785 27.6328 125.527 27.6328ZM125.527 25.189C123.522 25.189 122.201 23.6005 122.201 21.1811C122.201 18.7617 123.522 17.1732 125.527 17.1732C127.509 17.1732 128.854 18.7617 128.854 21.1811C128.854 23.6005 127.509 25.189 125.527 25.189Z" fill="#0B2C25"></path>
		<path d="M140.062 14.7294C138.203 14.7294 136.711 15.7069 135.904 17.3198V15.0715H133.116V27.2907H135.904V21.3033C135.904 18.8106 137.2 17.1488 139.059 17.1488C141.212 17.1488 141.212 19.1283 141.212 20.5213V27.2907H144V20.4479C144 18.6151 144 14.7294 140.062 14.7294Z" fill="#0B2C25"></path>
		<path d="M15.833 22.4451C28.9302 16.2586 22.8225 0.632568 22.8225 0.632568C-3.65226 0.632568 0.195107 23.5208 0.195107 23.5208L14.5933 23.5244C16.9926 24.7727 19.678 29.0239 16.743 32.8112C15.2055 34.7947 12.2505 34.9274 10.3668 33.2774C9.6016 32.6092 8.0417 30.2699 9.81351 27.8531C11.185 25.9847 13.7044 26.7609 14.4814 27.5548C14.8028 27.8824 14.8652 28.3839 14.565 28.7291C14.4949 28.812 14.409 28.8802 14.3122 28.9296C14.2155 28.979 14.1098 29.0086 14.0014 29.0168C13.893 29.025 13.784 29.0116 13.6809 28.9773C13.5778 28.9431 13.4825 28.8886 13.4007 28.8172C13.0911 28.5436 12.0445 28.095 11.231 28.9746C10.8413 29.3962 10.235 30.7866 11.4464 32.015C12.5625 33.1494 14.4873 32.9545 15.4951 31.7202C17.3846 29.4067 15.8753 26.9782 15.1101 26.3064C13.0452 24.5014 10.0242 24.8326 8.12882 26.8161C6.45708 28.5612 6.72785 31.099 6.90562 31.8506C7.85216 35.834 11.9267 38.3143 15.7706 37.0236C22.5917 34.7313 25.1476 25.6112 22.6106 18.9127C21.8017 19.9527 20.7775 20.8065 19.6079 21.4161C18.4383 22.0257 17.1508 22.3767 15.833 22.4451ZM7.15756 17.6173C5.062 14.658 5.70597 10.5207 8.59738 8.37512C11.4876 6.23074 15.5292 6.88956 17.626 9.84895C19.7215 12.8083 19.0776 16.9444 16.1861 19.09C13.2959 21.2355 9.25312 20.5756 7.15756 17.6173ZM10.0066 16.4395C10.1306 16.6114 10.2874 16.7571 10.468 16.8684C10.6486 16.9797 10.8495 17.0543 11.0591 17.0879C11.2687 17.1215 11.4829 17.1134 11.6893 17.0642C11.8958 17.015 12.0905 16.9256 12.2623 16.8012C12.9863 16.275 13.1464 15.2627 12.6225 14.537C12.4984 14.3649 12.3414 14.2189 12.1606 14.1075C11.9797 13.9962 11.7786 13.9216 11.5687 13.8881C11.3588 13.8546 11.1444 13.8628 10.9377 13.9123C10.731 13.9618 10.5362 14.0516 10.3645 14.1765C10.0174 14.4301 9.78492 14.8104 9.71787 15.2344C9.65082 15.6583 9.75461 16.0915 10.0066 16.4395Z" fill="#23C55E"></path>
		</svg>