<svg xmlns="http://www.w3.org/2000/svg" width="170.832" height="62.749" viewBox="0 -40 60 105">
  <g id="Group_33006" data-name="Group 33006" transform="translate(0)">
    <g id="Group_28926" data-name="Group 28926" transform="translate(0 0)">
      <g id="Group_28782" data-name="Group 28782" transform="translate(0 0)">
        <path id="Path_35226" data-name="Path 35226" d="M-5053.644,158.626a33.985,33.985,0,0,1-7.713-.892,33.489,33.489,0,0,1-20.972-15.024,33.745,33.745,0,0,1,10.817-46.426,2.7,2.7,0,0,1,3.713.866,2.694,2.694,0,0,1-.866,3.714,28.347,28.347,0,0,0-9.086,39,28.124,28.124,0,0,0,17.618,12.62,28.128,28.128,0,0,0,21.381-3.534,2.7,2.7,0,0,1,3.712.866,2.7,2.7,0,0,1-.864,3.714A33.492,33.492,0,0,1-5053.644,158.626Z" transform="translate(5087.407 -95.877)" fill="#f04444"/>
      </g>
      <g id="Group_28783" data-name="Group 28783" transform="translate(54.483 48.419)">
        <ellipse id="Ellipse_248" data-name="Ellipse 248" cx="2.824" cy="2.824" rx="2.824" ry="2.824" fill="#f04444"/>
      </g>
    </g>
    
  </g>
</svg>