
<svg xmlns="http://www.w3.org/2000/svg" width="127.758" height="22.349" viewBox="0 -9 25 35">
  <defs>
    <style>
      .cls-1 {
        fill: #bbd431;
      }

      .cls-1, .cls-4 {
        stroke: #84b4ff;
        stroke-width: 0.181px;
      }

      .cls-2 {
        fill: #aa5cdd;
      }

      .cls-3 {
        fill: #0063ff;
      }

      .cls-4 {
        fill: #84b4ff;
      }

      .cls-5 {
        fill: #1d76bb;
      }

      .cls-6 {
        fill: #00abc2;
      }

      .cls-7 {
        fill: #fff;
      }
    </style>
  </defs>
  <title>header logo</title>
  <g id="Layer_2" data-name="Layer 2">
    <g id="Layer_1-2" data-name="Layer 1">
      <g>
        <g>
          <path class="cls-1" d="M13.506,11.231A13.757,13.757,0,0,0,9.856,8.8a5.527,5.527,0,0,1-1.979,5.373c-2.2,1.63-5.429,1.117-7.7-1.058a11.133,11.133,0,0,0,17.506,7.015A12.266,12.266,0,0,0,13.506,11.231Z"/>
          <path class="cls-2" d="M12.517,7.724c2.258,1.485,5.554.772,8.594-1.522A11.129,11.129,0,0,0,11.129,0c-.266,0-.529.01-.791.028C9.711,3.4,10.422,6.347,12.517,7.724Z"/>
          <path class="cls-3" d="M17.823,11.043c-1.377,1.813-.812,4.56,1.261,6.133a5.362,5.362,0,0,0,.978.591,11.074,11.074,0,0,0,2.2-6.638,11.193,11.193,0,0,0-.092-1.438A4.111,4.111,0,0,0,17.823,11.043Z"/>
          <path class="cls-4" d="M9.857,8.8A7.8,7.8,0,0,0,8.391,5.311a7.531,7.531,0,0,0-4.2-2.885A11.118,11.118,0,0,0,.135,9.391C2.645,7.384,6.387,7.225,9.857,8.8Z"/>
          <path class="cls-5" d="M7.877,14.169A5.528,5.528,0,0,0,9.857,8.8c-3.47-1.57-7.212-1.411-9.722.6a11.251,11.251,0,0,0,.041,3.72C2.448,15.286,5.673,15.8,7.877,14.169Z"/>
          <path class="cls-6" d="M7.877,14.169A5.528,5.528,0,0,0,9.857,8.8c-3.47-1.57-7.212-1.411-9.722.6a11.251,11.251,0,0,0,.041,3.72C2.448,15.286,5.673,15.8,7.877,14.169Z"/>
        </g>
        <g>
          <path class="cls-7" d="M30.525,11.6A7.366,7.366,0,0,1,38.093,4.1a7.133,7.133,0,0,1,6.223,3.453l-2.068,1.2a4.628,4.628,0,0,0-4.155-2.336A4.971,4.971,0,0,0,32.9,11.6a4.971,4.971,0,0,0,5.19,5.189,4.606,4.606,0,0,0,4.155-2.336l2.068,1.178a7.1,7.1,0,0,1-6.223,3.474A7.366,7.366,0,0,1,30.525,11.6Z"/>
          <path class="cls-7" d="M45.662,11.6a7.506,7.506,0,1,1,15.011,0,7.506,7.506,0,0,1-15.011,0Zm12.633,0a5.128,5.128,0,1,0-10.255,0,5.128,5.128,0,1,0,10.255,0Z"/>
          <path class="cls-7" d="M74.115,4.364V18.837h-1.86L65.431,9.016v9.821H63.053V4.364h1.862l6.823,9.821V4.364Z"/>
          <path class="cls-7" d="M76.185,4.364h2.606l3.846,11.6L86.5,4.364h2.584L84.063,18.837H81.21Z"/>
          <path class="cls-7" d="M94.569,4.364V18.837H92.191V4.364Z"/>
          <path class="cls-7" d="M107.968,16.563v2.274H98.353V16.873l6.492-10.234H98.5V4.364h9.3V6.328L101.31,16.563Z"/>
          <path class="cls-7" d="M113.9,4.364V18.837h-2.378V4.364Z"/>
          <path class="cls-7" d="M127.758,6.639h-4.074v12.2h-2.377V6.639h-4.094V4.364h10.545Z"/>
        </g>
      </g>
    </g>
  </g>
</svg>
