
<?xml version="1.0" encoding="utf-8"?>
<!-- Generator: Adobe Illustrator 26.3.1, SVG Export Plug-In . SVG Version: 6.00 Build 0)  -->
<svg version="1.1" id="Layer_1" xmlns="http://www.w3.org/2000/svg" xmlns:xlink="http://www.w3.org/1999/xlink" x="0px" y="0px"
	 viewBox="0 0 1154 413" style="enable-background:new 0 0 1154 413;" xml:space="preserve">
<style type="text/css">
	.st0{fill:#FABC1C;}
</style>
<path d="M203.5,286.1c-0.6-1.7-2.8-2.2-4.1-0.9c-11.8,11.3-28.3,17.8-47.9,17.8c-38.8,0-60.9-25.1-60.9-61.6
	c0-36.3,22.1-61.3,60.9-61.3c19.6,0,36.2,6.4,47.9,17.7c0.2,0.2,0.4,0.4,0.6,0.6c1.5,1.5,4.1,1,4.9-1c4.3-10.5,10.1-20.3,17.2-29
	c1.1-1.3,0.8-3.2-0.4-4.2c-18.2-14.9-42.4-23.5-70.2-23.5c-60.5,0-104.9,41.7-104.9,100.8c0,59,44.3,101.1,104.9,101.1
	c26.7,0,50.1-8,68-21.9c1.3-1,1.6-2.9,0.6-4.2C213.1,307.2,207.5,297,203.5,286.1z"/>
<path d="M221.1,243.6c0-54.6,41-93.2,97-93.2c56.7,0,97.3,38.6,97.3,93.2s-40.6,93.5-97.3,93.5C262.1,337.1,221.1,298.2,221.1,243.6
	z M372.4,243.6c0-34.8-23.2-57-54.3-57c-30.7,0-53.9,22.2-53.9,57s23.2,57,53.9,57C349.2,300.6,372.4,278.4,372.4,243.6z"/>
<path d="M541.8,151.9v33.4c0,1.9-1.6,3.5-3.5,3.5c-0.1,0-0.3,0-0.4,0c-2-0.3-4-0.4-6-0.4c-32.8,0-53.5,19.3-53.5,56.9v85.8
	c0,1.9-1.6,3.5-3.5,3.5h-36.1c-1.9,0-3.5-1.6-3.5-3.5V154c0-1.9,1.6-3.5,3.5-3.5h34c1.9,0,3.5,1.6,3.5,3.5v23.4
	c11.9-18.6,33.1-28.2,62-28.9C540.1,148.4,541.8,149.9,541.8,151.9z"/>
<path d="M739.5,82.2v249c0,1.9-1.6,3.5-3.5,3.5h-34.4c-1.9,0-3.5-1.6-3.5-3.5v-20.3c-14.5,17.6-35.9,26.2-61.1,26.2
	c-53.5,0-93.2-37.3-93.2-94.6s39.7-94.2,93.2-94.2c23.8,0,44.9,7.9,59.3,24.9v-91c0-1.9,1.6-3.5,3.5-3.5H736
	C737.9,78.7,739.5,80.2,739.5,82.2z M697.1,242.6c0-35.2-23.8-57.6-54.9-57.6c-31.1,0-54.9,22.4-54.9,57.6s23.8,57.6,54.9,57.6
	C673.3,300.2,697.1,277.8,697.1,242.6z"/>
<path d="M778.7,150.5h36.1c1.9,0,3.5,1.6,3.5,3.5v177.2c0,1.9-1.6,3.5-3.5,3.5h-36.1c-1.9,0-3.5-1.6-3.5-3.5V154
	C775.2,152,776.7,150.5,778.7,150.5z"/>
<path d="M1055.3,82.2v108.4c-2.3,29.1-28.5,33.5-43.1,35c-0.5-52.4-31.1-77.2-83.8-77.2c-28.5,0-55.9,7-75.5,20.9
	c-1.4,1-1.9,3-1.1,4.5l13.5,25.1c0.9,1.7,3,2.3,4.7,1.4c0.1-0.1,0.3-0.1,0.4-0.2c13.8-9.9,33.6-15.9,52.8-15.9
	c30.7,0,45.9,14.8,45.9,40v2.8h-47.6c-55.9,0-76.6,24.2-76.6,54.9c0,32.1,26.6,55.2,68.7,55.2c27.6,0,47.6-9,58-24.8v19
	c0,1.9,1.6,3.5,3.5,3.5h33.7c1.9,0,3.5-1.6,3.5-3.5v-58.6c0-0.8-0.7-1.5-1.5-1.5c0,0-31.8-0.2-38.6-0.2c-0.7,0-1.2,0.4-1.4,1.1
	c-1.1,4-1.6,5.1-1.6,5.1c-7.2,19-25.5,28.6-46.6,28.6c-22.1,0-35.2-10-35.2-25.5c0-13.5,7.9-24.5,37.3-24.5h44.5h1h44.2
	c68.6-1,83.2-50.2,84.2-80.7c-1.5,53.6-14.9,75.1-40.8,87.7c-1.6,0.8-2.1,1.6-2.3,3.1v65.3c0,1.9,1.6,3.5,3.5,3.5h36.1
	c1.9,0,3.5-1.6,3.5-3.5v-245c0-5.9-1.6-7.5-3.5-7.5H1059C1057,78.6,1055.3,80.2,1055.3,82.2C1055.3,82.1,1055.3,82.2,1055.3,82.2z"
	/>
<path class="st0" d="M772.7,101.7C772.7,89,783,79,796.9,79c13.9,0,24.2,9.4,24.2,21.8c0,13.3-10,23.6-24.2,23.6
	C783,124.4,772.7,114.4,772.7,101.7z"/>
</svg>
