<?xml version="1.0" encoding="UTF-8" standalone="no"?>
<!-- Created with Inkscape (http://www.inkscape.org/) -->

<svg
   version="1.1"
   id="svg2"
   xml:space="preserve"
   width="717.74664"
   height="393.39999"
   viewBox="0 -100 717.74664 393.39999"
   sodipodi:docname="Datazoom_logo_final.eps"
   xmlns:inkscape="http://www.inkscape.org/namespaces/inkscape"
   xmlns:sodipodi="http://sodipodi.sourceforge.net/DTD/sodipodi-0.dtd"
   xmlns="http://www.w3.org/2000/svg"
   xmlns:svg="http://www.w3.org/2000/svg"><defs
     id="defs6" /><sodipodi:namedview
     id="namedview4"
     pagecolor="#ffffff"
     bordercolor="#666666"
     borderopacity="1.0"
     inkscape:pageshadow="2"
     inkscape:pageopacity="0.0"
     inkscape:pagecheckerboard="0" /><g
     id="g8"
     inkscape:groupmode="layer"
     inkscape:label="ink_ext_XXXXXX"
     transform="matrix(1.3333333,0,0,-1.3333333,0,393.4)"><g
       id="g10"
       transform="scale(0.1)"><path
         d="m 415.496,1992.32 c -47.68,-45.38 -79.473,-111.25 -79.473,-192.97 0,-74.92 31.793,-140.78 79.473,-186.17 49.945,-47.7 113.516,-70.39 170.285,-70.39 61.309,0 133.957,24.97 186.164,74.91 38.602,36.34 74.938,97.65 74.938,181.65 0,86.28 -34.059,145.31 -72.656,186.17 -52.223,54.5 -113.532,74.92 -183.907,74.92 -65.847,0 -122.601,-18.17 -174.824,-68.12 z M 1153.39,1295.31 H 826.453 v 122.58 c -49.961,-72.63 -140.785,-156.64 -320.152,-156.64 -149.832,0 -258.821,47.67 -347.367,138.51 C 54.4844,1504.17 0,1649.48 0,1806.16 c 0,168 61.3086,306.5 158.934,399.59 88.546,84 213.421,136.22 351.91,136.22 111.254,0 233.871,-36.3 315.609,-147.55 v 756.04 H 1153.39 V 1295.31"
         style="fill:#211d1d;fill-opacity:1;fill-rule:nonzero;stroke:none"
         id="path12" /><path
         d="m 1626.82,1987.8 c -34.06,-34.06 -74.93,-93.08 -74.93,-183.92 0,-90.81 38.6,-149.84 68.11,-181.62 45.42,-47.7 115.79,-79.47 192.99,-79.47 65.85,0 127.14,27.25 170.28,70.39 43.14,40.86 79.48,104.42 79.48,190.7 0,72.67 -27.25,140.78 -74.93,186.17 -49.95,47.69 -122.61,70.39 -181.64,70.39 -70.39,0 -136.22,-29.5 -179.36,-72.64 z m 415.5,320.11 h 326.94 v -1012.6 h -326.94 v 122.58 c -88.56,-136.23 -215.71,-156.64 -299.7,-156.64 -145.31,0 -267.93,36.31 -379.18,154.4 -106.71,113.49 -147.57,245.19 -147.57,379.14 0,170.28 63.57,315.6 156.65,408.71 88.56,88.52 211.16,138.47 351.93,138.47 86.28,0 224.77,-20.42 317.87,-147.55 v 113.49"
         style="fill:#211d1d;fill-opacity:1;fill-rule:nonzero;stroke:none"
         id="path14" /><path
         d="m 2896.74,2044.55 v -749.24 h -326.95 v 749.24 h -113.52 v 263.36 h 113.52 v 326.96 h 326.95 v -326.96 h 202.06 v -263.36 h -202.06"
         style="fill:#211d1d;fill-opacity:1;fill-rule:nonzero;stroke:none"
         id="path16" /><path
         d="m 3509.69,1987.8 c -34.05,-34.06 -74.93,-93.08 -74.93,-183.92 0,-90.81 38.6,-149.84 68.11,-181.62 45.42,-47.7 115.8,-79.47 192.99,-79.47 65.85,0 127.15,27.25 170.29,70.39 43.14,40.86 79.47,104.42 79.47,190.7 0,72.67 -27.25,140.78 -74.93,186.17 -49.94,47.69 -122.6,70.39 -181.63,70.39 -70.39,0 -136.22,-29.5 -179.37,-72.64 z m 415.5,320.11 h 326.94 v -1012.6 h -326.94 v 122.58 c -88.56,-136.23 -215.69,-156.64 -299.7,-156.64 -145.31,0 -267.93,36.31 -379.18,154.4 -106.71,113.49 -147.57,245.19 -147.57,379.14 0,170.28 63.57,315.6 156.65,408.71 88.57,88.52 211.17,138.47 351.93,138.47 86.29,0 224.77,-20.42 317.87,-147.55 v 113.49"
         style="fill:#211d1d;fill-opacity:1;fill-rule:nonzero;stroke:none"
         id="path18" /><path
         d="m 1610.31,731.07 c -47.69,-47.672 -74.94,-108.98 -74.94,-190.699 0,-93.109 36.34,-152.141 74.94,-190.73 40.86,-40.86 99.88,-72.661 186.16,-72.661 72.66,0 133.97,24.969 181.65,72.661 47.68,47.668 74.92,108.98 74.92,190.73 0,81.719 -27.24,143.027 -74.92,190.699 -47.68,47.692 -108.99,72.668 -183.91,72.668 -74.93,0 -136.22,-24.976 -183.9,-72.668 z M 2236.95,163.469 C 2146.12,72.6406 1991.75,-0.0117188 1794.21,-0.0117188 c -197.53,0 -351.92,72.6523188 -442.75,163.4807188 -102.16,102.179 -152.11,247.48 -152.11,376.902 0,129.391 49.95,274.699 152.11,376.867 90.83,90.842 245.22,163.482 442.75,163.482 197.54,0 351.91,-72.64 442.74,-163.482 102.16,-102.168 152.13,-247.476 152.13,-376.867 0,-129.422 -49.97,-274.723 -152.13,-376.902"
         style="fill:#211d1d;fill-opacity:1;fill-rule:nonzero;stroke:none"
         id="path20" /><path
         d="m 2863.48,731.07 c -47.69,-47.672 -74.94,-108.98 -74.94,-190.699 0,-93.109 36.34,-152.141 74.94,-190.73 40.86,-40.86 99.88,-72.661 186.16,-72.661 72.66,0 133.97,24.969 181.65,72.661 47.68,47.668 74.91,108.98 74.91,190.73 0,81.719 -27.23,143.027 -74.91,190.699 -47.68,47.692 -108.99,72.668 -183.9,72.668 -74.94,0 -136.23,-24.976 -183.91,-72.668 z M 3490.12,163.469 C 3399.29,72.6406 3244.92,-0.0117188 3047.39,-0.0117188 c -197.54,0 -351.93,72.6523188 -442.75,163.4807188 -102.17,102.179 -152.12,247.48 -152.12,376.902 0,129.391 49.95,274.699 152.12,376.867 90.82,90.842 245.21,163.482 442.75,163.482 197.53,0 351.9,-72.64 442.73,-163.482 102.17,-102.168 152.13,-247.476 152.13,-376.867 0,-129.422 -49.96,-274.723 -152.13,-376.902"
         style="fill:#211d1d;fill-opacity:1;fill-rule:nonzero;stroke:none"
         id="path22" /><path
         d="m 3725.64,1046.66 h 326.95 V 928.609 c 84.01,127.141 206.6,143.021 283.8,143.021 43.13,0 122.62,-4.53 190.72,-45.39 52.23,-29.529 95.34,-79.47 122.59,-140.779 24.97,40.859 63.58,88.57 129.42,129.429 70.4,43.13 136.23,56.74 215.7,56.74 122.61,0 222.51,-36.3 283.82,-95.329 97.63,-93.11 104.44,-229.34 104.44,-301.981 V 34.0586 H 5056.13 V 547.18 c 0,52.218 0,143.031 -43.14,197.531 -27.25,34.051 -70.39,54.469 -118.06,54.469 -54.5,0 -99.92,-24.969 -127.17,-61.309 -43.11,-54.473 -49.94,-133.941 -49.94,-199.769 V 34.0586 H 4390.89 V 560.789 c 0,68.109 -2.27,147.582 -52.22,197.531 -34.06,34.059 -74.94,40.86 -108.99,40.86 -43.14,0 -81.74,-11.321 -113.51,-40.86 -61.31,-59.031 -63.58,-172.55 -63.58,-206.621 V 34.0586 H 3725.64 V 1046.66"
         style="fill:#211d1d;fill-opacity:1;fill-rule:nonzero;stroke:none"
         id="path24" /><path
         d="M 1153.39,786.66 H 73.7734 v 260 H 1153.39 v -260"
         style="fill:#211d1d;fill-opacity:1;fill-rule:nonzero;stroke:none"
         id="path26" /><path
         d="M 1153.39,34.0586 H 73.7734 V 305.211 H 1153.39 V 34.0586"
         style="fill:#211d1d;fill-opacity:1;fill-rule:nonzero;stroke:none"
         id="path28" /><path
         d="M 237.09,336.73 H 430.246 L 897.988,579.922 H 759.613 L 990.074,755.141 H 800.324 L 349.844,518.148 H 483.48 L 237.09,336.73"
         style="fill:#211d1d;fill-opacity:1;fill-rule:nonzero;stroke:none"
         id="path30" /></g></g></svg>
