
<svg id="Layer_1" data-name="Layer 1" xmlns="http://www.w3.org/2000/svg" viewBox="0 -20 152 76.08""><defs><style>.cls-1{fill:#007dba;}</style></defs><g id="Layer_2" data-name="Layer 2"><g id="Layer_1-2" data-name="Layer 1-2"><path class="cls-1" d="M112,44.5h6.8V62.7c-9.8.5-30.8-1.4-45.4-24.2,19.7-32.9,56.4-24.2,58.5-23.7V1.7A67.68,67.68,0,0,0,105,1.1C93.4,3.2,77.8,9.4,65.6,26.4,53.9,11,39.8,4.2,29.4,1.8,16-1.3,0,.6,0,.6V74.9l5.6.8A70.84,70.84,0,0,0,30.3,74c14.5-3.5,26.6-12.1,35.4-23.4,11.7,15.3,26,21.4,36.6,23.7a66.18,66.18,0,0,0,14.1,1.5,45.24,45.24,0,0,0,10.4-.9l5.2-1.1V31.3H112ZM13.2,62.2h0V13.9c9.5-.4,30.2,1.6,44.9,24.8C44.7,59.5,23.3,62.2,13.2,62.2Z" transform="translate(0 -0.02)"/></g></g></svg>