<svg width="100" height="100" viewBox="0 -70 250 350" fill="none" xmlns="http://www.w3.org/2000/svg">
<path fill-rule="evenodd" clip-rule="evenodd" d="M0 29.9004H254.944V56.7366H0V29.9004ZM0 116.496H161.616V143.811H0V116.496ZM254.944 202.994H0V229.83H254.944V202.994Z" fill="#AD56FF" fill-opacity="0.22"></path>
<path fill-rule="evenodd" clip-rule="evenodd" d="M207.951 40.2395L167.712 0L139.031 28.6812L95.0984 28.6812L66.4172 0L26.1777 40.2395L54.6308 68.6926V102.104L26.1777 130.558L54.6308 159.011V188.603L26.1777 217.056L66.4172 257.296L94.2633 229.45H138.222L167.712 258.94L207.951 218.7L167.712 178.461L143.811 202.362H91.9622L77.3937 187.794V159.821L93.8081 143.406H162.527V116.318L92.4173 116.318L77.3937 101.295V69.5024L89.5337 57.3624L144.595 57.3624L167.712 80.4789L207.951 40.2395Z" fill="url(#paint0_linear)"></path>
<path fill-rule="evenodd" clip-rule="evenodd" d="M393.188 30.2744V217.658H528.372V188.212H423.972V137.351H508.295V107.905H423.972V59.7205H528.372V30.2744H393.188ZM548.543 81.1358V217.658H576.65V144.043C576.65 132.086 580.13 122.45 587.09 115.133C594.229 107.637 603.241 103.89 614.127 103.89C625.013 103.89 633.044 106.745 638.22 112.456C643.573 117.988 646.25 126.733 646.25 138.689V217.658H674.358V136.013C674.358 117.274 669.629 102.997 660.17 93.1819C651.108 83.5967 638.386 78.6917 622.006 78.467L622.223 78.2362H597.525L576.65 98.4153V81.1358H548.543ZM689.07 106.566V81.1358H705.132V51.6897H733.24V81.1358H774.732V106.566H733.24V192.228H776.07V217.658H705.132V106.566H689.07ZM786.778 149.397C786.778 169.385 793.47 186.249 806.855 199.991C820.418 213.554 836.925 220.335 856.378 220.335C877.793 220.335 895.817 213.018 910.451 198.385C916.162 192.317 920.891 184.911 924.639 176.166H895.193C892.694 179.914 889.75 183.037 886.359 185.535C878.864 191.782 868.87 194.905 856.378 194.905C846.205 194.905 837.282 191.692 829.608 185.268C821.935 178.843 817.027 170.009 814.885 158.766H925.977V149.397C925.977 129.409 919.196 112.634 905.633 99.0711C892.248 85.3296 875.83 78.4589 856.378 78.4589C836.925 78.4589 820.418 85.3296 806.855 99.0711C793.47 112.634 786.778 129.409 786.778 149.397ZM883.682 113.259C890.642 119.505 894.925 127.089 896.531 136.013H816.224C818.365 126.197 823.184 118.434 830.679 112.723C838.175 106.834 846.741 103.89 856.378 103.89C867.799 103.89 876.901 107.013 883.682 113.259ZM944.737 81.1358H972.844V98.0809L991.096 79.8296H1009.85C1010.45 79.8081 1011.05 79.7973 1011.66 79.7973H1027.72V106.566H1010.32C999.435 106.566 990.423 110.046 983.284 117.006C976.324 123.788 972.844 132.8 972.844 144.043V217.658H944.737V81.1358ZM1043.69 81.1358V268.52H1071.8V200.258H1073.13C1076.17 204.006 1079.83 207.397 1084.11 210.431C1093.57 217.034 1104.19 220.335 1115.97 220.335C1134.35 220.335 1149.6 213.822 1161.74 200.794C1174.05 187.588 1180.21 170.455 1180.21 149.397C1180.21 128.339 1174.05 111.296 1161.74 98.268C1149.6 85.0619 1134.35 78.4589 1115.97 78.4589C1104.37 78.4589 1093.75 81.8496 1084.11 88.6311C1080.01 91.4865 1076.35 94.7881 1073.13 98.5357H1071.8V81.1358H1043.69ZM1071.8 149.397C1071.8 134.942 1075.28 123.788 1082.24 115.936C1089.37 107.905 1098.83 103.89 1110.61 103.89C1123.1 103.89 1132.92 107.816 1140.06 115.668C1147.2 123.52 1150.76 134.763 1150.76 149.397C1150.76 164.031 1147.2 175.274 1140.06 183.126C1132.92 190.979 1123.1 194.905 1110.61 194.905C1098.83 194.905 1089.37 190.979 1082.24 183.126C1075.28 175.095 1071.8 163.852 1071.8 149.397ZM1198.84 81.1358H1226.95V97.3236L1244.45 79.8296H1263.96C1264.56 79.8081 1265.16 79.7973 1265.77 79.7973H1281.83V106.566H1264.43C1253.54 106.566 1244.53 110.046 1237.39 117.006C1230.43 123.788 1226.95 132.8 1226.95 144.043V217.658H1198.84V81.1358ZM1289.77 149.397C1289.77 169.385 1296.46 186.249 1309.84 199.991C1323.41 213.554 1339.91 220.335 1359.37 220.335C1380.78 220.335 1398.81 213.018 1413.44 198.385C1419.15 192.317 1423.88 184.911 1427.63 176.166H1398.18C1395.68 179.914 1392.74 183.037 1389.35 185.535C1381.85 191.782 1371.86 194.905 1359.37 194.905C1349.19 194.905 1340.27 191.692 1332.6 185.268C1324.92 178.843 1320.01 170.009 1317.87 158.766H1428.97V149.397C1428.97 129.409 1422.18 112.634 1408.62 99.0711C1395.24 85.3296 1378.82 78.4589 1359.37 78.4589C1339.91 78.4589 1323.41 85.3296 1309.84 99.0711C1296.46 112.634 1289.77 129.409 1289.77 149.397ZM1399.52 136.013H1319.21C1321.35 126.197 1326.17 118.434 1333.67 112.723C1341.16 106.834 1349.73 103.89 1359.37 103.89C1370.79 103.89 1379.89 107.013 1386.67 113.259C1393.63 119.505 1397.91 127.089 1399.52 136.013ZM1437.02 106.566V81.1358H1453.08H1481.19H1522.68V106.566H1481.19V192.228H1524.02V217.658H1453.08V106.566H1437.02ZM1484.09 63.4133L1467.84 47.1648L1451.59 63.4133L1467.84 79.6617L1484.09 63.4133Z" fill="white"></path>
<defs>
<linearGradient id="paint0_linear" x1="60.5" y1="-1.75121e-06" x2="198.5" y2="279" gradientUnits="userSpaceOnUse">
<stop stop-color="#E43EFF"></stop>
<stop offset="1" stop-color="#785BEF"></stop>
</linearGradient>
</defs>
</svg>