
<?xml version="1.0" encoding="UTF-8"?> <svg xmlns="http://www.w3.org/2000/svg" width="130" height="38" viewBox="0 -2 40 40" fill="none"><path fill-rule="evenodd" clip-rule="evenodd" d="M14.5311 0.000184771C14.6135 -0.00229596 14.6946 0.0202524 14.7639 0.0648537L32.2245 10.2437C32.3975 10.3489 32.5403 10.4971 32.6389 10.6739C32.7375 10.8507 32.7886 11.0501 32.7871 11.2525V31.6491C32.7869 31.7331 32.7646 31.8156 32.7224 31.8883C32.6916 31.9424 32.6503 31.9899 32.6011 32.0279C32.5518 32.066 32.4955 32.094 32.4354 32.1102C32.3753 32.1264 32.3126 32.1306 32.2509 32.1225C32.1891 32.1144 32.1296 32.0941 32.0757 32.0629L28.5319 29.9935C28.4005 29.9161 28.2918 29.8054 28.2168 29.6726C28.1419 29.5397 28.1033 29.3894 28.1051 29.2369V13.3219L14.4923 5.34829C14.3586 5.27185 14.2471 5.16186 14.1688 5.02917C14.0906 4.89648 14.0483 4.74569 14.0461 4.59166V0.4852C14.0478 0.357087 14.0994 0.234692 14.19 0.144095C14.2806 0.0534973 14.403 0.00185967 14.5311 0.000184771ZM18.172 24.018C18.1347 23.9421 18.0733 23.8807 17.9974 23.8434L14.0461 21.5542V16.9304C14.047 16.8675 14.0354 16.8051 14.0122 16.7467C13.9889 16.6883 13.9544 16.6351 13.9105 16.5901C13.8667 16.545 13.8144 16.5091 13.7567 16.4842C13.6989 16.4594 13.6369 16.4462 13.574 16.4453C13.488 16.4461 13.4035 16.4684 13.3283 16.51L9.95904 18.4501C9.78311 18.5547 9.63749 18.7033 9.53656 18.8814C9.43562 19.0594 9.38287 19.2607 9.38349 19.4654V23.5395C9.38139 23.7428 9.43288 23.9431 9.53278 24.1202C9.63268 24.2973 9.77747 24.445 9.95257 24.5483L13.477 26.6048C13.6513 26.7078 13.8501 26.7621 14.0526 26.7621C14.255 26.7621 14.4538 26.7078 14.6281 26.6048L17.9974 24.6647C18.1053 24.6012 18.184 24.4979 18.2167 24.377C18.2493 24.2561 18.2333 24.1273 18.172 24.018ZM19.1549 24.5096C19.0227 24.4325 18.9131 24.3221 18.8371 24.1893C18.761 24.0565 18.7212 23.906 18.7216 23.753V18.8188L14.4858 16.342C14.3529 16.2652 14.2423 16.155 14.1652 16.0222C14.088 15.8895 14.047 15.7389 14.0461 15.5853V11.4465C14.0478 11.3184 14.0994 11.196 14.19 11.1054C14.2806 11.0148 14.403 10.9632 14.5311 10.9615C14.615 10.9631 14.6971 10.9853 14.7704 11.0262L22.841 15.747C23.0152 15.8498 23.1594 15.9964 23.2592 16.1723C23.3591 16.3482 23.4111 16.5471 23.4101 16.7494V26.1651C23.41 26.2492 23.3877 26.3317 23.3455 26.4044C23.3146 26.4585 23.2734 26.5059 23.2241 26.544C23.1749 26.5821 23.1186 26.61 23.0585 26.6263C22.9983 26.6425 22.9356 26.6467 22.8739 26.6386C22.8122 26.6305 22.7526 26.6102 22.6988 26.579L19.1549 24.5096ZM13.574 5.4712C13.4906 5.46969 13.4082 5.48974 13.3348 5.5294L0.569147 12.9986C0.396802 13.1019 0.253922 13.2477 0.154255 13.4221C0.0545869 13.5965 0.00148604 13.7937 6.19451e-05 13.9945V29.0688C-0.00204132 29.2721 0.0494494 29.4724 0.149352 29.6495C0.249254 29.8266 0.394043 29.9743 0.569147 30.0777L13.4706 37.618C13.6459 37.7216 13.8457 37.7762 14.0493 37.7762C14.2529 37.7762 14.4528 37.7216 14.6281 37.618L27.3614 30.1229C27.4669 30.0572 27.5435 29.9539 27.5759 29.8339C27.6083 29.7139 27.5941 29.5861 27.536 29.4762C27.4953 29.4012 27.4349 29.3386 27.3614 29.2952L23.8176 27.2258C23.6901 27.1544 23.5465 27.1169 23.4004 27.1169C23.2544 27.1169 23.1108 27.1544 22.9833 27.2258L14.0461 32.4704L4.68854 26.9994V16.0639L13.6193 10.8452C13.7498 10.7683 13.8579 10.6586 13.9327 10.527C14.0076 10.3954 14.0467 10.2464 14.0461 10.095V5.95621C14.047 5.89337 14.0354 5.83097 14.0122 5.77258C13.9889 5.71419 13.9544 5.66096 13.9105 5.61592C13.8667 5.57088 13.8144 5.53492 13.7567 5.51009C13.6989 5.48526 13.6369 5.47204 13.574 5.4712Z" fill="#E00049"></path><path fill-rule="evenodd" clip-rule="evenodd" d="M90.8252 18.8848C90.8252 25.1771 90.9222 25.979 91.2521 26.9749C91.9763 29.206 93.8194 30.5058 96.5484 30.5058C99.2774 30.5058 101.088 29.206 101.812 26.9749C102.142 25.9984 102.239 25.1771 102.239 18.8848C102.239 12.5926 102.142 11.7971 101.812 10.7948C101.075 8.5637 99.3098 7.27032 96.5484 7.27032C93.7871 7.27032 91.9763 8.5637 91.2521 10.7948C90.9222 11.7713 90.8252 12.5926 90.8252 18.8848ZM98.6566 18.8978C98.6566 25.1124 98.6178 25.3646 98.4238 26.0113C98.2679 26.3845 98.0052 26.7032 97.6686 26.9273C97.332 27.1515 96.9366 27.2711 96.5323 27.2711C96.1279 27.2711 95.7325 27.1515 95.3959 26.9273C95.0593 26.7032 94.7966 26.3845 94.6407 26.0113C94.4402 25.3646 94.4079 25.106 94.4079 18.8978C94.4079 12.6896 94.4402 12.4309 94.6407 11.7842C94.7966 11.4111 95.0593 11.0924 95.3959 10.8682C95.7325 10.6441 96.1279 10.5245 96.5323 10.5245C96.9366 10.5245 97.332 10.6441 97.6686 10.8682C98.0052 11.0924 98.2679 11.4111 98.4238 11.7842C98.6178 12.4309 98.6566 12.6831 98.6566 18.8978ZM80.9115 30.2019C80.8675 30.2047 80.8233 30.1982 80.782 30.1826C80.7407 30.167 80.7032 30.1428 80.672 30.1116C80.6408 30.0804 80.6166 30.0429 80.601 30.0016C80.5855 29.9603 80.5789 29.9161 80.5817 29.8721V10.9888C80.5848 10.9617 80.5818 10.9343 80.5728 10.9086C80.5638 10.8828 80.5491 10.8595 80.5299 10.8402C80.5106 10.8209 80.4872 10.8063 80.4615 10.7973C80.4358 10.7883 80.4083 10.7852 80.3812 10.7883H76.9797C76.9356 10.7912 76.8915 10.7846 76.8502 10.769C76.8089 10.7535 76.7714 10.7293 76.7401 10.6981C76.7089 10.6669 76.6847 10.6293 76.6692 10.588C76.6536 10.5467 76.647 10.5026 76.6499 10.4585V7.87178C76.648 7.82798 76.6553 7.78428 76.6712 7.74344C76.6872 7.7026 76.7114 7.6655 76.7424 7.63451C76.7734 7.60351 76.8105 7.57928 76.8513 7.56335C76.8922 7.54742 76.9359 7.54014 76.9797 7.54197H87.7406C87.7844 7.54014 87.8281 7.54742 87.8689 7.56335C87.9097 7.57928 87.9468 7.60351 87.9778 7.63451C88.0088 7.6655 88.0331 7.7026 88.049 7.74344C88.0649 7.78428 88.0722 7.82798 88.0704 7.87178V10.4585C88.0732 10.5026 88.0666 10.5467 88.0511 10.588C88.0355 10.6293 88.0113 10.6669 87.9801 10.6981C87.9489 10.7293 87.9114 10.7535 87.8701 10.769C87.8288 10.7846 87.7846 10.7912 87.7406 10.7883H84.3196C84.2906 10.7805 84.2602 10.7801 84.231 10.7869C84.2019 10.7938 84.1749 10.8078 84.1524 10.8276C84.13 10.8475 84.1128 10.8726 84.1025 10.9008C84.0922 10.9289 84.089 10.9591 84.0932 10.9888V29.8721C84.0961 29.9161 84.0895 29.9603 84.0739 30.0016C84.0584 30.0429 84.0342 30.0804 84.003 30.1116C83.9718 30.1428 83.9342 30.167 83.8929 30.1826C83.8516 30.1982 83.8075 30.2047 83.7634 30.2019H80.9115ZM48.9802 7.76921C48.9642 7.81006 48.957 7.85376 48.9588 7.89756V29.9367C48.9559 29.9807 48.9625 30.0249 48.9781 30.0662C48.9936 30.1075 49.0178 30.145 49.049 30.1762C49.0803 30.2074 49.1178 30.2316 49.1591 30.2472C49.2004 30.2627 49.2445 30.2693 49.2886 30.2665H58.4974C58.5409 30.2684 58.5844 30.2611 58.6249 30.2451C58.6654 30.2291 58.7021 30.2048 58.7326 30.1737C58.7631 30.1426 58.7867 30.1054 58.8019 30.0645C58.8171 30.0237 58.8235 29.9801 58.8208 29.9367V27.3499C58.8235 27.3064 58.8171 27.2629 58.8019 27.222C58.7867 27.1812 58.7631 27.144 58.7326 27.1129C58.7021 27.0818 58.6654 27.0575 58.6249 27.0415C58.5844 27.0255 58.5409 27.0182 58.4974 27.0201H52.6772C52.5479 27.0201 52.4832 26.9554 52.4832 26.8196V20.6244C52.4801 20.5981 52.483 20.5715 52.4916 20.5466C52.5003 20.5216 52.5145 20.499 52.5331 20.4803C52.5518 20.4616 52.5745 20.4474 52.5994 20.4388C52.6244 20.4301 52.651 20.4272 52.6772 20.4304H57.6567C57.7008 20.4324 57.7449 20.4249 57.7859 20.4085C57.8269 20.3922 57.8639 20.3672 57.8945 20.3354C57.9251 20.3036 57.9486 20.2656 57.9633 20.224C57.9781 20.1824 57.9838 20.1381 57.9801 20.0941V17.5073C57.9838 17.4633 57.9781 17.419 57.9633 17.3774C57.9486 17.3358 57.9251 17.2978 57.8945 17.266C57.8639 17.2342 57.8269 17.2092 57.7859 17.1929C57.7449 17.1765 57.7008 17.1691 57.6567 17.1711H52.6514C52.522 17.1711 52.4574 17.1064 52.4574 16.9706V11.0146C52.4531 10.9879 52.4552 10.9605 52.4634 10.9347C52.4715 10.9089 52.4855 10.8854 52.5044 10.866C52.5232 10.8465 52.5462 10.8317 52.5718 10.8227C52.5973 10.8137 52.6245 10.8108 52.6514 10.8141H58.4715C58.5151 10.816 58.5585 10.8087 58.599 10.7928C58.6396 10.7768 58.6763 10.7524 58.7068 10.7213C58.7373 10.6902 58.7609 10.653 58.7761 10.6122C58.7912 10.5714 58.7977 10.5278 58.7949 10.4843V7.89756C58.7977 7.85408 58.7912 7.81051 58.7761 7.76967C58.7609 7.72884 58.7373 7.69166 58.7068 7.66055C58.6763 7.62944 58.6396 7.6051 58.599 7.58911C58.5585 7.57312 58.5151 7.56584 58.4715 7.56775H49.2886C49.2448 7.56592 49.2011 7.5732 49.1602 7.58913C49.1194 7.60506 49.0823 7.62928 49.0513 7.66028C49.0203 7.69128 48.9961 7.72837 48.9802 7.76921ZM70.5451 29.872C70.6098 30.0725 70.7068 30.2018 70.9073 30.2018H73.8238C74.0243 30.2018 74.1536 30.0725 74.089 29.872L69.6786 18.3869L73.6945 7.89759C73.7591 7.70358 73.6298 7.56778 73.4293 7.56778H70.5387C70.3382 7.56778 70.2412 7.70358 70.1765 7.89759L67.9713 14.3257H67.9066L65.7014 7.89759C65.6368 7.70358 65.5398 7.56778 65.3393 7.56778H62.4421C62.2481 7.56778 62.1123 7.70358 62.1835 7.89759L66.1606 18.3869L61.7825 29.872C61.7178 30.0725 61.8536 30.2018 62.0476 30.2018H64.9448C65.1388 30.2018 65.2423 30.0725 65.3069 29.872L67.8937 22.6809H67.9584L70.5451 29.872ZM106.391 7.89761C106.389 7.85381 106.397 7.8101 106.412 7.76926C106.428 7.72842 106.453 7.69133 106.484 7.66033C106.515 7.62933 106.552 7.6051 106.593 7.58918C106.633 7.57325 106.677 7.56597 106.721 7.5678H109.586C109.63 7.56494 109.674 7.57152 109.715 7.58709C109.757 7.60265 109.794 7.62685 109.825 7.65806C109.856 7.68928 109.881 7.72679 109.896 7.7681C109.912 7.8094 109.918 7.85356 109.916 7.89761V26.7744C109.916 26.9102 109.98 26.9749 110.11 26.9749H115.93C115.973 26.9731 116.017 26.9803 116.058 26.9963C116.099 27.0122 116.136 27.0364 116.167 27.0674C116.198 27.0984 116.222 27.1355 116.238 27.1763C116.254 27.2172 116.261 27.2609 116.26 27.3047V29.8914C116.262 29.9355 116.256 29.9796 116.24 30.021C116.225 30.0623 116.2 30.0998 116.169 30.131C116.138 30.1622 116.101 30.1864 116.059 30.202C116.018 30.2175 115.974 30.2241 115.93 30.2213H106.727C106.683 30.2241 106.639 30.2175 106.598 30.202C106.557 30.1864 106.519 30.1622 106.488 30.131C106.457 30.0998 106.432 30.0623 106.417 30.021C106.401 29.9796 106.395 29.9355 106.398 29.8914L106.391 7.89761ZM119.68 7.7681C119.665 7.8094 119.658 7.85356 119.661 7.89761L119.629 29.9367C119.626 29.9808 119.632 30.0249 119.648 30.0662C119.664 30.1075 119.688 30.145 119.719 30.1763C119.75 30.2075 119.788 30.2317 119.829 30.2472C119.87 30.2628 119.915 30.2694 119.959 30.2665H129.167C129.211 30.2694 129.256 30.2628 129.297 30.2472C129.338 30.2317 129.376 30.2075 129.407 30.1763C129.438 30.145 129.462 30.1075 129.478 30.0662C129.493 30.0249 129.5 29.9808 129.497 29.9367V27.35C129.5 27.3059 129.493 27.2618 129.478 27.2204C129.462 27.1791 129.438 27.1416 129.407 27.1104C129.376 27.0792 129.338 27.055 129.297 27.0394C129.256 27.0239 129.211 27.0173 129.167 27.0201H123.347C123.32 27.0246 123.292 27.0225 123.265 27.014C123.239 27.0055 123.215 26.9909 123.196 26.9713C123.176 26.9517 123.161 26.9277 123.153 26.9014C123.144 26.875 123.142 26.847 123.147 26.8197V20.6244C123.147 20.4951 123.211 20.4304 123.347 20.4304H128.346C128.39 20.4323 128.435 20.4249 128.476 20.4085C128.517 20.3922 128.555 20.3674 128.586 20.3357C128.617 20.304 128.641 20.2661 128.657 20.2245C128.672 20.1829 128.679 20.1385 128.676 20.0941V17.5074C128.679 17.4631 128.672 17.4186 128.657 17.377C128.641 17.3354 128.617 17.2975 128.586 17.2658C128.555 17.2341 128.517 17.2093 128.476 17.193C128.435 17.1767 128.39 17.1692 128.346 17.1711H123.347C123.32 17.1756 123.292 17.1735 123.265 17.165C123.239 17.1565 123.215 17.1418 123.196 17.1222C123.176 17.1027 123.161 17.0787 123.153 17.0523C123.144 17.026 123.142 16.998 123.147 16.9706V11.0146C123.144 10.9876 123.147 10.9601 123.156 10.9344C123.165 10.9087 123.179 10.8853 123.199 10.866C123.218 10.8468 123.241 10.8321 123.267 10.8231C123.293 10.8141 123.32 10.8111 123.347 10.8142H129.167C129.211 10.817 129.256 10.8104 129.297 10.7949C129.338 10.7793 129.376 10.7551 129.407 10.7239C129.438 10.6927 129.462 10.6552 129.478 10.6139C129.493 10.5726 129.5 10.5284 129.497 10.4844V7.89761C129.5 7.85356 129.493 7.8094 129.478 7.7681C129.462 7.72679 129.438 7.68928 129.407 7.65806C129.376 7.62685 129.338 7.60265 129.297 7.58709C129.256 7.57152 129.211 7.56494 129.167 7.5678H119.991C119.947 7.56494 119.903 7.57152 119.861 7.58709C119.82 7.60265 119.783 7.62685 119.751 7.65806C119.72 7.68928 119.696 7.72679 119.68 7.7681Z" fill="#010101"></path></svg> 