
<svg width="130" height="181" xmlns="http://www.w3.org/2000/svg" viewBox="-10 -10 190 175"><path d="M89.7 90.3h18.1c1.5 0 2.6-1.2 2.6-2.6 0-.3-.1-.6-.2-.9L79 1.8C78.6.8 77.6.1 76.5.1h-18c-1.5 0-2.6 1.2-2.6 2.6 0 .3.1.6.2.9l31.2 85c.4 1 1.3 1.7 2.4 1.7zm-3.2 90.2h18.1c1.5 0 2.6-1.2 2.6-2.7 0-.3-.1-.6-.2-.8L42.7 1.7C42.3.7 41.3 0 40.2 0H22.1c-1.5 0-2.6 1.2-2.6 2.6 0 .3.1.6.2.9L84 178.8c.4 1 1.4 1.7 2.5 1.7zm-35.7 0h18.1c1.5 0 2.6-1.2 2.6-2.6 0-.3-.1-.6-.2-.9L40.2 92c-.4-1-1.4-1.7-2.5-1.7H19.6c-1.5 0-2.6 1.2-2.6 2.6 0 .3.1.6.2.9l31.2 85c.3 1 1.3 1.7 2.4 1.7zm41.1-177l14.6 39.9c.4 1 1.4 1.7 2.5 1.7h18.1c1.5 0 2.6-1.2 2.6-2.6 0-.3-.1-.6-.2-.9L115 1.7c-.4-1-1.4-1.7-2.5-1.7H94.4c-1.5 0-2.6 1.2-2.6 2.6 0 .3 0 .7.1.9zm-74.6 177h18.1c1.5 0 2.6-1.2 2.6-2.6 0-.3-.1-.6-.2-.9l-14.6-39.9c-.4-1-1.4-1.7-2.5-1.7H2.6c-1.5 0-2.6 1.2-2.6 2.6 0 .3.1.6.2.9l14.6 39.9c.4 1 1.4 1.7 2.5 1.7z" fill="#007FFF"/></svg>