
<?xml version="1.0" encoding="utf-8"?>
<!-- Generator: Adobe Illustrator 23.0.2, SVG Export Plug-In . SVG Version: 6.00 Build 0)  -->
<svg version="1.1" id="Layer_1" xmlns="http://www.w3.org/2000/svg" xmlns:xlink="http://www.w3.org/1999/xlink" x="0px" y="0px"
	viewBox="0 -4.5 50 43.4" style="enable-background:new 0 0 140 43.4;" xml:space="preserve">
<style type="text/css">
	.st0{fill:#373A3B;}
	.st1{fill:#F15C22;}
</style>
<g>
	<g>
		<path class="st0" d="M68.7,15c-1.8,0-3.3,0.6-4.4,1.8l-0.6-1.5H60v13.3h4.7v-7.1c0-1.6,1-2.6,2.5-2.6c1.2,0,2.1,0.9,2.1,2.1v7.6
			H74v-8.4c0-1.5-0.5-2.8-1.5-3.7C71.6,15.5,70.3,15,68.7,15z"/>
		<g>
			<rect x="52.7" y="9.2" class="st0" width="4.7" height="4.7"/>
			<rect x="52.7" y="15.4" class="st0" width="4.7" height="13.3"/>
		</g>
		<g>
			<path class="st0" d="M138.3,17c-1.2-1.3-2.6-2-4.4-2c-1.6,0-2.9,0.5-4,1.6l-0.6-1.2h-3.8v18.9h4.7v-6.5c1.1,0.8,2.2,1.3,3.6,1.3
				c1.8,0,3.3-0.7,4.4-1.9c1.2-1.3,1.7-3,1.7-5C140,20,139.4,18.3,138.3,17z M132.6,25.3c-1.4,0-2.4-1.1-2.4-2.6v-1.4
				c0-1.5,1-2.6,2.4-2.6c1.5,0,2.6,1.3,2.6,3.3C135.2,23.9,134.1,25.3,132.6,25.3z"/>
		</g>
		<g>
			<path class="st0" d="M120.6,9.1c-1.5,0-2.7,1.1-2.7,2.7c0,1.5,1.2,2.7,2.7,2.7c1.6,0,2.7-1.2,2.7-2.7
				C123.3,10.3,122.2,9.1,120.6,9.1z"/>
			<rect x="118.2" y="15.4" class="st0" width="4.7" height="13.3"/>
		</g>
		<g>
			<path class="st0" d="M98.5,17c-1.4-1.3-3.2-2-5.5-2c-2.2,0-4,0.6-5.5,2c-1.4,1.3-2.1,3-2.1,5c0,2,0.7,3.7,2.1,5
				C89,28.3,90.8,29,93,29c2.2,0,4.1-0.7,5.5-1.9c1.4-1.3,2.1-3,2.1-5C100.6,20,99.9,18.3,98.5,17z M93,25.3c-1.6,0-2.7-1.4-2.7-3.3
				c0-2,1.1-3.3,2.7-3.3c1.6,0,2.8,1.4,2.8,3.3C95.8,24,94.6,25.3,93,25.3z"/>
		</g>
		<path class="st0" d="M83.5,13.2c0.4,0,0.9,0.1,1.6,0.2l0.6-3.5c-1.1-0.3-2.2-0.4-3.3-0.4c-1.5,0-2.7,0.4-3.6,1.3
			c-0.9,0.9-1.4,2-1.4,3.4v1.2h-2.2v3.6h2.2v9.7h4.7v-9.7h2.7v-3.6h-2.7v-0.8C82.1,13.7,82.6,13.2,83.5,13.2z"/>
		<g>
			<path class="st0" d="M114.7,17c-1.2-1.3-2.6-2-4.4-2c-1.4,0-2.6,0.4-3.6,1.3V9.7H102v18.9h3.8l0.6-1.2c1,1,2.3,1.6,3.9,1.6
				c1.8,0,3.3-0.7,4.4-1.9c1.2-1.3,1.8-3,1.8-5C116.5,20,115.9,18.3,114.7,17z M109.1,25.3c-1.4,0-2.4-1.1-2.4-2.6v-1.4
				c0-1.5,1-2.6,2.4-2.6c1.5,0,2.6,1.3,2.6,3.3C111.7,23.9,110.6,25.3,109.1,25.3z"/>
		</g>
	</g>
	<g>
		<g>
			<path class="st1" d="M25.9,18.7v5.9c0,0.7-0.6,1.2-1.2,1.2h-5.9c-0.7,0-1.2-0.6-1.2-1.2v-5.9c0-0.7,0.6-1.2,1.2-1.2h5.9
				C25.4,17.5,25.9,18,25.9,18.7z"/>
			<path class="st1" d="M31.9,11.5c-1.7-1.7-5.7-2.8-10.2-2.8s-8.5,1.1-10.2,2.8c-1.7,1.7-2.8,5.7-2.8,10.2s1.1,8.5,2.8,10.2
				c1.7,1.7,5.7,2.8,10.2,2.8s8.5-1.1,10.2-2.8c0.8-0.8,1.5-2.3,2-4c0.5-1.8,0.8-3.9,0.8-6.1C34.6,17.2,33.6,13.2,31.9,11.5z
				 M27.9,27.9c-0.4,0.4-1.4,1.4-6.3,1.4c-4.9,0-5.9-1.1-6.3-1.4C15,27.5,14,26.5,14,21.6s1.1-5.9,1.4-6.3c0.3-0.4,1.4-1.4,6.3-1.4
				c4.9,0,5.9,1.1,6.3,1.4c0.3,0.4,1.4,1.4,1.4,6.3S28.3,27.5,27.9,27.9z"/>
			<path class="st1" d="M25.9,18.7v5.9c0,0.7-0.6,1.2-1.2,1.2h-5.9c-0.7,0-1.2-0.6-1.2-1.2v-5.9c0-0.7,0.6-1.2,1.2-1.2h5.9
				C25.4,17.5,25.9,18,25.9,18.7z"/>
		</g>
		<path class="st1" d="M25.9,18.7v5.9c0,0.7-0.6,1.2-1.2,1.2h-5.9c-0.7,0-1.2-0.6-1.2-1.2v-5.9c0-0.7,0.6-1.2,1.2-1.2h5.9
			C25.4,17.5,25.9,18,25.9,18.7z"/>
		<path class="st1" d="M25.9,18.7v5.9c0,0.7-0.6,1.2-1.2,1.2h-5.9c-0.7,0-1.2-0.6-1.2-1.2v-5.9c0-0.7,0.6-1.2,1.2-1.2h5.9
			C25.4,17.5,25.9,18,25.9,18.7z"/>
		<path class="st1" d="M31.9,11.5c-1.7-1.7-5.7-2.8-10.2-2.8s-8.5,1.1-10.2,2.8c-1.7,1.7-2.8,5.7-2.8,10.2s1.1,8.5,2.8,10.2
			c1.7,1.7,5.7,2.8,10.2,2.8s8.5-1.1,10.2-2.8c0.8-0.8,1.5-2.3,2-4c0.5-1.8,0.8-3.9,0.8-6.1C34.6,17.2,33.6,13.2,31.9,11.5z
			 M27.9,27.9c-0.4,0.4-1.4,1.4-6.3,1.4c-4.9,0-5.9-1.1-6.3-1.4C15,27.5,14,26.5,14,21.6s1.1-5.9,1.4-6.3c0.3-0.4,1.4-1.4,6.3-1.4
			c4.9,0,5.9,1.1,6.3,1.4c0.3,0.4,1.4,1.4,1.4,6.3S28.3,27.5,27.9,27.9z"/>
		<path class="st1" d="M21.7,0C9.7,0,0,9.7,0,21.7c0,11.9,9.6,21.5,21.4,21.7c12.1,0.2,22.2-9.9,22-22C43.2,9.6,33.6,0,21.7,0z
			 M34.1,34.2c-2.4,2.4-7,3.8-12.4,3.8c-5.4,0-10.1-1.4-12.4-3.8c-2.4-2.4-3.8-7-3.8-12.4c0-5.4,1.4-10,3.8-12.4
			c2.4-2.4,7-3.8,12.4-3.8c5.4,0,10,1.4,12.4,3.8c2.4,2.4,3.8,7,3.8,12.4C37.9,27.2,36.5,31.8,34.1,34.2z"/>
	</g>
</g>
</svg>
