
<svg width="197" height="107" viewBox="0 0 197 107" fill="none" xmlns="http://www.w3.org/2000/svg">
<path d="M48.6209 93.6414C46.5319 93.6414 44.429 93.4789 42.3252 93.1497C31.718 91.4904 22.3911 85.7999 16.064 77.127C9.73597 68.4533 7.16495 57.8347 8.82336 47.2275C10.4818 36.6202 16.1723 27.2933 24.846 20.9661C42.7505 7.90313 67.9446 11.8444 81.0075 29.749L77.2182 32.5122C65.6792 16.6965 43.4265 13.2164 27.61 24.7545C19.9484 30.3437 14.9225 38.5826 13.4571 47.9514C11.9917 57.3212 14.2632 66.7006 19.8524 74.3621C25.4415 82.0237 33.6803 87.0496 43.0492 88.515C52.4198 89.9796 61.7982 87.7089 69.4598 82.1198L72.2238 85.909C65.2705 90.9821 57.0667 93.6414 48.6209 93.6414Z" fill="#051236"/>
<path d="M62.6289 78.398L80.2322 78.3945L72.0222 94.6608L62.6289 78.398Z" fill="#051236"/>
<path d="M31.3652 31.8926H38.8242V72.9461H31.3652V31.8926Z" fill="#051236"/>
<path d="M44.375 43.458H51.4296V46.8691C51.4296 47.9677 51.3143 48.8926 51.3143 48.8926H51.4296C52.702 46.4063 55.9394 42.7637 61.8953 42.7637C68.4294 42.7637 72.1296 46.1748 72.1296 53.9814V72.9471H64.8445V55.4852C64.8445 51.9003 63.9197 49.4716 60.1609 49.4716C56.2293 49.4716 53.3378 51.9579 52.2391 55.4852C51.8348 56.6991 51.7187 58.0292 51.7187 59.4168V72.9471H44.375V43.458Z" fill="#051236"/>
<path d="M76.9844 64.1572C76.9844 64.1572 80.2226 67.3954 85.0214 67.3954C87.1034 67.3954 88.8954 66.4706 88.8954 64.7353C88.8954 60.3408 74.5557 60.9189 74.5557 51.4365C74.5557 45.9434 79.4707 42.7637 85.831 42.7637C92.4803 42.7637 95.7185 46.1172 95.7185 46.1172L93.0008 51.5527C93.0008 51.5527 90.2831 49.0087 85.7733 49.0087C83.8651 49.0087 82.0146 49.8183 82.0146 51.6688C82.0146 55.8319 96.3543 55.3114 96.3543 64.7938C96.3543 69.7088 92.076 73.6405 85.079 73.6405C77.7354 73.6405 73.6309 69.3036 73.6309 69.3036L76.9844 64.1572Z" fill="#051236"/>
<path d="M98.5508 31.8926H105.836V38.4267H98.5508V31.8926ZM98.5508 43.457H105.894V72.9461H98.5508V43.457Z" fill="#051236"/>
<path d="M121.621 42.7636C128.097 42.7636 130.121 46.5223 130.121 46.5223H130.236C130.236 46.5223 130.179 45.7704 130.179 44.8455V31.8926H137.522V72.9461H130.584V70.5174C130.584 69.4188 130.699 68.6092 130.699 68.6092H130.584C130.584 68.6092 128.098 73.6395 121.333 73.6395C113.354 73.6395 108.266 67.3368 108.266 58.2011C108.265 48.8339 113.815 42.7636 121.621 42.7636ZM123.009 67.4529C126.825 67.4529 130.41 64.6776 130.41 58.1434C130.41 53.576 127.981 49.0654 123.066 49.0654C119.019 49.0654 115.665 52.3612 115.665 58.2011C115.666 63.8104 118.673 67.4529 123.009 67.4529Z" fill="#051236"/>
<path d="M154.81 42.7637C163.31 42.7637 167.878 48.9502 167.878 56.7567C167.878 57.6239 167.704 59.5898 167.704 59.5898H147.351C147.813 64.7362 151.803 67.3954 156.197 67.3954C160.938 67.3954 164.697 64.1572 164.697 64.1572L167.53 69.4189C167.53 69.4189 163.02 73.6396 155.677 73.6396C145.905 73.6396 139.834 66.585 139.834 58.2012C139.835 49.124 146.021 42.7637 154.81 42.7637ZM160.476 54.5586C160.361 50.5693 157.875 48.4297 154.637 48.4297C150.878 48.4297 148.276 50.7422 147.583 54.5586H160.476Z" fill="#051236"/>
<path d="M170.248 43.4571H177.302V48.545C177.302 49.6436 177.186 50.627 177.186 50.627H177.302C178.632 46.4062 182.159 43.0527 186.669 43.0527C187.363 43.0527 187.999 43.168 187.999 43.168V50.3955C187.999 50.3955 187.247 50.2803 186.265 50.2803C183.142 50.2803 179.615 52.0723 178.227 56.4668C177.765 57.9121 177.592 59.5313 177.592 61.2657V72.9453H170.249V43.4571H170.248Z" fill="#051236"/>
</svg>
