<svg width="250" height="250" viewBox="0 0 250 250" fill="none" xmlns="http://www.w3.org/2000/svg">
<g clip-path="url(#clip0_2_2)">
<path opacity="0.25" d="M148.916 240L240 148.251L194.084 102L103 193.747L148.916 240Z" fill="#59C1A7"/>
<path opacity="0.25" d="M194.083 148L240 102.084L148.917 11L103 56.9165L194.083 148Z" fill="#36C3F2"/>
<path opacity="0.15" d="M101.083 240L147 194.084L55.9167 103L10 148.916L101.083 240Z" fill="#EF3D55"/>
<path opacity="0.15" d="M57.9163 146L149 54.2513L103.084 8L12 99.7475L57.9163 146Z" fill="#6A266D"/>
<path d="M125.001 66C143.226 66 158 51.2253 158 32.9999C158 14.7746 143.226 0 125.001 0C106.774 0 92 14.7746 92 32.9999C92 51.2253 106.774 66 125.001 66Z" fill="#6A266D"/>
<path d="M217.5 158C235.448 158 250 143.449 250 125.499C250 107.549 235.448 93 217.5 93C199.552 93 185 107.549 185 125.499C185 143.449 199.552 158 217.5 158Z" fill="#36C3F2"/>
<path d="M125.001 251C143.226 251 158 236.225 158 218.001C158 199.775 143.226 185 125.001 185C106.774 185 92 199.775 92 218.001C92 236.225 106.774 251 125.001 251Z" fill="#59C1A7"/>
<path d="M32.5001 158C50.4492 158 65 143.449 65 125.499C65 107.551 50.4492 93 32.5001 93C14.5507 93 0 107.551 0 125.499C0 143.449 14.5507 158 32.5001 158Z" fill="#EF3D55"/>
</g>
<defs>
<clipPath id="clip0_2_2">
<rect width="250" height="250" fill="white"/>
</clipPath>
</defs>
</svg>
