
<svg xmlns="http://www.w3.org/2000/svg" xmlns:xlink="http://www.w3.org/1999/xlink" width="180" height="48" viewBox="-10 -5 55 48">
    <defs>
        <path id="a" d="M0 47.368h179.558V.438H0z"/>
    </defs>
    <g fill="none" fill-rule="evenodd">
        <path fill="#0A0A0A" d="M71.579 32.632h-3.672l-5.773-7.889v7.889h-3.187V15.789h3.187v7.422l5.542-7.422h3.672l-5.981 8.18z"/>
        <path fill="#0A0A0A" d="M75.218 28.922c.618.63 1.4.946 2.35.946.95 0 1.737-.316 2.362-.946.624-.63.937-1.442.937-2.432s-.313-1.8-.937-2.43c-.625-.631-1.412-.947-2.362-.947-.95 0-1.732.316-2.35.946-.617.631-.925 1.441-.925 2.431s.308 1.801.925 2.432zm5.65-8.42h3.06V32.48h-3.06v-1.413c-.918 1.165-2.208 1.748-3.87 1.748-1.582 0-2.94-.61-4.07-1.832-1.132-1.222-1.697-2.72-1.697-4.492 0-1.772.565-3.27 1.697-4.49 1.13-1.222 2.488-1.833 4.07-1.833 1.662 0 2.952.583 3.87 1.748v-1.413zM99.832 20.167c1.36 0 2.448.447 3.264 1.341.814.894 1.222 2.092 1.222 3.593v7.378h-3.062v-7.163c0-.717-.174-1.277-.522-1.676-.348-.399-.839-.599-1.472-.599-.696 0-1.238.232-1.625.695-.388.464-.582 1.134-.582 2.012v6.73h-3.062v-7.162c0-.717-.174-1.277-.522-1.676-.349-.399-.84-.599-1.471-.599-.681 0-1.223.232-1.627.695-.403.464-.605 1.134-.605 2.012v6.73h-3.062V20.503h3.062v1.27c.713-1.07 1.813-1.605 3.3-1.605 1.455 0 2.531.575 3.227 1.724.791-1.15 1.97-1.724 3.537-1.724M109.469 25.365h6.052c-.174-.815-.534-1.421-1.08-1.821a3.085 3.085 0 0 0-1.863-.599c-.823 0-1.504.212-2.042.635-.538.423-.894 1.019-1.067 1.785zm.047 2.395c.412 1.501 1.527 2.252 3.347 2.252 1.17 0 2.056-.4 2.658-1.198l2.468 1.438c-1.17 1.708-2.896 2.562-5.174 2.562-1.962 0-3.536-.599-4.723-1.796-1.187-1.198-1.78-2.707-1.78-4.528 0-1.804.584-3.31 1.756-4.515 1.17-1.205 2.674-1.808 4.51-1.808 1.74 0 3.176.607 4.307 1.82 1.132 1.214 1.698 2.715 1.698 4.503 0 .4-.04.823-.119 1.27h-8.948z"/>

        <path fill="#0A0A0A" d="M120.719 32.479h3.062V14.993h-3.062zM129.121 25.365h6.052c-.174-.815-.534-1.421-1.08-1.821a3.087 3.087 0 0 0-1.864-.599c-.822 0-1.503.212-2.04.635-.539.423-.895 1.019-1.068 1.785zm.047 2.395c.411 1.501 1.527 2.252 3.347 2.252 1.17 0 2.057-.4 2.658-1.198l2.469 1.438c-1.171 1.708-2.896 2.562-5.175 2.562-1.962 0-3.536-.599-4.723-1.796-1.187-1.198-1.78-2.707-1.78-4.528 0-1.804.585-3.31 1.757-4.515 1.17-1.205 2.673-1.808 4.508-1.808 1.742 0 3.177.607 4.309 1.82 1.131 1.214 1.697 2.715 1.697 4.503 0 .4-.04.823-.118 1.27h-8.949zM143.635 28.862c.609.623 1.373.934 2.29.934s1.686-.311 2.303-.934.925-1.414.925-2.372-.308-1.748-.925-2.37c-.617-.624-1.386-.936-2.303-.936s-1.681.312-2.29.935c-.61.623-.914 1.413-.914 2.371s.304 1.749.914 2.372m6.752 2.12c-1.218 1.222-2.706 1.832-4.462 1.832-1.757 0-3.24-.61-4.45-1.832s-1.816-2.72-1.816-4.492c0-1.772.605-3.27 1.816-4.49 1.21-1.222 2.693-1.833 4.45-1.833 1.756 0 3.244.61 4.462 1.832 1.219 1.221 1.828 2.719 1.828 4.491 0 1.773-.61 3.27-1.828 4.492M157.734 28.862c.609.623 1.372.934 2.29.934.917 0 1.686-.311 2.302-.934.618-.623.926-1.414.926-2.372s-.308-1.748-.926-2.37c-.616-.624-1.385-.936-2.302-.936-.918 0-1.681.312-2.29.935-.61.623-.914 1.413-.914 2.371s.304 1.749.914 2.372m6.752 2.12c-1.218 1.222-2.706 1.832-4.462 1.832-1.757 0-3.24-.61-4.45-1.832s-1.816-2.72-1.816-4.492c0-1.772.605-3.27 1.816-4.49 1.21-1.222 2.693-1.833 4.45-1.833 1.756 0 3.244.61 4.462 1.832 1.218 1.221 1.828 2.719 1.828 4.491 0 1.773-.61 3.27-1.828 4.492M175.072 20.167c1.297 0 2.37.44 3.216 1.317.846.879 1.27 2.092 1.27 3.641v7.354h-3.062v-6.971c0-.798-.214-1.408-.64-1.832-.428-.423-.998-.635-1.71-.635-.792 0-1.424.248-1.898.742-.475.496-.713 1.239-.713 2.229v6.467h-3.061V20.502h3.061v1.342c.744-1.117 1.923-1.677 3.537-1.677" mask="url(#b)"/>
        <path fill="#FE2020" d="M13.959 27.412c0-3.242 2.603-5.87 5.816-5.87 3.212 0 5.816 2.628 5.816 5.87s-2.604 5.87-5.816 5.87c-3.213 0-5.816-2.628-5.816-5.87m-6.98 0c0 7.132 5.73 12.913 12.796 12.913 7.067 0 12.795-5.781 12.795-12.913 0-7.132-5.728-12.913-12.795-12.913S6.98 20.28 6.98 27.412" mask="url(#b)"/>
        <path fill="#2EE5AC" d="M19.774 7.455V14.5c-7.066 0-12.795 5.782-12.795 12.913 0 7.132 5.729 12.913 12.795 12.913 7.067 0 12.796-5.781 12.796-12.913h6.98c0 11.021-8.854 19.956-19.776 19.956C8.854 47.368 0 38.433 0 27.412 0 16.39 8.853 7.455 19.774 7.455" mask="url(#b)"/>
        <path fill="#2EE5AC" d="M19.774 7.455v-5.84c0-.668.554-1.205 1.215-1.176 13.81.623 24.896 11.811 25.512 25.747a1.17 1.17 0 0 1-1.164 1.226h-5.788c0-11.022-8.853-19.957-19.775-19.957" mask="url(#b)"/>
        <path fill="#6464FF" d="M19.774 14.5V7.454c10.922 0 19.775 8.935 19.775 19.957H32.57c0-7.132-5.729-12.913-12.796-12.913" mask="url(#b)"/>
        <path fill="#0A0A0A" d="M19.774 33.281c3.213 0 5.817-2.628 5.817-5.87 0-3.241-2.604-5.868-5.817-5.868-3.212 0-5.816 2.627-5.816 5.869 0 3.241 2.604 5.87 5.816 5.87" mask="url(#b)"/>
    </g>
</svg>
