<svg version="1.1" id="Layer_1" xmlns="http://www.w3.org/2000/svg" xmlns:xlink="http://www.w3.org/1999/xlink" x="0px" y="0px"
	 width="100%" viewBox="0 0 200 200" enable-background="new 0 0 200 200" xml:space="preserve">
<path fill="#FEFEFE" opacity="1.000000" stroke="none" 
	d="
M96.000000,201.000000 
	C64.000000,201.000000 32.500004,201.000000 1.000004,201.000000 
	C1.000003,134.333344 1.000003,67.666679 1.000001,1.000013 
	C67.666656,1.000009 134.333313,1.000009 200.999969,1.000004 
	C200.999985,67.666649 200.999985,134.333298 201.000000,200.999969 
	C166.166672,201.000000 131.333328,201.000000 96.000000,201.000000 
M81.005814,82.002548 
	C81.005814,82.002548 81.053185,81.947578 81.343338,82.492699 
	C82.198952,83.040253 83.054573,83.587799 84.143005,84.715179 
	C85.055550,85.195755 85.968094,85.676331 87.048317,86.638306 
	C87.352829,86.771545 87.657341,86.904778 87.977898,87.832520 
	C86.660995,94.240082 85.344101,100.647636 83.796112,107.579491 
	C84.763863,108.026627 86.280830,109.111008 86.615005,108.822998 
	C90.237946,105.700607 93.675224,102.362778 97.815712,99.073074 
	C98.871574,98.373466 99.927437,97.673859 101.572571,97.225647 
	C102.610451,97.940315 103.648338,98.654976 104.945145,99.106659 
	C104.945145,99.106659 104.657791,99.338242 104.850983,99.776619 
	C104.850983,99.776619 105.298393,99.947853 105.655884,100.475456 
	C110.194382,104.082001 114.732872,107.688553 119.271370,111.295097 
	C119.591072,111.004631 119.910774,110.714165 120.230476,110.423698 
	C119.110054,106.626770 117.989632,102.829842 116.949570,98.229446 
	C116.518661,93.351921 111.299767,87.923706 119.264633,83.698151 
	C123.987900,80.090698 128.711166,76.483246 133.587936,72.225685 
	C127.774353,72.170471 121.927826,71.711456 116.157135,72.182098 
	C111.135818,72.591614 107.932190,71.358902 106.934349,65.369186 
	C105.934021,62.573685 104.933685,59.778187 103.994926,56.306602 
	C103.701744,55.718597 103.408562,55.130592 103.212090,54.231770 
	C103.212090,54.231770 102.972809,54.011086 103.009041,53.295498 
	C102.513725,51.835106 102.018410,50.374714 101.523094,48.914318 
	C101.165588,48.900517 100.808075,48.886715 100.450569,48.872910 
	C99.389977,52.566383 98.329384,56.259857 96.935471,60.630135 
	C95.671432,64.434326 94.407402,68.238510 93.067268,71.973763 
	C93.067268,71.973763 92.985504,72.035866 92.054909,71.973091 
	C85.696297,72.039116 79.337677,72.105141 72.234146,72.059731 
	C71.024696,72.120834 69.815247,72.181938 68.605797,72.243042 
	C68.483223,72.560310 68.360649,72.877579 68.238075,73.194855 
	C72.146530,75.820099 76.054993,78.445343 79.987221,81.004822 
	C79.987221,81.004822 79.919312,81.021500 80.084930,81.534065 
	C80.403297,81.669205 80.721664,81.804344 81.005814,82.002548 
M65.326332,136.276764 
	C60.683205,131.617050 55.415211,130.593842 50.569828,133.410614 
	C46.595776,135.720856 44.413845,140.555847 45.477890,144.912735 
	C46.503857,149.113678 48.984119,152.067886 53.296085,153.071060 
	C57.833122,154.126572 61.968910,153.265839 64.978981,149.469864 
	C68.102394,145.530975 68.052147,141.235260 65.326332,136.276764 
M106.145653,147.478760 
	C106.145653,149.262100 106.145653,151.045425 106.145653,152.903595 
	C107.955246,152.903595 109.213165,152.903595 110.610153,152.903595 
	C110.610153,145.915329 110.610153,139.174698 110.610153,132.243851 
	C102.732384,131.463196 108.207146,138.411194 105.360245,140.323990 
	C103.060211,140.323990 100.629478,140.323990 98.253273,140.323990 
	C97.036018,132.076187 97.036018,132.076187 93.224518,132.831848 
	C93.224518,139.419510 93.224518,146.027603 93.224518,153.053802 
	C94.771355,152.980988 96.112938,152.917816 97.568306,152.849304 
	C97.702698,150.003937 97.816704,147.590302 97.985527,144.016083 
	C101.100075,144.981232 103.615433,145.760712 106.145653,147.478760 
M173.141296,145.271210 
	C171.594437,141.608185 170.150482,137.895767 168.432541,134.314819 
	C167.969727,133.350082 166.612244,132.119049 165.777008,132.197540 
	C164.631119,132.305237 163.069809,133.304214 162.592545,134.339096 
	C159.827194,140.335159 157.328018,146.453964 154.078735,154.080429 
	C156.807693,152.875092 158.734192,152.629562 159.584946,151.542297 
	C163.032944,147.135681 167.905441,147.084030 171.217209,151.396561 
	C172.089188,152.532043 174.115189,152.781326 176.850784,153.981262 
	C175.258087,150.221802 174.359421,148.100586 173.141296,145.271210 
M133.920517,147.531479 
	C132.012054,143.117249 130.192337,138.660751 128.126785,134.321289 
	C127.665085,133.351318 126.380264,132.266251 125.402481,132.192886 
	C124.444542,132.121048 122.873528,133.034744 122.469391,133.923935 
	C119.673943,140.074493 117.113167,146.331696 114.477013,152.554642 
	C114.841782,152.935150 115.206558,153.315643 115.571327,153.696152 
	C116.997093,152.654007 118.780197,151.873978 119.775963,150.516418 
	C122.008896,147.472153 128.383408,147.534515 130.659714,150.582443 
	C131.677017,151.944595 133.574371,152.649506 135.072327,153.652695 
	C135.341095,153.229034 135.609863,152.805359 135.878632,152.381699 
	C135.303894,151.012833 134.729156,149.643967 133.920517,147.531479 
M31.964552,139.614594 
	C31.359850,139.760056 30.755148,139.905518 30.150446,140.050980 
	C30.136162,138.384735 30.038036,136.714096 30.125074,135.053162 
	C30.305592,131.608368 28.518127,131.795441 26.162142,132.543747 
	C26.162142,139.456070 26.162142,146.081436 26.162142,153.031036 
	C27.576765,152.955368 28.792171,152.890350 29.331656,152.861496 
	C30.192799,149.772705 30.910816,147.197281 31.691507,144.397064 
	C36.716858,147.145065 36.805992,154.797989 44.227863,152.693329 
	C41.369762,148.801300 38.649757,145.097321 35.818027,141.241211 
	C38.476765,138.322968 41.018906,135.532700 43.771217,132.511749 
	C37.284218,130.716019 35.878040,136.558456 31.964552,139.614594 
M70.003159,143.380203 
	C70.456230,148.124832 72.718239,151.646423 77.389214,152.959656 
	C81.758034,154.187927 85.893532,153.666534 89.989838,148.493301 
	C87.301216,148.493301 85.740005,148.663391 84.230629,148.456085 
	C81.517021,148.083389 77.722214,148.363037 76.440865,146.741226 
	C75.062752,144.996933 75.201683,141.005829 76.224648,138.672989 
	C77.561020,135.625458 80.772797,135.494766 84.021835,136.740723 
	C85.392326,137.266266 87.204353,136.640457 88.815681,136.537994 
	C85.391106,131.575470 81.271149,131.112885 76.951317,132.643723 
	C72.416672,134.250702 70.201965,137.772736 70.003159,143.380203 
M140.160706,144.416519 
	C141.109375,146.716385 141.889236,149.109726 143.086441,151.272003 
	C143.593994,152.188721 144.935760,153.032349 145.976639,153.138000 
	C146.763535,153.217880 148.114075,152.260086 148.460678,151.444183 
	C151.100449,145.230179 153.554916,138.937485 156.353882,131.953720 
	C146.949783,132.614548 150.469467,142.313400 145.895187,145.259048 
	C141.342194,141.939117 144.723770,132.759933 135.295074,131.904282 
	C137.053665,136.360260 138.497543,140.018784 140.160706,144.416519 
z"/>
<path fill="#D8101F" opacity="1.000000" stroke="none" 
	d="
M93.143364,72.042694 
	C94.407402,68.238510 95.671432,64.434326 97.423325,60.345459 
	C98.760727,60.470943 99.610283,60.881100 100.043808,61.090405 
	C101.065399,58.621243 102.019104,56.316162 102.972809,54.011086 
	C102.972809,54.011086 103.212090,54.231770 103.146332,54.733261 
	C103.364822,55.817398 103.649086,56.400043 103.933350,56.982689 
	C104.933685,59.778187 105.934021,62.573685 106.875732,66.102501 
	C106.225357,68.877045 105.633606,70.918282 104.768219,73.183090 
	C104.027214,75.049904 103.559837,76.693138 103.092468,78.336365 
	C103.492752,78.487114 103.893036,78.637863 104.293320,78.788612 
	C105.535400,76.857574 106.777489,74.926537 108.359283,73.035568 
	C110.478798,75.028389 112.258606,76.981140 113.816544,79.210205 
	C111.404198,80.653671 109.213730,81.820831 106.703354,83.018028 
	C105.607323,83.685699 104.831200,84.323326 103.709137,84.972336 
	C102.589020,85.343285 101.814850,85.702850 101.034302,86.386063 
	C101.007454,87.142471 100.986992,87.575233 100.710739,87.893341 
	C99.964287,87.507957 99.473633,87.237228 98.941971,86.646896 
	C98.259056,85.878052 97.617157,85.428825 97.094803,84.727280 
	C97.476234,83.983398 97.738113,83.491844 98.320641,82.951157 
	C98.766037,82.169617 99.228638,81.262024 98.955780,80.735771 
	C97.896019,78.691864 96.645630,76.740807 95.378120,74.813103 
	C94.729355,73.826416 93.894249,72.962242 93.143364,72.042694 
z"/>
<path fill="#2B2B2B" opacity="1.000000" stroke="none" 
	d="
M65.552521,136.575714 
	C68.052147,141.235260 68.102394,145.530975 64.978981,149.469864 
	C61.968910,153.265839 57.833122,154.126572 53.296085,153.071060 
	C48.984119,152.067886 46.503857,149.113678 45.477890,144.912735 
	C44.413845,140.555847 46.595776,135.720856 50.569828,133.410614 
	C55.415211,130.593842 60.683205,131.617050 65.552521,136.575714 
M52.741840,137.090134 
	C51.890003,138.268356 50.219521,139.546692 50.348953,140.604889 
	C50.662632,143.169495 51.129646,146.440140 52.838299,147.887360 
	C54.289688,149.116684 58.206944,149.116074 59.851280,147.967575 
	C61.525963,146.797867 62.620007,143.490555 62.434822,141.245728 
	C62.086605,137.024612 58.497883,135.525970 52.741840,137.090134 
z"/>
<path fill="#383738" opacity="1.000000" stroke="none" 
	d="
M106.138229,147.009476 
	C103.615433,145.760712 101.100075,144.981232 97.985527,144.016083 
	C97.816704,147.590302 97.702698,150.003937 97.568306,152.849304 
	C96.112938,152.917816 94.771355,152.980988 93.224518,153.053802 
	C93.224518,146.027603 93.224518,139.419510 93.224518,132.831848 
	C97.036018,132.076187 97.036018,132.076187 98.253273,140.323990 
	C100.629478,140.323990 103.060211,140.323990 105.360245,140.323990 
	C108.207146,138.411194 102.732384,131.463196 110.610153,132.243851 
	C110.610153,139.174698 110.610153,145.915329 110.610153,152.903595 
	C109.213165,152.903595 107.955246,152.903595 106.145653,152.903595 
	C106.145653,151.045425 106.145653,149.262100 106.138229,147.009476 
z"/>
<path fill="#2D2D2C" opacity="1.000000" stroke="none" 
	d="
M173.301025,145.625290 
	C174.359421,148.100586 175.258087,150.221802 176.850784,153.981262 
	C174.115189,152.781326 172.089188,152.532043 171.217209,151.396561 
	C167.905441,147.084030 163.032944,147.135681 159.584946,151.542297 
	C158.734192,152.629562 156.807693,152.875092 154.078735,154.080429 
	C157.328018,146.453964 159.827194,140.335159 162.592545,134.339096 
	C163.069809,133.304214 164.631119,132.305237 165.777008,132.197540 
	C166.612244,132.119049 167.969727,133.350082 168.432541,134.314819 
	C170.150482,137.895767 171.594437,141.608185 173.301025,145.625290 
z"/>
<path fill="#2D2C2D" opacity="1.000000" stroke="none" 
	d="
M134.037476,147.903290 
	C134.729156,149.643967 135.303894,151.012833 135.878632,152.381699 
	C135.609863,152.805359 135.341095,153.229034 135.072327,153.652695 
	C133.574371,152.649506 131.677017,151.944595 130.659714,150.582443 
	C128.383408,147.534515 122.008896,147.472153 119.775963,150.516418 
	C118.780197,151.873978 116.997093,152.654007 115.571327,153.696152 
	C115.206558,153.315643 114.841782,152.935150 114.477013,152.554642 
	C117.113167,146.331696 119.673943,140.074493 122.469391,133.923935 
	C122.873528,133.034744 124.444542,132.121048 125.402481,132.192886 
	C126.380264,132.266251 127.665085,133.351318 128.126785,134.321289 
	C130.192337,138.660751 132.012054,143.117249 134.037476,147.903290 
z"/>
<path fill="#272726" opacity="1.000000" stroke="none" 
	d="
M32.213673,139.342499 
	C35.878040,136.558456 37.284218,130.716019 43.771217,132.511749 
	C41.018906,135.532700 38.476765,138.322968 35.818027,141.241211 
	C38.649757,145.097321 41.369762,148.801300 44.227863,152.693329 
	C36.805992,154.797989 36.716858,147.145065 31.691507,144.397064 
	C30.910816,147.197281 30.192799,149.772705 29.331656,152.861496 
	C28.792171,152.890350 27.576765,152.955368 26.162142,153.031036 
	C26.162142,146.081436 26.162142,139.456070 26.162142,132.543747 
	C28.518127,131.795441 30.305592,131.608368 30.125074,135.053162 
	C30.038036,136.714096 30.136162,138.384735 30.150446,140.050980 
	C30.755148,139.905518 31.359850,139.760056 32.213673,139.342499 
z"/>
<path fill="#2E2E2E" opacity="1.000000" stroke="none" 
	d="
M70.001984,142.971619 
	C70.201965,137.772736 72.416672,134.250702 76.951317,132.643723 
	C81.271149,131.112885 85.391106,131.575470 88.815681,136.537994 
	C87.204353,136.640457 85.392326,137.266266 84.021835,136.740723 
	C80.772797,135.494766 77.561020,135.625458 76.224648,138.672989 
	C75.201683,141.005829 75.062752,144.996933 76.440865,146.741226 
	C77.722214,148.363037 81.517021,148.083389 84.230629,148.456085 
	C85.740005,148.663391 87.301216,148.493301 89.989838,148.493301 
	C85.893532,153.666534 81.758034,154.187927 77.389214,152.959656 
	C72.718239,151.646423 70.456230,148.124832 70.001984,142.971619 
z"/>
<path fill="#2F2F2F" opacity="1.000000" stroke="none" 
	d="
M140.051056,144.046906 
	C138.497543,140.018784 137.053665,136.360260 135.295074,131.904282 
	C144.723770,132.759933 141.342194,141.939117 145.895187,145.259048 
	C150.469467,142.313400 146.949783,132.614548 156.353882,131.953720 
	C153.554916,138.937485 151.100449,145.230179 148.460678,151.444183 
	C148.114075,152.260086 146.763535,153.217880 145.976639,153.138000 
	C144.935760,153.032349 143.593994,152.188721 143.086441,151.272003 
	C141.889236,149.109726 141.109375,146.716385 140.051056,144.046906 
z"/>
<path fill="#BE101A" opacity="1.000000" stroke="none" 
	d="
M101.040695,86.062416 
	C101.814850,85.702850 102.589020,85.343285 104.109818,84.991425 
	C107.536674,85.385025 110.216911,85.770920 113.054741,86.446396 
	C113.006195,88.112213 113.183769,89.715576 112.527039,90.825111 
	C109.778969,95.467934 109.915497,99.034348 115.598015,100.982635 
	C116.006683,100.355827 116.437943,99.694366 116.869202,99.032913 
	C117.989632,102.829842 119.110054,106.626770 120.230476,110.423698 
	C119.910774,110.714165 119.591072,111.004631 119.271370,111.295097 
	C114.732872,107.688553 110.194382,104.082001 105.582047,100.053253 
	C105.224731,99.533440 104.941261,99.435844 104.657791,99.338242 
	C104.657791,99.338242 104.945145,99.106659 104.921692,98.814003 
	C103.612396,94.368370 102.326546,90.215393 101.040695,86.062416 
z"/>
<path fill="#C20811" opacity="1.000000" stroke="none" 
	d="
M93.105316,72.008224 
	C93.894249,72.962242 94.729355,73.826416 95.378120,74.813103 
	C96.645630,76.740807 97.896019,78.691864 98.955780,80.735771 
	C99.228638,81.262024 98.766037,82.169617 97.986450,82.802483 
	C93.762489,81.480347 90.193352,80.257751 86.075729,78.847275 
	C86.499100,81.844978 86.787422,83.886497 87.019440,85.978821 
	C86.963120,86.029617 86.880638,86.156914 86.880638,86.156914 
	C85.968094,85.676331 85.055550,85.195755 84.015488,84.073090 
	C82.943047,82.936523 81.998116,82.442055 81.053185,81.947578 
	C81.053185,81.947578 81.005814,82.002548 80.910904,81.739212 
	C80.517097,81.324417 80.218208,81.172958 79.919312,81.021500 
	C79.919312,81.021500 79.987221,81.004822 80.041519,80.715286 
	C80.806625,79.666321 81.517418,78.906898 82.005394,78.385536 
	C79.358505,76.625359 76.670517,74.837860 74.451324,73.032486 
	C80.193443,73.277969 85.465286,73.614014 90.741791,73.721169 
	C91.477982,73.736130 92.237030,72.625465 92.985504,72.035866 
	C92.985504,72.035866 93.067268,71.973763 93.105316,72.008224 
z"/>
<path fill="#B80911" opacity="1.000000" stroke="none" 
	d="
M107.023262,82.987984 
	C109.213730,81.820831 111.404198,80.653671 114.195801,79.221809 
	C118.972450,77.496582 123.426796,76.589752 127.057457,74.047279 
	C126.888199,73.656784 126.718933,73.266281 126.549675,72.875786 
	C128.844589,72.875786 131.139511,72.875786 133.434433,72.875793 
	C128.711166,76.483246 123.987900,80.090698 118.537766,83.813416 
	C116.216843,83.990982 114.622780,84.053276 112.639740,84.078171 
	C110.508263,83.689842 108.765762,83.338913 107.023262,82.987984 
z"/>
<path fill="#DC273C" opacity="1.000000" stroke="none" 
	d="
M133.511185,72.550735 
	C131.139511,72.875786 128.844589,72.875786 126.549675,72.875786 
	C126.718933,73.266281 126.888199,73.656784 127.057457,74.047279 
	C123.426796,76.589752 118.972450,77.496582 114.417679,78.945496 
	C112.258606,76.981140 110.478798,75.028389 107.986191,73.030518 
	C106.529541,72.976776 105.785698,72.968140 105.041847,72.959511 
	C105.633606,70.918282 106.225357,68.877045 106.885040,66.490631 
	C107.932190,71.358902 111.135818,72.591614 116.157135,72.182098 
	C121.927826,71.711456 127.774353,72.170471 133.511185,72.550735 
z"/>
<path fill="#CC111C" opacity="1.000000" stroke="none" 
	d="
M96.975258,84.979599 
	C97.617157,85.428825 98.259056,85.878052 98.700012,86.808060 
	C97.993675,87.858231 97.488289,88.427620 96.620644,89.036301 
	C90.476959,89.058578 91.941963,95.810799 88.201538,97.700386 
	C88.804817,98.130066 89.408089,98.559753 90.237419,99.114044 
	C90.640739,99.527481 90.818001,99.816322 90.800606,100.364609 
	C88.413033,102.767769 86.220116,104.911484 84.027206,107.055199 
	C85.344101,100.647636 86.660995,94.240082 87.992630,87.409027 
	C88.007355,86.985527 88.047783,86.929039 88.441986,86.941864 
	C91.549210,86.296326 94.262238,85.637955 96.975258,84.979599 
z"/>
<path fill="#E80D23" opacity="1.000000" stroke="none" 
	d="
M90.995270,100.105164 
	C90.818001,99.816322 90.640739,99.527481 90.387100,98.813232 
	C92.534790,95.257545 94.758858,92.127281 96.982910,88.997009 
	C97.488289,88.427620 97.993675,87.858231 98.741028,87.127678 
	C99.473633,87.237228 99.964287,87.507957 100.728592,88.341362 
	C100.995934,91.594116 100.989616,94.284187 100.983299,96.974258 
	C99.927437,97.673859 98.871574,98.373466 97.093018,99.042084 
	C94.578636,99.375778 92.786957,99.740471 90.995270,100.105164 
z"/>
<path fill="#E4233E" opacity="1.000000" stroke="none" 
	d="
M113.028717,84.115570 
	C114.622780,84.053276 116.216843,83.990982 118.202286,83.931656 
	C111.299767,87.923706 116.518661,93.351921 116.909386,98.631180 
	C116.437943,99.694366 116.006683,100.355827 115.598015,100.982635 
	C109.915497,99.034348 109.778969,95.467934 112.527039,90.825111 
	C113.183769,89.715576 113.006195,88.112213 113.093384,86.104691 
	C112.992523,85.020782 113.010620,84.568176 113.028717,84.115570 
z"/>
<path fill="#9A1312" opacity="1.000000" stroke="none" 
	d="
M90.800613,100.364609 
	C92.786957,99.740471 94.578636,99.375778 96.766739,99.047409 
	C93.675224,102.362778 90.237946,105.700607 86.615005,108.822998 
	C86.280830,109.111008 84.763863,108.026627 83.911659,107.317345 
	C86.220116,104.911484 88.413033,102.767769 90.800613,100.364609 
z"/>
<path fill="#93141E" opacity="1.000000" stroke="none" 
	d="
M73.982536,73.050354 
	C76.670517,74.837860 79.358505,76.625359 82.005394,78.385536 
	C81.517418,78.906898 80.806625,79.666321 80.029633,80.748169 
	C76.054993,78.445343 72.146530,75.820099 68.238075,73.194855 
	C68.360649,72.877579 68.483223,72.560310 68.605797,72.243042 
	C69.815247,72.181938 71.024696,72.120834 72.724182,72.311707 
	C73.433434,72.784126 73.689537,72.946350 73.982536,73.050354 
z"/>
<path fill="#9D1C1E" opacity="1.000000" stroke="none" 
	d="
M102.990921,53.653290 
	C102.019104,56.316162 101.065399,58.621243 100.043808,61.090405 
	C99.610283,60.881100 98.760727,60.470943 97.589981,60.007057 
	C98.329384,56.259857 99.389977,52.566383 100.450569,48.872910 
	C100.808075,48.886715 101.165588,48.900517 101.523094,48.914318 
	C102.018410,50.374714 102.513725,51.835106 102.990921,53.653290 
z"/>
<path fill="#9A0611" opacity="1.000000" stroke="none" 
	d="
M101.277939,97.099953 
	C100.989616,94.284187 100.995934,91.594116 100.984390,88.456024 
	C100.986992,87.575233 101.007454,87.142471 101.034302,86.386063 
	C102.326546,90.215393 103.612396,94.368370 104.792236,98.945496 
	C103.648338,98.654976 102.610451,97.940315 101.277939,97.099953 
z"/>
<path fill="#A84246" opacity="1.000000" stroke="none" 
	d="
M74.451324,73.032486 
	C73.689537,72.946350 73.433434,72.784126 73.096642,72.367432 
	C79.337677,72.105141 85.696297,72.039116 92.520203,72.004478 
	C92.237030,72.625465 91.477982,73.736130 90.741791,73.721169 
	C85.465286,73.614014 80.193443,73.277969 74.451324,73.032486 
z"/>
<path fill="#93141E" opacity="1.000000" stroke="none" 
	d="
M81.198257,82.220139 
	C81.998116,82.442055 82.943047,82.936523 83.899078,83.783173 
	C83.054573,83.587799 82.198952,83.040253 81.198257,82.220139 
z"/>
<path fill="#9D1C1E" opacity="1.000000" stroke="none" 
	d="
M103.964142,56.644646 
	C103.649086,56.400043 103.364822,55.817398 103.097977,54.888668 
	C103.408562,55.130592 103.701744,55.718597 103.964142,56.644646 
z"/>
<path fill="#9A0611" opacity="1.000000" stroke="none" 
	d="
M104.754387,99.557434 
	C104.941261,99.435844 105.224731,99.533440 105.403297,99.789444 
	C105.298393,99.947853 104.850983,99.776619 104.754387,99.557434 
z"/>
<path fill="#CC111C" opacity="1.000000" stroke="none" 
	d="
M87.984604,87.011772 
	C87.657341,86.904778 87.352829,86.771545 86.964478,86.397614 
	C86.880638,86.156914 86.963120,86.029617 87.234329,86.087646 
	C87.767456,86.350601 87.948204,86.611725 88.047783,86.929039 
	C88.047783,86.929039 88.007355,86.985527 87.984604,87.011772 
z"/>
<path fill="#93141E" opacity="1.000000" stroke="none" 
	d="
M80.002121,81.277786 
	C80.218208,81.172958 80.517097,81.324417 80.928009,81.707687 
	C80.721664,81.804344 80.403297,81.669205 80.002121,81.277786 
z"/>
<path fill="#ED1430" opacity="1.000000" stroke="none" 
	d="
M88.441986,86.941864 
	C87.948204,86.611725 87.767456,86.350601 87.290649,86.036842 
	C86.787422,83.886497 86.499100,81.844978 86.075729,78.847275 
	C90.193352,80.257751 93.762489,81.480347 97.665802,82.851616 
	C97.738113,83.491844 97.476234,83.983398 97.094803,84.727280 
	C94.262238,85.637955 91.549210,86.296326 88.441986,86.941864 
z"/>
<path fill="#E41F35" opacity="1.000000" stroke="none" 
	d="
M112.639740,84.078171 
	C113.010620,84.568176 112.992523,85.020782 112.935783,85.815102 
	C110.216911,85.770920 107.536674,85.385025 104.455765,84.980042 
	C104.831200,84.323326 105.607323,83.685699 106.703354,83.018028 
	C108.765762,83.338913 110.508263,83.689842 112.639740,84.078171 
z"/>
<path fill="#ED162C" opacity="1.000000" stroke="none" 
	d="
M104.768219,73.183090 
	C105.785698,72.968140 106.529541,72.976776 107.646484,72.990448 
	C106.777489,74.926537 105.535400,76.857574 104.293320,78.788612 
	C103.893036,78.637863 103.492752,78.487114 103.092468,78.336365 
	C103.559837,76.693138 104.027214,75.049904 104.768219,73.183090 
z"/>
<path fill="#F7F7F7" opacity="1.000000" stroke="none" 
	d="
M53.094101,136.908447 
	C58.497883,135.525970 62.086605,137.024612 62.434822,141.245728 
	C62.620007,143.490555 61.525963,146.797867 59.851280,147.967575 
	C58.206944,149.116074 54.289688,149.116684 52.838299,147.887360 
	C51.129646,146.440140 50.662632,143.169495 50.348953,140.604889 
	C50.219521,139.546692 51.890003,138.268356 53.094101,136.908447 
z"/>
<path fill="#D8101F" opacity="1.000000" stroke="none" 
	d="
M96.620651,89.036301 
	C94.758858,92.127281 92.534790,95.257545 90.161041,98.688629 
	C89.408089,98.559753 88.804817,98.130066 88.201538,97.700386 
	C91.941963,95.810799 90.476959,89.058578 96.620651,89.036301 
z"/>
</svg>