
<svg xmlns="http://www.w3.org/2000/svg" width="156" height="24" fill="none" viewBox="130 0 30 15"><g clip-path="url(#prefix__a)"><path fill="#000" d="M9.33 18.729V16.45H2.578V5.272H0v13.457h9.33Zm6.485-.424c.559-.424.984-.98 1.276-1.67v2.094h2.472v-6.49c0-.69-.16-1.325-.505-1.855s-.85-.953-1.488-1.245c-.638-.291-1.41-.45-2.286-.45-.479 0-.957.053-1.41.132-.45.08-.876.212-1.275.371a5.99 5.99 0 0 0-1.09.556l.08 2.305a8.662 8.662 0 0 1 1.78-.9 5.624 5.624 0 0 1 1.941-.319c.558 0 1.01.133 1.33.398.318.265.478.61.478 1.033v.662h-2.233c-1.329 0-2.366.265-3.136.821-.771.557-1.143 1.325-1.143 2.305 0 .556.133 1.033.372 1.483.265.45.611.795 1.09 1.034.478.264 1.036.37 1.648.37.85 0 1.541-.211 2.1-.635Zm-2.232-1.67a1.078 1.078 0 0 1-.426-.873c0-.45.186-.795.585-1.033.372-.239.957-.371 1.701-.371h1.595v.37c0 .318-.08.636-.266.98a2.349 2.349 0 0 1-.824.875c-.372.238-.797.37-1.276.37-.452 0-.824-.105-1.09-.317Zm13.848 1.643c.585-.503 1.01-1.192 1.276-2.04v2.49h2.498V8.98h-2.498v4.556c0 .663-.107 1.245-.32 1.749-.212.503-.504.927-.903 1.192-.399.291-.85.424-1.356.424-.558 0-.983-.16-1.302-.477-.292-.318-.452-.795-.452-1.404V8.98h-2.498v6.093c0 1.271.292 2.225.903 2.914.612.689 1.41 1.033 2.446 1.033.903 0 1.621-.238 2.206-.742Zm9.01.45v-4.556c0-.662.107-1.245.32-1.748.212-.503.505-.927.877-1.192.372-.291.824-.424 1.329-.424.558 0 .983.159 1.302.477.293.318.452.795.452 1.404v6.066h2.525v-6.093c0-1.271-.292-2.225-.904-2.914-.61-.688-1.408-1.033-2.445-1.033-.877 0-1.595.265-2.18.742-.558.503-.983 1.192-1.275 2.04v-2.49h-2.499v9.748h2.499v-.026Zm15.258.212c.319-.053.638-.132.904-.211.292-.08.531-.186.797-.265l.026-2.358c-.398.212-.824.344-1.275.45a5.923 5.923 0 0 1-1.356.16c-.665 0-1.25-.133-1.701-.372a2.24 2.24 0 0 1-1.01-1.033 3.26 3.26 0 0 1-.32-1.457c0-.53.107-1.006.32-1.457.212-.423.558-.768 1.01-1.033.452-.265 1.01-.37 1.648-.37.505 0 .957.052 1.409.158.451.106.85.265 1.249.45l-.027-2.436c-.292-.106-.558-.212-.824-.265a4.252 4.252 0 0 0-.903-.16 6.336 6.336 0 0 0-1.037-.079c-1.116 0-2.073.239-2.897.69a4.949 4.949 0 0 0-1.914 1.853c-.452.795-.665 1.67-.665 2.676 0 .98.24 1.88.691 2.649a4.646 4.646 0 0 0 1.914 1.801c.824.424 1.781.663 2.871.663.399.026.77 0 1.09-.053Zm6.459-.211v-4.557c0-.662.106-1.245.319-1.748.212-.503.505-.927.904-1.192a2.15 2.15 0 0 1 1.328-.424c.585 0 1.01.159 1.303.477.292.318.452.795.452 1.404v6.066h2.498v-6.093c0-1.271-.292-2.225-.903-2.914-.612-.688-1.41-1.033-2.446-1.033-.877 0-1.621.265-2.18.742-.584.503-1.01 1.192-1.275 2.04V5.272h-2.472v13.457h2.472Zm14.885 0c1.435 0 2.658-.265 3.668-.822 1.01-.556 1.78-1.324 2.312-2.33.532-1.007.798-2.2.798-3.55 0-1.351-.266-2.543-.798-3.55a5.657 5.657 0 0 0-2.312-2.358c-1.01-.556-2.233-.82-3.668-.82H67.86v13.456h5.183v-.026Zm-2.605-2.279v-8.9h2.578c1.303 0 2.313.397 3.03 1.165.745.795 1.09 1.881 1.09 3.285 0 1.404-.372 2.517-1.09 3.285-.744.768-1.754 1.165-3.03 1.165h-2.578Zm15.921 1.855c.559-.424.984-.98 1.276-1.67v2.094h2.472v-6.49c0-.69-.16-1.325-.505-1.855s-.85-.953-1.488-1.245c-.638-.291-1.409-.45-2.286-.45-.479 0-.957.053-1.409.132-.452.08-.877.212-1.276.371-.398.16-.77.345-1.09.556l.08 2.305a8.662 8.662 0 0 1 1.781-.9 5.624 5.624 0 0 1 1.94-.319c.559 0 1.01.133 1.33.398.319.265.478.61.478 1.033v.662h-2.18c-1.329 0-2.365.265-3.136.821-.771.557-1.143 1.325-1.143 2.305 0 .556.133 1.033.372 1.483.266.45.611.795 1.09 1.034.478.264 1.036.37 1.648.37.824 0 1.488-.211 2.046-.635Zm-2.232-1.67a1.078 1.078 0 0 1-.425-.873c0-.45.186-.795.584-1.033.372-.239.957-.371 1.701-.371h1.595v.37c0 .318-.08.636-.266.98a2.349 2.349 0 0 1-.824.875c-.372.238-.77.344-1.249.344-.452.027-.824-.08-1.116-.291Zm11.03 2.094v-4.16c0-1.086.24-1.907.692-2.463.452-.556 1.09-.848 1.86-.848.372 0 .718.053 1.037.16V9.006a3.096 3.096 0 0 0-.478-.106c-.16-.027-.346-.027-.532-.027a2.15 2.15 0 0 0-1.568.636c-.426.424-.771 1.033-.984 1.775V8.954h-2.498v9.748h2.472v.027Zm7.682 0v-3.153l.904-.847 2.924 4h2.977l-4.173-5.696 4.093-4.053h-3.136l-3.562 3.444V5.272h-2.472v13.457h2.445Zm10.819 0V5.272h-2.499v13.457h2.499Zm3.827 3.629c.93 0 1.675-.186 2.259-.557.585-.37 1.064-1.033 1.462-1.96l4.492-10.86h-2.578l-2.631 6.807-2.712-6.808h-2.578l4.014 9.722-.213.503c-.133.318-.292.583-.531.716-.213.159-.559.238-1.011.238h-2.073v2.199h2.1ZM144.092 24a.56.56 0 0 1-.478-.291c-.08-.186-.08-.371.053-.53l5.662-7.762-9.915 4.027c-.08.026-.133.053-.212.053a.517.517 0 0 1-.505-.371c-.08-.212.026-.45.212-.583l8.719-5.112-15.337-.875a.525.525 0 0 1-.505-.53c0-.238.159-.503.505-.53l15.337-.873-8.719-5.113c-.186-.132-.292-.37-.212-.583a.542.542 0 0 1 .505-.37c.079 0 .132.026.212.052l9.915 4.027-5.662-7.788c-.106-.16-.133-.371-.053-.53a.503.503 0 0 1 .478-.291c.133 0 .266.053.372.159l11.271 11.205a.884.884 0 0 1 .239.61c0 .211-.08.423-.239.608l-11.271 11.232a.525.525 0 0 1-.372.16Z"/></g><defs><clipPath id="prefix__a"><rect width="156" height="24" fill="#000"/></clipPath></defs></svg>