
<?xml version="1.0" encoding="UTF-8"?>
<svg xmlns="http://www.w3.org/2000/svg" xmlns:xlink="http://www.w3.org/1999/xlink" width="274.99pt" height="37.96pt" viewBox="0 -40 274.99 37.96" version="1.1">
<defs>
<clipPath id="clip1">
  <path d="M 0 0 L 274.988281 0 L 274.988281 37.960938 L 0 37.960938 Z M 0 0 "/>
</clipPath>
</defs>
<g id="surface1">
<g clip-path="url(#clip1)" clip-rule="nonzero">
<path style=" stroke:none;fill-rule:nonzero;fill:rgb(13.699341%,12.199402%,12.5%);fill-opacity:1;" d="M 271.257813 0 L 256.820313 22.832031 L 242.382813 0 L 238.636719 0 L 238.636719 37.429688 L 243.980469 37.429688 L 243.980469 12.242188 L 254.941406 29.40625 L 258.6875 29.40625 L 269.648438 12.242188 L 269.648438 37.429688 L 274.992188 37.429688 L 274.992188 0 Z M 202.265625 33.042969 C 199.855469 30.421875 198.359375 26.945313 198.359375 21.925781 L 198.359375 0 L 203.707031 0 L 203.707031 22.191406 C 203.707031 25.71875 204.5625 27.910156 206.058594 29.570313 C 210.21875 33.878906 217.085938 34.003906 221.398438 29.84375 C 221.488281 29.753906 221.582031 29.660156 221.671875 29.570313 C 223.164063 27.910156 224.023438 25.71875 224.023438 22.191406 L 224.023438 0 L 229.367188 0 L 229.367188 21.925781 C 229.367188 26.945313 227.867188 30.425781 225.464844 33.042969 C 219.265625 39.449219 209.046875 39.617188 202.640625 33.417969 C 202.511719 33.296875 202.386719 33.171875 202.265625 33.042969 M 171.628906 0 L 171.628906 37.429688 L 193.554688 37.429688 L 193.554688 32.355469 L 176.976563 32.355469 L 176.976563 0 Z M 143.824219 20.863281 L 143.824219 37.441406 L 138.480469 37.441406 L 138.480469 0 L 152.648438 0 C 156.285156 0 158.640625 0.910156 160.453125 2.460938 C 164.855469 6.191406 165.394531 12.785156 161.660156 17.1875 C 161.292969 17.621094 160.890625 18.023438 160.453125 18.394531 C 158.640625 19.945313 156.28125 20.851563 152.648438 20.851563 Z M 152.378906 15.789063 C 154.945313 15.789063 156.324219 15.144531 157.296875 14.132813 C 159.292969 12.078125 159.292969 8.804688 157.296875 6.75 C 156.339844 5.734375 154.945313 5.09375 152.378906 5.09375 L 143.824219 5.09375 L 143.824219 15.789063 Z M 123.332031 0 L 123.332031 27.484375 L 100.871094 0 L 97.128906 0 L 97.128906 37.429688 L 102.472656 37.429688 L 102.472656 9.949219 L 124.933594 37.429688 L 128.675781 37.429688 L 128.675781 0 Z M 28.875 0 L 28.875 37.429688 L 50.796875 37.429688 L 50.796875 32.355469 L 34.21875 32.355469 L 34.21875 19.78125 L 50.796875 19.78125 L 50.796875 14.707031 L 34.21875 14.707031 L 34.21875 5.074219 L 50.796875 5.074219 L 50.796875 0 Z M 0 0 L 0 37.429688 L 21.921875 37.429688 L 21.921875 32.355469 L 5.34375 32.355469 L 5.34375 0 Z M 84.210938 0 L 53.679688 37.429688 L 60.152344 37.429688 L 82.609375 9.949219 L 82.609375 37.429688 L 87.960938 37.429688 L 87.960938 0 L 84.210938 0 "/>
</g>
</g>
</svg>
