
<svg width="131" height="24" viewBox="0 -3 50 24" fill="none" xmlns="http://www.w3.org/2000/svg">
<path fill-rule="evenodd" clip-rule="evenodd" d="M2.25129 21.0941C-0.750469 18.1178 -0.750421 13.2923 2.25138 10.316L10.4044 2.23224C12.942 -0.283773 16.8124 -0.672891 19.7622 1.06489C20.6747 1.6024 20.6667 2.83544 19.9162 3.57952C19.1658 4.3236 17.9407 4.25956 16.9221 3.96416C15.6177 3.5859 14.1508 3.90678 13.1221 4.92679L4.96903 13.0105C3.46813 14.4987 3.46811 16.9114 4.96899 18.3996C6.4699 19.8878 8.9034 19.8878 10.4043 18.3996L26.7102 2.23234C29.7121 -0.743955 34.5789 -0.743968 37.5808 2.23231L45.7339 10.316C48.7357 13.2922 48.7357 18.1178 45.7339 21.0941C42.7321 24.0704 37.8652 24.0704 34.8633 21.0941L32.1457 18.3996L28.7486 21.7678C26.211 24.2838 22.3406 24.6729 19.3907 22.9351C18.4783 22.3976 18.4863 21.1646 19.2368 20.4205C19.9872 19.6764 21.2122 19.7404 22.2309 20.0358C23.5353 20.4141 25.0022 20.0932 26.0309 19.0732L29.5251 15.6088C30.9724 14.1738 33.3189 14.1738 34.7663 15.6088L37.581 18.3996C39.0819 19.8877 41.5153 19.8877 43.0162 18.3996C44.5171 16.9114 44.5171 14.4987 43.0162 13.0105L34.8631 4.92688C33.3622 3.43874 30.9288 3.43875 29.4279 4.9269L13.122 21.0942C10.1201 24.0705 5.25311 24.0705 2.25129 21.0941Z" fill="black"/>
<path d="M78.6875 4.31958C76.7987 4.31958 75.3677 4.99594 74.4233 6.34867C73.5934 4.99594 72.2769 4.31958 70.5312 4.31958C68.7282 4.31958 67.4117 4.93958 66.5531 6.20776V4.71413H62.8613V18.805H66.5531V10.8859C66.5531 8.82867 67.612 7.7014 69.2433 7.7014C70.7601 7.7014 71.6473 8.68776 71.6473 10.3787V18.805H75.3391V10.8859C75.3391 8.82867 76.3122 7.7014 78.0007 7.7014C79.5175 7.7014 80.4046 8.68776 80.4046 10.3787V18.805H84.0965V10.125C84.0965 6.60231 81.9787 4.31958 78.6875 4.31958Z" fill="black"/>
<path d="M97.8209 6.37685C96.7048 4.99594 95.1594 4.31958 93.1561 4.31958C91.2386 4.31958 89.6074 5.05231 88.2337 6.48958C86.8886 7.92685 86.2017 9.67413 86.2017 11.7596C86.2017 13.845 86.8886 15.6205 88.2337 17.0578C89.6074 18.495 91.2386 19.1996 93.1561 19.1996C95.1594 19.1996 96.7048 18.5232 97.8209 17.1423V18.805H101.513V4.71413H97.8209V6.37685ZM91.0097 14.6341C90.2656 13.8732 89.8935 12.915 89.8935 11.7596C89.8935 10.6041 90.2656 9.64594 91.0097 8.91322C91.7538 8.15231 92.6982 7.78594 93.8429 7.78594C94.9877 7.78594 95.9321 8.15231 96.6762 8.91322C97.4489 9.64594 97.8209 10.6041 97.8209 11.7596C97.8209 12.915 97.4489 13.8732 96.6762 14.6341C95.9321 15.3669 94.9877 15.7332 93.8429 15.7332C92.6982 15.7332 91.7538 15.3669 91.0097 14.6341Z" fill="black"/>
<path d="M115.135 7.13776V4.71413H104.403V8.12413H110.155L104.116 16.3814V18.805H115.421V15.395H109.067L115.135 7.13776Z" fill="black"/>
<path d="M130.857 13.2532C130.943 12.7178 131 12.2387 131 11.7596C131 9.64594 130.314 7.89867 128.94 6.4614C127.595 5.02412 125.849 4.31958 123.76 4.31958C121.556 4.31958 119.725 5.02412 118.322 6.4614C116.92 7.87049 116.204 9.64594 116.204 11.7596C116.204 13.9014 116.92 15.6769 118.351 17.0859C119.782 18.495 121.671 19.1996 124.046 19.1996C126.793 19.1996 128.883 18.185 130.285 16.1841L127.309 14.4932C126.593 15.4232 125.506 15.9023 124.103 15.9023C121.9 15.9023 120.555 15.0287 120.068 13.2532H130.857ZM120.011 10.435C120.44 8.6314 121.785 7.58867 123.76 7.58867C125.448 7.58867 126.879 8.51867 127.309 10.435H120.011Z" fill="black"/>
</svg>
