<svg width="218" height="42" viewBox="0 0 218 42" fill="none" xmlns="http://www.w3.org/2000/svg">
<path fill-rule="evenodd" clip-rule="evenodd" d="M39.2472 11.1763L23.5484 35.3441C22.478 36.9814 20.2659 37.4797 18.6246 36.4119C17.9111 35.9492 17.3759 35.2373 17.1618 34.4542C15.7703 29.7915 14.6286 26.8729 13.7723 25.8051C12.9517 24.7373 10.4541 22.922 6.351 20.3949C4.6384 19.2915 4.13889 17.1203 5.17359 15.4475C5.63742 14.7 6.38668 14.1305 7.2073 13.8814L35.2512 5.83729C37.1422 5.30339 39.1402 6.37119 39.6754 8.25763C39.9608 9.25424 39.7824 10.322 39.2472 11.1763Z" fill="url(#paint0_linear_1701_7595)"/>
<g opacity="0.35">
<path d="M35.2509 5.83737C37.1419 5.26788 39.1399 6.37127 39.6751 8.25771C39.9605 9.25432 39.7821 10.3221 39.247 11.1764L38.1766 12.8136C36.6067 10.2509 35.0368 8.11534 35.0368 8.11534C34.6087 7.47466 34.1091 6.86958 33.6096 6.30009L35.2509 5.83737Z" fill="url(#paint1_linear_1701_7595)"/>
<path d="M32.8959 9.7526C32.218 8.75599 31.4331 7.90175 30.5768 7.18989L27.2229 8.1509C28.5787 8.82718 29.8632 10.4289 30.7908 11.639C31.7899 12.9916 33.3241 16.0882 33.8236 17.9746C33.9306 18.3662 34.0376 18.7577 34.109 19.1136L36.3925 15.5899C34.7869 12.3153 32.8959 9.7526 32.8959 9.7526Z" fill="url(#paint2_linear_1701_7595)"/>
<path d="M19.231 10.7492C22.2637 8.72041 26.5095 9.64584 28.5432 12.6713C30.4342 15.5187 31.683 18.6509 32.2895 21.9255L29.9704 25.5204C29.899 21.6052 28.7216 17.6899 26.3668 14.2018C25.118 12.3865 22.5848 11.7814 20.7295 12.9916C18.8742 14.2018 18.5174 16.8001 19.7305 18.6153C21.7285 21.534 22.4421 25.0577 21.7642 28.5458C21.229 31.3221 19.8375 33.778 17.8038 35.6645C17.4827 35.3085 17.2686 34.8814 17.1259 34.4187C16.9832 33.9204 16.8405 33.4577 16.6977 32.995C19.8018 29.4713 20.2657 24.1679 17.5184 20.0746C15.4846 17.0492 16.1982 12.778 19.231 10.7492Z" fill="url(#paint3_linear_1701_7595)"/>
<path d="M24.1547 15.4831C26.902 19.6119 27.901 24.5238 26.9734 29.3645C26.9496 29.4831 26.9218 29.6057 26.8941 29.7283C26.8386 29.9735 26.7831 30.2187 26.7593 30.4323L23.5838 35.3086C22.7989 36.5187 21.4431 37.0882 20.123 36.9102C25.3321 31.678 26.2598 23.3136 21.9783 16.9425C21.5858 16.3374 21.7285 15.5543 22.3351 15.1272C22.9416 14.7001 23.7622 14.878 24.1547 15.4831Z" fill="url(#paint4_linear_1701_7595)"/>
<path d="M12.2735 21.5695C10.989 18.6509 10.8463 15.4475 11.774 12.5645L15.0565 11.639C13.2725 14.5933 13.2368 18.4729 15.3062 21.534C17.0188 24.0967 16.9475 27.1221 15.5203 29.5424C15.1278 28.439 14.7353 27.5492 14.4142 26.8729C13.7006 25.0221 13.0227 23.278 12.2735 21.5695Z" fill="url(#paint5_linear_1701_7595)"/>
<path d="M8.63406 13.4899L7.20689 13.8814C6.35059 14.1305 5.637 14.6644 5.17317 15.4475C4.13848 17.1204 4.63799 19.2916 6.31491 20.3238C7.30336 20.9367 8.1918 21.5098 8.9952 22.028L8.99592 22.0285C9.26524 22.2022 9.52501 22.3697 9.77579 22.5305C8.3843 19.6831 8.02751 16.4797 8.63406 13.4899Z" fill="url(#paint6_linear_1701_7595)"/>
</g>
<path d="M52.3539 30.9649C52.177 30.9649 52.0296 30.9061 51.9117 30.7885C51.7938 30.6708 51.7349 30.5238 51.7349 30.3474V14.7329C51.7349 14.5565 51.7938 14.4094 51.9117 14.2918C52.0296 14.1742 52.177 14.1154 52.3539 14.1154H54.6531C54.8299 14.1154 54.9773 14.1742 55.0952 14.2918C55.2131 14.4094 55.2721 14.5565 55.2721 14.7329V16.262C55.842 15.419 56.5101 14.7917 57.2765 14.38C58.0626 13.9487 58.8879 13.7331 59.7526 13.7331C60.8334 13.7331 61.7865 13.9879 62.6118 14.4976C63.4568 15.0073 64.125 15.7327 64.6162 16.6737C65.1665 15.7523 65.9034 15.0368 66.827 14.5271C67.7506 13.9977 68.743 13.7331 69.8042 13.7331C71.5138 13.7331 72.8698 14.3016 73.872 15.4386C74.8742 16.5561 75.3753 18.0459 75.3753 19.9083V30.3474C75.3753 30.5238 75.3163 30.6708 75.1984 30.7885C75.0805 30.9061 74.9331 30.9649 74.7563 30.9649H72.4571C72.2802 30.9649 72.1328 30.9061 72.0149 30.7885C71.897 30.6708 71.8381 30.5238 71.8381 30.3474V20.3494C71.8381 19.3104 71.6023 18.5164 71.1306 17.9675C70.659 17.399 69.981 17.1148 69.0967 17.1148C67.9373 17.1148 67.0137 17.497 66.3259 18.2616C65.6578 19.0065 65.3237 20.0357 65.3237 21.3492V30.3474C65.3237 30.5238 65.2647 30.6708 65.1468 30.7885C65.0289 30.9061 64.8815 30.9649 64.7047 30.9649H62.4055C62.2286 30.9649 62.0812 30.9061 61.9633 30.7885C61.8454 30.6708 61.7865 30.5238 61.7865 30.3474V20.3494C61.7865 19.3104 61.5507 18.5164 61.079 17.9675C60.6074 17.399 59.9294 17.1148 59.0451 17.1148C57.8857 17.1148 56.9621 17.497 56.2743 18.2616C55.6062 19.0065 55.2721 20.0357 55.2721 21.3492V30.3474C55.2721 30.5238 55.2131 30.6708 55.0952 30.7885C54.9773 30.9061 54.8299 30.9649 54.6531 30.9649H52.3539Z" fill="#D7D8E6"/>
<path d="M85.0474 30.9649C83.7701 30.9649 82.591 30.6512 81.5102 30.0239C80.449 29.3966 79.604 28.5438 78.9752 27.4656C78.3463 26.3874 78.0319 25.2112 78.0319 23.9369V20.7611C78.0319 19.4868 78.3463 18.3106 78.9752 17.2324C79.604 16.1542 80.449 15.3014 81.5102 14.6741C82.591 14.0468 83.7701 13.7331 85.0474 13.7331C86.3247 13.7331 87.494 14.0468 88.5551 14.6741C89.6359 15.3014 90.4908 16.1542 91.1196 17.2324C91.7485 18.3106 92.0629 19.4868 92.0629 20.7611V22.7313C92.0629 23.0841 91.9351 23.388 91.6797 23.6428C91.4439 23.8781 91.1491 23.9957 90.7954 23.9957H81.5691V24.1427C81.5691 25.1033 81.9032 25.9267 82.5713 26.6128C83.2591 27.2794 84.0845 27.6126 85.0474 27.6126H89.7342C89.9111 27.6126 90.0584 27.6714 90.1764 27.7891C90.2943 27.9067 90.3532 28.0537 90.3532 28.2302V30.3474C90.3532 30.5238 90.2943 30.6708 90.1764 30.7885C90.0584 30.9061 89.9111 30.9649 89.7342 30.9649H85.0474ZM88.5257 20.8199V20.5552C88.5257 19.5947 88.1818 18.7811 87.494 18.1146C86.8258 17.4284 86.0103 17.0854 85.0474 17.0854C84.0845 17.0854 83.2591 17.4284 82.5713 18.1146C81.9032 18.7811 81.5691 19.5947 81.5691 20.5552V20.8199H88.5257Z" fill="#D7D8E6"/>
<path d="M101.115 30.9649C99.5818 30.9649 98.3339 30.4944 97.371 29.5534C96.4277 28.6124 95.9561 27.3774 95.9561 25.8483V17.4088H93.9222C93.7454 17.4088 93.598 17.35 93.4801 17.2324C93.3622 17.1148 93.3032 16.9677 93.3032 16.7913V14.7329C93.3032 14.5565 93.3622 14.4094 93.4801 14.2918C93.598 14.1742 93.7454 14.1154 93.9222 14.1154H95.9561V10.9395C95.9561 10.7631 96.0151 10.6161 96.133 10.4985C96.2509 10.3808 96.3983 10.322 96.5751 10.322H98.8743C99.0512 10.322 99.1986 10.3808 99.3165 10.4985C99.4344 10.6161 99.4933 10.7631 99.4933 10.9395V14.1154H104.475C104.652 14.1154 104.799 14.1742 104.917 14.2918C105.035 14.4094 105.094 14.5565 105.094 14.7329V16.8207C105.094 16.9971 105.035 17.1442 104.917 17.2618C104.799 17.3794 104.652 17.4382 104.475 17.4382H99.4933V25.7013C99.4933 26.2894 99.6604 26.7599 99.9944 27.1127C100.348 27.4656 100.81 27.642 101.38 27.642L103.761 27.6714C103.938 27.6714 104.086 27.7303 104.203 27.8479C104.321 27.9655 104.38 28.1125 104.38 28.289V30.3474C104.38 30.5238 104.321 30.6708 104.203 30.7885C104.086 30.9061 103.938 30.9649 103.761 30.9649H101.115Z" fill="#D7D8E6"/>
<path d="M112.005 31.3472C110.355 31.3472 109.009 30.8865 107.967 29.9651C106.945 29.0241 106.434 27.8087 106.434 26.3188C106.434 24.9661 106.906 23.8487 107.849 22.9665C108.792 22.0647 110.119 21.4766 111.828 21.2022C112.261 21.163 112.673 21.1041 113.067 21.0257C114.442 20.8689 115.277 20.7513 115.572 20.6729C116.299 20.5552 116.663 20.1436 116.663 19.4378C116.663 18.7125 116.358 18.1342 115.749 17.7029C115.159 17.252 114.413 17.0265 113.509 17.0265C111.917 17.0265 110.757 17.6049 110.03 18.7615C109.873 19.0163 109.686 19.1438 109.47 19.1438C109.313 19.1438 109.185 19.1046 109.087 19.0261L107.436 17.9087C107.26 17.7911 107.171 17.6245 107.171 17.4088C107.171 17.35 107.191 17.2618 107.23 17.1442C107.8 16.066 108.645 15.2328 109.765 14.6447C110.885 14.037 112.153 13.7331 113.568 13.7331C114.865 13.7331 116.004 13.9781 116.987 14.4682C117.969 14.9583 118.726 15.6543 119.257 16.5561C119.807 17.4578 120.082 18.4968 120.082 19.6731V30.3474C120.082 30.5238 120.023 30.6708 119.905 30.7885C119.787 30.9061 119.64 30.9649 119.463 30.9649H117.459C117.282 30.9649 117.134 30.9159 117.016 30.8179C116.898 30.7002 116.84 30.5434 116.84 30.3474V29.2005C115.484 30.6316 113.872 31.3472 112.005 31.3472ZM112.271 28.2007C113.037 28.2007 113.764 28.0047 114.452 27.6126C115.14 27.2206 115.69 26.7109 116.103 26.0835C116.535 25.4366 116.751 24.7603 116.751 24.0545V23.4664L114.54 23.7899C113.342 23.9271 112.565 24.0349 112.212 24.1133C110.6 24.4074 109.795 25.1033 109.795 26.2012C109.795 26.8089 110.021 27.299 110.473 27.6714C110.925 28.0243 111.524 28.2007 112.271 28.2007Z" fill="#D7D8E6"/>
<path d="M123.811 30.9649C123.635 30.9649 123.487 30.9061 123.369 30.7885C123.251 30.6708 123.192 30.5238 123.192 30.3474V28.1713C123.192 27.9949 123.251 27.8479 123.369 27.7303C123.487 27.6126 123.635 27.5538 123.811 27.5538H125.338V17.4382H122.803C122.626 17.4382 122.479 17.3794 122.361 17.2618C122.243 17.1442 122.184 16.9971 122.184 16.8207V14.7329C122.184 14.5565 122.243 14.4094 122.361 14.2918C122.479 14.1742 122.626 14.1154 122.803 14.1154H127.372C127.726 14.1154 128.02 14.2428 128.256 14.4976C128.512 14.7329 128.639 15.0269 128.639 15.3798V16.4384L130.231 15.174C130.821 14.7035 131.332 14.38 131.764 14.2036C132.196 14.0075 132.707 13.9095 133.297 13.9095H134.211C134.387 13.9095 134.535 13.9683 134.653 14.086C134.771 14.2036 134.83 14.3506 134.83 14.5271V16.7913C134.83 16.9677 134.771 17.1148 134.653 17.2324C134.535 17.35 134.387 17.4088 134.211 17.4088H133.444C132.933 17.4088 132.491 17.497 132.118 17.6735C131.744 17.8499 131.174 18.242 130.408 18.8497L128.787 20.1436V27.5538H131.705C131.882 27.5538 132.029 27.6126 132.147 27.7303C132.265 27.8479 132.324 27.9949 132.324 28.1713V30.3474C132.324 30.5238 132.265 30.6708 132.147 30.7885C132.029 30.9061 131.882 30.9649 131.705 30.9649H123.811Z" fill="#D7D8E6"/>
<path d="M142.854 31.3472C141.577 31.3472 140.398 31.0433 139.317 30.4356C138.256 29.8083 137.411 28.9653 136.782 27.9067C136.153 26.8481 135.839 25.7013 135.839 24.4662V20.6141C135.839 19.379 136.153 18.2322 136.782 17.1736C137.411 16.115 138.256 15.2818 139.317 14.6741C140.398 14.0468 141.577 13.7331 142.854 13.7331C144.132 13.7331 145.301 14.0468 146.362 14.6741C147.443 15.2818 148.298 16.115 148.926 17.1736C149.555 18.2322 149.87 19.379 149.87 20.6141V24.4662C149.87 25.7013 149.555 26.8481 148.926 27.9067C148.298 28.9653 147.443 29.8083 146.362 30.4356C145.301 31.0433 144.132 31.3472 142.854 31.3472ZM142.854 27.9361C143.817 27.9361 144.633 27.6028 145.301 26.9363C145.989 26.2502 146.332 25.4268 146.332 24.4662V20.6141C146.332 19.6535 145.989 18.8399 145.301 18.1734C144.633 17.4872 143.817 17.1442 142.854 17.1442C141.891 17.1442 141.066 17.4872 140.378 18.1734C139.71 18.8399 139.376 19.6535 139.376 20.6141V24.4662C139.376 25.4268 139.71 26.2502 140.378 26.9363C141.066 27.6028 141.891 27.9361 142.854 27.9361Z" fill="#D7D8E6"/>
<path d="M158.466 31.3472C157.346 31.3472 156.334 31.0825 155.43 30.5532C154.546 30.0239 153.848 29.2888 153.337 28.3478C152.826 27.4068 152.571 26.3482 152.571 25.1719V14.7329C152.571 14.5565 152.63 14.4094 152.748 14.2918C152.866 14.1742 153.013 14.1154 153.19 14.1154H155.489C155.666 14.1154 155.813 14.1742 155.931 14.2918C156.049 14.4094 156.108 14.5565 156.108 14.7329V24.7309C156.108 25.7699 156.373 26.5736 156.904 27.1421C157.434 27.691 158.181 27.9655 159.144 27.9655C160.304 27.9655 161.217 27.593 161.885 26.8481C162.573 26.0835 162.917 25.0445 162.917 23.7311V14.7329C162.917 14.5565 162.976 14.4094 163.094 14.2918C163.212 14.1742 163.359 14.1154 163.536 14.1154H165.835C166.012 14.1154 166.16 14.1742 166.278 14.2918C166.395 14.4094 166.454 14.5565 166.454 14.7329V30.3474C166.454 30.5238 166.395 30.6708 166.278 30.7885C166.16 30.9061 166.012 30.9649 165.835 30.9649H163.536C163.359 30.9649 163.212 30.9061 163.094 30.7885C162.976 30.6708 162.917 30.5238 162.917 30.3474V28.9653C162.367 29.7102 161.709 30.2984 160.942 30.7296C160.195 31.1413 159.37 31.3472 158.466 31.3472Z" fill="#D7D8E6"/>
<path d="M176.511 30.9649C174.978 30.9649 173.73 30.4944 172.767 29.5534C171.824 28.6124 171.352 27.3774 171.352 25.8483V17.4088H169.318C169.142 17.4088 168.994 17.35 168.876 17.2324C168.758 17.1148 168.699 16.9677 168.699 16.7913V14.7329C168.699 14.5565 168.758 14.4094 168.876 14.2918C168.994 14.1742 169.142 14.1154 169.318 14.1154H171.352V10.9395C171.352 10.7631 171.411 10.6161 171.529 10.4985C171.647 10.3808 171.794 10.322 171.971 10.322H174.271C174.447 10.322 174.595 10.3808 174.713 10.4985C174.831 10.6161 174.89 10.7631 174.89 10.9395V14.1154H179.871C180.048 14.1154 180.195 14.1742 180.313 14.2918C180.431 14.4094 180.49 14.5565 180.49 14.7329V16.8207C180.49 16.9971 180.431 17.1442 180.313 17.2618C180.195 17.3794 180.048 17.4382 179.871 17.4382H174.89V25.7013C174.89 26.2894 175.057 26.7599 175.391 27.1127C175.744 27.4656 176.206 27.642 176.776 27.642L179.871 27.6714C180.048 27.6714 180.195 27.7303 180.313 27.8479C180.431 27.9655 180.49 28.1125 180.49 28.289V30.3474C180.49 30.5238 180.431 30.6708 180.313 30.7885C180.195 30.9061 180.048 30.9649 179.871 30.9649H176.511Z" fill="#D7D8E6"/>
<path d="M189.059 30.9649C187.782 30.9649 186.603 30.6512 185.522 30.0239C184.461 29.3966 183.616 28.5438 182.987 27.4656C182.358 26.3874 182.044 25.2112 182.044 23.9369V20.7611C182.044 19.4868 182.358 18.3106 182.987 17.2324C183.616 16.1542 184.461 15.3014 185.522 14.6741C186.603 14.0468 187.782 13.7331 189.059 13.7331C190.337 13.7331 191.506 14.0468 192.567 14.6741C193.648 15.3014 194.503 16.1542 195.131 17.2324C195.76 18.3106 196.075 19.4868 196.075 20.7611V22.7313C196.075 23.0841 195.947 23.388 195.691 23.6428C195.456 23.8781 195.161 23.9957 194.807 23.9957H185.581V24.1427C185.581 25.1033 185.915 25.9267 186.583 26.6128C187.271 27.2794 188.096 27.6126 189.059 27.6126H193.746C193.923 27.6126 194.07 27.6714 194.188 27.7891C194.306 27.9067 194.365 28.0537 194.365 28.2302V30.3474C194.365 30.5238 194.306 30.6708 194.188 30.7885C194.07 30.9061 193.923 30.9649 193.746 30.9649H189.059ZM192.537 20.8199V20.5552C192.537 19.5947 192.194 18.7811 191.506 18.1146C190.838 17.4284 190.022 17.0854 189.059 17.0854C188.096 17.0854 187.271 17.4284 186.583 18.1146C185.915 18.7811 185.581 19.5947 185.581 20.5552V20.8199H192.537Z" fill="#D7D8E6"/>
<path d="M198.494 30.9649C198.317 30.9649 198.17 30.9061 198.052 30.7885C197.934 30.6708 197.875 30.5238 197.875 30.3474V28.1713C197.875 27.9949 197.934 27.8479 198.052 27.7303C198.17 27.6126 198.317 27.5538 198.494 27.5538H200.734V17.4382H198.199C198.022 17.4382 197.875 17.3794 197.757 17.2618C197.639 17.1442 197.58 16.9971 197.58 16.8207V14.7329C197.58 14.5565 197.639 14.4094 197.757 14.2918C197.875 14.1742 198.022 14.1154 198.199 14.1154H202.768C203.122 14.1154 203.417 14.2428 203.653 14.4976C203.908 14.7329 204.036 15.0269 204.036 15.3798V16.4384L205.627 15.174C206.217 14.7035 206.728 14.38 207.16 14.2036C207.593 14.0075 208.104 13.9095 208.693 13.9095H209.607C209.784 13.9095 209.931 13.9683 210.049 14.086C210.167 14.2036 210.226 14.3506 210.226 14.5271V16.7913C210.226 16.9677 210.167 17.1148 210.049 17.2324C209.931 17.35 209.784 17.4088 209.607 17.4088H208.84C208.33 17.4088 207.887 17.497 207.514 17.6735C207.141 17.8499 206.571 18.242 205.804 18.8497L204.183 20.1436V27.5538H207.101C207.278 27.5538 207.426 27.6126 207.543 27.7303C207.661 27.8479 207.72 27.9949 207.72 28.1713V30.3474C207.72 30.5238 207.661 30.6708 207.543 30.7885C207.426 30.9061 207.278 30.9649 207.101 30.9649H198.494Z" fill="#D7D8E6"/>
<defs>
<linearGradient id="paint0_linear_1701_7595" x1="30.3273" y1="42.178" x2="38.3186" y2="9.06745" gradientUnits="userSpaceOnUse">
<stop stop-color="#292D66"/>
<stop offset="1" stop-color="#6572D8"/>
</linearGradient>
<linearGradient id="paint1_linear_1701_7595" x1="36.8473" y1="20.042" x2="24.0009" y2="0.865664" gradientUnits="userSpaceOnUse">
<stop stop-color="#151833"/>
<stop offset="1" stop-color="#191E46"/>
</linearGradient>
<linearGradient id="paint2_linear_1701_7595" x1="36.8473" y1="20.042" x2="24.0009" y2="0.865664" gradientUnits="userSpaceOnUse">
<stop stop-color="#151833"/>
<stop offset="1" stop-color="#191E46"/>
</linearGradient>
<linearGradient id="paint3_linear_1701_7595" x1="36.8473" y1="20.042" x2="24.0009" y2="0.865664" gradientUnits="userSpaceOnUse">
<stop stop-color="#151833"/>
<stop offset="1" stop-color="#191E46"/>
</linearGradient>
<linearGradient id="paint4_linear_1701_7595" x1="36.8473" y1="20.042" x2="24.0009" y2="0.865664" gradientUnits="userSpaceOnUse">
<stop stop-color="#151833"/>
<stop offset="1" stop-color="#191E46"/>
</linearGradient>
<linearGradient id="paint5_linear_1701_7595" x1="36.8473" y1="20.042" x2="24.0009" y2="0.865664" gradientUnits="userSpaceOnUse">
<stop stop-color="#151833"/>
<stop offset="1" stop-color="#191E46"/>
</linearGradient>
<linearGradient id="paint6_linear_1701_7595" x1="36.8473" y1="20.042" x2="24.0009" y2="0.865664" gradientUnits="userSpaceOnUse">
<stop stop-color="#151833"/>
<stop offset="1" stop-color="#191E46"/>
</linearGradient>
</defs>
</svg>
