<svg xmlns="http://www.w3.org/2000/svg" width="160" height="25" fill="none" viewBox="27.5 -4 20 22">
    <g fill="#00237c" clip-path="url(#prefix__clip0)">
        <path d="M19.987.042c-2.26 0-4.084.767-5.432 2.86-.87-1.865-2.758-2.86-5.1-2.86-1.887 0-4.085.912-5.018 2.591V.83c0-.165-.145-.31-.311-.31H.311C.145.518 0 .663 0 .828v16.546c0 .166.145.31.311.31h4.022c.166 0 .311-.144.311-.31V7.63c0-1.887 1.182-3.38 3.214-3.38 2.094 0 3.027 1.39 3.027 3.235v9.869c0 .166.145.31.311.31h3.98c.167 0 .312-.144.312-.31V7.609c0-1.845 1.182-3.38 3.172-3.38 2.136 0 3.027 1.39 3.027 3.235v9.87c0 .165.145.31.311.31h3.877c.166 0 .311-.145.311-.31V6.551c.021-4.603-3.027-6.51-6.199-6.51zM37.735 14.493c-2.26 0-4.417.912-5.184 2.177 1.452.995 3.214 1.534 5.184 1.534 1.949 0 3.732-.56 5.183-1.534-.767-1.265-3.006-2.177-5.183-2.177zM57.328 0c-4.395 0-8.438 3.566-8.438 9.04 0 5.784 4.146 9.164 8.853 9.164 3.96 0 6.614-2.198 7.63-4.914.062-.166-.021-.352-.208-.414l-3.358-.892c-.146-.041-.29.02-.353.166-.622 1.244-1.783 2.094-3.69 2.094-2.302 0-4.23-1.638-4.334-3.898h11.984c.166 0 .29-.124.311-.29.02-.27.042-.726.042-1.14C65.808 3.38 62.636 0 57.328 0zm-3.773 7.153c.103-1.576 1.43-3.38 3.835-3.38 2.281 0 3.774 1.68 3.836 3.38h-7.671z"/>
        <path d="M37.735 0c-5.121 0-8.999 3.794-8.999 9.102 0 2.301.747 4.354 2.011 5.909 1.037-.933 2.592-1.804 4.417-2.156-1.016-.788-1.7-2.094-1.7-3.919 0-3.172 2.031-4.603 4.25-4.603 2.218 0 4.25 1.452 4.25 4.603 0 1.825-.684 3.13-1.68 3.919 1.825.352 3.38 1.223 4.417 2.135 1.265-1.555 2.011-3.587 2.011-5.909C46.733 3.794 42.876 0 37.735 0zM151.52 0c-4.395 0-8.438 3.566-8.438 9.04 0 5.784 4.146 9.164 8.853 9.164 3.981 0 6.614-2.198 7.63-4.914.062-.166-.042-.352-.208-.414l-3.359-.892c-.145-.041-.29.02-.352.166-.622 1.244-1.783 2.094-3.691 2.094-2.301 0-4.229-1.638-4.333-3.898h12.026c.165 0 .29-.124.311-.29.02-.27.041-.726.041-1.14C160 3.38 156.828 0 151.52 0zm-3.753 7.153c.104-1.576 1.431-3.38 3.836-3.38 2.281 0 3.773 1.68 3.836 3.38h-7.672zM140.427.518h-3.856c-.166 0-.311.145-.311.311V2.55c-.581-1.16-2.136-2.343-4.872-2.343-4.707 0-7.983 3.836-7.983 8.377 0 4.81 3.421 8.334 7.983 8.334 2.467 0 4.084-1.078 4.789-2.197v1.264c0 3.318-1.638 4.77-4.561 4.77-2.074 0-3.525-1.224-3.94-2.945-.041-.166-.207-.27-.373-.228l-3.607.954c-.166.041-.249.207-.229.352.622 3.152 3.712 5.93 8.294 5.93 6.448 0 8.998-4.292 8.998-8.998V.83c-.021-.167-.145-.312-.332-.312zm-8.231 12.42c-2.405 0-4.126-1.68-4.126-4.354 0-2.654 1.804-4.334 4.126-4.334 2.239 0 4.043 1.68 4.043 4.334s-1.679 4.354-4.043 4.354zM77.398.062c-1.846 0-3.898.809-4.956 2.592V.829c0-.165-.145-.31-.31-.31h-3.878c-.166 0-.31.145-.31.31v16.546c0 .166.144.31.31.31h4.023c.165 0 .31-.144.31-.31V7.817c0-1.99 1.182-3.567 3.214-3.567 2.24 0 3.172 1.493 3.172 3.421v9.704c0 .166.146.31.311.31h4.023c.166 0 .31-.144.31-.31V6.863c0-3.753-1.948-6.8-6.22-6.8zM113.578 0c-4.52 0-6.987 2.861-7.34 5.515-.021.083.042.145.125.166l3.815.809c.083.02.165-.042.186-.125.207-1.43 1.306-2.633 3.255-2.633 1.949 0 2.903 1.016 2.903 2.24 0 .6-.311 1.077-1.285 1.223l-4.23.622c-2.861.414-5.121 2.135-5.121 5.204 0 2.695 2.239 5.162 5.888 5.162 2.53 0 4.147-1.16 5.038-2.508v1.7c0 .166.145.31.311.31h3.629c.165 0 .311-.144.311-.31V6.53C121.042 3.069 119.031 0 113.578 0zm2.944 10.74c0 3.027-1.804 3.98-3.773 3.98-1.493 0-2.24-.974-2.24-1.99 0-1.327.933-1.99 2.136-2.156l3.877-.601v.767zM103.108.518h-3.857c-.166 0-.31.145-.31.311V2.55C98.36 1.39 96.783.207 94.067.207c-4.707 0-7.983 3.836-7.983 8.377 0 4.81 3.422 8.334 7.983 8.334 2.467 0 4.084-1.078 4.79-2.197v1.264c0 3.318-1.639 4.77-4.562 4.77-2.073 0-3.525-1.224-3.94-2.945-.04-.166-.207-.27-.373-.228l-3.607.954c-.166.041-.25.207-.228.352.622 3.152 3.71 5.93 8.293 5.93 6.448 0 8.998-4.292 8.998-8.998V.83c-.02-.167-.165-.312-.331-.312zm-8.232 12.42c-2.405 0-4.126-1.68-4.126-4.354 0-2.654 1.804-4.334 4.126-4.334 2.24 0 4.043 1.68 4.043 4.334s-1.679 4.354-4.043 4.354z"/>
    </g>
    <defs>
        <clipPath id="prefix__clip0">
            <path fill="#fff" d="M0 0h160v24.839H0V0z"/>
        </clipPath>
    </defs>
</svg>