<svg version="1.1" id="Layer_1" xmlns="http://www.w3.org/2000/svg" xmlns:xlink="http://www.w3.org/1999/xlink" x="0px" y="0px"
	 width="100%" viewBox="0 0 200 200" enable-background="new 0 0 200 200" xml:space="preserve">
<path fill="#FCFEFF" opacity="1.000000" stroke="none" 
	d="
M120.000000,201.000000 
	C81.190636,201.000000 42.881195,200.968369 4.572079,201.065872 
	C1.797696,201.072952 0.894980,200.766983 0.901492,197.576096 
	C1.033043,133.116684 1.025398,68.656906 0.916463,4.197427 
	C0.911597,1.318277 1.633832,0.926727 4.298746,0.930416 
	C68.758286,1.019645 133.218018,1.018304 197.677567,0.933995 
	C200.293381,0.930574 201.091583,1.243683 201.086456,4.173738 
	C200.973328,68.799774 200.979980,133.426071 201.072159,198.052170 
	C201.075897,200.674973 200.327438,201.063263 197.951294,201.055145 
	C172.134430,200.966934 146.317154,201.000000 120.000000,201.000000 
z"/>
<path fill="#0981F7" opacity="1.000000" stroke="none" 
	d="
M118.867935,36.713360 
	C119.266754,36.863571 119.660072,36.879955 119.825165,36.987141 
	C120.852638,37.604111 121.674332,38.181561 122.835220,38.776619 
	C123.104851,38.909878 123.030289,38.977558 123.042984,38.928837 
	C123.244377,39.211090 123.479370,39.504280 124.039581,39.670883 
	C124.310883,39.588276 124.329620,39.811653 124.348877,39.701241 
	C124.714432,41.269958 126.462273,40.833439 127.653763,41.827652 
	C127.898087,42.049744 127.967659,42.012634 127.962601,42.051735 
	C128.666870,43.105648 129.561630,43.920002 130.871323,44.732635 
	C131.120819,44.909733 131.021286,44.979538 131.054611,44.928703 
	C131.508850,45.538860 132.083496,46.057663 132.906586,46.726925 
	C133.154602,46.877789 133.025696,46.971733 133.075546,46.909477 
	C133.831360,47.763657 134.231720,48.870667 135.234116,49.577934 
	C135.515472,49.378170 135.562927,49.497074 135.619751,49.526527 
	C138.912277,54.683529 142.143463,59.813610 144.765381,65.691742 
	C144.968918,65.983963 145.008408,65.983490 145.010208,66.003143 
	C147.603821,67.597496 150.740768,67.383400 153.791107,68.728897 
	C154.138184,68.865379 154.054398,68.932556 154.063370,68.879623 
	C156.401321,70.737625 159.847931,70.830383 162.052414,73.529663 
	C162.404007,73.543495 162.388428,73.659355 162.435333,73.624489 
	C162.260193,74.045219 162.335892,74.429153 163.078217,74.607559 
	C163.399719,74.485077 163.295471,74.782631 163.375305,74.646698 
	C163.157822,75.503311 163.976425,75.431007 164.808853,75.770927 
	C165.100479,75.918076 165.023926,75.988419 165.042847,75.940002 
	C165.221619,76.189453 165.426529,76.452156 165.893372,76.807671 
	C166.110229,76.935646 166.029526,76.973152 166.044434,76.931229 
	C166.220657,77.187874 166.426651,77.451530 166.896454,77.806549 
	C167.115509,77.932892 167.029327,77.971031 167.049561,77.928467 
	C167.199326,78.200592 167.398071,78.462837 167.868744,78.817162 
	C168.071472,78.961685 168.003922,78.996025 168.026199,78.965385 
	C170.129974,82.263939 172.544022,85.396263 173.979935,89.105743 
	C174.953384,91.620522 174.100128,92.984421 171.434875,92.933929 
	C166.852310,92.847115 162.244278,93.510323 157.324921,92.281082 
	C156.960953,92.036613 156.999008,92.001221 156.980774,92.017807 
	C155.920227,90.392036 154.912369,88.722221 153.046143,87.372726 
	C152.747269,87.246826 152.850037,87.150002 152.835602,87.219109 
	C152.647018,86.545753 152.004120,86.508438 151.178070,86.195419 
	C143.985916,82.356705 136.973648,81.772812 129.446777,86.172523 
	C130.571243,68.096886 123.650024,55.431068 106.421661,50.262371 
	C94.303513,46.626789 83.411514,50.272247 75.252846,59.740486 
	C64.498528,72.221024 65.014664,85.794525 73.926605,99.878128 
	C67.434021,98.832832 61.728172,99.239120 56.306004,101.794762 
	C45.625114,106.829010 39.339848,118.602585 41.425053,129.700180 
	C43.805637,142.369812 53.765484,151.184402 66.921806,151.640503 
	C77.075439,151.992508 87.252510,151.614960 97.414604,151.805374 
	C101.028351,151.873093 101.439369,150.090027 101.420265,147.170898 
	C101.335190,134.173019 101.496613,121.172829 101.325470,108.176674 
	C101.279541,104.689514 102.479462,104.025444 105.830063,103.572159 
	C115.413803,102.275635 121.599182,105.297035 125.749321,114.507660 
	C129.327423,122.448700 134.705215,129.578812 139.733749,137.797028 
	C145.360397,128.306763 150.539993,119.440147 155.870941,110.665474 
	C157.305283,108.304565 157.963608,104.520340 160.759979,104.102112 
	C165.644699,103.371544 170.717651,103.757912 175.703827,103.919807 
	C177.600800,103.981392 177.185043,105.848732 177.193863,107.083023 
	C177.332123,126.409416 177.386505,145.736572 177.590744,165.062180 
	C177.623199,168.132965 176.550568,169.273376 173.523636,168.968811 
	C171.543945,168.769608 169.527222,168.965927 167.528244,168.926315 
	C159.419662,168.765686 160.311493,170.344559 160.235825,161.366318 
	C160.178238,154.534561 160.204315,147.702087 160.137497,140.399445 
	C159.388184,139.464615 159.443481,138.325638 158.153183,138.195267 
	C155.771820,140.314682 154.775024,143.029922 153.226929,145.795380 
	C153.065170,146.085602 153.012451,146.019989 153.053619,146.028687 
	C152.333878,146.764084 151.860092,147.685989 151.276871,148.889236 
	C151.194153,149.188751 151.095444,149.078903 151.164612,149.104767 
	C150.151398,149.640411 150.144287,150.869095 149.438049,151.992065 
	C149.352112,152.296295 149.010956,152.153763 149.187073,152.209717 
	C147.579025,153.193802 147.677246,155.304718 146.503922,156.999146 
	C146.276611,157.217773 146.139221,157.110413 146.206146,157.166412 
	C144.394669,158.341873 144.568069,161.535202 141.850128,161.868256 
	C138.475754,162.281738 135.305603,162.230865 133.203979,158.342133 
	C132.901184,158.062119 132.988800,158.009827 132.958130,158.050598 
	C132.271667,156.912247 131.593872,155.743118 130.930023,154.352753 
	C130.599289,154.287888 130.964539,154.142258 130.789642,154.232086 
	C129.602692,151.462753 127.384407,149.266541 125.951477,146.383804 
	C125.612930,146.314957 125.657051,146.051163 125.656479,146.184875 
	C125.786201,145.928833 125.677719,145.612061 125.124016,145.208649 
	C124.885567,145.058853 124.982063,145.025803 124.948532,145.064240 
	C124.087135,143.291061 123.377441,141.410767 122.046112,139.880554 
	C121.317261,139.042847 120.804047,137.598648 119.430519,137.990784 
	C117.934891,138.417755 118.519119,139.928925 118.511787,140.979996 
	C118.460724,148.292786 118.505920,155.606171 118.478127,162.919205 
	C118.457764,168.276993 118.263313,168.472305 112.810493,168.478806 
	C97.851822,168.496643 82.893105,168.490753 67.934410,168.482483 
	C60.669701,168.478455 53.853992,166.579742 46.890594,163.393387 
	C46.463848,163.255463 46.190067,163.261124 46.100216,163.157806 
	C45.352718,162.197113 44.399002,161.789352 43.181618,161.219604 
	C42.910522,161.068909 42.988335,161.008072 42.964256,161.051193 
	C42.023533,159.866592 40.895744,158.910965 39.166664,158.208771 
	C38.592018,157.965424 38.344078,157.807480 38.050850,157.364944 
	C37.780758,156.858505 37.572052,156.580399 37.103508,156.196869 
	C36.875828,156.067612 36.976734,156.035004 36.942116,156.075165 
	C36.409775,154.931229 35.664543,153.965210 34.242374,153.189575 
	C33.991764,153.004364 34.000153,153.000000 33.998455,153.004379 
	C33.837841,152.841751 33.678921,152.674728 33.308662,152.234009 
	C33.097324,151.960297 33.017006,151.961426 33.039444,151.928131 
	C32.059433,150.954025 32.067184,149.494934 30.979118,148.337006 
	C30.669359,148.234894 30.909323,148.101151 30.804211,148.189575 
	C24.456173,137.699799 23.301998,126.332199 25.552330,114.474297 
	C26.044991,111.878265 27.614885,109.658745 28.619362,106.791031 
	C28.689398,106.374214 28.664244,106.167816 28.739109,106.095688 
	C29.821938,105.396332 29.391670,103.862000 30.616497,102.993851 
	C30.709414,102.674759 30.754515,102.801872 30.692150,102.776199 
	C31.465761,102.686501 31.480455,101.999367 31.729362,101.119034 
	C31.820223,100.817078 31.906973,100.930931 31.841782,100.901398 
	C32.910908,99.895668 34.017498,98.896301 34.772423,97.191338 
	C34.928783,96.910095 34.991158,96.992119 34.948040,96.963913 
	C35.534367,96.486099 36.060829,95.926445 36.756332,95.132484 
	C36.928139,94.901131 36.990276,94.987526 36.945839,94.958267 
	C37.533718,94.486290 38.060059,93.928612 38.768951,93.149506 
	C38.949093,92.925461 38.997993,92.995445 38.963699,92.970047 
	C39.443584,92.571632 40.110016,92.544617 40.634510,91.882408 
	C40.634777,91.570374 40.976574,91.880775 40.794418,91.738983 
	C41.396908,91.758209 41.463326,91.135368 41.900421,90.515320 
	C42.149574,90.385475 42.223164,90.174759 42.334702,90.178467 
	C42.841042,89.131729 43.942745,89.738190 44.689838,88.973045 
	C44.793976,88.676704 44.849564,88.840065 44.788643,88.778969 
	C49.954433,87.236237 51.362598,83.680367 51.101849,78.492798 
	C50.720879,70.913383 52.580959,63.716534 56.670361,56.770248 
	C56.747353,56.369614 56.710720,56.159477 56.789787,56.087902 
	C58.888985,53.572685 60.738594,51.003571 62.689476,48.085083 
	C62.881794,47.802704 62.907097,47.898640 62.858215,47.890186 
	C63.158752,47.771812 63.455963,47.582432 63.770699,47.042580 
	C63.848549,46.783932 63.883987,46.886055 63.833153,46.867695 
	C64.145653,46.769455 64.451080,46.593216 64.763824,46.042397 
	C64.838737,45.780289 64.885590,45.883446 64.831924,45.865292 
	C65.140007,45.773148 65.444237,45.601418 65.780899,45.064270 
	C65.880402,44.812840 65.912079,44.940670 65.866249,44.893387 
	C66.716141,44.243481 67.709122,43.806923 68.591766,42.891396 
	C68.573807,42.570137 68.645790,42.869774 68.634247,42.716125 
	C69.055107,42.748074 69.417915,42.667927 69.674728,41.959435 
	C69.649277,41.638588 69.659042,41.814785 69.663589,41.731323 
	C70.069908,41.783417 70.395012,41.670319 70.772797,41.079369 
	C70.891243,40.814892 70.941933,40.945518 70.891113,40.897301 
	C71.423256,40.602615 72.073563,40.544033 72.640335,39.893127 
	C72.655739,39.576851 72.855347,39.557636 72.759796,39.587959 
	C73.078102,39.765106 73.419662,39.655514 73.856613,39.069786 
	C74.013893,38.813148 74.161285,38.664562 74.264854,38.679497 
	C88.725685,30.887238 103.446396,30.600777 118.867935,36.713360 
z"/>
<path fill="#2E89E4" opacity="1.000000" stroke="none" 
	d="
M46.667618,163.554474 
	C49.968803,162.960190 52.683186,165.365143 55.919094,166.015625 
	C75.377228,169.927048 95.052589,167.202682 114.613487,167.953415 
	C117.627617,168.069107 118.021622,165.980835 118.009888,163.577728 
	C117.972527,155.918533 117.937508,148.258484 118.027847,140.600235 
	C118.045509,139.103012 117.105247,136.888550 119.324242,136.314224 
	C121.124107,135.848389 121.429482,138.114258 122.468971,139.077026 
	C123.964561,140.462234 124.913719,142.218857 124.945679,144.722046 
	C123.272415,142.854828 121.629829,140.606979 119.000839,137.009277 
	C119.000839,143.507996 119.147934,148.672882 118.958504,153.825409 
	C118.777534,158.747849 121.107872,165.107193 117.894585,168.188919 
	C114.943756,171.018906 108.686821,168.938278 103.891449,168.977982 
	C91.739525,169.078583 79.586006,168.969482 67.433525,169.026688 
	C60.117939,169.061127 53.275551,167.366150 46.667618,163.554474 
z"/>
<path fill="#2E89E4" opacity="1.000000" stroke="none" 
	d="
M119.042847,36.581619 
	C116.514725,36.389091 113.654953,36.243607 111.029144,35.383709 
	C99.069092,31.467047 87.680336,32.976871 76.612747,38.506371 
	C76.185814,38.719677 75.656853,38.728756 74.771927,38.763718 
	C84.030434,32.026936 94.814194,30.760359 106.099609,32.300976 
	C110.529221,32.905678 114.876167,34.024185 119.042847,36.581619 
z"/>
<path fill="#2E89E4" opacity="1.000000" stroke="none" 
	d="
M28.393612,106.594360 
	C29.397831,110.402748 26.256763,113.342369 25.782354,117.229576 
	C24.474333,127.947235 26.099991,137.930832 30.769716,147.897858 
	C21.808311,134.960220 21.648514,121.094673 28.393612,106.594360 
z"/>
<path fill="#2E89E4" opacity="1.000000" stroke="none" 
	d="
M56.443237,56.569672 
	C53.820538,64.542290 51.303059,72.745544 51.869019,81.649025 
	C52.128819,85.736107 49.895828,88.447540 45.117867,88.779724 
	C49.672127,86.470291 50.166687,82.412445 50.155647,77.482552 
	C50.139187,70.131577 52.216557,63.117916 56.443237,56.569672 
z"/>
<path fill="#2E89E4" opacity="1.000000" stroke="none" 
	d="
M157.056610,92.418610 
	C161.616791,92.033318 166.274506,91.948669 170.927750,92.057076 
	C173.744385,92.122696 174.110382,90.818657 173.027298,88.706818 
	C171.459152,85.649216 169.732727,82.672806 168.061142,79.298248 
	C171.756271,81.974869 173.443344,86.250946 175.093002,90.535080 
	C175.650131,91.981979 176.081299,93.790520 173.684906,93.652557 
	C168.175446,93.335358 162.570419,94.773994 157.056610,92.418610 
z"/>
<path fill="#2E89E4" opacity="1.000000" stroke="none" 
	d="
M132.942322,158.429596 
	C135.110535,157.863525 135.321396,160.590118 137.265854,160.959335 
	C140.947052,161.658325 143.623810,160.342026 146.031036,157.342804 
	C145.366653,160.166779 144.448441,162.854675 140.459030,162.826385 
	C137.067032,162.802353 134.149078,162.626740 132.942322,158.429596 
z"/>
<path fill="#2E89E4" opacity="1.000000" stroke="none" 
	d="
M144.890472,65.630859 
	C141.847260,64.984940 142.325394,61.782169 141.130753,59.617977 
	C139.349731,56.391521 136.341400,53.935436 135.496368,49.903801 
	C140.288742,53.886032 142.430496,59.651550 144.890472,65.630859 
z"/>
<path fill="#2E89E4" opacity="1.000000" stroke="none" 
	d="
M125.684875,146.656860 
	C128.762329,147.726059 129.884613,150.587112 130.714325,153.954056 
	C128.351730,152.307861 127.266129,149.512787 125.684875,146.656860 
z"/>
<path fill="#2E89E4" opacity="1.000000" stroke="none" 
	d="
M153.346268,145.908661 
	C153.535202,142.624771 155.057983,139.706879 157.933228,137.229492 
	C158.492447,137.568359 158.547241,138.008026 158.191864,138.706131 
	C156.505096,141.206802 155.066223,143.469269 153.346268,145.908661 
z"/>
<path fill="#2E89E4" opacity="1.000000" stroke="none" 
	d="
M62.568150,47.922958 
	C62.195618,51.198128 60.285450,53.765736 57.188774,55.881783 
	C57.798328,52.773830 60.150711,50.492477 62.568150,47.922958 
z"/>
<path fill="#2E89E4" opacity="1.000000" stroke="none" 
	d="
M153.906158,68.590904 
	C151.100372,68.339653 147.854614,68.705963 145.078857,66.395996 
	C148.027496,66.303497 150.915665,67.065041 153.906158,68.590904 
z"/>
<path fill="#2E89E4" opacity="1.000000" stroke="none" 
	d="
M162.242432,73.256729 
	C159.432449,72.759911 156.783066,71.346107 154.227982,69.135033 
	C157.255341,69.215225 159.690796,71.048706 162.242432,73.256729 
z"/>
<path fill="#2E89E4" opacity="1.000000" stroke="none" 
	d="
M152.855377,87.549408 
	C155.796890,86.895966 156.100677,89.389755 156.959961,91.672554 
	C155.629517,90.640259 154.296509,89.246124 152.855377,87.549408 
z"/>
<path fill="#2E89E4" opacity="1.000000" stroke="none" 
	d="
M146.681870,157.143539 
	C145.947357,155.125275 146.933762,153.574051 149.000549,152.304443 
	C149.106628,154.112671 147.899078,155.470963 146.681870,157.143539 
z"/>
<path fill="#2E89E4" opacity="1.000000" stroke="none" 
	d="
M39.012848,158.347565 
	C40.727749,157.953232 42.394249,158.157059 42.922134,160.727142 
	C41.267242,160.911728 40.358204,159.536285 39.012848,158.347565 
z"/>
<path fill="#2E89E4" opacity="1.000000" stroke="none" 
	d="
M34.627365,97.036469 
	C35.313152,98.948502 34.242374,100.054649 32.131622,100.796921 
	C32.163860,99.317627 33.269093,98.256866 34.627365,97.036469 
z"/>
<path fill="#2E89E4" opacity="1.000000" stroke="none" 
	d="
M127.766876,41.758774 
	C126.437355,42.036930 125.008789,41.958225 124.356079,39.952827 
	C125.457306,40.216484 126.546494,40.842144 127.766876,41.758774 
z"/>
<path fill="#2E89E4" opacity="1.000000" stroke="none" 
	d="
M131.038483,44.604301 
	C129.526718,45.012711 128.515305,44.277714 127.999771,42.429844 
	C129.229156,42.457352 130.158661,43.288471 131.038483,44.604301 
z"/>
<path fill="#A6ECFF" opacity="1.000000" stroke="none" 
	d="
M158.219711,139.050385 
	C158.003784,138.543106 158.063614,138.141891 158.199417,137.444794 
	C161.633789,135.326599 159.709076,138.457672 160.171417,139.597809 
	C159.553040,139.671432 159.024261,139.413925 158.219711,139.050385 
z"/>
<path fill="#2E89E4" opacity="1.000000" stroke="none" 
	d="
M30.714567,148.557373 
	C32.469036,148.409546 32.904411,149.684036 33.056938,151.542664 
	C31.814503,151.256363 31.243675,150.101303 30.714567,148.557373 
z"/>
<path fill="#2E89E4" opacity="1.000000" stroke="none" 
	d="
M43.059250,161.353760 
	C44.114960,161.008835 45.370152,160.829926 45.955887,162.700348 
	C45.076237,162.582535 44.142109,162.110565 43.059250,161.353760 
z"/>
<path fill="#2E89E4" opacity="1.000000" stroke="none" 
	d="
M135.412384,49.097473 
	C133.893127,49.861488 133.388214,48.854012 133.110260,47.205593 
	C134.250473,47.063423 134.784439,47.935051 135.412384,49.097473 
z"/>
<path fill="#2E89E4" opacity="1.000000" stroke="none" 
	d="
M68.271812,42.642616 
	C68.757462,44.104771 67.852058,44.686859 66.175781,44.875816 
	C66.154053,43.749630 67.015381,43.185406 68.271812,42.642616 
z"/>
<path fill="#2E89E4" opacity="1.000000" stroke="none" 
	d="
M149.627899,152.137329 
	C148.884354,150.955185 149.394699,150.008362 150.892456,149.226334 
	C150.790405,150.079880 150.347061,151.029114 149.627899,152.137329 
z"/>
<path fill="#2E89E4" opacity="1.000000" stroke="none" 
	d="
M34.084976,153.304916 
	C35.599789,153.040924 36.588097,153.829788 36.913498,155.765717 
	C35.997730,155.278702 35.087959,154.442078 34.084976,153.304916 
z"/>
<path fill="#2E89E4" opacity="1.000000" stroke="none" 
	d="
M130.642944,154.614563 
	C132.351822,154.585938 132.485062,156.111862 132.938354,157.739120 
	C131.687042,157.392349 131.170731,156.178238 130.642944,154.614563 
z"/>
<path fill="#2E89E4" opacity="1.000000" stroke="none" 
	d="
M151.469284,149.024658 
	C150.910110,147.912842 151.404816,146.976105 152.777191,146.160339 
	C152.644669,146.978455 152.194550,147.919495 151.469284,149.024658 
z"/>
<path fill="#2E89E4" opacity="1.000000" stroke="none" 
	d="
M122.952850,38.633072 
	C121.904259,39.092262 121.008919,38.586254 120.143951,37.379715 
	C120.927116,37.514973 121.863976,37.935619 122.952850,38.633072 
z"/>
<path fill="#2E89E4" opacity="1.000000" stroke="none" 
	d="
M30.408871,102.824966 
	C30.750540,103.888489 30.153599,104.828011 29.110889,105.863556 
	C28.810221,104.822639 29.337868,103.847359 30.408871,102.824966 
z"/>
<path fill="#2E89E4" opacity="1.000000" stroke="none" 
	d="
M36.627861,94.975342 
	C36.944229,95.882271 36.666077,96.664490 35.241234,96.917267 
	C35.379139,96.306992 35.853359,95.678276 36.627861,94.975342 
z"/>
<path fill="#2E89E4" opacity="1.000000" stroke="none" 
	d="
M38.648384,92.988533 
	C38.940556,93.898003 38.661896,94.682526 37.237045,94.915932 
	C37.383492,94.303200 37.865585,93.677406 38.648384,92.988533 
z"/>
<path fill="#2E89E4" opacity="1.000000" stroke="none" 
	d="
M133.081757,46.578850 
	C132.152100,46.938972 131.343857,46.697407 131.097763,45.221127 
	C131.728271,45.345219 132.368591,45.812565 133.081757,46.578850 
z"/>
<path fill="#2E89E4" opacity="1.000000" stroke="none" 
	d="
M44.493671,88.705795 
	C44.673061,89.706299 43.899635,89.941879 42.754288,90.140945 
	C42.680687,89.279732 43.444675,89.016541 44.493671,88.705795 
z"/>
<path fill="#2E89E4" opacity="1.000000" stroke="none" 
	d="
M40.347298,91.626251 
	C40.689266,92.336983 40.301842,92.763664 39.256767,92.940460 
	C39.306213,92.523811 39.683018,92.102966 40.347298,91.626251 
z"/>
<path fill="#2E89E4" opacity="1.000000" stroke="none" 
	d="
M31.552372,100.956253 
	C31.642242,101.417305 31.464260,102.017525 30.958031,102.684143 
	C30.848028,102.198830 31.066275,101.647133 31.552372,100.956253 
z"/>
<path fill="#2E89E4" opacity="1.000000" stroke="none" 
	d="
M41.884361,90.404633 
	C41.827358,90.818565 41.505142,91.251663 40.897594,91.640976 
	C40.947891,91.206062 41.283516,90.814926 41.884361,90.404633 
z"/>
<path fill="#2E89E4" opacity="1.000000" stroke="none" 
	d="
M151.066177,86.292633 
	C151.495087,86.242256 152.065979,86.458397 152.729019,86.981384 
	C152.283508,87.045197 151.745819,86.802170 151.066177,86.292633 
z"/>
<path fill="#2E89E4" opacity="1.000000" stroke="none" 
	d="
M72.366333,39.624184 
	C72.664192,40.357208 72.254082,40.776196 71.174423,40.877346 
	C71.252502,40.456558 71.664719,40.064034 72.366333,39.624184 
z"/>
<path fill="#2E89E4" opacity="1.000000" stroke="none" 
	d="
M165.017120,75.636360 
	C164.537537,75.671455 163.974579,75.424828 163.433380,74.844482 
	C163.948013,74.792061 164.440903,75.073349 165.017120,75.636360 
z"/>
<path fill="#2E89E4" opacity="1.000000" stroke="none" 
	d="
M63.582165,46.860439 
	C63.682392,47.101246 63.516232,47.418560 63.079704,47.808807 
	C62.978149,47.566807 63.146965,47.251877 63.582165,46.860439 
z"/>
<path fill="#2E89E4" opacity="1.000000" stroke="none" 
	d="
M64.583221,45.866539 
	C64.671799,46.099316 64.504852,46.418339 64.060120,46.793350 
	C63.964115,46.550488 64.145912,46.251637 64.583221,45.866539 
z"/>
<path fill="#2E89E4" opacity="1.000000" stroke="none" 
	d="
M36.940884,156.342834 
	C37.180519,156.256409 37.485214,156.445190 37.870987,156.899139 
	C37.636688,156.982239 37.321316,156.800140 36.940884,156.342834 
z"/>
<path fill="#2E89E4" opacity="1.000000" stroke="none" 
	d="
M65.609848,44.875153 
	C65.695618,45.119690 65.510826,45.426537 65.052155,45.790260 
	C64.965279,45.543915 65.152290,45.240692 65.609848,44.875153 
z"/>
<path fill="#2E89E4" opacity="1.000000" stroke="none" 
	d="
M163.323349,74.268288 
	C163.063629,74.384056 162.727524,74.283035 162.436844,73.885818 
	C162.811325,73.620796 163.066238,73.774750 163.323349,74.268288 
z"/>
<path fill="#2E89E4" opacity="1.000000" stroke="none" 
	d="
M33.122124,152.220627 
	C33.427074,152.053802 33.678871,152.248260 33.924736,152.776215 
	C33.713478,152.832825 33.430199,152.656891 33.122124,152.220627 
z"/>
<path fill="#2E89E4" opacity="1.000000" stroke="none" 
	d="
M166.032318,76.679169 
	C165.810684,76.760178 165.511124,76.584709 165.136673,76.150421 
	C165.359329,76.068626 165.656876,76.245659 166.032318,76.679169 
z"/>
<path fill="#2E89E4" opacity="1.000000" stroke="none" 
	d="
M167.054810,77.662979 
	C166.817780,77.755318 166.520050,77.577751 166.140839,77.144745 
	C166.370926,77.057220 166.682510,77.225143 167.054810,77.662979 
z"/>
<path fill="#2E89E4" opacity="1.000000" stroke="none" 
	d="
M168.003418,78.704330 
	C167.782288,78.775146 167.493118,78.588615 167.136856,78.143997 
	C167.358307,78.072929 167.646820,78.259949 168.003418,78.704330 
z"/>
<path fill="#2E89E4" opacity="1.000000" stroke="none" 
	d="
M73.729256,38.827534 
	C73.761238,39.095673 73.508583,39.378197 72.960083,39.639503 
	C72.924370,39.359497 73.184494,39.100708 73.729256,38.827534 
z"/>
<path fill="#2E89E4" opacity="1.000000" stroke="none" 
	d="
M124.912666,145.324341 
	C125.158836,145.290741 125.432106,145.522614 125.680634,146.036560 
	C125.417191,146.075684 125.178474,145.832748 124.912666,145.324341 
z"/>
<path fill="#2E89E4" opacity="1.000000" stroke="none" 
	d="
M124.181076,39.361462 
	C123.968910,39.521976 123.626930,39.455673 123.170319,39.134743 
	C123.387550,38.964958 123.719414,39.049801 124.181076,39.361462 
z"/>
<path fill="#2E89E4" opacity="1.000000" stroke="none" 
	d="
M70.623810,40.843834 
	C70.674797,41.105537 70.458359,41.396183 69.955032,41.667347 
	C69.897560,41.389503 70.126968,41.131142 70.623810,40.843834 
z"/>
<path fill="#2E89E4" opacity="1.000000" stroke="none" 
	d="
M69.406357,41.699982 
	C69.503853,41.968239 69.358421,42.297886 68.917847,42.595009 
	C68.802948,42.295441 68.983200,42.028408 69.406357,41.699982 
z"/>
</svg>
