<svg class="Header__StyledLogo-tynh6o-4 jlLkVM" xmlns="http://www.w3.org/2000/svg" viewBox="525 -30 200 180"><path fill="#37f2f7" d="M174.43 107.33h183.43v5.72H174.43z"></path><path fill="#f4459d" d="M412.3 42.68h104.14v4.21H412.3z"></path><path fill="#37f2f7" d="M504.55 106.47h20.85v5.22h-20.85z"></path><path fill="#ff7bc3" d="M763.49 37.09h17.48v5.42h-17.48z"></path><path fill="#fff31d" d="M247.22 91.19h66.68v6.51h-66.68z"></path><path fill="#ff8dcc" d="M398.82 52.1h106.25v2.69H398.82z"></path><path fill="#fff31d" d="M740.81 143.98h15.34v3.01h-15.34z"></path><path fill="#37f2f7" d="M759.63 6.84h14.3v14.3h-14.3z"></path><path fill="#ff7bc3" d="M764.74 115.01h10.88v10.88h-10.88zM508.1 9.86h43.46v4.08H508.1zM704.05 13.96h28.35l-.02-4.1h-28.35v2.23h-51.12V9.86h-67.5l.02 4.1h118.62zM533.18 115.01h10.77v3.45h-10.77zM706.48 146.98H543.95v-11.65h-8.3v16.77H724.88v-3.97h-18.4v-1.15z"></path><path fill="#e21c79" d="M548.27 152.12l.02 2.96v13.65h13.66v-6.82h95.11l-.03-9.79H548.27zM764.73 84.33h9.19v-5.46h-18.19V58.45h3V48.06h4.75v-11h-12.22v-4.29h11.41v-7.26h-11.41V13.94H585.4V4.49h-33.84v9.45h-27v20.62h-8.09v12.32h-14.58v11.57h14.55v14.7h-7.51v14.61h16.48v23.93h-5.26V115h23.73v3.44h-23v16.84h23V147h162.6v1.14h34.33v-12.85h11v-16.84h-23.72V115h36.64v-11.43h5.9v-3.89h-5.9zM538 24.41h-9.3v-1.89h9.3zm198.66 22.48h-8.57V42.5h8.57z"></path><path fill="#e21c79" d="M761.73 50.42h6.05v6.05h-6.05zM652.91 0h44.07v12.09h-44.07z"></path><path fill="#fff31d" d="M490.15 19.41h157.11v3.11H490.15zM716.72 19.41h19.97v3.2h-19.97zM753.61 101.48h5.77v5.77h-5.77z"></path><path fill="#ff8dcc" d="M526.15 48.71h21.64v2.77h-21.64z"></path><path d="M718.13 119.18c-6.22-11.72-12-22.54-18.26-34.25l-7-13.19 21.25-23.45c4.34-4.8 4.64-8.43 1-11.58-3.44-3-6.8-2.37-11 2.22-8.94 9.82-17.16 18.92-26.08 28.76l-4.4 4.86V44.16c0-6.47-2.22-9.37-7-9.29-4.57.07-6.63 2.81-6.65 9v78.07c0 6.52 2.24 9.47 6.94 9.35s6.71-3.1 6.71-9.64V92.86l9.42-10.39c7.58 14.24 15.13 28.39 22.86 42.87 3 5.72 6.37 7.23 10.55 4.91 4.04-2.19 4.53-5.58 1.66-11.07zM641 72.46v-.78-27.35c0-6.54-2.16-9.48-6.85-9.54s-7 2.77-7 9.35v45c0 1.89-.08 5.79-.09 7.81-1.78-2.93-3-4.89-3.78-6.31-6-10.6-11.93-20.79-17.89-31.1-3.29-5.68-6.57-11.41-9.86-17.26-2.21-4-4.27-8.69-9.87-7.3-6 1.49-5.25 7-5.26 11.58V123.01c0 5.44 2.61 8.5 7 8.15h.17c4.58-.06 6.66-2.9 6.68-9.34v-45-10.2c.69 1 1.93 3.41 2.34 4.13 6.34 11.41 11.93 21.63 17.77 32.1 2.58 4.63 5.22 9.31 8 14.15.51.92 3 5.74 3.48 6.66 2.22 4 4.28 8.7 9.88 7.31 6-1.49 5.25-7 5.26-11.58v-2.89-.59c.07-15.53.07-29.3.02-43.45z" fill="#fff"></path><path d="M295.38 120.86c-9.13-27.25-18-53-27.62-80.08a13.5 13.5 0 00-.71-1.76 6.68 6.68 0 00-6-3.76h-.26a6.68 6.68 0 00-6 3.76 13.5 13.5 0 00-.71 1.76c-9.65 27.07-18.49 52.83-27.62 80.08-1.72 5.13 0 8.94 4 10.19 4.25 1.34 7.41-.81 9.26-6.41 1.79-5.39 3.56-10.66 5.33-15.89h31.75c1.77 5.23 3.54 10.5 5.33 15.89 1.85 5.6 5 7.75 9.26 6.41 4-1.25 5.71-5.05 3.99-10.19zM248.8 97.7l3-8.78 9.16-26.26 9.16 26.26 3 8.78zM224.88 35.07c-4.25-1.33-7.41.81-9.27 6.42-4.07 12.26-8.05 23.93-12 35.72l-9.16 26.25-9.15-26.25c-4-11.79-8-23.46-12-35.72-1.86-5.61-5-7.75-9.27-6.42-4 1.26-5.71 5.07-4 10.2 9.13 27.24 18 53 27.62 80.07a14.4 14.4 0 00.71 1.76 6.65 6.65 0 006 3.75h.25a6.65 6.65 0 006-3.75 14.31 14.31 0 00.7-1.76c9.65-27.06 18.49-52.83 27.62-80.07 1.65-5.13-.06-8.94-4.05-10.2zM71.42 122.87c0-28.5-.07-48.76-.12-77.27v-1.5a8.17 8.17 0 00-.35-2.28c-.06-.22-.12-.44-.2-.65a8.25 8.25 0 00-15.23-.53l-.18.42c-.11.25-.24.5-.33.77C50 56.21 45.54 68.55 40.64 82.92l-4.78 13.93-.14.39-.13-.39-4.78-13.93c-4.9-14.37-9.4-26.71-14.33-41.07-.1-.27-.22-.52-.34-.77a3.79 3.79 0 00-.18-.42 8.25 8.25 0 00-15.23.53c-.08.21-.14.43-.2.65a8.17 8.17 0 00-.36 2.26v1.5C.1 74.11.07 94.37 0 122.87a15.27 15.27 0 000 1.79 6.62 6.62 0 006.63 6.62c3.66 0 7.42-3 7.42-6.62v-9.48c.06-15.14.11-28.72.17-43.87v-1.76l2.85 8.17 1 3c2.19 6.42 4.37 12.56 6.55 18.71l6 17.1v.06a10.1 10.1 0 00.82 1.85 4.32 4.32 0 004.12 2.21h.13a4.32 4.32 0 004.12-2.21 10.1 10.1 0 00.82-1.85v-.06l6-17.1c2.18-6.15 4.36-12.29 6.55-18.71l1-3 2.85-8.17v1.76c.06 15.15.11 28.73.17 43.87v9.48c0 3.66 3.77 6.62 7.43 6.62a6.62 6.62 0 006.63-6.62 15.27 15.27 0 00.16-1.79zM400.63 117.46h24.57c1.87 0 3.75-.06 5.61.05 4.15.25 6.72 2.39 6.81 6.64.1 4.54-2.6 7-6.95 7.09q-18.23.24-36.47 0c-4.63-.05-7.23-2.54-7.23-7.41V42.36c0-4.73 2.19-7.6 7-7.46s6.65 3.33 6.65 7.93v68z" fill="#1b1c1c"></path><path d="M547.8 82.67V43.86c0-6.22 2.08-9 6.65-9 4.78-.08 7 2.82 7 9.29v77.51c0 6.54-2.1 9.52-6.71 9.64s-6.93-2.83-6.94-9.35q-.03-19.65 0-39.28z" fill="#fff"></path><path d="M150.4 61.85c-1.49-15.5-13.2-26.31-28.17-26.82h-4.09c-.69 0-1.43.08-2.13.15h-.43c-13.73 1.59-24.21 12-25.61 26.63-.69 7.22-.4 20.67-.41 22.24v16c.2 17.22 11.39 30 27.4 31.34a40.79 40.79 0 005.81.05c16.33-1.13 27.79-14 28-31.4.06-5.8 0-10.22 0-16 .02-1.52.32-14.97-.37-22.19zm-13.62 39.46c-.46 9.29-6.07 15.34-14.41 16.19-.66 0-1.92.12-2.49.11s-1.08 0-1.6-.08h-.27c-8.34-.85-14-6.89-14.41-16.19-.3-6.14-.06-11.31-.07-17.46s-.24-12.32 0-18.46c.48-10.18 7.13-16.68 16.61-16.68s16.13 6.5 16.61 16.68c.29 6.14 0 12.3 0 18.46s.33 11.29.03 17.43zM493 117.51c-1.86-.11-3.74-.05-5.61-.05h-24.6V86.78h21.55a5.88 5.88 0 000-11.76h-21.56V59.75v-11h24.56c1.87 0 3.75.07 5.61 0 4.15-.26 6.72-2.39 6.81-6.64.1-4.55-2.6-7-6.95-7.09-12.15-.16-24.31-.14-36.46 0-4.64.05-7.24 2.54-7.24 7.41v81.47c0 4.87 2.6 7.36 7.24 7.41q18.22.21 36.46 0c4.35-.06 7.05-2.55 6.95-7.09-.08-4.32-2.65-6.46-6.76-6.71zM369 103a28.26 28.26 0 00-11-22.39 27.45 27.45 0 00-19.84-45.76h-.72c-7.84 0-12.82 0-20.66.1-4.63 0-7.23 2.54-7.23 7.41v81.53c0 4.87 2.6 7.36 7.23 7.41 8.73.1 16.34.13 25.08.08h1.36A28.24 28.24 0 00369 103zm-17-40.65c0 8-6.34 14.3-13.71 14.3h-15.08V59.8 48.74h16c8.2 0 12.79 7.26 12.79 13.61zm-28.75 55.16v-10.05-19h18.41c8 0 13.9 7.11 13.9 14.6 0 8.72-6.57 14.5-14.7 14.5z" fill="#1b1c1c"></path></svg>