<svg class="Header-module--header__logoSvg--1xksJ" alt="mParticle Logo" width="170px" height="36px" viewBox="-7 -15 50 50" version="1.1"><defs><polygon id="path-1" points="0 35.6906077 169.817587 35.6906077 169.817587 0.00760273301 0 0.00760273301"></polygon></defs><g id="Symbols" stroke="none" stroke-width="1" fill="none" fill-rule="evenodd"><g id="Menu---white" transform="translate(-285.000000, -26.000000)"><g id="logo" transform="translate(285.000000, 26.000000)"><polygon id="Fill-1" fill="#1A1A1A" points="28.1767956 26.7676389 28.1767956 35.6906077 42.2651934 26.7676389 42.2651934 17.8453039"></polygon><polygon id="Fill-2" fill="#1A1A1A" points="14.0883978 26.7676389 14.0883978 35.6906077 28.1767956 26.7676389 28.1767956 17.8453039"></polygon><polygon id="Fill-3" fill="#1A1A1A" points="0 26.7676389 0 35.6906077 14.0883978 26.7676389 14.0883978 17.8453039"></polygon><polygon id="Fill-4" fill="#1A1A1A" points="42.2651934 0 28.1767956 8.92265193 28.1767956 17.8453039 42.2651934 8.92265193"></polygon><polygon id="Fill-5" fill="#1A1A1A" points="28.1767956 0 14.0883978 8.92265193 14.0883978 17.8453039 28.1767956 8.92265193"></polygon><polygon id="Fill-6" fill="#1A1A1A" points="14.0883978 0 0 8.92265193 0 17.8453039 14.0883978 8.92265193"></polygon><g id="Group-22"><path d="M72.2216386,18.3856259 L72.2216386,26.8379643 L68.5849431,26.8379643 L68.5849431,18.6665046 C68.5849431,17.0099536 67.8016386,16.1954052 66.2912054,16.1954052 C65.1716881,16.1954052 64.1929257,16.6731103 63.3538663,17.6274644 L63.3538663,26.8379643 L59.7165396,26.8379643 L59.7165396,18.6665046 C59.7165396,17.0099536 58.9614282,16.1954052 57.4507847,16.1954052 C56.3039158,16.1954052 55.3245223,16.700987 54.4850421,17.7121504 L54.4850421,26.8379643 L50.8203639,26.8379643 L50.8203639,13.3591634 L54.2336188,13.3591634 L54.2336188,14.6231178 C55.352505,13.6400422 56.9195347,13.1067949 58.5139158,13.1067949 C60.3601411,13.1067949 61.7026782,13.7247282 62.4864035,14.9599611 C63.968854,13.7247282 65.5916386,13.1067949 67.3537054,13.1067949 C70.5155371,13.1067949 72.2216386,14.9599611 72.2216386,18.3856259" id="Fill-7" fill="#1A1A1A"></path><path d="M85.4963243,20.0706027 C85.4963243,17.6839781 83.817995,16.1953207 81.9153837,16.1953207 C80.6843564,16.1953207 79.6496287,16.6730258 78.8383416,17.5714154 L78.8383416,22.7104406 C79.6496287,23.5807423 80.6283911,24.0299371 81.7756807,24.0299371 C83.8459777,24.0299371 85.4963243,22.5417021 85.4963243,20.0706027 M88.2100124,16.4202349 C88.8256312,17.487363 89.1610025,18.694508 89.1610025,20.0706027 C89.1610025,22.1486831 88.3219431,24.0018492 87.0627228,25.2092055 C85.8041337,26.4169841 84.1253837,27.1470576 82.3633168,27.1470576 C80.9925866,27.1470576 79.845297,26.7259507 78.8943069,25.9111911 L78.8943069,33.1282966 L75.2296287,33.1282966 L75.2296287,13.3592901 L78.7825866,13.3592901 L78.7825866,14.3983303 C79.845297,13.5280286 81.0483416,13.1067105 82.3633168,13.1067105 C84.7689851,13.1067105 86.9230198,14.2859788 88.2100124,16.4202349" id="Fill-9" fill="#1A1A1A"></path><path d="M100.941519,22.7384862 L100.941519,17.5154086 C100.130442,16.6448957 99.1234864,16.1954897 97.9482141,16.1954897 C95.9898478,16.1954897 94.3115186,17.7120237 94.3115186,20.1267362 C94.3115186,22.5416599 95.9618651,24.0298949 97.9204418,24.0298949 C99.1514691,24.0298949 100.158214,23.6087879 100.941519,22.7384862 Z M104.550231,26.8380488 L101.114254,26.8380488 L101.109625,25.6868683 C100.102459,26.6697327 98.8712215,27.1470154 97.4165433,27.1470154 C95.0110854,27.1470154 92.8568403,25.9396592 91.5978304,23.777104 C90.954229,22.7103983 90.6468403,21.5026197 90.6468403,20.1267362 C90.6468403,17.4030571 92.0457636,15.1283616 94.1160606,13.9771811 C95.1507884,13.3877581 96.2700953,13.1068794 97.444526,13.1068794 C98.8992042,13.1068794 100.102459,13.5839509 101.081642,14.5108508 L101.081642,13.3592479 L104.550231,13.3592479 L104.550231,26.8380488 Z" id="Fill-11" fill="#1A1A1A"></path><path d="M111.09683,13.3592268 L111.09683,14.5950933 C112.187944,13.4998773 113.390989,13.1068583 115.460865,13.1068583 L115.460865,16.5884876 C115.209021,16.5044352 114.845667,16.4763473 114.453699,16.4763473 C113.334813,16.4763473 112.159962,17.0381048 111.348675,18.0205469 L111.348675,26.8380277 L107.683996,26.8380277 L107.683996,13.3592268 L111.09683,13.3592268 Z" id="Fill-13" fill="#1A1A1A"></path><polygon id="Fill-15" fill="#1A1A1A" points="126.505479 13.3592268 126.505479 16.3920837 123.484402 16.3920837 123.484402 26.8380277 119.847496 26.8380277 119.847496 16.3920837 117.022088 16.3920837 117.022088 13.3592268 119.847496 13.3592268 119.847496 8.86664513 123.484402 8.86664513 123.484402 13.3592268"></polygon><mask id="mask-2" fill="white"><use xlink:href="#path-1"></use></mask><g id="Clip-18"></g><path d="M128.651287,26.8380699 L132.315965,26.8380699 L132.315965,13.359269 L128.651287,13.359269 L128.651287,26.8380699 Z M128.56755,11.5624898 L132.399913,11.5624898 L132.399913,7.85552388 L128.56755,7.85552388 L128.56755,11.5624898 Z" id="Fill-17" fill="#1A1A1A"></path><path d="M147.721774,24.114074 C146.435202,25.9676626 144.253184,27.1190542 141.763358,27.1190542 C139.133407,27.1190542 136.811687,25.8831877 135.524484,23.7489316 C134.881093,22.6820148 134.545722,21.4746585 134.545722,20.1547396 C134.545722,17.4872363 135.916662,15.2129632 138.126662,14.0051845 C139.217145,13.4157615 140.4204,13.1067949 141.735375,13.1067949 C144.392887,13.1067949 146.378816,14.1177472 147.693791,16.1673173 L144.896155,17.9083432 C144.113061,16.7852506 143.078333,16.2234931 141.763358,16.2234931 C139.637095,16.2234931 138.2104,17.8802553 138.2104,20.1828275 C138.2104,22.4856108 139.58134,24.0019337 141.735375,24.0019337 C143.106316,24.0019337 144.196798,23.4405986 145.036278,22.3453827 L147.721774,24.114074 Z" id="Fill-19" fill="#1A1A1A"></path><polygon id="Fill-20" fill="#1A1A1A" points="150.12578 26.8380699 153.762475 26.8380699 153.762475 6.64816764 150.12578 6.64816764"></polygon><path d="M163.075551,16.0796958 C164.782073,16.0796958 165.844783,16.8938218 166.292717,18.5507953 L159.606541,18.5507953 C160.109808,16.95042 161.313063,16.0796958 163.075551,16.0796958 Z M166.350996,22.416785 C165.485427,23.4444211 164.352444,23.9702768 162.991392,23.9702768 C161.089623,23.9702768 159.746665,22.9312366 159.466417,20.9659301 L169.789709,20.9659301 C169.817692,20.7691038 169.817692,20.5726999 169.817692,20.4041726 C169.817692,15.9394677 167.048038,13.075138 162.991392,13.075138 C161.592469,13.075138 160.361863,13.3841046 159.270749,14.0297034 C157.088731,15.2934465 155.885476,17.5117551 155.885476,20.1230827 C155.885476,22.032847 156.613236,23.8019607 157.816071,25.0374048 C159.019325,26.301148 160.893113,27.0873973 162.991392,27.0873973 C165.453657,27.0873973 167.579709,26.0202692 168.922246,24.110505 L168.919932,24.1088155 L166.350996,22.416785 Z" id="Fill-21" fill="#1A1A1A"></path></g></g></g></g></svg>