<svg width="64" height="54" viewBox="50 -10 50 40" fill="none" xmlns="http://www.w3.org/2000/svg">
<path d="M84.2721 3.35547C80.6514 3.35449 77.2981 5.26322 75.4483 8.37698L75.313 8.60887L75.2263 8.76381C74.5603 9.97084 73.3724 12.5211 72.89 13.3511C72.2191 14.563 71.4802 15.7365 70.6791 16.8666C69.9737 17.7696 69.0848 18.5137 68.0726 19.0496C65.0705 20.6603 61.3304 19.5313 59.7203 16.528C59.2428 15.6369 58.9912 14.643 58.9882 13.6323C59.0247 10.2344 61.7695 7.48775 65.1672 7.45124C66.1833 7.45024 67.1827 7.71672 68.0637 8.22399C68.5324 8.49342 68.9664 8.8171 69.3572 9.19021C69.7932 9.58689 70.1879 10.0271 70.535 10.5038L71.3559 11.7207L73.6536 7.85785L73.258 7.3555C72.4155 6.2225 71.3214 5.30072 70.0626 4.66118C68.557 3.82131 66.863 3.37916 65.1385 3.37719C59.4904 3.43443 54.9207 7.99305 54.8477 13.6432C54.8742 19.328 59.4855 23.923 65.1681 23.928C66.8809 23.9241 68.5659 23.4968 70.0724 22.6825C70.8094 22.269 71.502 21.7805 72.1383 21.2238C73.1851 20.1827 74.1025 19.018 74.87 17.7568C75.0644 18.1939 75.2903 18.6174 75.5458 19.022C75.979 19.7642 76.5078 20.4461 77.1195 21.0501V20.9919C81.1821 24.9525 87.6856 24.8686 91.6447 20.8043C95.6039 16.7402 95.52 10.2344 91.4572 6.27382C89.5374 4.4026 86.9624 3.35548 84.2819 3.35745L84.2721 3.35547ZM84.2809 19.773C80.8744 19.773 78.112 17.0097 78.112 13.6017C78.112 10.1939 80.8744 7.43051 84.2809 7.43051C87.6876 7.43051 90.45 10.1939 90.45 13.6017C90.45 17.0107 87.6886 19.773 84.2809 19.773Z" fill="#FF5003"></path>
</svg>