
<?xml version="1.0" encoding="utf-8"?>
<!-- Generator: Adobe Illustrator 24.2.0, SVG Export Plug-In . SVG Version: 6.00 Build 0)  -->
<svg version="1.1" id="Layer_1" xmlns="http://www.w3.org/2000/svg" xmlns:xlink="http://www.w3.org/1999/xlink" x="0px" y="0px"
	 viewBox="0 -5 30 30" style="enable-background:new 0 0 132.1 25;" xml:space="preserve">
<style type="text/css">
	.st0{clip-path:url(#SVGID_2_);}
	.st1{fill:#7764FA;}
</style>
<g>
	<g>
		<defs>
			<rect id="SVGID_1_" x="6.1" y="1.1" width="120" height="22.7"/>
		</defs>
		<clipPath id="SVGID_2_">
			<use xlink:href="#SVGID_1_"  style="overflow:visible;"/>
		</clipPath>
		<g class="st0">
			<path class="st1" d="M78,23.5V11.6c0.1-2.6,1.3-5.2,3.1-7c4.3-4.1,11.2-4.1,15.7,0c1.9,1.8,3,4.3,3.1,7v11.9H94V12.1
				c0-1.3-0.5-2.4-1.4-3.3c-2.1-1.7-5.1-1.7-7.1,0c-0.9,0.9-1.4,2-1.4,3.3v11.3L78,23.5L78,23.5z"/>
			<path class="st1" d="M68.4,12.1c0-1.3-0.5-2.4-1.4-3.3c-2-1.6-5.1-1.6-7.1,0.1c-0.9,0.9-1.4,2-1.4,3.3V13c0,1.2,0.5,2.3,1.3,3.2
				c0.9,0.9,2,1.4,3.3,1.4c1.2,0.1,2.3-0.2,3.3-0.8v6.2c-0.9,0.5-1.8,0.7-2.8,0.7c-2.9,0.1-5.8-1.1-7.8-3.1c-1.9-1.8-3-4.3-3.1-7
				v-1.7c0.1-2.6,1.2-5.2,3.1-7c2.1-2.1,4.9-3.2,7.9-3.1c2.9-0.1,5.8,1.1,7.8,3.1c1.9,1.8,3,4.3,3.1,7v11.9h-6L68.4,12.1z"/>
			<path class="st1" d="M43.5,10.5c2.7,1,4.5,2.4,5.2,4.6c0.7,1.9,0.5,4.1-0.7,5.8c-1.1,1.8-2.9,2.6-5.5,2.6h-9.9v-6.1H42
				c0.5-0.1,0.8-0.4,0.8-0.7c0-0.4-1.6-1.1-4.7-2.3c-2.8-1.1-4.6-2.5-5.3-4.7c-0.5-1.9-0.3-4.1,0.9-5.7c1.1-1.6,3.2-2.4,6.3-2.4h7.5
				v6.1h-6.7c-0.8-0.1-1.4,0.1-1.5,0.5c-0.1,0.5,0.2,0.9,1.1,1.3L43.5,10.5z"/>
			<path class="st1" d="M25.2,4.6c-2.1-2-4.9-3.2-7.8-3.1c-3-0.1-5.8,1.1-7.9,3.1c-1.9,1.8-3,4.3-3.1,7v1.7c0.1,2.6,1.3,5.2,3.1,7
				c2.1,2.1,4.9,3.2,7.8,3.1c2.9,0.1,5.8-1.1,7.8-3.1c1.9-1.8,3-4.3,3.1-7v-1.7C28.2,9,27.1,6.4,25.2,4.6z M22.3,13
				c0,1.3-0.5,2.4-1.4,3.3c-1,0.9-2.3,1.4-3.6,1.4c-1.4,0.1-2.6-0.5-3.6-1.4c-0.9-0.9-1.4-2-1.4-3.3v-0.8c0-1.3,0.5-2.4,1.4-3.3
				c1-0.9,2.3-1.4,3.6-1.4c1.4-0.1,2.6,0.5,3.6,1.4c0.9,0.9,1.4,2,1.4,3.3V13z"/>
			<path class="st1" d="M122.7,4.6c-2.1-2-4.9-3.2-7.8-3.1c-3-0.1-5.8,1.1-7.9,3.1c-1.9,1.8-3,4.3-3.1,7v1.7c0.1,2.6,1.3,5.2,3.1,7
				c2.1,2.1,4.9,3.2,7.8,3.1c2.9,0.1,5.8-1.1,7.8-3.1c1.9-1.8,3-4.3,3.1-7v-1.7C125.7,9,124.7,6.4,122.7,4.6z M119.8,13
				c0,1.3-0.5,2.4-1.4,3.3c-1,0.9-2.3,1.4-3.6,1.4c-1.4,0.1-2.6-0.5-3.6-1.4c-0.9-0.9-1.4-2-1.4-3.3v-0.8c0-1.3,0.5-2.4,1.4-3.3
				s2.3-1.4,3.6-1.4c1.4-0.1,2.6,0.5,3.6,1.4c0.9,0.9,1.4,2,1.4,3.3V13z"/>
		</g>
	</g>
</g>
</svg>
