<svg version="1.1" id="Layer_1" xmlns="http://www.w3.org/2000/svg" xmlns:xlink="http://www.w3.org/1999/xlink" x="0px" y="0px"
	 width="100%" viewBox="0 0 200 200" enable-background="new 0 0 200 200" xml:space="preserve">
<path fill="#2F333F" opacity="1.000000" stroke="none" 
	d="
M104.000000,201.000000 
	C69.354691,201.000000 35.209385,201.000000 1.032038,201.000000 
	C1.032038,134.396378 1.032038,67.792740 1.032038,1.094551 
	C67.561836,1.094551 134.123856,1.094551 200.842926,1.094551 
	C200.842926,67.666374 200.842926,134.333145 200.842926,201.000000 
	C168.792984,201.000000 136.646484,201.000000 104.000000,201.000000 
M60.438370,104.942017 
	C53.163635,107.625046 45.541729,109.640839 38.718269,113.191185 
	C32.692589,116.326439 32.777264,122.143837 38.464970,125.901169 
	C42.417927,128.512512 46.922085,130.672470 51.484726,131.915695 
	C81.077957,139.979279 111.008385,140.043243 140.942017,134.266663 
	C148.167801,132.872238 155.385529,130.258499 161.949478,126.914795 
	C169.870483,122.879776 169.738586,116.764359 162.121918,112.282364 
	C158.303070,110.035194 154.072632,108.197189 149.792358,107.071220 
	C120.489754,99.362808 90.942772,99.275414 60.438370,104.942017 
M69.839523,80.387672 
	C66.461151,85.339493 64.077797,90.630875 63.748245,97.229477 
	C89.029968,93.119904 113.827095,93.318253 138.925430,97.257446 
	C137.098404,87.737953 133.792908,79.800369 126.684975,73.814552 
	C108.971451,58.897419 85.149506,61.391953 69.839523,80.387672 
z"/>
<path fill="#FDFDFD" opacity="1.000000" stroke="none" 
	d="
M60.857056,104.874405 
	C90.942772,99.275414 120.489754,99.362808 149.792358,107.071220 
	C154.072632,108.197189 158.303070,110.035194 162.121918,112.282364 
	C169.738586,116.764359 169.870483,122.879776 161.949478,126.914795 
	C155.385529,130.258499 148.167801,132.872238 140.942017,134.266663 
	C111.008385,140.043243 81.077957,139.979279 51.484726,131.915695 
	C46.922085,130.672470 42.417927,128.512512 38.464970,125.901169 
	C32.777264,122.143837 32.692589,116.326439 38.718269,113.191185 
	C45.541729,109.640839 53.163635,107.625046 60.857056,104.874405 
z"/>
<path fill="#FCFCFC" opacity="1.000000" stroke="none" 
	d="
M70.019897,80.076141 
	C85.149506,61.391953 108.971451,58.897419 126.684975,73.814552 
	C133.792908,79.800369 137.098404,87.737953 138.925430,97.257446 
	C113.827095,93.318253 89.029968,93.119904 63.748245,97.229477 
	C64.077797,90.630875 66.461151,85.339493 70.019897,80.076141 
z"/>
</svg>