
<svg width="1555" height="398" viewBox="25 -20 100 398" fill="none" xmlns="http://www.w3.org/2000/svg">
<g clip-path="url(#clip0_10_26)">
<path d="M164.5 26L275.784 88.75V214.25L164.5 277L53.2157 214.25V88.75L164.5 26Z" fill="#673AB7"/>
<path d="M164.5 100L209.966 125.75V177.25L164.5 203L119.034 177.25V125.75L164.5 100Z" fill="white"/>
<rect x="53" y="143" width="66" height="186" fill="#673AB7"/>
<path d="M122 381L53.584 328.5L190.416 328.5L122 381Z" fill="#673AB7"/>
<rect x="119" y="172" width="57" height="237" fill="white"/>
<rect x="164" y="301" width="203" height="80" fill="white"/>
</g>
<path d="M366.528 277V96.52H440C458.944 96.52 473.536 101.128 483.776 110.344C494.016 119.389 499.136 132.019 499.136 148.232C499.136 164.104 494.016 176.733 483.776 186.12C473.536 195.336 458.944 199.944 440 199.944H387.776V277H366.528ZM387.776 182.28H437.952C451.093 182.28 460.992 179.293 467.648 173.32C474.475 167.347 477.888 158.984 477.888 148.232C477.888 137.309 474.475 128.861 467.648 122.888C460.992 116.915 451.093 113.928 437.952 113.928H387.776V182.28ZM533.278 277V96.52H554.526V258.568H645.662V277H533.278ZM656.872 186.632C656.872 167.517 660.115 151.133 666.6 137.48C673.256 123.656 682.728 112.989 695.016 105.48C707.475 97.9707 722.408 94.216 739.816 94.216C756.712 94.216 771.389 97.9707 783.848 105.48C796.307 112.989 805.864 123.656 812.52 137.48C819.347 151.133 822.76 167.432 822.76 186.376C822.76 205.491 819.347 221.96 812.52 235.784C805.693 249.608 796.051 260.36 783.592 268.04C771.304 275.549 756.712 279.304 739.816 279.304C722.408 279.304 707.56 275.549 695.272 268.04C682.984 260.36 673.512 249.608 666.856 235.784C660.2 221.96 656.872 205.576 656.872 186.632ZM679.144 186.632C679.144 209.843 684.264 228.019 694.504 241.16C704.744 254.131 719.848 260.616 739.816 260.616C758.931 260.616 773.779 254.131 784.36 241.16C795.112 228.019 800.488 209.843 800.488 186.632C800.488 163.251 795.197 145.16 784.616 132.36C774.035 119.389 759.101 112.904 739.816 112.904C719.848 112.904 704.744 119.389 694.504 132.36C684.264 145.16 679.144 163.251 679.144 186.632ZM893.804 277V114.44H830.06V96.52H978.54V114.44H915.052V277H893.804ZM1004.53 277V96.52H1025.78V258.568H1116.91V277H1004.53ZM1144.03 277V96.52H1165.28V277H1144.03ZM1210.28 277V96.52H1226.92L1342.63 250.12H1336.74V96.52H1356.45V277H1340.07L1224.36 123.4H1229.99V277H1210.28ZM1401.53 277V96.52H1516.73V113.928H1422.26V176.648H1511.1V194.312H1422.26V259.336H1516.73V277H1401.53Z" fill="black"/>
<defs>
<clipPath id="clip0_10_26">
<rect width="317" height="398" fill="white"/>
</clipPath>
</defs>
</svg>
