
<svg xmlns="http://www.w3.org/2000/svg" width="115" height="14" viewBox="0 -1 20 14">
  <g fill="none">
    <polygon fill="#FF2638" points="6.222 7.292 12.444 13.417 0 13.417"/>
    <polygon fill="#FFC600" points="0 1.167 6.222 7.292 12.444 1.167"/>
    <polygon fill="#0079F2" points="6.223 7.292 12.445 13.417 18.667 7.292 12.445 1.167"/>
    <path fill="#000C2C" d="M112.602 4.07c0 .089-.123.128-.181.06-.455-.529-1.207-.93-2.236-.93-2.227 0-3.493 1.798-3.493 3.975 0 2.163 1.266 3.96 3.493 3.96 1.043 0 1.858-.365 2.364-.995.057-.07.184-.032.184.058v.673c0 .05.04.09.089.09h1.422c.05 0 .09-.04.09-.09V.09a.09.09 0 0 0-.09-.09h-1.553a.09.09 0 0 0-.089.09v3.98zm.072 3.105c0 1.36-.8 2.426-2.125 2.426-1.31 0-2.125-1.067-2.125-2.426 0-1.388.815-2.44 2.125-2.44 1.325 0 2.125 1.052 2.125 2.44zM106.26 3.4a.089.089 0 0 0-.082-.089 2.905 2.905 0 0 0-.166-.008c-1.07 0-1.693.429-2.036.849-.058.07-.191.032-.191-.06v-.627a.09.09 0 0 0-.089-.09h-1.423a.09.09 0 0 0-.089.09v7.406c0 .05.04.09.089.09h1.554a.09.09 0 0 0 .089-.09V7.015c0-1.462.728-2.105 1.951-2.105.104 0 .214.01.29.017a.093.093 0 0 0 .103-.09V3.4zm-7.335 4.01a.09.09 0 0 1 .103.089v.378c0 1.023-.684 1.9-2.082 1.9-.83 0-1.34-.278-1.34-.994 0-.526.35-.92 1.413-1.082l1.906-.29zm-2.328 3.726c1.077 0 1.887-.314 2.412-.93.057-.068.182-.03.186.06.021.435.083.694.095.694h1.509c.064 0 .109-.066.089-.127-.105-.332-.172-.87-.172-1.305V6.035c0-1.739-1.048-2.835-3.26-2.835-2.229 0-3.142 1.168-3.322 2.459a.089.089 0 0 0 .088.099h1.513c.044 0 .08-.032.09-.075.141-.657.675-1.05 1.587-1.05 1.033 0 1.616.467 1.616 1.388v.039a.09.09 0 0 1-.077.089l-2.107.296c-1.994.277-2.896 1.11-2.896 2.396 0 1.3.771 2.295 2.649 2.295zm-7.234 0c2.416 0 3.93-1.827 3.93-3.96 0-2.134-1.514-3.976-3.93-3.976-2.402 0-3.915 1.842-3.915 3.975 0 2.134 1.513 3.96 3.915 3.96zm-2.183-3.96c0-1.477.931-2.441 2.183-2.441 1.267 0 2.198.964 2.198 2.44 0 1.462-.931 2.426-2.198 2.426-1.252 0-2.183-.964-2.183-2.426zM79.069 4.13c-.058.068-.18.029-.18-.06V.09a.09.09 0 0 0-.09-.09h-1.553a.09.09 0 0 0-.09.09v10.78c0 .05.04.09.09.09h1.422c.05 0 .09-.04.09-.09v-.68c0-.09.124-.128.18-.058.517.635 1.333 1.004 2.367 1.004 2.241 0 3.508-1.798 3.508-3.96 0-2.178-1.267-3.976-3.508-3.976-1.017 0-1.778.401-2.236.93zm-.239 3.045c0-1.388.8-2.44 2.125-2.44 1.31 0 2.126 1.052 2.126 2.44 0 1.36-.816 2.426-2.126 2.426-1.324 0-2.125-1.067-2.125-2.426zm-3.145 2.356a.096.096 0 0 0-.116-.091c-.1.02-.254.045-.422.045-.597 0-.844-.293-.844-.892v-3.74a.09.09 0 0 1 .09-.089h1.232c.05 0 .09-.04.09-.09V3.467a.09.09 0 0 0-.09-.09h-1.233a.09.09 0 0 1-.09-.09V1.494a.09.09 0 0 0-.089-.09H72.66a.09.09 0 0 0-.09.09v1.794a.09.09 0 0 1-.09.09h-.97a.09.09 0 0 0-.09.089v1.209c0 .05.04.09.09.09h.97c.05 0 .09.04.09.089V8.77c0 1.432.67 2.236 2.213 2.236.428 0 .714-.048.836-.073a.084.084 0 0 0 .066-.084V9.531zM63.467 7.175c0 2.192 1.543 3.96 3.77 3.96 2.186 0 3.32-1.486 3.564-2.82a.087.087 0 0 0-.087-.102h-1.602a.092.092 0 0 0-.088.068c-.224.781-.896 1.32-1.802 1.32-1.237 0-2.023-1.008-2.023-2.426 0-1.432.786-2.44 2.023-2.44.906 0 1.578.539 1.802 1.32.011.04.047.068.088.068h1.602a.087.087 0 0 0 .087-.102c-.244-1.334-1.378-2.82-3.564-2.82-2.227 0-3.77 1.768-3.77 3.974zm-2.917.57c0 1.242-.669 1.9-1.746 1.9-1.048 0-1.47-.687-1.47-1.724V3.465a.09.09 0 0 0-.09-.09h-1.553a.09.09 0 0 0-.09.09v4.69c0 1.768.947 2.98 2.78 2.98 1.018 0 1.713-.383 2.102-.858.059-.072.199-.031.199.062v.532c0 .05.04.09.09.09h1.421c.05 0 .09-.04.09-.09V3.465a.09.09 0 0 0-.09-.09H60.64a.09.09 0 0 0-.09.09v4.28zM52.54 4.07c0 .089-.123.128-.181.06-.455-.529-1.207-.93-2.236-.93-2.227 0-3.494 1.798-3.494 3.975 0 2.163 1.267 3.96 3.494 3.96 1.042 0 1.857-.365 2.364-.995.057-.07.183-.032.183.058v.673c0 .05.04.09.09.09h1.422c.05 0 .09-.04.09-.09V.09a.09.09 0 0 0-.09-.09h-1.553a.09.09 0 0 0-.09.09v3.98zm.072 3.105c0 1.36-.8 2.426-2.125 2.426-1.31 0-2.126-1.067-2.126-2.426 0-1.388.816-2.44 2.126-2.44 1.324 0 2.125 1.052 2.125 2.44zM42 11.136c2.417 0 3.93-1.827 3.93-3.96C45.93 5.041 44.418 3.2 42 3.2c-2.401 0-3.915 1.842-3.915 3.975 0 2.134 1.514 3.96 3.915 3.96zm-2.183-3.96c0-1.477.931-2.441 2.183-2.441 1.267 0 2.198.964 2.198 2.44 0 1.462-.931 2.426-2.198 2.426-1.252 0-2.183-.964-2.183-2.426zM37.886 3.4a.089.089 0 0 0-.082-.089 2.873 2.873 0 0 0-.165-.008c-1.07 0-1.694.429-2.037.849-.058.07-.19.032-.19-.06v-.627a.09.09 0 0 0-.09-.09H33.9a.09.09 0 0 0-.09.09v7.406c0 .05.04.09.09.09h1.553c.05 0 .09-.04.09-.09V7.015c0-1.462.727-2.105 1.95-2.105.105 0 .214.01.29.017a.093.093 0 0 0 .103-.09V3.4zm-11.07 6.872c0-.09.124-.129.183-.06.457.535 1.218.924 2.234.924 2.241 0 3.508-1.798 3.508-3.96 0-2.178-1.267-3.976-3.508-3.976-1.035 0-1.851.381-2.368 1.01-.056.069-.18.03-.18-.06v-.685a.09.09 0 0 0-.09-.09h-1.421a.09.09 0 0 0-.09.09V13.91c0 .05.04.09.09.09h1.553c.05 0 .09-.04.09-.09v-3.638zm-.058-3.097c0-1.403.8-2.47 2.125-2.47 1.31 0 2.126 1.067 2.126 2.47 0 1.36-.816 2.426-2.126 2.426-1.324 0-2.125-1.067-2.125-2.426z"/>
  </g>
</svg>
