<svg version="1.1" id="Layer_1" xmlns="http://www.w3.org/2000/svg" xmlns:xlink="http://www.w3.org/1999/xlink" x="0px" y="0px"
	 width="100%" viewBox="0 0 100 100" enable-background="new 0 0 100 100" xml:space="preserve">
<path fill="#202933" opacity="1.000000" stroke="none" 
	d="
M61.000000,101.000000 
	C40.666672,101.000000 20.833340,101.000000 1.000008,101.000000 
	C1.000005,67.666679 1.000005,34.333351 1.000003,1.000021 
	C34.333317,1.000014 67.666634,1.000014 100.999969,1.000007 
	C100.999977,34.333313 100.999977,67.666626 100.999985,100.999969 
	C87.833336,101.000000 74.666664,101.000000 61.000000,101.000000 
M41.651802,53.001457 
	C41.842945,53.012047 42.034092,53.022636 42.088020,53.830025 
	C41.094418,58.619785 39.972591,63.387482 39.143703,68.205582 
	C38.334187,72.911087 40.467068,75.512840 45.387867,75.637718 
	C52.351624,75.814438 59.325520,75.787849 66.290779,75.642197 
	C71.194885,75.539650 74.339241,72.927773 75.539291,68.126205 
	C76.342934,64.910721 76.918190,61.628838 77.888275,58.466434 
	C79.378105,53.609707 79.583290,49.312061 74.115204,47.128613 
	C74.336403,44.980022 74.513634,43.258583 74.688904,41.556114 
	C74.159752,41.478348 73.946075,41.374802 73.838707,41.441746 
	C71.317459,43.013790 68.807678,44.604237 65.385338,46.096436 
	C63.752090,45.526653 62.118843,44.956875 60.541023,43.616920 
	C61.269112,40.554680 62.052696,37.504341 62.712845,34.427525 
	C63.823380,29.251554 62.000866,26.533289 56.844868,26.382133 
	C49.542171,26.168049 42.225414,26.224951 34.919941,26.394033 
	C30.642405,26.493034 27.760876,28.756521 26.714785,33.035862 
	C25.770723,36.897831 25.073946,40.832596 23.909872,44.625301 
	C22.465342,49.331783 22.726851,53.132420 28.098032,54.739567 
	C27.758436,57.010941 27.480474,58.870094 27.141268,61.138870 
	C32.122597,58.211193 36.601475,55.578819 41.651802,53.001457 
z"/>
<path fill="#0CD99D" opacity="1.000000" stroke="none" 
	d="
M66.295799,46.191307 
	C68.807678,44.604237 71.317459,43.013790 73.838707,41.441746 
	C73.946075,41.374802 74.159752,41.478348 74.688904,41.556114 
	C74.513634,43.258583 74.336403,44.980022 74.115204,47.128613 
	C79.583290,49.312061 79.378105,53.609707 77.888275,58.466434 
	C76.918190,61.628838 76.342934,64.910721 75.539291,68.126205 
	C74.339241,72.927773 71.194885,75.539650 66.290779,75.642197 
	C59.325520,75.787849 52.351624,75.814438 45.387867,75.637718 
	C40.467068,75.512840 38.334187,72.911087 39.143703,68.205582 
	C39.972591,63.387482 41.094418,58.619785 42.467663,53.310265 
	C45.649292,49.005451 49.394691,47.880173 54.055092,47.898167 
	C58.133072,47.913918 62.215393,46.803970 66.295799,46.191307 
M56.828762,60.363365 
	C55.744732,61.129601 54.660702,61.895836 53.424824,62.769405 
	C53.161613,60.070240 52.962364,58.026951 52.763115,55.983658 
	C52.084385,55.979309 51.405659,55.974957 50.726929,55.970604 
	C50.183735,60.221893 49.640541,64.473183 49.097347,68.724472 
	C49.578678,68.956139 50.060009,69.187798 50.541340,69.419456 
	C53.106686,67.524872 55.672031,65.630287 58.271355,63.710609 
	C59.808502,65.695297 61.239578,67.543030 63.276241,70.172668 
	C65.723442,65.016052 68.759888,61.290985 68.818710,56.440788 
	C68.342758,56.203011 67.866814,55.965233 67.390862,55.727451 
	C65.880058,58.286667 64.369255,60.845879 63.234669,62.767796 
	C61.150063,61.761757 59.256603,60.847961 56.828762,60.363365 
z"/>
<path fill="#F5F6F7" opacity="1.000000" stroke="none" 
	d="
M41.080357,52.946445 
	C36.601475,55.578819 32.122597,58.211193 27.141268,61.138870 
	C27.480474,58.870094 27.758436,57.010941 28.098032,54.739567 
	C22.726851,53.132420 22.465342,49.331783 23.909872,44.625301 
	C25.073946,40.832596 25.770723,36.897831 26.714785,33.035862 
	C27.760876,28.756521 30.642405,26.493034 34.919941,26.394033 
	C42.225414,26.224951 49.542171,26.168049 56.844868,26.382133 
	C62.000866,26.533289 63.823380,29.251554 62.712845,34.427525 
	C62.052696,37.504341 61.269112,40.554680 60.312462,44.341202 
	C58.058056,45.418434 56.032215,45.771381 53.591949,46.066460 
	C51.790962,46.079231 50.404392,46.149872 48.665852,46.206566 
	C45.902702,48.443897 43.491528,50.695171 41.080357,52.946445 
M35.343052,40.892998 
	C34.898876,43.411095 34.454704,45.929195 34.010532,48.447292 
	C34.645180,48.595158 35.279831,48.743023 35.914478,48.890884 
	C36.663750,47.042130 37.413021,45.193371 38.298450,43.008659 
	C40.987980,43.008659 43.814812,43.195675 46.606403,42.961876 
	C50.190105,42.661732 51.900684,40.186703 51.880539,36.868046 
	C51.859058,33.330589 49.239819,32.761684 46.275723,32.857639 
	C43.320747,32.953297 40.360256,32.878613 37.320583,32.878613 
	C36.683319,35.603222 36.158009,37.849167 35.343052,40.892998 
z"/>
<path fill="#105242" opacity="1.000000" stroke="none" 
	d="
M54.006374,46.124329 
	C56.032215,45.771381 58.058056,45.418434 60.284744,44.726288 
	C62.118843,44.956875 63.752090,45.526653 65.840569,46.143875 
	C62.215393,46.803970 58.133072,47.913918 54.055092,47.898167 
	C49.394691,47.880173 45.649292,49.005451 42.536270,52.911865 
	C42.034092,53.022636 41.842945,53.012047 41.366081,52.973953 
	C43.491528,50.695171 45.902702,48.443897 48.942791,46.395844 
	C51.049927,46.440819 52.528152,46.282574 54.006374,46.124329 
z"/>
<path fill="#08473C" opacity="1.000000" stroke="none" 
	d="
M57.095951,60.148766 
	C59.256603,60.847961 61.150063,61.761757 63.234669,62.767796 
	C64.369255,60.845879 65.880058,58.286667 67.390862,55.727451 
	C67.866814,55.965233 68.342758,56.203011 68.818710,56.440788 
	C68.759888,61.290985 65.723442,65.016052 63.276241,70.172668 
	C61.239578,67.543030 59.808502,65.695297 58.271355,63.710609 
	C55.672031,65.630287 53.106686,67.524872 50.541340,69.419456 
	C50.060009,69.187798 49.578678,68.956139 49.097347,68.724472 
	C49.640541,64.473183 50.183735,60.221893 50.726929,55.970604 
	C51.405659,55.974957 52.084385,55.979309 52.763115,55.983658 
	C52.962364,58.026951 53.161613,60.070240 53.424824,62.769405 
	C54.660702,61.895836 55.744732,61.129601 57.095951,60.148766 
z"/>
<path fill="#30373D" opacity="1.000000" stroke="none" 
	d="
M35.487877,40.494057 
	C36.158009,37.849167 36.683319,35.603222 37.320583,32.878613 
	C40.360256,32.878613 43.320747,32.953297 46.275723,32.857639 
	C49.239819,32.761684 51.859058,33.330589 51.880539,36.868046 
	C51.900684,40.186703 50.190105,42.661732 46.606403,42.961876 
	C43.814812,43.195675 40.987980,43.008659 38.298450,43.008659 
	C37.413021,45.193371 36.663750,47.042130 35.914478,48.890884 
	C35.279831,48.743023 34.645180,48.595158 34.010532,48.447292 
	C34.454704,45.929195 34.898876,43.411095 35.487877,40.494057 
M45.920757,40.548088 
	C47.020996,39.339272 48.121231,38.130455 49.221470,36.921642 
	C47.856377,36.355076 46.534695,35.518658 45.115192,35.290329 
	C43.344917,35.005566 41.494030,35.221943 39.423969,35.221943 
	C39.019009,37.012321 38.673611,38.539379 38.210979,40.584736 
	C40.805073,40.584736 42.941891,40.584736 45.920757,40.548088 
z"/>
<path fill="#202933" opacity="1.000000" stroke="none" 
	d="
M53.591949,46.066460 
	C52.528152,46.282574 51.049927,46.440819 49.294765,46.409786 
	C50.404392,46.149872 51.790962,46.079231 53.591949,46.066460 
z"/>
<path fill="#DCDEE1" opacity="1.000000" stroke="none" 
	d="
M45.499733,40.566414 
	C42.941891,40.584736 40.805073,40.584736 38.210979,40.584736 
	C38.673611,38.539379 39.019009,37.012321 39.423969,35.221943 
	C41.494030,35.221943 43.344917,35.005566 45.115192,35.290329 
	C46.534695,35.518658 47.856377,36.355076 49.221466,36.921638 
	C48.121231,38.130455 47.020996,39.339272 45.499733,40.566414 
z"/>
</svg>
