<svg xmlns="http://www.w3.org/2000/svg" width="64" height="64" viewBox="-10 -5 30 25" fill="none">
<path d="M94.7965 15.7213V8.52989H95.7906C98.1359 8.52989 99.1145 9.75694 99.1145 12.0402V12.1644C99.1145 14.4632 98.0583 15.7213 95.8216 15.7213H94.7965ZM92.2803 17.6784H95.8993C99.7979 17.6784 101.739 15.4573 101.739 12.1334V12.0091C101.739 8.68521 99.8134 6.57283 95.9148 6.57283H92.2803V17.6784Z" fill="#173C56"/>
<path d="M109.832 15.8456C108.015 15.8456 106.71 14.4477 106.71 12.18V12.0557C106.71 9.81907 107.875 8.40564 109.801 8.40564C111.742 8.40564 112.892 9.8812 112.892 12.0402V12.1644C112.892 14.4011 111.711 15.8456 109.832 15.8456ZM109.785 17.8492C113.249 17.8492 115.517 15.4417 115.517 12.1334V12.0091C115.517 8.66968 113.14 6.41751 109.801 6.41751C106.508 6.41751 104.085 8.76288 104.085 12.0712V12.1955C104.085 15.4417 106.306 17.8492 109.785 17.8492Z" fill="#173C56"/>
<path d="M123.451 17.8492C126.185 17.8492 128.157 16.4358 128.437 13.6866H125.967C125.765 15.1156 124.802 15.8145 123.42 15.8145C121.587 15.8145 120.531 14.4787 120.531 12.18V12.0557C120.531 9.75694 121.649 8.3901 123.405 8.3901C124.802 8.3901 125.548 9.10458 125.734 10.4404H128.313C128.049 7.70668 126.061 6.40198 123.389 6.40198C120.236 6.40198 117.875 8.70075 117.875 12.0712V12.1955C117.875 15.6126 119.817 17.8492 123.451 17.8492Z" fill="#173C56"/>
<path d="M135.061 17.8492C137.686 17.8492 139.301 16.2805 139.301 14.3079C139.301 12.0091 137.919 11.2791 135.232 10.9374C133.523 10.6889 133.166 10.3161 133.166 9.52396C133.166 8.77841 133.725 8.26585 134.828 8.26585C135.931 8.26585 136.521 8.73181 136.676 9.74141H138.991C138.789 7.53583 137.329 6.41751 134.828 6.41751C132.374 6.41751 130.79 7.83094 130.79 9.72587C130.79 11.8693 131.955 12.7236 134.797 13.0964C136.428 13.3449 136.894 13.6555 136.894 14.5409C136.894 15.4107 136.164 16.0164 135.061 16.0164C133.415 16.0164 132.995 15.1932 132.887 14.1992H130.479C130.619 16.4203 132.017 17.8492 135.061 17.8492Z" fill="#173C56"/>
<path fill-rule="evenodd" clip-rule="evenodd" d="M24.2824 17.6715V2.41399H30.281C34.2873 2.41399 36.5153 4.03577 36.5153 7.25799V7.34334C36.5153 9.51994 35.3584 10.7363 33.7517 11.3551L37.4151 17.6715H32.7876L29.6812 12.2087H28.6528V17.6715H24.2824ZM28.6528 9.37056H30.0668C31.545 9.37056 32.2734 8.75173 32.2734 7.51406V7.4287C32.2734 6.19103 31.5022 5.70023 30.0882 5.70023H28.6528V9.37056ZM41.9141 17.9276C39.9002 17.9276 38.1221 16.946 38.1221 14.5773C38.1221 11.9526 40.3501 10.9283 44.0779 10.9283H45.149V10.6723C45.149 9.6053 44.892 8.9011 43.6708 8.9011C42.6211 8.9011 42.2354 9.51994 42.1497 10.2241H38.5506C38.7219 7.5354 40.8429 6.21237 43.9065 6.21237C46.9915 6.21237 48.9625 7.47138 48.9625 10.4375V17.6715H45.2347V16.3698C44.6991 17.1807 43.7137 17.9276 41.9141 17.9276ZM43.2423 15.3455C44.335 15.3455 45.1491 14.7267 45.1491 13.7664V13.0836H44.1421C42.5996 13.0836 41.9141 13.3823 41.9141 14.2999C41.9141 14.9401 42.3426 15.3455 43.2423 15.3455ZM55.3039 17.9276C52.7116 17.9276 50.5907 16.0711 50.5907 12.2087V12.038C50.5907 8.23959 52.6902 6.21237 55.3467 6.21237C57.1035 6.21237 58.1532 6.95924 58.7959 8.09021V1.60311H62.6308V17.6715H58.7959V15.8577C58.2389 17.01 56.9963 17.9276 55.3039 17.9276ZM56.6536 15.0041C58.0461 15.0041 58.903 14.0438 58.903 12.1447V11.9739C58.903 10.0961 58.1104 9.09315 56.6964 9.09315C55.261 9.09315 54.4898 10.0534 54.4898 11.9953V12.166C54.4898 14.0438 55.3253 15.0041 56.6536 15.0041ZM68.051 17.9276C66.0371 17.9276 64.259 16.946 64.259 14.5773C64.259 11.9526 66.487 10.9283 70.2148 10.9283H71.2859V10.6723C71.2859 9.6053 71.0288 8.9011 69.8077 8.9011C68.7579 8.9011 68.3723 9.51994 68.2866 10.2241H64.6874C64.8588 7.5354 66.9798 6.21237 70.0434 6.21237C73.1284 6.21237 75.0993 7.47138 75.0993 10.4375V17.6715H71.3716V16.3698C70.836 17.1807 69.8505 17.9276 68.051 17.9276ZM69.3792 15.3455C70.4718 15.3455 71.2859 14.7267 71.2859 13.7664V13.0836H70.279C68.7365 13.0836 68.051 13.3823 68.051 14.2999C68.051 14.9401 68.4794 15.3455 69.3792 15.3455ZM77.2846 17.6715H81.1194V12.3794C81.1194 10.5869 82.4048 9.86136 84.74 9.92538V6.36174C83.0047 6.3404 81.8264 7.06593 81.1194 8.73039V6.51112H77.2846V17.6715Z" fill="#007AFF"/>
<path fill-rule="evenodd" clip-rule="evenodd" d="M8.20125 0L0 19.9794L8.20125 16.6264L16.4025 20L8.20125 0Z" fill="#007AFF"/>
</svg>