<svg xmlns="http://www.w3.org/2000/svg" width="622" height="359" fill="none" viewBox="270 120 105 95"><circle cx="319" cy="174" r="46" fill="#F25A5A"></circle><g clip-path="url(#b)" fill="#fff"><path d="M297.285 155.169c1.994-.482 5.082-.759 7.87-.759 7.534 0 12.045 2.62 12.045 9.287 0 4.088-1.656 6.785-4.253 8.254l6.286 10.715c-.489.353-1.544.556-3.014.556-1.656 0-2.748-.198-3.538-.556l-5.232-9.287h-.603a27.068 27.068 0 0 1-3.878-.277v9.604c-.527.318-1.468.516-2.823.516-1.316 0-2.296-.2-2.86-.516v-27.537Zm5.612 12.892a18.8 18.8 0 0 0 3.237.278c3.275 0 5.271-1.236 5.271-4.325 0-3.178-2.108-4.484-5.872-4.484a14.215 14.215 0 0 0-2.636.235v8.296Z"></path><path d="M341.18 184.02c0 4.769-2.419 6.079-4.241 6.96-4.65 2.251-12.099-.367-20.017-1.164-7.169-.937-14.28-1.553-15.385.052-.415.407-.504 1.717 0 2.252 1.487 1.575 5.363.477 8.109-.02a2.458 2.458 0 0 1 2.258.829c.546.647.694 1.527.388 2.308a2.4 2.4 0 0 1-1.871 1.479 25.047 25.047 0 0 1-3.751.285c-2.674 0-6.036-.46-7.945-2.488-.95-1.008-1.923-2.799-1.173-5.601 1.428-5.309 9.973-3.998 19.874-3.001 6.893.693 14.371 3.001 17.359.882.761-.54 2.182-1.751 1.416-2.773-.766-1.023-2.019-.468-3.666-.468-8.25 0-13.108-5.309-13.108-14.167.001-6.655 2.755-11.308 7.244-13.517 1.951-.96 4.23-1.458 6.752-1.458 2.198 0 4.433.385 5.86 1.231.886 1.271 1.272 3.542 1.078 5.237-1.85-.885-3.546-1.348-5.743-1.348-5.436 0-9.176 2.773-9.176 9.47 0 6.697 3.701 9.354 8.905 9.354 1.482-.015 3.487-.194 6.014-.538.546 2.03.819 4.098.819 6.204Z"></path></g></svg>