 <svg width="64" height="64" viewBox="0 -4 35 30" xmlns="http://www.w3.org/2000/svg">
  <g fill="#3088F4" fill-rule="nonzero">
    <path d="M19.59 5.83a15.613 15.613 0 0 1 2.776 9.113.117.117 0 0 0 .215.063 12.5 12.5 0 0 0 .672-1.293 13.6 13.6 0 0 0 .292-10.571A14.27 14.27 0 0 0 12.784.151a.119.119 0 0 0-.025.228c2.765 1.103 5.142 3 6.831 5.451z"></path>
    <path d="M24.775 14.373a15.339 15.339 0 0 1-6.743 7.275.115.115 0 0 0 .051.215c.713.002 1.425-.053 2.129-.165a14.257 14.257 0 0 0 8.733-4.981 14.3 14.3 0 0 0-2.8-10.9.113.113 0 0 0-.2.089 15.2 15.2 0 0 1-1.17 8.467zM9.911 5.78c3.09-.213 6.167.55 8.8 2.18a.116.116 0 0 0 .165-.152 12.56 12.56 0 0 0-.646-1.027 13.569 13.569 0 0 0-9.07-5.716 14.6 14.6 0 0 0-8.023 7.858.116.116 0 0 0 .177.139A16.039 16.039 0 0 1 9.911 5.78z"></path>
    <path d="M20.503 23.334a14.733 14.733 0 0 1-10.385-2.193.116.116 0 0 0-.165.152c.264.48.56.942.887 1.382a14.478 14.478 0 0 0 9.088 5.513 14.614 14.614 0 0 0 8.048-7.884.116.116 0 0 0-.177-.139 16.2 16.2 0 0 1-7.296 3.169z"></path>
    <path d="M9.54 23.676a14.567 14.567 0 0 1-2.89-9.341.117.117 0 0 0-.215-.063c-.215.355-.406.71-.583 1.077a13.818 13.818 0 0 0-.355 10.634 14.39 14.39 0 0 0 10.913 3.093.119.119 0 0 0 .025-.228 16.1 16.1 0 0 1-6.895-5.172z"></path>
    <path d="M4.204 14.741a14.519 14.519 0 0 1 6.664-7.149.115.115 0 0 0-.051-.215c-.406-.013-.824 0-1.229.025a13.738 13.738 0 0 0-9.4 4.994 14.363 14.363 0 0 0 2.75 11 .113.113 0 0 0 .2-.089c-.43-2.9-.062-5.86 1.066-8.566zM89.314 8.492c0-.469.013-.951 0-1.42-.013-.279.089-.355.355-.355.951.013 1.9.013 2.865 0 .291 0 .38.089.38.38-.013 1.128 0 2.243 0 3.371v10.483a8.28 8.28 0 0 1-1.622 5.222 7.705 7.705 0 0 1-4.715 2.877 12.3 12.3 0 0 1-9.455-1.85c-.076-.051-.127-.1-.228-.177.507-.951 1.014-1.889 1.546-2.864.165.1.279.177.406.253a9.455 9.455 0 0 0 5.957 1.559 4.521 4.521 0 0 0 4.005-2.6 5.642 5.642 0 0 0 .393-2.8.86.86 0 0 0-.19.1 6.4 6.4 0 0 1-4.753 1.939 7.481 7.481 0 0 1-7.085-4.043 8.416 8.416 0 0 1 1.851-10.355 7.72 7.72 0 0 1 7.947-1.331 5.878 5.878 0 0 1 1.99 1.344c.091.094.176.194.253.3a.874.874 0 0 1 .1-.033zm-9.29 6.033a4.641 4.641 0 1 0 9.278 0 4.639 4.639 0 1 0-9.278 0zM136.931 22.574h-3.6v-1.9c-.317.279-.545.507-.786.7a6.753 6.753 0 0 1-5.476 1.508 7.4 7.4 0 0 1-5.45-3.447 8.914 8.914 0 0 1-1.318-5.919 8.27 8.27 0 0 1 1.572-4.119 7.579 7.579 0 0 1 9.734-2.079c.583.368 1.1.837 1.711 1.305v-.849c0-1.052 0-1.052 1.052-1.052.748 0 1.5.013 2.231 0 .241 0 .342.063.342.33-.013 5.108 0 10.216 0 15.324.001.046-.012.109-.012.198zm-3.5-7.947c-.064-.393-.089-.8-.178-1.191a4.666 4.666 0 0 0-7.592-2.51 4.911 4.911 0 0 0-1.572 4.474 4.585 4.585 0 0 0 4.385 4.081 4.7 4.7 0 0 0 4.959-4.854h-.002zM73.115 22.573h-3.84v-8.5a5.712 5.712 0 0 0-.418-2.294c-1.077-2.51-4.246-2.383-5.678-.976a4.087 4.087 0 0 0-1.242 2.928c-.025 2.8-.013 5.6-.013 8.4v.456h-3.8a3.815 3.815 0 0 1-.025-.393c0-5.006 0-10.026-.013-15.032 0-.33.076-.444.431-.444.989.025 1.977.013 2.966 0 .292 0 .38.089.368.38-.025.558 0 1.115 0 1.749.076-.076.114-.1.139-.127a5.329 5.329 0 0 1 4.309-2.357 6.015 6.015 0 0 1 6.781 6.033c.051 2.738.025 5.475.038 8.213l-.003 1.964zM110.355 6.717v9.139a7.754 7.754 0 0 1-.938 3.98 5.946 5.946 0 0 1-4.094 2.89 8.662 8.662 0 0 1-6.135-.684 5.949 5.949 0 0 1-3.118-4.728 15.7 15.7 0 0 1-.1-2.041c-.013-2.7 0-5.4-.013-8.1 0-.393.114-.469.482-.456.989.025 1.977.025 2.966 0 .317 0 .418.089.418.418-.013 2.9 0 5.818-.013 8.72a4.13 4.13 0 0 0 .507 2.155 3.291 3.291 0 0 0 3.4 1.47 3.131 3.131 0 0 0 2.814-3.257c.038-1.812.013-3.612.013-5.425 0-1.229 0-2.472.013-3.7 0-.114.127-.342.19-.342 1.147-.039 2.352-.039 3.608-.039zM47.728 8.542c-.659.8-1.306 1.584-1.977 2.408-.127-.114-.228-.215-.342-.3a4.761 4.761 0 0 0-3.587-1.293c-.677.01-1.28.432-1.521 1.065-.18.517-.006 1.09.431 1.42.344.25.719.454 1.115.608 1.293.57 2.636 1.039 3.891 1.686a4.052 4.052 0 0 1 2.408 3.891 4.646 4.646 0 0 1-2.586 4.145 8.1 8.1 0 0 1-9.81-2.015c-.177-.228-.177-.368.025-.57.646-.659 1.268-1.356 1.889-2.015.405.404.832.785 1.28 1.141a4.68 4.68 0 0 0 3.828.951c.37-.084.715-.249 1.014-.482a1.309 1.309 0 0 0 0-2.167c-.482-.33-1-.602-1.546-.811-1.115-.494-2.269-.9-3.359-1.445a4.047 4.047 0 0 1-2.357-3.878 4.254 4.254 0 0 1 2.383-3.891 7.6 7.6 0 0 1 8.568 1.255c.072.082.152.171.253.297zM117.172 22.573h-3.777V.038c.113-.015.228-.023.342-.025 1.027 0 2.053 0 3.08-.013.266 0 .393.051.393.368-.013 7.161-.013 14.715-.013 21.889a4.17 4.17 0 0 1-.025.316zM149.658 10.229c-.52-.076-1.027-.215-1.546-.241a3.734 3.734 0 0 0-4.145 3.422c-.08.554-.122 1.113-.127 1.673-.013 2.319 0 4.639 0 6.971v.506h-3.815v-.393c0-4.994 0-10-.013-14.994 0-.38.114-.482.469-.469.913.025 1.838.013 2.75.013h.431v2c.025.013.063.025.089.038.076-.1.165-.215.241-.317a5.041 5.041 0 0 1 5.78-1.876.384.384 0 0 1 .228.292c-.089 1.1-.19 2.218-.292 3.321-.025.016-.05.041-.05.054zM55.016 22.573h-3.8c-.013-.139-.025-.266-.025-.406 0-5.006 0-10.026-.013-15.032 0-.317.063-.444.418-.444a81.18 81.18 0 0 0 3.042 0c.266 0 .393.051.393.368-.013 5.07 0 10.14-.013 15.21.006.101.005.203-.002.304zM55.548 2.421A2.434 2.434 0 1 1 53.115.039a2.371 2.371 0 0 1 2.433 2.382z"></path>
  </g>
</svg>