<svg class="svg-icon" width="24" height="24" aria-hidden="true" role="img" focusable="false" viewBox="-5 -7 40 40" xmlns="http://www.w3.org/2000/svg"><title>split logo</title><defs><linearGradient x1="108.254%" y1="13.393%" x2="51.254%" y2="49.393%" id="a"><stop stop-color="#3C9FE6" offset="0%"></stop><stop stop-color="#77CFFD" offset="100%"></stop></linearGradient><linearGradient x1="91.254%" y1="76.393%" x2="-8.746%" y2="13.393%" id="b"><stop stop-color="#2285E1" offset="36%"></stop><stop stop-color="#2581CB" offset="79%"></stop></linearGradient></defs><g fill="none" fill-rule="nonzero"><path fill="url(#a)" d="M8.782 28.396V35l19.551-11.061v-6.604z"></path><path fill="#77CFFD" d="M8.782 12.712l19.551 11.062V17.17L8.782 6.108z"></path><path fill="#3195E3" d="M0 17.83L19.552 28.89v-6.604L0 11.226z"></path><path fill="url(#b)" d="M0 17.83L19.552 28.89v-6.604L0 11.226z"></path><path fill="#3195E3" d="M19.552 0L0 11.061v6.604L19.552 6.604z"></path><path d="M19.552 22.303v6.589l-5.823-3.295 5.823-3.294zm-10.77-9.606V6.108l5.823 3.295-5.823 3.294z" fill="#2285E1"></path><path d="M84.993 12.667v-2.552H82.54V5.118h-2.804v4.997h-2.022v2.552h2.022v12.33h2.804v-12.33h2.453zm-11.997 12.33H75.8V10.116h-2.804v14.883zm0-16.601H75.8V5.118h-2.804v3.278zm-6.282 16.602h2.804V5.118h-2.804v19.88zm-5.5-7.415c0 2.848-2.102 5.239-5.041 5.239-2.966 0-5.07-2.418-5.07-5.292 0-2.794 2.104-5.266 4.989-5.266 2.884 0 5.122 2.498 5.122 5.32zm2.804.161c0-4.486-3.127-8.034-7.737-8.034-2.13 0-4.071.913-5.312 2.686h-.055v-2.281h-2.56v19.852h2.804V22.85h.055c1.078 1.773 3.262 2.524 5.258 2.524 4.283 0 7.547-3.411 7.547-7.629zM46.09 20.62c0-2.875-2.049-4.084-4.503-4.836-1.024-.322-2.32-.618-2.32-1.934 0-.994.81-1.585 1.753-1.585 1.132 0 1.78.726 1.915 1.8h2.804c-.056-2.579-2.022-4.352-4.585-4.352-2.453 0-4.69 1.746-4.69 4.299 0 5.264 6.82 3.653 6.82 6.768 0 1.29-.917 2.042-2.157 2.042-1.67 0-2.426-1.182-2.534-2.713H35.79c0 2.337 1.16 4.137 3.37 4.916a5.87 5.87 0 001.913.35c2.86 0 5.016-1.827 5.016-4.755z" fill="#000"></path></g></svg>