<svg class="h-12 text-navy py-2" role="presentation" fill="none" xmlns="http://www.w3.org/2000/svg" viewBox="0 -15 127 48"><path d="M14.035 17.07C8.767 15.876 6.05 13.82 6.05 10.9c0-3.003 2.84-5.306 6.668-5.306 3.91 0 6.873 2.509 6.873 5.8v.246h5.392v-.247C24.983 5.347 19.756.781 12.8.781c-3.334 0-6.42 1.029-8.643 2.92C1.893 5.636.659 8.309.659 11.23c0 2.756 1.07 5.1 3.169 6.95 1.893 1.646 4.527 2.88 7.902 3.62 5.68 1.276 8.56 3.414 8.56 6.376 0 3.208-3.127 5.635-7.284 5.635-4.28 0-7.532-2.715-7.532-6.293v-.247H0v.247c0 6.334 5.556 11.105 12.882 11.105 3.499 0 6.75-1.07 9.096-3.044 2.387-2.015 3.704-4.77 3.704-7.856 0-5.306-3.91-8.884-11.647-10.653ZM44.286 9.707c-4.198 0-7.944 1.892-10.372 5.224v-4.566H28.81v37.594h5.145V33.645c2.429 3.332 6.133 5.224 10.372 5.224 7.985 0 13.994-6.252 13.994-14.56C58.28 16 52.27 9.706 44.286 9.706Zm8.643 15.67c-.412 4.443-3.951 8.021-8.396 8.474-2.881.288-5.556-.535-7.532-2.345s-3.087-4.36-3.087-7.198c0-5.47 4.075-9.583 9.508-9.583 2.798 0 5.309 1.07 7.12 3.044 1.81 1.974 2.675 4.689 2.387 7.609ZM121.333 10.365v4.566c-2.428-3.332-6.173-5.183-10.413-5.183-7.943 0-13.952 6.129-13.952 14.314 0 8.144 6.009 14.313 13.952 14.313 4.24 0 7.985-1.85 10.413-5.141v.7c0 5.675-3.539 9.336-9.055 9.336-3.704 0-6.832-1.645-8.272-4.36l-.083-.123h-5.309l.124.37c.946 2.715 2.675 4.977 4.98 6.54 2.346 1.563 5.309 2.385 8.56 2.385 4.199 0 7.738-1.316 10.29-3.866 2.552-2.51 3.91-6.046 3.91-10.2V10.364h-5.145Zm-2.881 20.689c-2.181 2.098-5.309 2.961-8.561 2.386-3.91-.658-6.955-3.826-7.49-7.856-.453-3.25.535-6.335 2.675-8.474 1.77-1.727 4.157-2.673 6.791-2.673.617 0 1.193.041 1.811.165 3.91.617 7.038 3.866 7.532 7.897.452 3.331-.535 6.457-2.758 8.555ZM91.33.082a3.87 3.87 0 0 0-3.54.987c-.906.905-1.276 2.221-.988 3.538.288 1.357 1.44 2.509 2.799 2.797.288.082.576.082.864.082.988 0 1.975-.37 2.675-1.11.906-.906 1.276-2.222.988-3.538-.288-1.316-1.4-2.427-2.799-2.756ZM87.913 33.234h-4.445c-3.17 0-5.062-2.139-5.062-5.717 0-3.496 1.687-7.692 5.144-12.75l.042-.083v-1.44l-14.735-2.098c0-1.233-.658-2.426-1.729-3.002-1.317-.74-2.757-.74-3.95-.041-1.153.658-1.853 1.933-1.853 3.25a3.72 3.72 0 0 0 2.305 3.454L59.061 38.17h5.104l4.24-22.211 7.943 1.357c-2.14 3.825-3.21 7.404-3.21 10.612 0 5.923 3.58 9.83 9.383 10.2v.042h10.496V10.447h-5.145v22.787h.041Z" fill="currentColor"></path></svg>