<svg width="50" height="50" viewBox="0 -10 60 60" fill="#000000" xmlns="http://www.w3.org/2000/svg">
<path d="M12.4597 11.6497V0.00390625C9.16207 0.00388933 5.99891 1.31713 3.66341 3.65583C1.3279 5.99454 0.0105381 9.16797 0 12.4807L0 12.5207C0.0110359 15.8274 1.32429 18.9954 3.65288 21.3326C5.98148 23.6698 9.13617 24.9863 12.4278 24.9945H12.4587C15.7502 24.986 18.9046 23.6695 21.233 21.3323C23.5614 18.9951 24.8745 15.8273 24.8855 12.5207V0.00390625C21.7317 0.00483236 18.6956 1.20719 16.3896 3.36847C14.0835 5.52976 12.6792 8.48913 12.4597 11.6497Z" fill="#000000"/>
<path d="M37.3134 24.9996H49.7731C49.7722 21.8315 48.5755 18.7816 46.4243 16.465C44.273 14.1484 41.3274 12.7375 38.1814 12.5168H49.7731C49.7734 9.20414 48.4664 6.02649 46.1385 3.68026C43.8106 1.33402 40.6518 0.0105869 37.3542 0L37.3144 0C34.0222 0.0102954 30.8679 1.32921 28.5407 3.66857C26.2135 6.00792 24.9027 9.17752 24.8945 12.4848V12.5158C24.9029 15.8227 26.2138 18.9919 28.5407 21.331C30.8677 23.6701 34.0216 24.989 37.3134 24.9996Z" fill="#000000"/>
<path d="M12.4636 24.9995H0.00390625C0.00414734 28.1665 1.19942 31.2157 3.34881 33.5325C5.4982 35.8492 8.44191 37.2614 11.5866 37.4843H0.00390625C0.00389024 40.797 1.31117 43.9745 3.63924 46.3206C5.96731 48.6666 9.12626 49.9898 12.4238 50.0001H12.4636C15.7553 49.989 18.9088 48.6697 21.2353 46.3305C23.5619 43.9912 24.8723 40.8221 24.8805 37.5153V37.4843C24.8723 34.1775 23.5619 31.0084 21.2353 28.6691C18.9088 26.3299 15.7553 25.0106 12.4636 24.9995Z" fill="#000000"/>
<path d="M37.3542 25.0039H37.3234C34.0312 25.0118 30.8759 26.3285 28.5471 28.6661C26.2182 31.0038 24.905 34.1724 24.8945 37.4797V49.9965C28.0477 49.9962 31.0835 48.7949 33.3898 46.6348C35.6961 44.4747 37.1014 41.5166 37.3224 38.3567V49.9965C40.6199 49.9968 43.7831 48.6838 46.1186 46.3452C48.4541 44.0067 49.7715 40.8333 49.7821 37.5207V37.4807C49.7715 34.1735 48.4586 31.0049 46.1299 28.6671C43.8013 26.3293 40.6463 25.0123 37.3542 25.0039Z" fill="#000000"/>
</svg>