
<svg id="Ebene_1" data-name="Ebene 1" xmlns="http://www.w3.org/2000/svg" viewBox="0 -10 300 300"><defs><style>.cls-1{fill:#231f20;}.cls-2{fill:#05c8ff;}.cls-3{fill:#1469ff;}.cls-4{fill:#000078;}</style></defs><path class="cls-1" d="M429.3,184.9c-4.9-6.2-12-10.3-22.1-10.3-19.6,0-35.1,15.5-35.1,37s15.5,37,35.1,37c10,0,17.1-4,22.1-10.3v8.4h15.3V176.4H429.3v8.5Zm-20.2,49.2c-13.2,0-21.2-10.2-21.2-22.5s8-22.5,21.2-22.5c12.6,0,21.2,9.7,21.2,22.5S421.7,234.1,409.1,234.1ZM380,144H297v15.7h33.2v87h16.6v-87H380Zm160.8,30.6c-21.7,0-37.8,15.9-37.8,37s16.1,37,37.8,37,37.8-15.9,37.8-37S562.5,174.6,540.8,174.6Zm0,59.5c-12.5,0-22-9.2-22-22.5s9.5-22.5,22-22.5,22.1,9.2,22.1,22.5S553.3,234.1,540.8,234.1Zm-72.2,12.6H484V144H468.6Zm410.5-72.1c-7.2,0-15.9,2.2-21.6,10.4v-8.6H842.3v70.3h15.4V207.8c0-12,8.3-18.6,18.2-18.6,10.3,0,16.3,6.6,16.3,18.4v39.1h15.4V202.5C907.6,186.1,895.8,174.6,879.1,174.6Zm-247.7,0c-7.2,0-15.9,2.2-21.6,10.4v-8.6H594.5v70.3H610V207.8c0-12,8.3-18.6,18.2-18.6,10.3,0,16.3,6.6,16.3,18.4v39.1h15.4V202.5C659.9,186.1,648.1,174.6,631.4,174.6ZM994,211.5c0-21.9-13.6-36.9-33.2-36.9-20.7,0-35,15-35,37,0,22.3,14.8,37,35.9,37,10.6,0,20.3-2.6,28.8-9.9l-9.5-9.5a33,33,0,0,1-18.3,6c-9.9,0-18.9-5.3-20.9-17.9h51.9A54.9,54.9,0,0,0,994,211.5Zm-52.1-6c1.5-10.3,7.7-17.3,18.6-17.3,9.7,0,16.1,6.4,17.8,17.3ZM771.1,142.1c-31.5,0-53.7,22.5-53.7,53.2s22.2,53.3,53.7,53.3,53.7-22.5,53.7-53.3S802.6,142.1,771.1,142.1Zm0,90.6c-20.9,0-36.4-15.2-36.4-37.3s15.5-37.3,36.4-37.3,36.4,15.2,36.4,37.3S792,232.7,771.1,232.7Zm-78.5-9.9a13.16,13.16,0,0,0-12.8,12.8c0,6.8,6.1,12.9,12.8,12.9a12.85,12.85,0,0,0,0-25.7Z"/><polygon class="cls-2" points="72 306 72 144 234 144 72 306"/><polygon class="cls-3" points="144 144 0 144 0 0 144 144"/><polygon class="cls-4" points="0 144 72 144 72 216 0 144"/></svg>