<svg version="1.1" id="Layer_1" xmlns="http://www.w3.org/2000/svg" xmlns:xlink="http://www.w3.org/1999/xlink" x="0px" y="0px"
	 viewBox="0 -10 45 45" style="enable-background:new 0 0 214.1 33;" xml:space="preserve">
<style type="text/css">
	.st0{fill:#5A198B;}
</style>
<polygon class="st0" points="55.2,12.2 60,12.2 60,24.1 64.5,24.1 64.5,12.2 69.3,12.2 69.3,8.4 55.2,8.4 "/>
<path class="st0" d="M79,8.4l-6.2,15.7h4.9l1-3.1h4.4l1,3.1h4.8L82.7,8.4H79z M79.3,18.2l1.6-5.3l1.5,5.3H79.3z"/>
<path class="st0" d="M106.1,10.1c-0.5-0.5-1.1-0.9-1.8-1.2c-0.7-0.3-1.4-0.5-2.3-0.5h-7.2v15.7h4.6v-4.8h2.7c0.8,0,1.6-0.1,2.3-0.5
	c0.7-0.3,1.3-0.7,1.8-1.2c0.5-0.5,0.9-1.1,1.1-1.7c0.3-0.7,0.4-1.3,0.4-2c0-0.7-0.1-1.3-0.4-2C107,11.2,106.6,10.6,106.1,10.1z
	 M102.6,15.2c-0.2,0.2-0.5,0.4-0.8,0.4h-2.4v-3.4h2.3c0.3,0,0.6,0.1,0.9,0.4c0.3,0.2,0.4,0.7,0.4,1.3
	C103,14.5,102.9,14.9,102.6,15.2z"/>
<polygon class="st0" points="118.6,8.4 114,8.4 114,24.1 126.1,24.1 126.1,20.4 118.6,20.4 "/>
<polygon class="st0" points="136.4,15.2 133.4,8.4 128.5,8.4 134.1,18.9 134.1,24.1 138.7,24.1 138.7,18.9 144.4,8.4 139.4,8.4 "/>
<polygon class="st0" points="149.1,12.2 153.9,12.2 153.9,24.1 158.4,24.1 158.4,12.2 163.1,12.2 163.1,8.4 149.1,8.4 "/>
<rect x="169.4" y="8.4" class="st0" width="4.7" height="15.7"/>
<path class="st0" d="M191,19.5c-0.2,0.2-0.4,0.4-0.7,0.6c-0.3,0.1-0.5,0.3-0.8,0.3c-0.3,0.1-0.5,0.1-0.8,0.1c-0.5,0-1-0.1-1.4-0.3
	c-0.4-0.2-0.8-0.5-1-0.9c-0.3-0.4-0.5-0.8-0.7-1.3c-0.1-0.5-0.2-1-0.2-1.6c0-0.5,0.1-1,0.2-1.5c0.1-0.5,0.3-0.9,0.6-1.3
	c0.3-0.4,0.6-0.7,1-0.9c0.4-0.2,0.9-0.4,1.5-0.4c0.2,0,0.5,0,0.8,0.1c0.3,0.1,0.6,0.2,0.8,0.3c0.3,0.1,0.5,0.4,0.7,0.6
	c0.2,0.3,0.4,0.6,0.6,1l3.5-2.3c-0.5-1-1.3-1.9-2.5-2.5c-1.1-0.6-2.4-0.9-3.9-0.9c-1.3,0-2.4,0.2-3.4,0.7c-1,0.5-1.8,1.1-2.5,1.8
	c-0.7,0.7-1.2,1.6-1.6,2.5c-0.4,0.9-0.5,1.9-0.5,2.8c0,1,0.2,2,0.6,3c0.4,1,0.9,1.8,1.6,2.6c0.7,0.8,1.5,1.4,2.5,1.8
	c1,0.5,2,0.7,3.2,0.7c0.7,0,1.3-0.1,2-0.2c0.7-0.2,1.3-0.4,1.9-0.7c0.6-0.3,1.1-0.7,1.6-1.2c0.5-0.5,0.8-1,1.1-1.5l-3.7-2.1
	C191.4,18.9,191.2,19.2,191,19.5z"/>
<path class="st0" d="M212.8,16.1c-0.4-0.4-1-0.7-1.6-0.9c-0.6-0.3-1.3-0.5-2.1-0.7c-0.5-0.2-0.9-0.3-1.3-0.4c-0.4-0.1-0.7-0.2-1-0.3
	c-0.3-0.1-0.5-0.2-0.6-0.4c-0.1-0.1-0.2-0.3-0.2-0.5c0-0.3,0.1-0.5,0.4-0.6c0.2-0.1,0.6-0.2,1-0.2c0.5,0,1,0.1,1.5,0.2
	c0.5,0.1,1,0.3,1.4,0.5c0.5,0.2,1,0.5,1.5,0.7l2-3.6c-0.4-0.2-0.8-0.4-1.3-0.6c-0.5-0.2-1-0.4-1.5-0.6c-0.5-0.2-1.1-0.3-1.7-0.4
	c-0.6-0.1-1.2-0.2-1.8-0.2c-0.8,0-1.6,0.1-2.4,0.3c-0.7,0.2-1.4,0.6-2,1c-0.6,0.4-1,1-1.4,1.7c-0.3,0.7-0.5,1.4-0.5,2.3
	c0,0.6,0.1,1.1,0.2,1.5c0.2,0.5,0.4,0.8,0.8,1.2c0.3,0.3,0.8,0.7,1.3,0.9c0.5,0.3,1.2,0.5,1.9,0.8c0.5,0.2,1,0.3,1.4,0.4
	c0.4,0.1,0.8,0.2,1.2,0.4c0.3,0.1,0.6,0.3,0.8,0.4c0.2,0.2,0.3,0.3,0.3,0.6c0,0.2-0.1,0.4-0.3,0.5c-0.2,0.1-0.5,0.2-1,0.2
	c-0.7,0-1.3-0.1-1.9-0.3c-0.6-0.2-1.2-0.4-1.7-0.6c-0.6-0.2-1.2-0.5-1.7-0.9l-2,3.8c0.5,0.3,1,0.5,1.6,0.8c0.6,0.2,1.2,0.4,1.8,0.6
	c0.6,0.2,1.3,0.3,1.9,0.4c0.6,0.1,1.3,0.1,1.9,0.1c0.8,0,1.5-0.1,2.3-0.3c0.8-0.2,1.4-0.5,2-0.8c0.6-0.4,1.1-0.9,1.5-1.5
	c0.4-0.6,0.6-1.4,0.6-2.4c0-0.7-0.1-1.4-0.4-1.9C213.6,16.9,213.2,16.4,212.8,16.1z"/>
<polygon class="st0" points="8.2,12.8 14.1,12.8 14.1,24.3 18.5,24.3 18.5,8.4 8.2,8.4 "/>
<polygon class="st0" points="27.6,8.4 23.2,8.4 23.2,24.3 33.5,24.3 33.5,20 27.6,20 "/>
<path class="st0" d="M0,33h41.7V0H0V33z M1.5,1.6h38.7v29.9H1.5V1.6z"/>
</svg>