<?xml version="1.0" encoding="utf-8"?>
<!-- Generator: Adobe Illustrator 25.2.1, SVG Export Plug-In . SVG Version: 6.00 Build 0)  -->
<svg version="1.1" id="Layer_1" xmlns="http://www.w3.org/2000/svg" xmlns:xlink="http://www.w3.org/1999/xlink" x="0px" y="0px"
	 viewBox="0 0 142.5 164" style="enable-background:new 0 0 142.5 164;" xml:space="preserve">
<style type="text/css">
	.st0{fill:#24D6E0;}
	.st1{fill:#0AB7C9;}
</style>
<g>
	<g>
		<path class="st0" d="M70.8,82.3c-0.1-4.4-2.7-8-5.8-7.9c-3.1,0.1-5.6,3.7-5.5,8.2c0.1,4.4,2.7,8,5.8,7.9
			C68.4,90.4,70.9,86.7,70.8,82.3z"/>
		<path class="st0" d="M52.1,95.7c-0.7-4.1,0.7-7.8,3.1-8.2c2.5-0.4,5,2.5,5.7,6.6c0.7,4.1-0.7,7.8-3.1,8.2
			C55.4,102.8,52.8,99.8,52.1,95.7z"/>
		<path class="st0" d="M52.6,103.8c-1.1-3.7-3.3-6.2-5.1-5.7c-1.7,0.5-2.3,3.9-1.2,7.5c1.1,3.7,3.3,6.2,5.1,5.7
			C53.1,110.8,53.7,107.4,52.6,103.8z"/>
		<path class="st0" d="M60.3,69c-0.1-4-2-7.2-4.4-7.2c-2.3,0-4.2,3.3-4.1,7.3c0.1,4,2,7.2,4.3,7.2C58.5,76.3,60.3,73,60.3,69z"/>
		<path class="st0" d="M51.9,58.4c-0.1-3.6-1.7-6.4-3.6-6.4c-1.9,0-3.4,3-3.3,6.5c0.1,3.6,1.7,6.4,3.6,6.4
			C50.5,64.9,51.9,61.9,51.9,58.4z"/>
	</g>
	<path class="st1" d="M103,83.7c-0.1-5.7-4.8-10.2-10.5-10.1c-5.7,0.1-10.2,4.8-10.1,10.5c0.1,5.7,4.8,10.2,10.5,10.1
		C98.6,94,103.1,89.4,103,83.7z"/>
	<path class="st1" d="M72.1,92.1c3.2-2,8.1,0.1,10.9,4.6c2.8,4.5,2.5,9.8-0.7,11.8c-3.2,2-8-0.1-10.9-4.6
		C68.6,99.4,68.9,94.1,72.1,92.1z"/>
	<path class="st1" d="M62.2,103.6c2.7-1.1,6.4,1.5,8.2,5.9c1.8,4.4,1.1,8.9-1.6,10c-2.7,1.1-6.4-1.5-8.2-5.9
		C58.8,109.2,59.5,104.8,62.2,103.6z"/>
	<path class="st1" d="M53.3,112.5c1.9-0.7,4.7,2.1,6.2,6.3c1.6,4.2,1.3,8.1-0.6,8.8c-1.9,0.7-4.7-2.1-6.3-6.3
		C51.1,117.1,51.4,113.2,53.3,112.5z"/>
	<path class="st1" d="M79.9,57.1c3.6,1.1,5.3,6,3.8,11.1c-1.5,5.1-5.6,8.4-9.2,7.3c-3.6-1.1-5.3-6-3.9-11.2
		C72.1,59.3,76.3,56,79.9,57.1z"/>
	<path class="st1" d="M66.8,45.3c2.9,0.8,4.1,5.1,2.9,9.7c-1.3,4.6-4.5,7.6-7.4,6.9c-2.8-0.8-4.1-5.1-2.9-9.7
		C60.6,47.6,64,44.5,66.8,45.3z"/>
	<path class="st1" d="M56.9,36.3c2,0.4,2.8,4.3,1.9,8.6c-0.9,4.4-3.3,7.5-5.3,7.1c-2-0.4-2.8-4.3-1.9-8.6
		C52.5,39.1,54.9,35.9,56.9,36.3z"/>
</g>
</svg>
