<svg version="1.1" id="Layer_1" xmlns="http://www.w3.org/2000/svg" xmlns:xlink="http://www.w3.org/1999/xlink" x="0px" y="0px"
	 width="100%" viewBox="0 0 200 200" enable-background="new 0 0 200 200" xml:space="preserve">
<path fill="#0299F8" opacity="1.000000" stroke="none" 
	d="
M1.000000,198.000000 
	C1.000000,132.406113 1.000000,66.812241 1.000000,1.000000 
	C66.687401,1.000000 132.375046,1.000000 198.530609,1.468657 
	C198.983215,67.289024 198.967911,132.640732 198.572418,197.985443 
	C195.502502,197.616486 192.806564,196.904526 190.124069,196.952026 
	C177.182007,197.181335 164.244385,197.858337 151.303604,197.901779 
	C140.359161,197.938522 129.414352,197.159637 118.466461,197.040451 
	C103.561623,196.878189 88.652428,196.883652 73.747536,197.043594 
	C64.794945,197.139664 55.849007,197.863205 46.896458,197.956177 
	C31.599134,198.115021 16.298971,198.000000 1.000000,198.000000 
M72.250496,75.656868 
	C72.474236,75.363533 72.697975,75.070198 72.915695,74.916306 
	C72.915695,74.916306 72.776649,74.904213 73.288033,74.707359 
	C73.517090,74.430489 73.746155,74.153618 73.966942,73.970123 
	C73.966942,73.970123 73.873795,73.959625 74.361588,73.769226 
	C74.573715,73.499916 74.785843,73.230606 75.003822,73.006432 
	C75.003822,73.006432 74.963455,72.985405 75.586029,72.911621 
	C75.957008,72.449394 76.327995,71.987167 76.731277,71.662231 
	C76.731277,71.662231 76.590683,71.673431 77.145935,71.555756 
	C77.392540,71.280212 77.639153,71.004669 77.866684,70.833595 
	C77.866684,70.833595 77.764717,70.803932 78.403374,70.837502 
	C78.984329,69.999802 79.565285,69.162094 79.918175,68.267365 
	C79.918175,68.267365 79.816978,68.055168 79.389351,67.526955 
	C78.950630,67.310699 78.511391,66.905014 78.073273,66.906219 
	C69.735680,66.929306 61.396095,66.927132 53.063896,67.169655 
	C52.188023,67.195152 51.355843,68.721794 50.514202,69.426788 
	C50.514202,69.426788 50.582165,69.532478 49.860535,69.561501 
	C49.256321,70.733299 48.652107,71.905098 48.016483,73.016289 
	C48.016483,73.016289 48.080975,72.993896 47.596191,73.436966 
	C47.444393,73.844398 47.292595,74.251839 47.234520,74.822411 
	C47.234520,74.822411 47.079597,74.929161 46.681145,75.322876 
	C46.588123,75.677551 46.495102,76.032227 46.403671,76.277809 
	C46.403671,76.277809 46.477982,76.357697 45.716293,76.536415 
	C45.224167,77.919098 44.732040,79.301781 44.288403,80.792717 
	C44.288403,80.792717 44.188976,80.857399 43.537895,81.230354 
	C43.193760,81.584656 42.703609,81.878006 42.526596,82.302071 
	C36.202541,97.452179 36.814045,112.553040 42.973103,127.576332 
	C43.180447,128.082092 43.978817,128.345551 44.410877,128.750931 
	C44.410877,128.750931 44.437263,128.659317 44.229141,129.438812 
	C45.292862,131.215607 46.356583,132.992416 47.337547,134.767227 
	C47.337547,134.767227 47.360317,134.687653 47.185829,135.429306 
	C48.145309,136.614548 49.104790,137.799789 50.003395,138.992661 
	C50.003395,138.992661 50.025955,138.935608 49.996712,139.580200 
	C50.551384,140.358810 51.106056,141.137421 52.199635,142.368607 
	C58.184227,147.463699 64.168816,152.558792 70.454063,158.212784 
	C71.024658,158.436508 71.595253,158.660233 72.061569,158.920959 
	C72.061569,158.920959 72.029350,158.815109 72.413040,159.323212 
	C73.003105,159.499588 73.593178,159.675964 74.083824,159.881653 
	C74.083824,159.881653 74.061714,159.780380 74.412239,160.313980 
	C74.998077,160.497635 75.583916,160.681274 76.077545,160.888229 
	C76.077545,160.888229 76.061089,160.794571 76.326042,161.447693 
	C77.659218,162.158997 79.560211,163.787567 80.205711,163.388000 
	C81.493904,162.590561 82.706970,160.743637 82.864517,159.217957 
	C83.383911,154.187973 83.483147,149.108856 83.555725,144.045914 
	C83.564590,143.427078 82.431862,142.791885 81.887512,142.125778 
	C81.887512,142.125778 81.817398,142.116470 81.855850,141.804626 
	C81.839676,141.587845 81.749306,141.408493 81.136108,140.829636 
	C81.046165,140.641251 80.956215,140.452866 80.764839,139.551727 
	C79.763428,139.107162 78.762016,138.662613 77.862122,138.179108 
	C77.862122,138.179108 77.890228,138.284149 77.610916,137.788406 
	C77.272064,137.637833 76.933220,137.487274 76.724792,137.325714 
	C76.724792,137.325714 76.713936,137.456161 76.483688,136.955093 
	C76.150291,136.838959 75.816895,136.722824 75.540001,136.100189 
	C75.512512,136.268326 75.485031,136.436478 75.365860,135.985229 
	C74.857796,135.688232 74.349731,135.391235 73.937691,135.070801 
	C73.937691,135.070801 73.956459,135.167847 73.696381,134.678452 
	C73.387711,134.485718 73.079041,134.292984 72.907654,134.096420 
	C72.907654,134.096420 72.904633,134.233734 72.674393,133.718826 
	C72.367027,133.513580 72.059654,133.308334 71.901924,133.091492 
	C71.901924,133.091492 71.906670,133.241516 71.663437,132.730957 
	C71.353981,132.526215 71.044525,132.321472 70.883560,132.115295 
	C70.883560,132.115295 70.876579,132.263626 70.677666,131.740082 
	C70.388367,131.514145 70.099060,131.288208 69.934753,131.059799 
	C69.934753,131.059799 69.932678,131.184814 69.718628,130.693192 
	C69.444801,130.471039 69.170967,130.248901 68.966171,130.030319 
	C68.966171,130.030319 68.945923,130.096436 68.851028,129.478897 
	C68.410019,129.081192 67.969009,128.683472 67.681541,128.231918 
	C67.681541,128.231918 67.563599,128.343994 67.765892,127.600189 
	C66.676872,126.177048 65.587845,124.753914 64.613609,123.124542 
	C64.613609,123.124542 64.547043,123.350983 64.752213,122.554893 
	C64.587433,121.582268 64.616135,120.523537 64.227554,119.650528 
	C60.853935,112.071220 60.263947,104.241943 62.040501,96.206169 
	C62.819527,92.682434 63.771542,89.196953 64.660133,85.781784 
	C64.660133,85.781784 64.575905,85.753098 65.277359,85.611900 
	C67.139702,82.680984 69.002052,79.750076 70.898628,76.913269 
	C70.898628,76.913269 70.802452,76.941193 71.294418,76.674255 
	C71.485748,76.360222 71.677078,76.046188 71.873619,75.874893 
	C71.873619,75.874893 71.730843,75.870995 72.250496,75.656868 
M91.723923,109.069298 
	C91.723923,109.069298 91.947517,109.210510 91.971916,109.575363 
	C92.338692,109.492821 92.705460,109.410278 93.830574,109.222580 
	C94.847504,109.257599 95.864433,109.292610 97.287361,109.933365 
	C100.568115,109.732773 103.848862,109.532188 107.952209,109.197533 
	C108.785431,109.187576 109.618660,109.177612 111.084038,109.066650 
	C111.495247,108.429146 112.267105,107.790695 112.265434,107.154274 
	C112.209755,85.857224 112.099747,64.560219 111.926056,43.263786 
	C111.911545,41.484356 111.395340,39.709015 110.993629,37.508862 
	C110.993629,37.508862 110.923180,37.075314 110.702583,36.336994 
	C109.831245,35.957012 108.962563,35.253273 108.088165,35.246101 
	C96.826836,35.153679 85.564316,35.115929 74.303345,35.211781 
	C73.182808,35.221321 72.070496,36.198029 70.871590,36.908230 
	C70.871590,36.908230 70.673347,36.936817 70.009117,37.281727 
	C69.741196,43.172237 69.284256,49.066078 69.387901,54.950043 
	C69.405556,55.952843 71.746681,57.601631 73.148308,57.758945 
	C76.749611,58.163151 80.439621,58.095520 84.069206,57.848938 
	C88.634483,57.538795 90.185616,59.432655 90.112160,63.940083 
	C89.904205,76.699516 90.000908,89.464775 90.079254,102.227104 
	C90.091103,104.156525 90.645996,106.082619 91.002663,108.042549 
	C91.002663,108.042549 90.955276,108.082588 90.929459,108.493988 
	C91.006058,108.780037 91.182793,108.975349 91.723923,109.069298 
M126.457695,72.512398 
	C126.457695,72.512398 126.532585,72.444664 126.623322,73.056023 
	C127.136871,73.326622 127.650429,73.597221 128.093552,73.894844 
	C128.093552,73.894844 128.089661,73.819496 128.280350,74.300659 
	C128.539383,74.521317 128.798431,74.741974 129.388245,75.540855 
	C131.602936,77.989708 134.244324,80.172127 135.965775,82.928970 
	C151.704590,108.133980 136.121002,141.274719 106.637123,145.182205 
	C101.661652,145.841599 96.523720,145.275284 91.374931,145.275284 
	C91.374931,151.972519 91.374931,158.352142 91.374931,165.013275 
	C97.863731,165.013275 104.107254,165.828033 110.061203,164.860626 
	C127.974678,161.950043 142.712326,153.578903 153.203979,137.561615 
	C153.627853,136.580292 154.051727,135.598984 154.998199,134.939209 
	C154.822311,134.835693 154.646439,134.732178 155.065125,134.394287 
	C155.207962,133.816605 155.350800,133.238937 155.694748,132.710815 
	C155.694748,132.710815 155.512970,132.611526 156.225357,132.492844 
	C156.503647,132.316742 156.916489,132.207108 157.041046,131.955032 
	C165.944138,113.939438 165.713455,95.826141 157.488770,77.678535 
	C157.225449,77.097504 156.168381,76.876213 155.446442,76.446793 
	C155.446442,76.446793 155.452957,76.393799 155.482437,75.870964 
	C155.272995,75.604759 155.063553,75.338554 154.935379,75.065994 
	C154.935379,75.065994 154.887909,75.132240 154.875244,74.396599 
	C153.442505,72.385857 152.009781,70.375107 150.974274,68.004921 
	C150.839386,68.122185 150.704498,68.239449 150.639954,67.703384 
	C150.064850,67.149750 149.489746,66.596107 148.987091,66.015633 
	C148.987091,66.015633 148.940079,66.076942 148.986237,65.342506 
	C146.867294,63.360744 144.748337,61.378983 142.711777,59.199680 
	C142.711777,59.199680 142.682236,59.411659 142.484787,58.919453 
	C142.169174,58.793304 141.853561,58.667156 141.560379,58.437359 
	C141.560379,58.437359 141.478180,58.504356 141.454025,57.796993 
	C140.198227,56.971363 138.942444,56.145733 137.766937,55.263844 
	C137.766937,55.263844 137.758835,55.361546 137.522385,54.894428 
	C137.201019,54.797619 136.879654,54.700809 136.477859,54.611202 
	C136.477859,54.611202 136.433044,54.544041 136.400757,53.842892 
	C135.469742,53.437206 134.538727,53.031521 133.496826,52.640667 
	C133.496826,52.640667 133.443024,52.542587 133.422424,51.838585 
	C130.056381,49.235092 127.181732,45.492512 121.529343,47.028534 
	C121.349648,47.056957 121.169960,47.085384 120.258156,47.333973 
	C119.917892,53.654026 119.534477,59.972542 119.309731,66.296700 
	C119.289169,66.875427 120.284050,67.490242 120.933853,68.151901 
	C120.933853,68.151901 120.868134,68.277267 121.019241,68.826012 
	C121.491241,69.082672 121.963242,69.339325 122.333977,69.628105 
	C122.333977,69.628105 122.378395,69.531601 122.493553,70.227325 
	C123.456619,70.654198 124.419678,71.081062 125.330704,71.602890 
	C125.330704,71.602890 125.428665,71.556755 125.563492,72.049454 
	C125.865189,72.170311 126.166878,72.291161 126.457695,72.512398 
z"/>
<path fill="#0398F5" opacity="1.000000" stroke="none" 
	d="
M1.000000,198.333328 
	C16.298971,198.000000 31.599134,198.115021 46.896458,197.956177 
	C55.849007,197.863205 64.794945,197.139664 73.747536,197.043594 
	C88.652428,196.883652 103.561623,196.878189 118.466461,197.040451 
	C129.414352,197.159637 140.359161,197.938522 151.303604,197.901779 
	C164.244385,197.858337 177.182007,197.181335 190.124069,196.952026 
	C192.806564,196.904526 195.502502,197.616486 198.580429,198.317139 
	C198.967468,199.098007 198.966324,199.540161 198.500092,199.987122 
	C132.356659,199.994614 66.678329,199.997314 1.000000,200.000000 
	C1.000000,199.555557 1.000000,199.111099 1.000000,198.333328 
z"/>
<path fill="#33B7FF" opacity="1.000000" stroke="none" 
	d="
M200.000000,1.000001 
	C200.333328,2.333335 200.957306,3.666457 200.958282,5.000032 
	C201.005936,70.333328 201.000000,135.666672 200.473358,200.749893 
	C199.928238,200.333145 199.909744,200.166489 199.921463,199.532074 
	C199.967773,133.042862 199.983887,67.021431 200.000000,1.000001 
z"/>
<path fill="#0992E2" opacity="1.000000" stroke="none" 
	d="
M199.750000,1.000000 
	C199.983887,67.021431 199.967773,133.042862 199.690338,199.533051 
	C199.429001,200.001816 198.965179,199.982330 198.965179,199.982330 
	C198.966324,199.540161 198.967468,199.098007 198.960602,198.324142 
	C198.967911,132.640732 198.983215,67.289024 198.999268,1.468657 
	C199.000000,1.000000 199.500000,1.000000 199.750000,1.000000 
z"/>
<path fill="#13A7FF" opacity="1.000000" stroke="none" 
	d="
M198.500092,199.987122 
	C198.965179,199.982330 199.429001,200.001816 199.660126,200.000824 
	C199.909744,200.166489 199.928238,200.333145 199.973358,200.749893 
	C133.666672,201.000000 67.333336,201.000000 1.000000,200.500000 
	C66.678329,199.997314 132.356659,199.994614 198.500092,199.987122 
z"/>
<path fill="#F6FDFE" opacity="1.000000" stroke="none" 
	d="
M120.990265,47.113811 
	C121.169960,47.085384 121.349648,47.056957 122.070831,47.192921 
	C126.222557,49.085735 129.832794,50.814159 133.443024,52.542587 
	C133.443024,52.542587 133.496826,52.640667 133.731476,52.860298 
	C134.788422,53.567966 135.610733,54.056004 136.433044,54.544041 
	C136.433044,54.544041 136.477859,54.611202 136.660522,54.813354 
	C137.148407,55.130856 137.453613,55.246201 137.758835,55.361549 
	C137.758835,55.361546 137.766937,55.263844 137.873367,55.569290 
	C139.145920,56.751278 140.312042,57.627819 141.478180,58.504356 
	C141.478180,58.504356 141.560379,58.437359 141.672058,58.712620 
	C142.083221,59.129139 142.382736,59.270397 142.682236,59.411659 
	C142.682236,59.411659 142.711777,59.199680 142.791168,59.604691 
	C144.893723,62.032112 146.916901,64.054527 148.940079,66.076942 
	C148.940079,66.076942 148.987091,66.015633 148.993744,66.324356 
	C149.523453,67.207619 150.046524,67.782166 150.569595,68.356712 
	C150.704498,68.239449 150.839386,68.122185 150.859528,68.513603 
	C152.125809,71.058937 153.506866,73.095589 154.887909,75.132240 
	C154.887909,75.132240 154.935379,75.065994 154.896973,75.326035 
	C155.056702,75.855316 155.254837,76.124557 155.452957,76.393799 
	C155.452957,76.393799 155.446442,76.446793 155.554611,76.818466 
	C164.416168,95.687729 163.863892,114.160172 155.512970,132.611526 
	C155.512970,132.611526 155.694748,132.710815 155.378342,132.873489 
	C154.864807,133.567001 154.667679,134.097824 154.470551,134.628662 
	C154.646439,134.732178 154.822311,134.835693 154.492798,134.972321 
	C153.498962,135.917633 153.010559,136.829819 152.522156,137.742004 
	C142.712326,153.578903 127.974678,161.950043 110.061203,164.860626 
	C104.107254,165.828033 97.863731,165.013275 91.374931,165.013275 
	C91.374931,158.352142 91.374931,151.972519 91.374931,145.275284 
	C96.523720,145.275284 101.661652,145.841599 106.637123,145.182205 
	C136.121002,141.274719 151.704590,108.133980 135.965775,82.928970 
	C134.244324,80.172127 131.602936,77.989708 129.220016,74.963531 
	C128.731079,74.197304 128.410370,74.008400 128.089661,73.819496 
	C128.089661,73.819496 128.093552,73.894844 128.026413,73.614845 
	C127.483711,73.038124 127.008148,72.741394 126.532585,72.444664 
	C126.532585,72.444664 126.457695,72.512398 126.358658,72.246094 
	C126.042915,71.720276 125.765930,71.579269 125.428665,71.556755 
	C125.428665,71.556755 125.330704,71.602890 125.180237,71.305679 
	C124.145973,70.516174 123.262184,70.023888 122.378395,69.531601 
	C122.378395,69.531601 122.333977,69.628105 122.260979,69.378998 
	C121.748032,68.845688 121.308083,68.561478 120.868134,68.277267 
	C120.868134,68.277267 120.933853,68.151901 120.915344,67.647682 
	C120.927979,60.466911 120.959122,53.790363 120.990265,47.113811 
z"/>
<path fill="#F4FDFD" opacity="1.000000" stroke="none" 
	d="
M80.866272,140.264496 
	C80.956215,140.452866 81.046165,140.641251 81.306252,141.202209 
	C81.480797,141.823883 81.594467,142.004440 81.817398,142.116470 
	C81.817398,142.116470 81.887512,142.125778 81.743950,142.468811 
	C81.600388,149.128250 81.600388,155.444656 81.600388,162.006271 
	C78.946693,161.425781 77.503891,161.110184 76.061089,160.794571 
	C76.061089,160.794571 76.077545,160.888229 75.956100,160.609467 
	C75.243668,160.147247 74.652695,159.963821 74.061714,159.780380 
	C74.061714,159.780380 74.083824,159.881653 73.946320,159.613693 
	C73.215668,159.168854 72.622513,158.991974 72.029350,158.815109 
	C72.029350,158.815109 72.061569,158.920959 71.946732,158.641647 
	C71.272400,158.126190 70.712906,157.890030 70.153412,157.653870 
	C64.168816,152.558792 58.184227,147.463699 51.891045,141.851837 
	C51.063622,140.535263 50.544788,139.735428 50.025955,138.935608 
	C50.025955,138.935608 50.003395,138.992661 49.976509,138.668030 
	C49.086525,137.124832 48.223423,135.906235 47.360321,134.687653 
	C47.360317,134.687653 47.337547,134.767227 47.331604,134.419983 
	C46.362858,132.268265 45.400063,130.463791 44.437263,128.659317 
	C44.437263,128.659317 44.410877,128.750931 44.407333,128.349915 
	C43.672710,125.749855 42.872444,123.571083 42.221863,121.348495 
	C38.206188,107.629639 39.686337,94.167770 44.188976,80.857399 
	C44.188976,80.857399 44.288403,80.792717 44.531139,80.498344 
	C45.341911,78.921883 45.909946,77.639786 46.477982,76.357697 
	C46.477982,76.357697 46.403671,76.277809 46.620300,76.149567 
	C46.917824,75.657272 46.998711,75.293221 47.079597,74.929161 
	C47.079597,74.929161 47.234520,74.822411 47.465393,74.543556 
	C47.824501,73.841103 47.952740,73.417496 48.080975,72.993896 
	C48.080975,72.993896 48.016483,73.016289 48.318275,72.903915 
	C49.274105,71.705185 49.928135,70.618828 50.582165,69.532478 
	C50.582165,69.532478 50.514202,69.426788 50.847820,69.270706 
	C52.931217,68.803612 54.676796,68.253670 56.431503,68.222794 
	C64.225235,68.085678 72.021576,68.097321 79.816978,68.055176 
	C79.816978,68.055168 79.918175,68.267365 79.810333,68.481583 
	C79.056572,69.398506 78.410645,70.101219 77.764717,70.803932 
	C77.764717,70.803932 77.866684,70.833595 77.592712,70.834702 
	C77.076065,71.115021 76.833374,71.394226 76.590683,71.673431 
	C76.590683,71.673431 76.731277,71.662231 76.425102,71.674995 
	C75.733772,72.120308 75.348610,72.552856 74.963455,72.985405 
	C74.963455,72.985405 75.003822,73.006432 74.728561,73.035141 
	C74.260132,73.362450 74.066963,73.661041 73.873795,73.959625 
	C73.873795,73.959625 73.966942,73.970123 73.685165,73.974304 
	C73.194473,74.287056 72.985565,74.595634 72.776649,74.904213 
	C72.776649,74.904213 72.915695,74.916306 72.632294,74.914368 
	C72.142868,75.231949 71.936852,75.551468 71.730835,75.870995 
	C71.730843,75.870995 71.873619,75.874893 71.596466,75.904953 
	C71.147034,76.270401 70.974747,76.605797 70.802452,76.941193 
	C70.802452,76.941193 70.898628,76.913269 70.569519,77.003479 
	C68.352249,79.980156 66.464073,82.866623 64.575905,85.753098 
	C64.575905,85.753098 64.660133,85.781784 64.378456,85.961990 
	C58.201115,98.618279 57.849209,111.027283 64.547043,123.350983 
	C64.547043,123.350983 64.613609,123.124542 64.621780,123.556259 
	C65.607834,125.439987 66.585716,126.891991 67.563599,128.343994 
	C67.563599,128.343994 67.681541,128.231918 67.686096,128.550232 
	C68.109077,129.277847 68.527504,129.687134 68.945923,130.096436 
	C68.945923,130.096436 68.966171,130.030319 68.997093,130.302673 
	C69.329567,130.778275 69.631126,130.981552 69.932678,131.184814 
	C69.932678,131.184814 69.934753,131.059799 69.940948,131.345367 
	C70.256950,131.841827 70.566765,132.052734 70.876579,132.263626 
	C70.876579,132.263626 70.883560,132.115295 70.900482,132.397034 
	C71.247162,132.866364 71.576920,133.053940 71.906670,133.241516 
	C71.906670,133.241516 71.901924,133.091492 71.907639,133.381958 
	C72.243790,133.859543 72.574211,134.046631 72.904633,134.233734 
	C72.904633,134.233734 72.907654,134.096420 72.922775,134.380066 
	C73.277428,134.831757 73.616943,134.999802 73.956459,135.167847 
	C73.956459,135.167847 73.937691,135.070801 73.985451,135.357193 
	C74.507988,135.963928 74.982773,136.284271 75.457550,136.604614 
	C75.485031,136.436478 75.512512,136.268326 75.651855,136.578461 
	C76.080444,137.189865 76.397194,137.323013 76.713936,137.456161 
	C76.713936,137.456161 76.724792,137.325714 76.787102,137.591141 
	C77.196350,137.999100 77.543289,138.141617 77.890228,138.284149 
	C77.890228,138.284149 77.862122,138.179108 77.970337,138.477753 
	C79.007790,139.272446 79.937027,139.768463 80.866272,140.264496 
z"/>
<path fill="#F7FEFE" opacity="1.000000" stroke="none" 
	d="
M96.881363,109.327629 
	C95.864433,109.292610 94.847504,109.257599 93.178864,109.163895 
	C92.333939,109.140312 92.140732,109.175415 91.947517,109.210510 
	C91.947517,109.210510 91.723923,109.069298 91.575500,108.881424 
	C91.341133,108.434883 91.183861,108.231224 90.955276,108.082588 
	C90.955276,108.082588 91.002663,108.042549 91.072128,107.566116 
	C91.141602,90.512703 91.141602,73.935738 91.141602,56.697716 
	C85.491798,56.697716 80.218697,56.571571 74.955399,56.744198 
	C71.707481,56.850731 70.524002,55.581722 70.628143,52.377750 
	C70.795280,47.235714 70.673203,42.084278 70.673347,36.936817 
	C70.673347,36.936817 70.871590,36.908230 71.378975,36.863762 
	C84.898636,36.904636 97.910904,36.989975 110.923180,37.075317 
	C110.923180,37.075314 110.993629,37.508862 110.940872,38.184509 
	C110.862274,51.332886 110.873955,63.805840 110.799316,76.278275 
	C110.733696,87.241699 110.571449,98.204552 110.451881,109.167648 
	C109.618660,109.177612 108.785431,109.187576 107.085114,109.150330 
	C103.105797,109.177963 99.993576,109.252800 96.881363,109.327629 
z"/>
<path fill="#42A8E7" opacity="1.000000" stroke="none" 
	d="
M70.341232,37.109272 
	C70.673203,42.084278 70.795280,47.235714 70.628143,52.377750 
	C70.524002,55.581722 71.707481,56.850731 74.955399,56.744198 
	C80.218697,56.571571 85.491798,56.697716 91.141602,56.697716 
	C91.141602,73.935738 91.141602,90.512703 91.045654,107.549957 
	C90.645996,106.082619 90.091103,104.156525 90.079254,102.227104 
	C90.000908,89.464775 89.904205,76.699516 90.112160,63.940083 
	C90.185616,59.432655 88.634483,57.538795 84.069206,57.848938 
	C80.439621,58.095520 76.749611,58.163151 73.148308,57.758945 
	C71.746681,57.601631 69.405556,55.952843 69.387901,54.950043 
	C69.284256,49.066078 69.741196,43.172237 70.341232,37.109272 
z"/>
<path fill="#319BDA" opacity="1.000000" stroke="none" 
	d="
M155.869171,132.552185 
	C163.863892,114.160172 164.416168,95.687729 155.572052,76.838684 
	C156.168381,76.876213 157.225449,77.097504 157.488770,77.678535 
	C165.713455,95.826141 165.944138,113.939438 157.041046,131.955032 
	C156.916489,132.207108 156.503647,132.316742 155.869171,132.552185 
z"/>
<path fill="#2493D6" opacity="1.000000" stroke="none" 
	d="
M43.863434,81.043877 
	C39.686337,94.167770 38.206188,107.629639 42.221863,121.348495 
	C42.872444,123.571083 43.672710,125.749855 44.452744,128.335419 
	C43.978817,128.345551 43.180447,128.082092 42.973103,127.576332 
	C36.814045,112.553040 36.202541,97.452179 42.526596,82.302071 
	C42.703609,81.878006 43.193760,81.584656 43.863434,81.043877 
z"/>
<path fill="#42A8E7" opacity="1.000000" stroke="none" 
	d="
M110.812881,36.706154 
	C97.910904,36.989975 84.898636,36.904636 71.420364,36.772575 
	C72.070496,36.198029 73.182808,35.221321 74.303345,35.211781 
	C85.564316,35.115929 96.826836,35.153679 108.088165,35.246101 
	C108.962563,35.253273 109.831245,35.957012 110.812881,36.706154 
z"/>
<path fill="#42A8E7" opacity="1.000000" stroke="none" 
	d="
M110.767960,109.117157 
	C110.571449,98.204552 110.733696,87.241699 110.799316,76.278275 
	C110.873955,63.805840 110.862274,51.332886 111.000168,38.395966 
	C111.395340,39.709015 111.911545,41.484356 111.926056,43.263786 
	C112.099747,64.560219 112.209755,85.857224 112.265434,107.154274 
	C112.267105,107.790695 111.495247,108.429146 110.767960,109.117157 
z"/>
<path fill="#2493D6" opacity="1.000000" stroke="none" 
	d="
M64.649628,122.952942 
	C57.849209,111.027283 58.201115,98.618279 64.370895,85.918144 
	C63.771542,89.196953 62.819527,92.682434 62.040501,96.206169 
	C60.263947,104.241943 60.853935,112.071220 64.227554,119.650528 
	C64.616135,120.523537 64.587433,121.582268 64.649628,122.952942 
z"/>
<path fill="#319BDA" opacity="1.000000" stroke="none" 
	d="
M120.624207,47.223892 
	C120.959122,53.790363 120.927979,60.466911 120.852119,67.615875 
	C120.284050,67.490242 119.289169,66.875427 119.309731,66.296700 
	C119.534477,59.972542 119.917892,53.654026 120.624207,47.223892 
z"/>
<path fill="#2493D6" opacity="1.000000" stroke="none" 
	d="
M76.193565,161.121124 
	C77.503891,161.110184 78.946693,161.425781 81.600388,162.006271 
	C81.600388,155.444656 81.600388,149.128250 81.714287,142.488068 
	C82.431862,142.791885 83.564590,143.427078 83.555725,144.045914 
	C83.483147,149.108856 83.383911,154.187973 82.864517,159.217957 
	C82.706970,160.743637 81.493904,162.590561 80.205711,163.388000 
	C79.560211,163.787567 77.659218,162.158997 76.193565,161.121124 
z"/>
<path fill="#2493D6" opacity="1.000000" stroke="none" 
	d="
M79.603165,67.791061 
	C72.021576,68.097321 64.225235,68.085678 56.431503,68.222794 
	C54.676796,68.253670 52.931217,68.803612 50.842415,69.333298 
	C51.355843,68.721794 52.188023,67.195152 53.063896,67.169655 
	C61.396095,66.927132 69.735680,66.929306 78.073273,66.906219 
	C78.511391,66.905014 78.950630,67.310699 79.603165,67.791061 
z"/>
<path fill="#319BDA" opacity="1.000000" stroke="none" 
	d="
M133.432724,52.190586 
	C129.832794,50.814159 126.222557,49.085735 122.340149,47.148849 
	C127.181732,45.492512 130.056381,49.235092 133.432724,52.190586 
z"/>
<path fill="#42A8E7" opacity="1.000000" stroke="none" 
	d="
M97.084366,109.630493 
	C99.993576,109.252800 103.105797,109.177963 106.673813,109.217361 
	C103.848862,109.532188 100.568115,109.732773 97.084366,109.630493 
z"/>
<path fill="#2493D6" opacity="1.000000" stroke="none" 
	d="
M64.926636,85.682495 
	C66.464073,82.866623 68.352249,79.980156 70.552414,76.956421 
	C69.002052,79.750076 67.139702,82.680984 64.926636,85.682495 
z"/>
<path fill="#319BDA" opacity="1.000000" stroke="none" 
	d="
M148.963165,65.709724 
	C146.916901,64.054527 144.893723,62.032112 142.749969,59.703461 
	C144.748337,61.378983 146.867294,63.360744 148.963165,65.709724 
z"/>
<path fill="#319BDA" opacity="1.000000" stroke="none" 
	d="
M154.881577,74.764420 
	C153.506866,73.095589 152.125809,71.058937 150.660904,68.693329 
	C152.009781,70.375107 153.442505,72.385857 154.881577,74.764420 
z"/>
<path fill="#2493D6" opacity="1.000000" stroke="none" 
	d="
M44.333202,129.049072 
	C45.400063,130.463791 46.362858,132.268265 47.372978,134.420975 
	C46.356583,132.992416 45.292862,131.215607 44.333202,129.049072 
z"/>
<path fill="#2493D6" opacity="1.000000" stroke="none" 
	d="
M67.664749,127.972092 
	C66.585716,126.891991 65.607834,125.439987 64.564392,123.659378 
	C65.587845,124.753914 66.676872,126.177048 67.664749,127.972092 
z"/>
<path fill="#2493D6" opacity="1.000000" stroke="none" 
	d="
M47.273075,135.058472 
	C48.223423,135.906235 49.086525,137.124832 50.006950,138.664215 
	C49.104790,137.799789 48.145309,136.614548 47.273075,135.058472 
z"/>
<path fill="#319BDA" opacity="1.000000" stroke="none" 
	d="
M141.466095,58.150677 
	C140.312042,57.627819 139.145920,56.751278 137.833221,55.597420 
	C138.942444,56.145733 140.198227,56.971363 141.466095,58.150677 
z"/>
<path fill="#2493D6" opacity="1.000000" stroke="none" 
	d="
M46.097137,76.447052 
	C45.909946,77.639786 45.341911,78.921883 44.506897,80.444214 
	C44.732040,79.301781 45.224167,77.919098 46.097137,76.447052 
z"/>
<path fill="#2493D6" opacity="1.000000" stroke="none" 
	d="
M50.221352,69.546989 
	C49.928135,70.618828 49.274105,71.705185 48.333981,72.934219 
	C48.652107,71.905098 49.256321,70.733299 50.221352,69.546989 
z"/>
<path fill="#319BDA" opacity="1.000000" stroke="none" 
	d="
M152.863068,137.651810 
	C153.010559,136.829819 153.498962,135.917633 154.231506,134.811554 
	C154.051727,135.598984 153.627853,136.580292 152.863068,137.651810 
z"/>
<path fill="#2493D6" opacity="1.000000" stroke="none" 
	d="
M80.815552,139.908112 
	C79.937027,139.768463 79.007790,139.272446 77.919571,138.497238 
	C78.762016,138.662613 79.763428,139.107162 80.815552,139.908112 
z"/>
<path fill="#2493D6" opacity="1.000000" stroke="none" 
	d="
M50.011333,139.257904 
	C50.544788,139.735428 51.063622,140.535263 51.621590,141.625549 
	C51.106056,141.137421 50.551384,140.358810 50.011333,139.257904 
z"/>
<path fill="#319BDA" opacity="1.000000" stroke="none" 
	d="
M136.416901,54.193466 
	C135.610733,54.056004 134.788422,53.567966 133.786911,52.852882 
	C134.538727,53.031521 135.469742,53.437206 136.416901,54.193466 
z"/>
<path fill="#2493D6" opacity="1.000000" stroke="none" 
	d="
M78.084045,70.820717 
	C78.410645,70.101219 79.056572,69.398506 79.924370,68.510094 
	C79.565285,69.162094 78.984329,69.999802 78.084045,70.820717 
z"/>
<path fill="#319BDA" opacity="1.000000" stroke="none" 
	d="
M122.435974,69.879463 
	C123.262184,70.023888 124.145973,70.516174 125.206253,71.258194 
	C124.419678,71.081062 123.456619,70.654198 122.435974,69.879463 
z"/>
<path fill="#319BDA" opacity="1.000000" stroke="none" 
	d="
M150.604767,68.030045 
	C150.046524,67.782166 149.523453,67.207619 148.957520,66.337769 
	C149.489746,66.596107 150.064850,67.149750 150.604767,68.030045 
z"/>
<path fill="#319BDA" opacity="1.000000" stroke="none" 
	d="
M126.577957,72.750343 
	C127.008148,72.741394 127.483711,73.038124 128.061630,73.601334 
	C127.650429,73.597221 127.136871,73.326622 126.577957,72.750343 
z"/>
<path fill="#319BDA" opacity="1.000000" stroke="none" 
	d="
M154.767838,134.511475 
	C154.667679,134.097824 154.864807,133.567001 155.277802,132.848709 
	C155.350800,133.238937 155.207962,133.816605 154.767838,134.511475 
z"/>
<path fill="#2493D6" opacity="1.000000" stroke="none" 
	d="
M75.274742,72.948517 
	C75.348610,72.552856 75.733772,72.120308 76.408951,71.606354 
	C76.327995,71.987167 75.957008,72.449394 75.274742,72.948517 
z"/>
<path fill="#2493D6" opacity="1.000000" stroke="none" 
	d="
M75.411705,136.294922 
	C74.982773,136.284271 74.507988,135.963928 73.937439,135.368912 
	C74.349731,135.391235 74.857796,135.688232 75.411705,136.294922 
z"/>
<path fill="#2493D6" opacity="1.000000" stroke="none" 
	d="
M68.898476,129.787659 
	C68.527504,129.687134 68.109077,129.277847 67.609329,128.577164 
	C67.969009,128.683472 68.410019,129.081192 68.898476,129.787659 
z"/>
<path fill="#319BDA" opacity="1.000000" stroke="none" 
	d="
M120.943687,68.551636 
	C121.308083,68.561478 121.748032,68.845688 122.311615,69.362946 
	C121.963242,69.339325 121.491241,69.082672 120.943687,68.551636 
z"/>
<path fill="#42A8E7" opacity="1.000000" stroke="none" 
	d="
M91.959717,109.392937 
	C92.140732,109.175415 92.333939,109.140312 92.799698,109.216469 
	C92.705460,109.410278 92.338692,109.492821 91.959717,109.392937 
z"/>
<path fill="#2493D6" opacity="1.000000" stroke="none" 
	d="
M70.303741,157.933319 
	C70.712906,157.890030 71.272400,158.126190 71.998871,158.623138 
	C71.595253,158.660233 71.024658,158.436508 70.303741,157.933319 
z"/>
<path fill="#2493D6" opacity="1.000000" stroke="none" 
	d="
M72.221191,159.069153 
	C72.622513,158.991974 73.215668,159.168854 73.996033,159.599045 
	C73.593178,159.675964 73.003105,159.499588 72.221191,159.069153 
z"/>
<path fill="#2493D6" opacity="1.000000" stroke="none" 
	d="
M74.236977,160.047180 
	C74.652695,159.963821 75.243668,160.147247 76.002197,160.597809 
	C75.583916,160.681274 74.998077,160.497635 74.236977,160.047180 
z"/>
<path fill="#2493D6" opacity="1.000000" stroke="none" 
	d="
M72.789513,133.976288 
	C72.574211,134.046631 72.243790,133.859543 71.832825,133.387756 
	C72.059654,133.308334 72.367027,133.513580 72.789513,133.976288 
z"/>
<path fill="#2493D6" opacity="1.000000" stroke="none" 
	d="
M81.836624,141.960541 
	C81.594467,142.004440 81.480797,141.823883 81.530563,141.420685 
	C81.749306,141.408493 81.839676,141.587845 81.836624,141.960541 
z"/>
<path fill="#2493D6" opacity="1.000000" stroke="none" 
	d="
M77.750572,138.036285 
	C77.543289,138.141617 77.196350,137.999100 76.721893,137.596634 
	C76.933220,137.487274 77.272064,137.637833 77.750572,138.036285 
z"/>
<path fill="#2493D6" opacity="1.000000" stroke="none" 
	d="
M76.598816,137.205627 
	C76.397194,137.323013 76.080444,137.189865 75.623596,136.831696 
	C75.816895,136.722824 76.150291,136.838959 76.598816,137.205627 
z"/>
<path fill="#2493D6" opacity="1.000000" stroke="none" 
	d="
M76.868309,71.614594 
	C76.833374,71.394226 77.076065,71.115021 77.602257,70.782471 
	C77.639153,71.004669 77.392540,71.280212 76.868309,71.614594 
z"/>
<path fill="#319BDA" opacity="1.000000" stroke="none" 
	d="
M142.583511,59.165558 
	C142.382736,59.270397 142.083221,59.129139 141.660828,58.764446 
	C141.853561,58.667156 142.169174,58.793304 142.583511,59.165558 
z"/>
<path fill="#2493D6" opacity="1.000000" stroke="none" 
	d="
M73.826416,134.923157 
	C73.616943,134.999802 73.277428,134.831757 72.854141,134.381989 
	C73.079041,134.292984 73.387711,134.485718 73.826416,134.923157 
z"/>
<path fill="#319BDA" opacity="1.000000" stroke="none" 
	d="
M155.467697,76.132385 
	C155.254837,76.124557 155.056702,75.855316 154.856354,75.329208 
	C155.063553,75.338554 155.272995,75.604759 155.467697,76.132385 
z"/>
<path fill="#2493D6" opacity="1.000000" stroke="none" 
	d="
M71.785049,132.986237 
	C71.576920,133.053940 71.247162,132.866364 70.826233,132.397766 
	C71.044525,132.321472 71.353981,132.526215 71.785049,132.986237 
z"/>
<path fill="#2493D6" opacity="1.000000" stroke="none" 
	d="
M70.777122,132.001862 
	C70.566765,132.052734 70.256950,131.841827 69.878448,131.346588 
	C70.099060,131.288208 70.388367,131.514145 70.777122,132.001862 
z"/>
<path fill="#2493D6" opacity="1.000000" stroke="none" 
	d="
M69.825653,130.938995 
	C69.631126,130.981552 69.329567,130.778275 68.962570,130.300873 
	C69.170967,130.248901 69.444801,130.471039 69.825653,130.938995 
z"/>
<path fill="#319BDA" opacity="1.000000" stroke="none" 
	d="
M125.496078,71.803101 
	C125.765930,71.579269 126.042915,71.720276 126.364098,72.195900 
	C126.166878,72.291161 125.865189,72.170311 125.496078,71.803101 
z"/>
<path fill="#2493D6" opacity="1.000000" stroke="none" 
	d="
M47.838585,73.215431 
	C47.952740,73.417496 47.824501,73.841103 47.418530,74.461990 
	C47.292595,74.251839 47.444393,73.844398 47.838585,73.215431 
z"/>
<path fill="#2493D6" opacity="1.000000" stroke="none" 
	d="
M74.117691,73.864426 
	C74.066963,73.661041 74.260132,73.362450 74.725632,73.012573 
	C74.785843,73.230606 74.573715,73.499916 74.117691,73.864426 
z"/>
<path fill="#42A8E7" opacity="1.000000" stroke="none" 
	d="
M90.942368,108.288284 
	C91.183861,108.231224 91.341133,108.434883 91.443375,108.886749 
	C91.182793,108.975349 91.006058,108.780037 90.942368,108.288284 
z"/>
<path fill="#2493D6" opacity="1.000000" stroke="none" 
	d="
M73.032341,74.805786 
	C72.985565,74.595634 73.194473,74.287056 73.689301,73.927612 
	C73.746155,74.153618 73.517090,74.430489 73.032341,74.805786 
z"/>
<path fill="#319BDA" opacity="1.000000" stroke="none" 
	d="
M137.640610,55.127991 
	C137.453613,55.246201 137.148407,55.130856 136.700745,54.809753 
	C136.879654,54.700809 137.201019,54.797619 137.640610,55.127991 
z"/>
<path fill="#319BDA" opacity="1.000000" stroke="none" 
	d="
M128.184998,74.060074 
	C128.410370,74.008400 128.731079,74.197304 129.054626,74.674416 
	C128.798431,74.741974 128.539383,74.521317 128.184998,74.060074 
z"/>
<path fill="#2493D6" opacity="1.000000" stroke="none" 
	d="
M46.880371,75.126022 
	C46.998711,75.293221 46.917824,75.657272 46.619507,76.204117 
	C46.495102,76.032227 46.588123,75.677551 46.880371,75.126022 
z"/>
<path fill="#2493D6" opacity="1.000000" stroke="none" 
	d="
M71.048431,76.807724 
	C70.974747,76.605797 71.147034,76.270401 71.593864,75.833580 
	C71.677078,76.046188 71.485748,76.360222 71.048431,76.807724 
z"/>
<path fill="#2493D6" opacity="1.000000" stroke="none" 
	d="
M71.990662,75.763931 
	C71.936852,75.551468 72.142868,75.231949 72.635300,74.844650 
	C72.697975,75.070198 72.474236,75.363533 71.990662,75.763931 
z"/>
</svg>
