
<svg width="1438" height="331" viewBox="0 -40 350 331" fill="none" xmlns="http://www.w3.org/2000/svg">
<path d="M92 287.674C92 287.674 155.512 285.981 212.379 223C258.879 171.5 281.5 73 281.5 73" stroke="#1652F0" stroke-width="20" stroke-linecap="round"/>
<rect x="92" y="60" width="32" height="122" rx="16" fill="#1652F0"/>
<rect x="150" y="60" width="32" height="122" rx="16" fill="#1652F0"/>
<path d="M523.777 79.75V98.25H476.277V254H453.527V98.25H405.777V79.75H523.777ZM611.531 256.25C598.698 256.25 587.031 253.333 576.531 247.5C566.198 241.667 558.031 233.417 552.031 222.75C546.198 211.917 543.281 199.417 543.281 185.25C543.281 171.25 546.281 158.917 552.281 148.25C558.448 137.417 566.781 129.167 577.281 123.5C587.781 117.667 599.531 114.75 612.531 114.75C625.531 114.75 637.281 117.667 647.781 123.5C658.281 129.167 666.531 137.333 672.531 148C678.698 158.667 681.781 171.083 681.781 185.25C681.781 199.417 678.615 211.917 672.281 222.75C666.115 233.417 657.698 241.667 647.031 247.5C636.365 253.333 624.531 256.25 611.531 256.25ZM611.531 236.25C619.698 236.25 627.365 234.333 634.531 230.5C641.698 226.667 647.448 220.917 651.781 213.25C656.281 205.583 658.531 196.25 658.531 185.25C658.531 174.25 656.365 164.917 652.031 157.25C647.698 149.583 642.031 143.917 635.031 140.25C628.031 136.417 620.448 134.5 612.281 134.5C603.948 134.5 596.281 136.417 589.281 140.25C582.448 143.917 576.948 149.583 572.781 157.25C568.615 164.917 566.531 174.25 566.531 185.25C566.531 196.417 568.531 205.833 572.531 213.5C576.698 221.167 582.198 226.917 589.031 230.75C595.865 234.417 603.365 236.25 611.531 236.25ZM734.443 142.25C738.943 134.417 745.61 127.917 754.443 122.75C763.443 117.417 773.86 114.75 785.693 114.75C797.86 114.75 808.86 117.667 818.693 123.5C828.693 129.333 836.527 137.583 842.193 148.25C847.86 158.75 850.693 171 850.693 185C850.693 198.833 847.86 211.167 842.193 222C836.527 232.833 828.693 241.25 818.693 247.25C808.86 253.25 797.86 256.25 785.693 256.25C774.027 256.25 763.693 253.667 754.693 248.5C745.86 243.167 739.11 236.583 734.443 228.75V319H711.693V117H734.443V142.25ZM827.443 185C827.443 174.667 825.36 165.667 821.193 158C817.027 150.333 811.36 144.5 804.193 140.5C797.193 136.5 789.443 134.5 780.943 134.5C772.61 134.5 764.86 136.583 757.693 140.75C750.693 144.75 745.027 150.667 740.693 158.5C736.527 166.167 734.443 175.083 734.443 185.25C734.443 195.583 736.527 204.667 740.693 212.5C745.027 220.167 750.693 226.083 757.693 230.25C764.86 234.25 772.61 236.25 780.943 236.25C789.443 236.25 797.193 234.25 804.193 230.25C811.36 226.083 817.027 220.167 821.193 212.5C825.36 204.667 827.443 195.5 827.443 185ZM903.389 69V254H880.639V69H903.389ZM1060.16 117L977.662 318.5H954.162L981.162 252.5L925.912 117H951.162L994.162 228L1036.66 117H1060.16ZM1149.78 114.5C1166.45 114.5 1179.95 119.583 1190.28 129.75C1200.61 139.75 1205.78 154.25 1205.78 173.25V254H1183.28V176.5C1183.28 162.833 1179.86 152.417 1173.03 145.25C1166.2 137.917 1156.86 134.25 1145.03 134.25C1133.03 134.25 1123.45 138 1116.28 145.5C1109.28 153 1105.78 163.917 1105.78 178.25V254H1083.03V117H1105.78V136.5C1110.28 129.5 1116.36 124.083 1124.03 120.25C1131.86 116.417 1140.45 114.5 1149.78 114.5ZM1367.94 180.25C1367.94 184.583 1367.69 189.167 1367.19 194H1257.69C1258.53 207.5 1263.11 218.083 1271.44 225.75C1279.94 233.25 1290.19 237 1302.19 237C1312.03 237 1320.19 234.75 1326.69 230.25C1333.36 225.583 1338.03 219.417 1340.69 211.75H1365.19C1361.53 224.917 1354.19 235.667 1343.19 244C1332.19 252.167 1318.53 256.25 1302.19 256.25C1289.19 256.25 1277.53 253.333 1267.19 247.5C1257.03 241.667 1249.03 233.417 1243.19 222.75C1237.36 211.917 1234.44 199.417 1234.44 185.25C1234.44 171.083 1237.28 158.667 1242.94 148C1248.61 137.333 1256.53 129.167 1266.69 123.5C1277.03 117.667 1288.86 114.75 1302.19 114.75C1315.19 114.75 1326.69 117.583 1336.69 123.25C1346.69 128.917 1354.36 136.75 1359.69 146.75C1365.19 156.583 1367.94 167.75 1367.94 180.25ZM1344.44 175.5C1344.44 166.833 1342.53 159.417 1338.69 153.25C1334.86 146.917 1329.61 142.167 1322.94 139C1316.44 135.667 1309.19 134 1301.19 134C1289.69 134 1279.86 137.667 1271.69 145C1263.69 152.333 1259.11 162.5 1257.94 175.5H1344.44Z" fill="black"/>
<path d="M240 101.163C240 101.163 276.862 63.5 282.861 66.4823C288.861 69.4647 307 116.163 307 116.163" stroke="#1652F0" stroke-width="15" stroke-linecap="round"/>
</svg>
