<svg width="618" height="184" viewBox="0 -27 200 210" fill="none" xmlns="http://www.w3.org/2000/svg">
<path d="M147.187 125.567C156.79 123.398 167.017 117.874 176.781 118.078V118.303C181.653 118.406 186.183 124.156 182.861 128.494C169.453 145.948 129.792 146.03 109.257 147.626C79.1193 149.958 48.2766 151.186 18.1184 148.853C12.0787 148.383 9.80371 139.113 16.5883 138.008L98.5269 131.87C114.774 130.601 131.282 129.189 147.187 125.567Z" fill="black"/>
<path d="M140.644 83.4974C150.267 81.0419 160.534 75.026 170.399 75.2307L170.359 75.1693C175.291 75.292 179.257 80.8168 176.298 85.1139C163.897 103.161 121.9 104.451 101.728 106.19C71.2274 108.85 39.056 110.753 8.51524 107.213C1.93197 106.456 1.9521 98.1687 8.51524 97.3911L96.2318 90.7409C111.11 89.0221 126.148 87.2215 140.644 83.4974Z" fill="black"/>
<path d="M141.509 42.348C150.529 40.0972 159.125 34.9817 168.285 33.9586L168.245 33.9381C174.285 33.2833 176.338 40.1586 174.446 44.3329C165.91 63.0352 118.498 63.9765 101.245 66.0227L6.58254 75.599C-1.67172 76.1719 -2.0341 65.061 4.77063 62.6055C31.3453 53.0702 63.9395 53.6841 91.8228 50.4101C108.432 48.4458 125.303 46.4405 141.509 42.348Z" fill="black"/>
<path d="M245.366 37.525C245.366 36.8564 244.824 36.3145 244.156 36.3145H221.65C220.989 36.3145 220.45 36.8451 220.44 37.5062L220.315 45.5289V67.3778V76.7417L220.458 84.9066V122.137C220.458 139.442 230.919 150.104 248.023 150.104C254.807 150.104 258.824 148.711 260.484 147.973C260.895 147.79 261.141 147.375 261.141 146.926V127.159C261.141 126.379 260.415 125.806 259.65 125.956C258.222 126.238 256.403 126.507 254.499 126.507C249.019 126.507 245.366 124.584 245.366 117.418V86.1171C245.366 85.4485 245.908 84.9066 246.577 84.9066H260.263C260.931 84.9066 261.473 84.3646 261.473 83.696V62.8698C261.473 62.2012 260.931 61.6593 260.263 61.6593H246.577C245.908 61.6593 245.366 61.1173 245.366 60.4487V37.525Z" fill="black"/>
<path d="M326.842 62.2864C326.842 61.7555 326.497 61.283 325.98 61.1596C324.355 60.7713 322.227 60.5254 320.1 60.5254C314.61 60.5254 306.551 62.3668 301.38 68.2986C300.523 69.2816 298.356 68.6985 298.356 67.3946V62.604C298.356 61.9355 297.814 61.3935 297.146 61.3935H274.789C274.121 61.3935 273.579 61.9355 273.579 62.604V146.473C273.579 147.141 274.121 147.683 274.789 147.683H297.988C298.657 147.683 299.199 147.141 299.199 146.473V110.007C299.199 92.8189 308.469 86.5686 318.751 86.5686C320.832 86.5686 323.027 86.6862 325.337 87.1151C326.108 87.2582 326.842 86.6817 326.842 85.8977V62.2864Z" fill="black"/>
<path d="M366.735 147.683C367.403 147.683 367.945 147.141 367.945 146.472V62.4803C367.945 61.8117 367.403 61.2698 366.735 61.2698H340.212C339.543 61.2698 339.001 61.8117 339.001 62.4803V146.472C339.001 147.141 339.543 147.683 340.212 147.683H366.735ZM336.526 34.8416C336.526 43.3612 344.143 50.316 353.283 50.316C362.804 50.316 370.421 43.3612 370.421 34.8416C370.421 26.322 362.804 19.3672 353.283 19.3672C344.143 19.3672 336.526 26.322 336.526 34.8416Z" fill="black"/>
<path d="M404.704 148.184C405.372 148.184 405.914 147.643 405.914 146.974V142.725C405.914 141.501 407.706 140.93 408.554 141.812C413.255 146.698 420.989 150.105 430.494 150.105C454.899 150.105 472.105 131.076 472.105 104.54C472.105 78.5273 456.83 59.3236 431.548 59.3236C421.807 59.3236 413.586 62.5772 408.887 66.7144C407.992 67.5016 406.265 66.8883 406.265 65.6969V22.9996C406.265 22.331 405.723 21.7891 405.055 21.7891H381.316C380.647 21.7891 380.105 22.331 380.105 22.9996V146.974C380.105 147.643 380.647 148.184 381.316 148.184H404.704ZM445.418 104.714C445.418 119.204 436.113 126.362 425.754 126.362C415.395 126.362 405.914 119.03 405.914 104.714C405.914 90.0496 415.395 83.241 425.754 83.241C436.113 83.241 445.418 90.0496 445.418 104.714Z" fill="black"/>
<path d="M512.004 93.7164C511.296 93.7164 510.736 93.1115 510.862 92.4155C511.983 86.2083 517.57 79.0523 528.052 79.0523C539.881 79.0523 544.63 86.1009 545.471 92.446C545.562 93.1336 545.006 93.7164 544.313 93.7164H512.004ZM548.603 116.543C547.992 116.37 547.354 116.702 547.107 117.287C544.482 123.508 539.121 127.584 529.981 127.584C520.089 127.584 511.48 121.201 510.282 112.098C510.192 111.41 510.748 110.825 511.442 110.825H569.97C570.491 110.825 570.921 110.484 570.983 109.967C571.159 108.488 571.368 105.45 571.368 102.62C571.368 74.688 554.708 58.1035 527.701 58.1035C505.079 58.1035 484.21 75.91 484.21 103.842C484.21 132.995 505.605 150.104 529.63 150.104C551.156 150.104 564.86 138.175 569.444 123.679C569.646 123.042 569.269 122.374 568.626 122.193L548.603 116.543Z" fill="black"/>
<path d="M583.473 131.858C583.473 141.602 591.079 150.105 600.338 150.105C609.597 150.105 617.368 141.602 617.368 131.858C617.368 121.938 609.597 113.789 600.338 113.789C591.079 113.789 583.473 121.938 583.473 131.858Z" fill="black"/>
</svg>
