<svg version="1.1" id="Layer_1" xmlns="http://www.w3.org/2000/svg" xmlns:xlink="http://www.w3.org/1999/xlink" x="0px" y="0px"
	 width="100%" viewBox="0 0 200 200" enable-background="new 0 0 200 200" xml:space="preserve">
<path fill="#FDFEFE" opacity="1.000000" stroke="none" 
	d="
M119.000000,201.000000 
	C79.357826,201.000000 40.215649,201.000000 1.036737,201.000000 
	C1.036737,134.399536 1.036737,67.799034 1.036737,1.099268 
	C67.558670,1.099268 134.117538,1.099268 200.838196,1.099268 
	C200.838196,67.666351 200.838196,134.333145 200.838196,201.000000 
	C173.799316,201.000000 146.649658,201.000000 119.000000,201.000000 
M60.571396,58.953857 
	C60.746101,58.652359 60.920807,58.350857 61.018616,58.018295 
	C61.018616,58.018295 61.051044,58.094620 61.560349,57.932198 
	C61.737724,57.636341 61.915096,57.340481 62.006989,57.034584 
	C62.006989,57.034584 62.068924,57.094349 62.689903,56.946117 
	C63.565510,56.084396 64.441116,55.222672 65.304077,54.132812 
	C65.304077,54.132812 65.262741,54.357533 65.943359,54.273869 
	C67.974556,52.856686 70.005745,51.439503 72.004517,49.995853 
	C72.004517,49.995853 72.017342,50.035278 72.738968,49.939762 
	C80.143074,47.539875 87.547180,45.139988 95.638954,42.836052 
	C96.088684,42.743870 96.538414,42.651691 97.847519,42.765720 
	C99.896774,42.680790 101.946037,42.595856 104.735336,42.745667 
	C105.507347,42.743565 106.279350,42.741463 107.833633,42.972435 
	C114.880150,45.002247 121.926674,47.032063 128.994385,48.999363 
	C128.994385,48.999363 128.947266,49.045662 129.280563,49.614521 
	C130.828812,50.446354 132.377045,51.278187 134.005966,52.034985 
	C134.005966,52.034985 133.905472,52.080029 134.210800,52.648144 
	C135.461029,53.452915 136.711258,54.257687 137.998367,55.002628 
	C137.998367,55.002628 137.939911,55.041656 138.216217,55.609745 
	C139.079117,56.172749 139.942032,56.735752 140.853683,57.184166 
	C140.853683,57.184166 140.731049,57.205791 140.900238,57.729496 
	C141.212708,57.901871 141.525177,58.074242 141.865631,58.137531 
	C141.865631,58.137531 141.757492,58.169003 141.926666,58.695599 
	C142.238861,58.870819 142.551041,59.046040 142.884399,59.114861 
	C142.884399,59.114861 142.779892,59.143963 142.942413,59.675285 
	C143.254059,59.851589 143.565720,60.027889 143.852356,60.107708 
	C143.852356,60.107708 143.784988,60.181164 143.984802,60.826153 
	C146.557602,63.977840 149.130386,67.129524 151.791595,70.198997 
	C151.791595,70.198997 151.672195,70.181068 151.736633,70.830750 
	C152.106201,71.354713 152.475769,71.878670 152.856186,72.744492 
	C152.856186,72.744492 153.080887,73.002365 153.140167,73.723778 
	C158.145111,83.518028 161.071411,93.981529 159.695679,104.870384 
	C158.673477,112.960960 155.731552,120.808998 153.680191,128.972260 
	C153.680191,128.972260 153.685074,128.762146 153.151672,129.075760 
	C153.439789,130.378479 153.727905,131.681183 154.185410,133.458069 
	C154.462036,133.636292 154.738647,133.814514 155.160049,134.477646 
	C155.440292,134.646042 155.720520,134.814438 155.997574,135.002289 
	C155.997574,135.002289 156.016998,134.999054 156.162369,135.484009 
	C156.444595,135.647568 156.726807,135.811127 156.999298,136.001221 
	C156.999298,136.001221 157.023682,135.986923 157.220749,136.540588 
	C157.816605,137.027817 158.412476,137.515045 159.168015,138.479813 
	C159.447128,138.648956 159.726242,138.818115 160.273376,139.593506 
	C162.043930,141.183243 163.814468,142.772964 165.718002,144.383560 
	C165.718002,144.383560 165.613235,144.299042 165.729950,144.868286 
	C166.157166,145.239288 166.584366,145.610291 166.999390,146.000000 
	C166.999390,146.000000 167.018112,145.988632 167.208527,146.582535 
	C170.144836,150.175797 171.130478,147.656509 172.008087,145.010666 
	C172.008087,145.010666 172.050888,145.072235 172.614868,144.720795 
	C173.169647,143.531326 173.724411,142.341858 174.166885,141.106506 
	C174.166885,141.106506 174.177460,141.227371 174.670731,140.998688 
	C174.779861,140.663040 174.889008,140.327377 175.195190,139.785645 
	C175.195190,139.785645 175.152298,139.503769 175.648529,139.142670 
	C175.767044,138.761780 175.885574,138.380875 176.000000,138.000000 
	C176.000000,138.000000 176.001740,138.005142 176.472855,137.646835 
	C176.642349,137.098160 176.811829,136.549484 177.184296,135.747162 
	C177.184296,135.747162 177.161530,135.423111 177.716919,134.934753 
	C185.078644,117.679413 187.368500,100.004105 182.188156,81.336334 
	C182.188156,81.336334 182.000717,81.012596 182.052109,80.234581 
	C181.090042,77.636177 180.127975,75.037773 179.271835,72.228531 
	C179.271835,72.228531 179.118683,72.049049 179.091751,71.304024 
	C178.082993,69.174217 177.074249,67.044411 176.027664,65.000938 
	C176.027664,65.000938 176.100388,64.940979 176.051407,64.305168 
	C175.472656,63.454418 174.893906,62.603664 174.214203,61.976196 
	C174.214203,61.976196 174.362503,61.781124 174.322250,61.172012 
	C173.958954,60.711624 173.595673,60.251240 173.148407,59.903805 
	C173.148407,59.903805 173.280807,59.856071 173.224823,59.188328 
	C172.487488,58.118641 171.750137,57.048958 170.998062,55.999191 
	C170.998062,55.999191 171.021332,55.992699 170.947006,55.368439 
	C170.300995,54.574169 169.654968,53.779900 168.999390,52.999847 
	C168.999390,52.999847 169.013931,52.992332 168.917511,52.357353 
	C168.080704,51.455372 167.243896,50.553387 166.230850,49.711418 
	C166.230850,49.711418 166.370422,49.588181 166.190460,48.955433 
	C162.821686,45.599930 159.452911,42.244423 156.010849,38.946568 
	C156.010849,38.946568 156.104004,38.942543 155.942200,38.429394 
	C155.640274,38.258823 155.338348,38.088253 155.012207,37.993927 
	C155.012207,37.993927 155.075058,37.944427 154.823715,37.397381 
	C154.297043,37.146870 153.770370,36.896358 153.204697,36.769096 
	C153.204697,36.769096 153.321152,36.712967 153.136642,36.118847 
	C152.445465,35.699009 151.754303,35.279171 151.038528,34.953701 
	C151.038528,34.953701 151.121857,34.903038 150.868408,34.350624 
	C150.329727,34.107971 149.791031,33.865318 149.184586,33.734497 
	C149.184586,33.734497 149.313049,33.710094 149.125305,33.193542 
	C148.799103,33.047718 148.472916,32.901894 148.089279,32.912121 
	C148.089279,32.912121 148.202606,32.790428 147.912064,32.258331 
	C147.367859,32.038982 146.823654,31.819633 146.379181,31.754400 
	C146.379181,31.754400 146.320877,31.580328 146.049118,31.008692 
	C144.720367,30.304998 143.391617,29.601307 142.000351,28.971006 
	C142.000351,28.971006 142.089188,28.933556 141.746552,28.340338 
	C139.151749,27.194571 136.556931,26.048803 133.772659,24.734053 
	C133.772659,24.734053 133.540359,24.836493 133.033752,24.265396 
	C127.690620,22.723040 122.347481,21.180683 116.378593,19.292536 
	C115.906540,19.261042 115.434479,19.229546 114.168625,18.943378 
	C99.321083,16.769377 84.848862,17.810339 70.997551,24.002699 
	C70.997551,24.002699 70.989838,23.977699 70.257263,23.982939 
	C67.779015,25.265057 65.300758,26.547173 62.916397,27.867388 
	C62.916397,27.867388 62.897270,27.767881 62.282825,27.810167 
	C61.809357,28.166082 61.335888,28.521999 60.946564,28.923609 
	C60.946564,28.923609 60.934063,28.828678 60.319237,28.861900 
	C59.847748,29.216608 59.376259,29.571316 58.979115,29.970646 
	C58.979115,29.970646 58.960270,29.886017 58.364002,29.934072 
	C57.916988,30.292686 57.469975,30.651299 57.001320,30.996983 
	C57.001320,30.996983 57.007233,31.020844 56.401905,31.093960 
	C55.840210,31.628139 55.278515,32.162319 54.807209,32.892380 
	C54.807209,32.892380 54.777351,32.678726 54.084915,32.755501 
	C51.294067,35.075542 48.503216,37.395584 45.739731,39.854279 
	C45.739731,39.854279 45.785278,39.720493 45.255810,39.872040 
	C45.079979,40.179718 44.904148,40.487396 44.846626,40.831238 
	C44.846626,40.831238 44.787560,40.722538 44.255478,40.847710 
	C44.068394,41.143356 43.881310,41.439007 43.884377,41.761383 
	C43.884377,41.761383 43.716778,41.667656 43.119549,41.832935 
	C42.642769,42.477024 42.165993,43.121113 41.797546,43.843452 
	C41.797546,43.843452 41.765137,43.713802 41.238129,43.870708 
	C41.071991,44.183823 40.905853,44.496937 40.853447,44.851673 
	C40.853447,44.851673 40.802517,44.741795 40.268307,44.880390 
	C40.090511,45.188377 39.912716,45.496365 39.841400,45.751987 
	C39.841400,45.751987 39.726395,45.722771 39.128208,45.935524 
	C38.357262,46.935814 37.586315,47.936104 36.248295,49.276089 
	C26.393894,61.841003 20.041725,75.845459 18.262625,92.614090 
	C17.692476,102.375778 17.065079,112.142403 20.632393,121.760696 
	C20.632393,121.760696 20.768421,121.976883 20.759411,122.806801 
	C23.801947,129.907089 26.844482,137.007385 29.956455,144.091797 
	C29.956455,144.091797 29.906944,144.040588 29.990259,144.586334 
	C30.265160,144.805237 30.540062,145.024139 30.815710,145.120422 
	C30.815710,145.120422 30.707991,145.179016 30.800198,145.847748 
	C31.844875,147.262909 32.889553,148.678070 33.974220,150.005569 
	C33.974220,150.005569 33.896976,150.063156 34.005600,150.663986 
	C34.564064,151.211502 35.122528,151.759033 35.803066,152.228455 
	C35.803066,152.228455 35.658344,152.220901 35.747005,152.806747 
	C36.157555,153.211929 36.568104,153.617126 37.000610,154.000610 
	C37.000610,154.000610 36.974892,154.016022 37.084404,154.538269 
	C37.372677,154.724335 37.660950,154.910400 37.957981,155.007431 
	C37.957981,155.007431 37.898716,155.074432 38.064007,155.718674 
	C39.614170,157.244064 41.164333,158.769440 42.829300,160.257263 
	C42.829300,160.257263 42.718525,160.209106 42.864880,160.746124 
	C43.179062,160.921524 43.493240,161.096909 43.762058,161.169586 
	C43.762058,161.169586 43.715431,161.271744 43.915825,161.886536 
	C45.257061,162.954468 46.598297,164.022415 47.993938,165.026230 
	C47.993938,165.026230 47.911800,165.044281 48.093796,165.538193 
	C48.393559,165.700546 48.693321,165.862885 49.000633,165.998077 
	C49.000633,165.998077 48.976299,166.012436 49.270309,166.612762 
	C50.760395,167.526779 52.250484,168.440796 53.822773,169.254868 
	C53.822773,169.254868 53.693485,169.249374 53.889915,169.883041 
	C55.583057,170.940643 57.276196,171.998245 58.995247,172.998734 
	C58.995247,172.998734 58.944729,173.035965 59.273026,173.545792 
	C59.832882,173.743057 60.392742,173.940308 60.967003,174.048599 
	C60.967003,174.048599 60.888062,174.092102 61.265514,174.665375 
	C63.839577,175.785873 66.413635,176.906372 68.996658,177.996613 
	C68.996658,177.996613 68.971642,178.017212 69.449821,178.536240 
	C73.289711,179.718964 77.129601,180.901688 81.373367,182.497025 
	C81.931282,182.584518 82.489197,182.672012 83.799843,183.051956 
	C98.391891,186.238113 112.779999,185.633560 127.510254,180.762909 
	C127.998978,180.492355 128.487701,180.221817 129.719955,179.922348 
	C133.175415,178.302567 136.630859,176.682800 140.018478,175.015717 
	C140.018478,175.015717 140.035828,175.096588 140.713425,175.026886 
	C142.182205,174.050873 143.650986,173.074844 145.038803,172.036514 
	C145.038803,172.036514 145.064453,172.135406 145.609634,172.025223 
	C145.812958,171.736465 146.016281,171.447723 146.159470,171.226517 
	C146.159470,171.226517 146.243622,171.259674 146.847733,171.198853 
	C147.152878,170.360428 147.956390,169.051407 147.681702,168.760498 
	C145.989899,166.968811 144.054794,165.406876 142.104492,163.831924 
	C142.104492,163.831924 142.217987,163.851349 142.073212,163.313248 
	C141.760223,163.139587 141.447250,162.965927 141.166794,162.892944 
	C141.166794,162.892944 141.221237,162.802231 141.047226,162.191818 
	C140.105545,161.376907 139.163849,160.561981 138.056992,159.936569 
	C138.056992,159.936569 138.253784,159.780151 138.075119,159.200653 
	C137.455856,158.716049 136.836609,158.231445 136.131149,157.818680 
	C136.131149,157.818680 136.241989,157.836105 136.087357,157.303665 
	C135.778793,157.121918 135.470245,156.940170 135.136581,156.866394 
	C135.136581,156.866394 135.242157,156.832550 135.085220,156.301575 
	C134.776764,156.120651 134.468307,155.939713 134.134827,155.867447 
	C134.134827,155.867447 134.241241,155.834167 134.082809,155.301117 
	C133.771606,155.122894 133.460403,154.944672 133.179153,154.866760 
	C133.179153,154.866760 133.243225,154.783966 133.048874,154.175018 
	C130.228439,150.437424 128.264267,153.991257 126.000000,155.000000 
	C126.000000,155.000000 126.002602,155.002197 125.245865,155.046677 
	C116.721092,158.530487 107.791451,161.196686 98.681694,159.750214 
	C89.672440,158.319672 80.933685,155.185547 72.081909,152.894241 
	C72.081909,152.894241 72.166367,152.849243 71.845261,152.299255 
	C70.908508,151.834320 69.971764,151.369385 69.016907,150.984879 
	C69.016907,150.984879 69.084358,150.937454 68.764359,150.349976 
	C65.566696,147.830856 62.369022,145.311737 59.099861,142.867630 
	C59.099861,142.867630 59.202877,142.878922 59.063122,142.341812 
	C58.765156,142.145935 58.467190,141.950058 58.143337,141.862350 
	C58.143337,141.862350 58.248802,141.827011 58.090870,141.297424 
	C57.785511,141.113327 57.480152,140.929214 57.163383,140.871582 
	C57.163383,140.871582 57.280258,140.821930 57.142567,140.207458 
	C56.435150,139.460983 55.727737,138.714508 54.997303,137.998322 
	C54.997303,137.998322 55.033298,137.986755 54.912395,137.466232 
	C54.627041,137.273727 54.341682,137.081207 54.049965,136.978363 
	C54.049965,136.978363 54.118366,136.920044 53.994015,136.327576 
	C53.439667,135.783813 52.885315,135.240051 52.113758,134.789719 
	C52.113758,134.789719 52.347733,134.755585 52.278931,134.102951 
	C51.538380,133.043228 50.797832,131.983505 50.011284,130.997604 
	C50.011284,130.997604 50.084362,130.950424 49.992641,130.229279 
	C48.075211,125.947563 46.157780,121.665855 44.393089,117.226257 
	C44.393089,117.226257 44.319942,117.019127 44.275673,116.137360 
	C43.682411,109.757156 43.089149,103.376953 42.763088,96.347328 
	C42.753807,95.882462 42.744522,95.417587 42.967522,94.179428 
	C44.980377,87.447128 46.993233,80.714836 49.200119,73.773544 
	C49.200119,73.773544 49.147202,73.493324 49.660629,73.155548 
	C49.798779,72.779350 49.936928,72.403160 50.002781,72.015106 
	C50.002781,72.015106 50.050961,72.070305 50.620358,71.710678 
	C51.868916,69.565712 53.117474,67.420746 54.178505,65.345367 
	C54.178505,65.345367 54.377911,65.329674 54.969448,65.111557 
	C56.018761,63.770790 57.068073,62.430023 58.053963,61.016987 
	C58.053963,61.016987 58.060928,61.112885 58.581921,60.965401 
	C58.751907,60.660080 58.921890,60.354763 59.016327,60.013748 
	C59.016327,60.013748 59.051060,60.089745 59.553658,59.924404 
	C59.733150,59.632126 59.912647,59.339848 60.016167,59.018021 
	C60.016167,59.018021 60.048428,59.092876 60.571396,58.953857 
M104.828224,76.451241 
	C101.537544,76.642265 98.133591,76.356850 94.975960,77.107521 
	C81.917984,80.211815 73.849739,93.930878 76.982689,107.226860 
	C80.118423,120.534660 93.475571,129.067917 106.559692,126.122231 
	C118.129478,123.517464 126.697136,113.325005 126.841148,101.994514 
	C126.999069,89.569489 118.573853,79.515213 104.828224,76.451241 
z"/>
<path fill="#2B9AF7" opacity="1.000000" stroke="none" 
	d="
M153.080887,73.002365 
	C153.080887,73.002365 152.856186,72.744492 152.880768,72.212158 
	C152.494293,71.180229 152.083252,70.680649 151.672195,70.181068 
	C151.672195,70.181068 151.791595,70.198997 151.819611,69.860153 
	C149.770554,65.880951 149.794342,60.427090 143.784988,60.181164 
	C143.784988,60.181164 143.852356,60.107708 143.792480,59.883141 
	C143.415039,59.487038 143.097458,59.315498 142.779892,59.143959 
	C142.779892,59.143963 142.884399,59.114861 142.804169,58.892120 
	C142.401794,58.502586 142.079636,58.335793 141.757492,58.169003 
	C141.757492,58.169003 141.865631,58.137531 141.789734,57.910950 
	C141.386246,57.524845 141.058655,57.365318 140.731049,57.205791 
	C140.731049,57.205791 140.853683,57.184166 140.779236,56.898434 
	C139.783157,56.089020 138.861526,55.565338 137.939911,55.041656 
	C137.939911,55.041656 137.998367,55.002628 137.957977,54.666054 
	C136.580200,53.579666 135.242844,52.829845 133.905472,52.080025 
	C133.905472,52.080029 134.005966,52.034985 133.953461,51.694374 
	C132.249741,50.584393 130.598495,49.815025 128.947266,49.045662 
	C128.947266,49.045662 128.994385,48.999363 128.843002,48.702797 
	C122.032471,44.400658 115.361275,40.441101 107.051361,42.739357 
	C106.279350,42.741463 105.507347,42.743565 104.243759,42.303688 
	C101.497498,42.094311 99.242821,42.326912 96.988144,42.559513 
	C96.538414,42.651691 96.088684,42.743870 94.983498,42.551159 
	C89.807289,43.114723 85.150246,43.543369 80.811356,44.952003 
	C77.661873,45.974495 74.933487,48.294064 72.017342,50.035278 
	C72.017342,50.035278 72.004517,49.995853 71.652420,49.999649 
	C69.287796,51.454807 67.275269,52.906170 65.262741,54.357533 
	C65.262741,54.357533 65.304077,54.132812 64.916946,54.134628 
	C63.709511,55.122410 62.889217,56.108379 62.068924,57.094349 
	C62.068924,57.094349 62.006989,57.034584 61.802391,57.130058 
	C61.415543,57.515228 61.233295,57.804924 61.051044,58.094620 
	C61.051044,58.094620 61.018616,58.018295 60.810104,58.123871 
	C60.417206,58.517258 60.232819,58.805069 60.048431,59.092880 
	C60.048428,59.092876 60.016167,59.018021 59.807316,59.121826 
	C59.415997,59.513672 59.233528,59.801708 59.051060,60.089745 
	C59.051060,60.089745 59.016327,60.013748 58.806847,60.124146 
	C58.418552,60.527325 58.239742,60.820107 58.060928,61.112885 
	C58.060928,61.112885 58.053963,61.016987 57.723064,61.052170 
	C56.387413,62.501457 55.382664,63.915565 54.377914,65.329674 
	C54.377911,65.329674 54.178505,65.345367 53.899994,65.331879 
	C52.431313,67.569038 51.241138,69.819672 50.050964,72.070305 
	C50.050961,72.070305 50.002781,72.015106 49.771294,72.178528 
	C49.408936,72.725739 49.278069,73.109535 49.147202,73.493324 
	C49.147202,73.493324 49.200119,73.773544 48.786682,74.032822 
	C44.408302,80.609840 40.396843,86.914886 42.735241,94.952721 
	C42.744522,95.417587 42.753807,95.882462 42.288734,96.814896 
	C42.011021,103.377541 42.162704,109.474991 42.485207,115.563400 
	C42.512550,116.079590 43.681400,116.535316 44.319942,117.019127 
	C44.319942,117.019127 44.393089,117.226257 44.251770,117.756874 
	C42.536728,124.190315 46.116238,127.662041 50.084362,130.950424 
	C50.084362,130.950424 50.011284,130.997604 50.010971,131.327332 
	C50.789688,132.689896 51.568710,133.722733 52.347733,134.755585 
	C52.347733,134.755585 52.113758,134.789719 52.146416,135.096573 
	C52.825500,135.908966 53.471931,136.414505 54.118366,136.920044 
	C54.118366,136.920044 54.049965,136.978363 54.131737,137.181870 
	C54.486767,137.585831 54.760033,137.786301 55.033298,137.986755 
	C55.033298,137.986755 54.997303,137.998322 55.023170,138.320953 
	C55.792778,139.369690 56.536518,140.095810 57.280258,140.821930 
	C57.280258,140.821930 57.163383,140.871582 57.223732,141.090729 
	C57.605659,141.482269 57.927231,141.654633 58.248802,141.827011 
	C58.248802,141.827011 58.143337,141.862350 58.208641,142.087585 
	C58.583588,142.501526 58.893234,142.690216 59.202877,142.878922 
	C59.202877,142.878922 59.099861,142.867630 59.105732,143.193466 
	C61.216457,147.631348 64.364944,150.340347 69.084358,150.937454 
	C69.084358,150.937454 69.016907,150.984879 69.148758,151.260773 
	C70.242523,151.974197 71.204445,152.411728 72.166367,152.849243 
	C72.166367,152.849243 72.081909,152.894241 72.225494,153.163696 
	C74.943932,154.912766 77.378639,156.756348 80.117188,157.810867 
	C94.268791,163.260132 108.534431,162.981430 122.733353,157.957657 
	C124.011635,157.505371 124.921585,156.012039 126.002594,155.002197 
	C126.002602,155.002197 126.000000,155.000000 126.448914,155.010315 
	C129.012970,154.941727 131.128098,154.862839 133.243225,154.783966 
	C133.243225,154.783966 133.179153,154.866760 133.227905,155.095276 
	C133.598175,155.493912 133.919708,155.664032 134.241241,155.834167 
	C134.241241,155.834167 134.134827,155.867447 134.206970,156.093124 
	C134.600113,156.490051 134.921143,156.661301 135.242157,156.832550 
	C135.242157,156.832550 135.136581,156.866394 135.208176,157.092651 
	C135.600510,157.491302 135.921249,157.663696 136.241989,157.836105 
	C136.241989,157.836105 136.131149,157.818680 136.142776,158.144547 
	C136.854202,158.906998 137.553986,159.343567 138.253784,159.780151 
	C138.253784,159.780151 138.056992,159.936569 138.096497,160.213379 
	C139.164413,161.260880 140.192825,162.031555 141.221237,162.802231 
	C141.221237,162.802231 141.166794,162.892944 141.217300,163.116425 
	C141.584534,163.510406 141.901260,163.680878 142.217987,163.851349 
	C142.217987,163.851349 142.104492,163.831924 142.123871,164.159348 
	C143.510040,166.744400 144.876831,169.002045 146.243622,171.259674 
	C146.243622,171.259674 146.159470,171.226517 145.916199,171.241409 
	C145.470093,171.549332 145.267273,171.842361 145.064453,172.135406 
	C145.064453,172.135406 145.038803,172.036514 144.714630,172.036255 
	C142.938904,173.056198 141.487366,174.076385 140.035828,175.096588 
	C140.035828,175.096588 140.018478,175.015717 139.653259,175.018463 
	C135.850830,176.664566 132.413635,178.307907 128.976425,179.951263 
	C128.487701,180.221817 127.998978,180.492355 126.941490,180.521149 
	C118.393738,181.302719 110.420090,182.371170 102.431870,183.316528 
	C100.522232,183.542526 98.561821,183.419510 96.628601,183.350159 
	C92.100204,183.187698 87.574127,182.960495 83.047112,182.759506 
	C82.489197,182.672012 81.931282,182.584518 81.114197,181.908661 
	C76.893906,180.219284 72.932770,179.118256 68.971642,178.017212 
	C68.971642,178.017212 68.996658,177.996613 68.944656,177.655731 
	C66.224464,176.240601 63.556263,175.166351 60.888062,174.092102 
	C60.888062,174.092102 60.967003,174.048599 60.821037,173.811859 
	C60.098289,173.395401 59.521507,173.215683 58.944729,173.035965 
	C58.944729,173.035965 58.995247,172.998734 58.956303,172.670105 
	C57.176067,171.310776 55.434776,170.280075 53.693489,169.249374 
	C53.693485,169.249374 53.822773,169.254868 53.753540,168.936859 
	C52.114967,167.750046 50.545635,166.881241 48.976303,166.012436 
	C48.976299,166.012436 49.000633,165.998077 48.891708,165.776031 
	C48.492462,165.384079 48.202133,165.214172 47.911804,165.044281 
	C47.911800,165.044281 47.993938,165.026230 47.958931,164.698853 
	C46.521091,163.338226 45.118259,162.304993 43.715431,161.271744 
	C43.715431,161.271744 43.762058,161.169586 43.732895,160.934723 
	C43.375332,160.536285 43.046928,160.372696 42.718529,160.209106 
	C42.718525,160.209106 42.829300,160.257263 42.841293,159.908859 
	C41.201763,158.065109 39.550240,156.569778 37.898716,155.074432 
	C37.898716,155.074432 37.957981,155.007431 37.874107,154.806656 
	C37.518448,154.409271 37.246666,154.212646 36.974892,154.016022 
	C36.974892,154.016022 37.000610,154.000610 36.976070,153.691498 
	C36.520470,152.995224 36.089409,152.608063 35.658348,152.220901 
	C35.658344,152.220901 35.803066,152.228455 35.814186,151.913406 
	C35.182529,151.086624 34.539753,150.574890 33.896973,150.063156 
	C33.896976,150.063156 33.974220,150.005569 33.951260,149.694275 
	C32.854862,147.981644 31.781425,146.580338 30.707989,145.179016 
	C30.707991,145.179016 30.815710,145.120422 30.780132,144.907776 
	C30.465351,144.476944 30.186146,144.258774 29.906944,144.040588 
	C29.906944,144.040588 29.956455,144.091797 29.957645,143.720764 
	C26.895363,136.225449 23.831892,129.101166 20.768421,121.976883 
	C20.768421,121.976883 20.632393,121.760696 20.762791,121.189102 
	C20.577730,112.044205 20.299078,103.469177 19.897730,94.899887 
	C19.850422,93.889763 19.129541,92.911194 18.720905,91.917992 
	C20.041725,75.845459 26.393894,61.841003 36.900646,49.097065 
	C38.277462,47.852951 39.001926,46.787861 39.726395,45.722771 
	C39.726395,45.722771 39.841400,45.751987 40.071938,45.730759 
	C40.469158,45.386951 40.635838,45.064373 40.802517,44.741795 
	C40.802517,44.741795 40.853447,44.851673 41.080391,44.777767 
	C41.459938,44.373840 41.612537,44.043819 41.765137,43.713802 
	C41.765137,43.713802 41.797546,43.843452 42.078079,43.779423 
	C42.811333,43.032814 43.264057,42.350235 43.716778,41.667656 
	C43.716778,41.667656 43.884377,41.761383 44.079834,41.725548 
	C44.446049,41.367317 44.616802,41.044930 44.787560,40.722538 
	C44.787560,40.722538 44.846626,40.831238 45.073563,40.766823 
	C45.462090,40.375103 45.623684,40.047798 45.785278,39.720493 
	C45.785278,39.720493 45.739731,39.854279 46.099747,39.852051 
	C49.265141,37.497559 54.094521,37.492886 54.777351,32.678726 
	C54.777351,32.678726 54.807209,32.892380 55.105034,32.865936 
	C55.937653,32.233273 56.472443,31.627058 57.007233,31.020844 
	C57.007233,31.020844 57.001320,30.996983 57.317345,30.988064 
	C58.075668,30.614771 58.517967,30.250393 58.960270,29.886017 
	C58.960270,29.886017 58.979115,29.970646 59.261551,29.954525 
	C60.007347,29.568495 60.470703,29.198587 60.934063,28.828678 
	C60.934063,28.828678 60.946564,28.923609 61.232086,28.922791 
	C61.977493,28.537275 62.437382,28.152578 62.897270,27.767879 
	C62.897270,27.767881 62.916397,27.867388 63.272171,27.904295 
	C66.081909,26.620035 68.535873,25.298866 70.989838,23.977699 
	C70.989838,23.977699 70.997551,24.002699 71.425056,24.007851 
	C74.668716,23.353506 77.456863,22.516350 80.306168,22.067080 
	C89.700462,20.585808 98.979897,17.807278 108.700172,19.894663 
	C110.647903,20.312929 112.867943,19.463152 114.962425,19.198051 
	C115.434479,19.229546 115.906540,19.261042 116.821381,19.763634 
	C122.689568,21.768652 128.114960,23.302572 133.540359,24.836493 
	C133.540359,24.836493 133.772659,24.734053 134.023041,25.140373 
	C136.878693,26.675650 139.483932,27.804602 142.089188,28.933556 
	C142.089188,28.933556 142.000351,28.971006 142.054749,29.293980 
	C143.513062,30.271412 144.916977,30.925871 146.320877,31.580330 
	C146.320877,31.580328 146.379181,31.754400 146.375870,32.017479 
	C146.982574,32.450512 147.592590,32.620472 148.202606,32.790428 
	C148.202606,32.790428 148.089279,32.912121 148.191406,33.114780 
	C148.633377,33.448326 148.973206,33.579212 149.313049,33.710094 
	C149.313049,33.710094 149.184586,33.734497 149.270966,34.008900 
	C149.945511,34.489880 150.533691,34.696457 151.121857,34.903038 
	C151.121857,34.903038 151.038528,34.953701 151.145782,35.214149 
	C151.942413,35.887386 152.631775,36.300179 153.321152,36.712967 
	C153.321152,36.712967 153.204697,36.769096 153.278534,37.030491 
	C153.926590,37.509399 154.500824,37.726913 155.075058,37.944427 
	C155.075058,37.944427 155.012207,37.993927 155.118683,38.201916 
	C155.518112,38.587452 155.811050,38.764999 156.104004,38.942543 
	C156.104004,38.942543 156.010849,38.946568 156.045807,39.272881 
	C159.346130,43.098331 160.867996,48.393448 166.370422,49.588181 
	C166.370422,49.588181 166.230850,49.711418 166.210022,50.043129 
	C167.130783,51.247334 168.072357,52.119831 169.013931,52.992332 
	C169.013931,52.992332 168.999390,52.999847 169.017197,53.318390 
	C169.697113,54.422188 170.359222,55.207443 171.021332,55.992699 
	C171.021332,55.992699 170.998062,55.999191 171.021896,56.332718 
	C171.790756,57.729519 172.535782,58.792793 173.280807,59.856071 
	C173.280807,59.856071 173.148407,59.903805 173.136475,60.185173 
	C173.537201,60.904736 173.949860,61.342930 174.362503,61.781124 
	C174.362503,61.781124 174.214203,61.976196 174.165710,62.239388 
	C174.778259,63.315380 175.439316,64.128181 176.100388,64.940979 
	C176.100388,64.940979 176.027664,65.000938 176.021744,65.344368 
	C177.050110,67.808212 178.084396,69.928627 179.118683,72.049042 
	C179.118683,72.049049 179.271835,72.228531 179.175034,72.776703 
	C180.052399,75.887444 181.026550,78.450020 182.000717,81.012596 
	C182.000717,81.012596 182.188156,81.336334 182.109833,82.002472 
	C182.039413,85.160477 181.691467,87.714706 182.115387,90.133675 
	C184.215591,102.117935 182.520844,113.833786 179.909286,125.493202 
	C179.159546,128.840393 178.086395,132.115143 177.161530,135.423111 
	C177.161530,135.423111 177.184296,135.747162 176.836594,136.040833 
	C176.326508,136.891388 176.164124,137.448257 176.001740,138.005142 
	C176.001740,138.005142 176.000000,138.000000 175.748840,138.173584 
	C175.382553,138.732697 175.267426,139.118225 175.152298,139.503769 
	C175.152298,139.503769 175.195190,139.785645 174.867218,140.022644 
	C174.418640,140.582214 174.298050,140.904800 174.177460,141.227371 
	C174.177460,141.227371 174.166885,141.106506 173.864929,141.208801 
	C173.058929,142.564819 172.554901,143.818527 172.050888,145.072235 
	C172.050888,145.072235 172.008087,145.010666 171.692230,145.142929 
	C169.923615,145.513000 168.470856,145.750824 167.018112,145.988632 
	C167.018112,145.988632 166.999390,146.000000 166.977448,145.674164 
	C166.508072,144.998550 166.060654,144.648788 165.613235,144.299042 
	C165.613235,144.299042 165.718002,144.383560 165.762604,144.001785 
	C163.873260,142.075760 161.939316,140.531509 160.005356,138.987259 
	C159.726242,138.818115 159.447128,138.648956 159.053909,137.918823 
	C158.301102,136.900879 157.662384,136.443893 157.023682,135.986923 
	C157.023682,135.986923 156.999298,136.001221 156.904205,135.766449 
	C156.612579,135.253769 156.348541,135.076233 156.016998,134.999054 
	C156.016998,134.999054 155.997574,135.002289 155.902618,134.768311 
	C155.611893,134.253830 155.347763,134.073288 155.015274,133.992737 
	C154.738647,133.814514 154.462036,133.636292 154.103363,132.798523 
	C153.909241,131.013367 153.797165,129.887756 153.685089,128.762146 
	C153.685074,128.762146 153.680191,128.972260 154.037689,128.821960 
	C154.848572,128.208557 155.480530,127.825470 155.729111,127.270630 
	C161.634308,114.089661 163.946091,100.435570 159.743622,86.376045 
	C158.338272,81.674377 155.347137,77.446709 153.080887,73.002365 
z"/>
<path fill="#59D8FC" opacity="1.000000" stroke="none" 
	d="
M105.231766,76.569824 
	C118.573853,79.515213 126.999069,89.569489 126.841148,101.994514 
	C126.697136,113.325005 118.129478,123.517464 106.559692,126.122231 
	C93.475571,129.067917 80.118423,120.534660 76.982689,107.226860 
	C73.849739,93.930878 81.917984,80.211815 94.975960,77.107521 
	C98.133591,76.356850 101.537544,76.642265 105.231766,76.569824 
z"/>
<path fill="#3C9AE9" opacity="1.000000" stroke="none" 
	d="
M153.110535,73.363068 
	C155.347137,77.446709 158.338272,81.674377 159.743622,86.376045 
	C163.946091,100.435570 161.634308,114.089661 155.729111,127.270630 
	C155.480530,127.825470 154.848572,128.208557 154.019958,128.718353 
	C155.731552,120.808998 158.673477,112.960960 159.695679,104.870384 
	C161.071411,93.981529 158.145111,83.518028 153.110535,73.363068 
z"/>
<path fill="#3C9AE9" opacity="1.000000" stroke="none" 
	d="
M125.624229,155.024445 
	C124.921585,156.012039 124.011635,157.505371 122.733353,157.957657 
	C108.534431,162.981430 94.268791,163.260132 80.117188,157.810867 
	C77.378639,156.756348 74.943932,154.912766 72.222672,153.115936 
	C80.933685,155.185547 89.672440,158.319672 98.681694,159.750214 
	C107.791451,161.196686 116.721092,158.530487 125.624229,155.024445 
z"/>
<path fill="#3C9AE9" opacity="1.000000" stroke="none" 
	d="
M177.439224,135.178925 
	C178.086395,132.115143 179.159546,128.840393 179.909286,125.493202 
	C182.520844,113.833786 184.215591,102.117935 182.115387,90.133675 
	C181.691467,87.714706 182.039413,85.160477 182.078003,82.186790 
	C187.368500,100.004105 185.078644,117.679413 177.439224,135.178925 
z"/>
<path fill="#3C9AE9" opacity="1.000000" stroke="none" 
	d="
M83.423477,182.905731 
	C87.574127,182.960495 92.100204,183.187698 96.628601,183.350159 
	C98.561821,183.419510 100.522232,183.542526 102.431870,183.316528 
	C110.420090,182.371170 118.393738,181.302719 126.654800,180.505249 
	C112.779999,185.633560 98.391891,186.238113 83.423477,182.905731 
z"/>
<path fill="#3C9AE9" opacity="1.000000" stroke="none" 
	d="
M114.565521,19.070715 
	C112.867943,19.463152 110.647903,20.312929 108.700172,19.894663 
	C98.979897,17.807278 89.700462,20.585808 80.306168,22.067080 
	C77.456863,22.516350 74.668716,23.353506 71.414322,23.999420 
	C84.848862,17.810339 99.321083,16.769377 114.565521,19.070715 
z"/>
<path fill="#3C9AE9" opacity="1.000000" stroke="none" 
	d="
M72.378159,49.987518 
	C74.933487,48.294064 77.661873,45.974495 80.811356,44.952003 
	C85.150246,43.543369 89.807289,43.114723 94.639664,42.503181 
	C87.547180,45.139988 80.143074,47.539875 72.378159,49.987518 
z"/>
<path fill="#539EDD" opacity="1.000000" stroke="none" 
	d="
M18.491764,92.266037 
	C19.129541,92.911194 19.850422,93.889763 19.897730,94.899887 
	C20.299078,103.469177 20.577730,112.044205 20.824326,121.077194 
	C17.065079,112.142403 17.692476,102.375778 18.491764,92.266037 
z"/>
<path fill="#3C9AE9" opacity="1.000000" stroke="none" 
	d="
M107.442497,42.855896 
	C115.361275,40.441101 122.032471,44.400658 128.832397,48.734055 
	C121.926674,47.032063 114.880150,45.002247 107.442497,42.855896 
z"/>
<path fill="#3C9AE9" opacity="1.000000" stroke="none" 
	d="
M42.851379,94.566071 
	C40.396843,86.914886 44.408302,80.609840 48.689667,74.137321 
	C46.993233,80.714836 44.980377,87.447128 42.851379,94.566071 
z"/>
<path fill="#3C9AE9" opacity="1.000000" stroke="none" 
	d="
M44.297806,116.578247 
	C43.681400,116.535316 42.512550,116.079590 42.485207,115.563400 
	C42.162704,109.474991 42.011021,103.377541 42.155136,97.139603 
	C43.089149,103.376953 43.682411,109.757156 44.297806,116.578247 
z"/>
<path fill="#539EDD" opacity="1.000000" stroke="none" 
	d="
M20.763916,122.391846 
	C23.831892,129.101166 26.895363,136.225449 29.922926,143.728699 
	C26.844482,137.007385 23.801947,129.907089 20.763916,122.391846 
z"/>
<path fill="#3C9AE9" opacity="1.000000" stroke="none" 
	d="
M166.280441,49.271805 
	C160.867996,48.393448 159.346130,43.098331 156.082458,39.244057 
	C159.452911,42.244423 162.821686,45.599930 166.280441,49.271805 
z"/>
<path fill="#3C9AE9" opacity="1.000000" stroke="none" 
	d="
M50.038502,130.589844 
	C46.116238,127.662041 42.536728,124.190315 44.175400,117.835815 
	C46.157780,121.665855 48.075211,125.947563 50.038502,130.589844 
z"/>
<path fill="#3C9AE9" opacity="1.000000" stroke="none" 
	d="
M133.287048,24.550945 
	C128.114960,23.302572 122.689568,21.768652 117.134262,19.936529 
	C122.347481,21.180683 127.690620,22.723040 133.287048,24.550945 
z"/>
<path fill="#3C9AE9" opacity="1.000000" stroke="none" 
	d="
M143.884888,60.503658 
	C149.794342,60.427090 149.770554,65.880951 151.775391,69.901260 
	C149.130386,67.129524 146.557602,63.977840 143.884888,60.503658 
z"/>
<path fill="#3C9AE9" opacity="1.000000" stroke="none" 
	d="
M68.924362,150.643707 
	C64.364944,150.340347 61.216457,147.631348 59.141479,143.155960 
	C62.369022,145.311737 65.566696,147.830856 68.924362,150.643707 
z"/>
<path fill="#3C9AE9" opacity="1.000000" stroke="none" 
	d="
M54.431133,32.717113 
	C54.094521,37.492886 49.265141,37.497559 46.086067,39.782726 
	C48.503216,37.395584 51.294067,35.075542 54.431133,32.717113 
z"/>
<path fill="#3C9AE9" opacity="1.000000" stroke="none" 
	d="
M129.348190,179.936798 
	C132.413635,178.307907 135.850830,176.664566 139.687180,175.042130 
	C136.630859,176.682800 133.175415,178.302567 129.348190,179.936798 
z"/>
<path fill="#3C9AE9" opacity="1.000000" stroke="none" 
	d="
M146.545685,171.229263 
	C144.876831,169.002045 143.510040,166.744400 142.171936,164.127655 
	C144.054794,165.406876 145.989899,166.968811 147.681702,168.760498 
	C147.956390,169.051407 147.152878,170.360428 146.545685,171.229263 
z"/>
<path fill="#3C9AE9" opacity="1.000000" stroke="none" 
	d="
M69.210732,178.276733 
	C72.932770,179.118256 76.893906,180.219284 80.912262,181.702362 
	C77.129601,180.901688 73.289711,179.718964 69.210732,178.276733 
z"/>
<path fill="#3C9AE9" opacity="1.000000" stroke="none" 
	d="
M70.623550,23.980320 
	C68.535873,25.298866 66.081909,26.620035 63.225227,27.885246 
	C65.300758,26.547173 67.779015,25.265057 70.623550,23.980320 
z"/>
<path fill="#3C9AE9" opacity="1.000000" stroke="none" 
	d="
M61.076790,174.378738 
	C63.556263,175.166351 66.224464,176.240601 68.940186,177.670853 
	C66.413635,176.906372 63.839577,175.785873 61.076790,174.378738 
z"/>
<path fill="#3C9AE9" opacity="1.000000" stroke="none" 
	d="
M160.139374,139.290375 
	C161.939316,140.531509 163.873260,142.075760 165.696121,143.991364 
	C163.814468,142.772964 162.043930,141.183243 160.139374,139.290375 
z"/>
<path fill="#3C9AE9" opacity="1.000000" stroke="none" 
	d="
M182.026413,80.623589 
	C181.026550,78.450020 180.052399,75.887444 179.122070,72.882118 
	C180.127975,75.037773 181.090042,77.636177 182.026413,80.623589 
z"/>
<path fill="#3C9AE9" opacity="1.000000" stroke="none" 
	d="
M97.417831,42.662617 
	C99.242821,42.326912 101.497498,42.094311 103.873734,42.186317 
	C101.946037,42.595856 99.896774,42.680790 97.417831,42.662617 
z"/>
<path fill="#3C9AE9" opacity="1.000000" stroke="none" 
	d="
M50.335663,71.890488 
	C51.241138,69.819672 52.431313,67.569038 53.993759,65.297089 
	C53.117474,67.420746 51.868916,69.565712 50.335663,71.890488 
z"/>
<path fill="#3C9AE9" opacity="1.000000" stroke="none" 
	d="
M133.146057,154.479492 
	C131.128098,154.862839 129.012970,154.941727 126.449677,155.011612 
	C128.264267,153.991257 130.228439,150.437424 133.146057,154.479492 
z"/>
<path fill="#3C9AE9" opacity="1.000000" stroke="none" 
	d="
M37.981361,155.396545 
	C39.550240,156.569778 41.201763,158.065109 42.783890,159.927643 
	C41.164333,158.769440 39.614170,157.244064 37.981361,155.396545 
z"/>
<path fill="#3C9AE9" opacity="1.000000" stroke="none" 
	d="
M141.917877,28.636946 
	C139.483932,27.804602 136.878693,26.675650 134.117783,25.224865 
	C136.556931,26.048803 139.151749,27.194571 141.917877,28.636946 
z"/>
<path fill="#3C9AE9" opacity="1.000000" stroke="none" 
	d="
M65.603050,54.315701 
	C67.275269,52.906170 69.287796,51.454807 71.668625,50.012882 
	C70.005745,51.439503 67.974556,52.856686 65.603050,54.315701 
z"/>
<path fill="#3C9AE9" opacity="1.000000" stroke="none" 
	d="
M43.815628,161.579132 
	C45.118259,162.304993 46.521091,163.338226 47.931732,164.730911 
	C46.598297,164.022415 45.257061,162.954468 43.815628,161.579132 
z"/>
<path fill="#3C9AE9" opacity="1.000000" stroke="none" 
	d="
M179.105225,71.676529 
	C178.084396,69.928627 177.050110,67.808212 176.040649,65.301201 
	C177.074249,67.044411 178.082993,69.174217 179.105225,71.676529 
z"/>
<path fill="#3C9AE9" opacity="1.000000" stroke="none" 
	d="
M129.113922,49.330090 
	C130.598495,49.815025 132.249741,50.584393 133.913132,51.731888 
	C132.377045,51.278187 130.828812,50.446354 129.113922,49.330090 
z"/>
<path fill="#3C9AE9" opacity="1.000000" stroke="none" 
	d="
M54.673683,65.220612 
	C55.382664,63.915565 56.387413,62.501457 57.754776,61.088303 
	C57.068073,62.430023 56.018761,63.770790 54.673683,65.220612 
z"/>
<path fill="#3C9AE9" opacity="1.000000" stroke="none" 
	d="
M167.113312,146.285583 
	C168.470856,145.750824 169.923615,145.513000 171.728745,145.151382 
	C171.130478,147.656509 170.144836,150.175797 167.113312,146.285583 
z"/>
<path fill="#3C9AE9" opacity="1.000000" stroke="none" 
	d="
M53.791702,169.566208 
	C55.434776,170.280075 57.176067,171.310776 58.943344,172.698669 
	C57.276196,171.998245 55.583057,170.940643 53.791702,169.566208 
z"/>
<path fill="#3C9AE9" opacity="1.000000" stroke="none" 
	d="
M49.123306,166.312592 
	C50.545635,166.881241 52.114967,167.750046 53.712437,168.986847 
	C52.250484,168.440796 50.760395,167.526779 49.123306,166.312592 
z"/>
<path fill="#3C9AE9" opacity="1.000000" stroke="none" 
	d="
M146.184998,31.294512 
	C144.916977,30.925871 143.513062,30.271412 142.086014,29.257282 
	C143.391617,29.601307 144.720367,30.304998 146.184998,31.294512 
z"/>
<path fill="#3C9AE9" opacity="1.000000" stroke="none" 
	d="
M140.374634,175.061737 
	C141.487366,174.076385 142.938904,173.056198 144.755112,172.067413 
	C143.650986,173.074844 142.182205,174.050873 140.374634,175.061737 
z"/>
<path fill="#3C9AE9" opacity="1.000000" stroke="none" 
	d="
M134.058136,52.364082 
	C135.242844,52.829845 136.580200,53.579666 137.939529,54.695972 
	C136.711258,54.257687 135.461029,53.452915 134.058136,52.364082 
z"/>
<path fill="#3C9AE9" opacity="1.000000" stroke="none" 
	d="
M30.754093,145.513382 
	C31.781425,146.580338 32.854862,147.981644 33.931267,149.738098 
	C32.889553,148.678070 31.844875,147.262909 30.754093,145.513382 
z"/>
<path fill="#3C9AE9" opacity="1.000000" stroke="none" 
	d="
M62.379414,57.020233 
	C62.889217,56.108379 63.709511,55.122410 64.923264,54.248695 
	C64.441116,55.222672 63.565510,56.084396 62.379414,57.020233 
z"/>
<path fill="#3C9AE9" opacity="1.000000" stroke="none" 
	d="
M168.965729,52.674843 
	C168.072357,52.119831 167.130783,51.247334 166.298157,50.013119 
	C167.243896,50.553387 168.080704,51.455372 168.965729,52.674843 
z"/>
<path fill="#3C9AE9" opacity="1.000000" stroke="none" 
	d="
M39.427299,45.829147 
	C39.001926,46.787861 38.277462,47.852951 37.184181,48.927216 
	C37.586315,47.936104 38.357262,46.935814 39.427299,45.829147 
z"/>
<path fill="#3C9AE9" opacity="1.000000" stroke="none" 
	d="
M141.134232,162.497025 
	C140.192825,162.031555 139.164413,161.260880 138.179077,160.118637 
	C139.163849,160.561981 140.105545,161.376907 141.134232,162.497025 
z"/>
<path fill="#3C9AE9" opacity="1.000000" stroke="none" 
	d="
M153.418381,128.918945 
	C153.797165,129.887756 153.909241,131.013367 154.018677,132.561432 
	C153.727905,131.681183 153.439789,130.378479 153.418381,128.918945 
z"/>
<path fill="#3C9AE9" opacity="1.000000" stroke="none" 
	d="
M52.313332,134.429260 
	C51.568710,133.722733 50.789688,132.689896 50.033974,131.290405 
	C50.797832,131.983505 51.538380,133.043228 52.313332,134.429260 
z"/>
<path fill="#3C9AE9" opacity="1.000000" stroke="none" 
	d="
M172.332886,144.896515 
	C172.554901,143.818527 173.058929,142.564819 173.921082,141.231750 
	C173.724411,142.341858 173.169647,143.531326 172.332886,144.896515 
z"/>
<path fill="#3C9AE9" opacity="1.000000" stroke="none" 
	d="
M176.075897,64.623077 
	C175.439316,64.128181 174.778259,63.315380 174.216187,62.127747 
	C174.893906,62.603664 175.472656,63.454418 176.075897,64.623077 
z"/>
<path fill="#3C9AE9" opacity="1.000000" stroke="none" 
	d="
M173.252808,59.522198 
	C172.535782,58.792793 171.790756,57.729519 171.029266,56.322758 
	C171.750137,57.048958 172.487488,58.118641 173.252808,59.522198 
z"/>
<path fill="#3C9AE9" opacity="1.000000" stroke="none" 
	d="
M56.704567,31.057402 
	C56.472443,31.627058 55.937653,32.233273 55.059841,32.767994 
	C55.278515,32.162319 55.840210,31.628139 56.704567,31.057402 
z"/>
<path fill="#3C9AE9" opacity="1.000000" stroke="none" 
	d="
M54.056190,136.623810 
	C53.471931,136.414505 52.825500,135.908966 52.255020,135.049866 
	C52.885315,135.240051 53.439667,135.783813 54.056190,136.623810 
z"/>
<path fill="#3C9AE9" opacity="1.000000" stroke="none" 
	d="
M57.211411,140.514694 
	C56.536518,140.095810 55.792778,139.369690 55.034679,138.305801 
	C55.727737,138.714508 56.435150,139.460983 57.211411,140.514694 
z"/>
<path fill="#3C9AE9" opacity="1.000000" stroke="none" 
	d="
M33.951286,150.363571 
	C34.539753,150.574890 35.182529,151.086624 35.753151,151.952454 
	C35.122528,151.759033 34.564064,151.211502 33.951286,150.363571 
z"/>
<path fill="#3C9AE9" opacity="1.000000" stroke="none" 
	d="
M72.005814,152.574249 
	C71.204445,152.411728 70.242523,151.974197 69.157806,151.220551 
	C69.971764,151.369385 70.908508,151.834320 72.005814,152.574249 
z"/>
<path fill="#3C9AE9" opacity="1.000000" stroke="none" 
	d="
M170.984161,55.680569 
	C170.359222,55.207443 169.697113,54.422188 169.021973,53.311279 
	C169.654968,53.779900 170.300995,54.574169 170.984161,55.680569 
z"/>
<path fill="#3C9AE9" opacity="1.000000" stroke="none" 
	d="
M138.164459,159.490402 
	C137.553986,159.343567 136.854202,158.906998 136.185883,158.108627 
	C136.836609,158.231445 137.455856,158.716049 138.164459,159.490402 
z"/>
<path fill="#3C9AE9" opacity="1.000000" stroke="none" 
	d="
M138.078064,55.325699 
	C138.861526,55.565338 139.783157,56.089020 140.754852,56.955727 
	C139.942032,56.735752 139.079117,56.172749 138.078064,55.325699 
z"/>
<path fill="#3C9AE9" opacity="1.000000" stroke="none" 
	d="
M153.228897,36.415909 
	C152.631775,36.300179 151.942413,35.887386 151.158081,35.166965 
	C151.754303,35.279171 152.445465,35.699009 153.228897,36.415909 
z"/>
<path fill="#3C9AE9" opacity="1.000000" stroke="none" 
	d="
M157.122223,136.263763 
	C157.662384,136.443893 158.301102,136.900879 158.974075,137.680054 
	C158.412476,137.515045 157.816605,137.027817 157.122223,136.263763 
z"/>
<path fill="#3C9AE9" opacity="1.000000" stroke="none" 
	d="
M43.418163,41.750298 
	C43.264057,42.350235 42.811333,43.032814 42.023911,43.740295 
	C42.165993,43.121113 42.642769,42.477024 43.418163,41.750298 
z"/>
<path fill="#3C9AE9" opacity="1.000000" stroke="none" 
	d="
M58.662136,29.910044 
	C58.517967,30.250393 58.075668,30.614771 57.328163,30.994530 
	C57.469975,30.651299 57.916988,30.292686 58.662136,29.910044 
z"/>
<path fill="#3C9AE9" opacity="1.000000" stroke="none" 
	d="
M35.702675,152.513824 
	C36.089409,152.608063 36.520470,152.995224 36.965088,153.702347 
	C36.568104,153.617126 36.157555,153.211929 35.702675,152.513824 
z"/>
<path fill="#3C9AE9" opacity="1.000000" stroke="none" 
	d="
M174.342377,61.476570 
	C173.949860,61.342930 173.537201,60.904736 173.178467,60.128700 
	C173.595673,60.251240 173.958954,60.711624 174.342377,61.476570 
z"/>
<path fill="#3C9AE9" opacity="1.000000" stroke="none" 
	d="
M151.704407,70.505905 
	C152.083252,70.680649 152.494293,71.180229 152.875336,72.041229 
	C152.475769,71.878670 152.106201,71.354713 151.704407,70.505905 
z"/>
<path fill="#3C9AE9" opacity="1.000000" stroke="none" 
	d="
M165.671600,144.583664 
	C166.060654,144.648788 166.508072,144.998550 166.983536,145.664795 
	C166.584366,145.610291 166.157166,145.239288 165.671600,144.583664 
z"/>
<path fill="#3C9AE9" opacity="1.000000" stroke="none" 
	d="
M60.626648,28.845289 
	C60.470703,29.198587 60.007347,29.568495 59.224380,29.932213 
	C59.376259,29.571316 59.847748,29.216608 60.626648,28.845289 
z"/>
<path fill="#3C9AE9" opacity="1.000000" stroke="none" 
	d="
M59.108879,173.290878 
	C59.521507,173.215683 60.098289,173.395401 60.813835,173.856354 
	C60.392742,173.940308 59.832882,173.743057 59.108879,173.290878 
z"/>
<path fill="#3C9AE9" opacity="1.000000" stroke="none" 
	d="
M148.057343,32.524380 
	C147.592590,32.620472 146.982574,32.450512 146.326004,31.940420 
	C146.823654,31.819633 147.367859,32.038982 148.057343,32.524380 
z"/>
<path fill="#3C9AE9" opacity="1.000000" stroke="none" 
	d="
M154.949387,37.670906 
	C154.500824,37.726913 153.926590,37.509399 153.298035,36.968864 
	C153.770370,36.896358 154.297043,37.146870 154.949387,37.670906 
z"/>
<path fill="#3C9AE9" opacity="1.000000" stroke="none" 
	d="
M62.590050,27.789024 
	C62.437382,28.152578 61.977493,28.537275 61.190010,28.899944 
	C61.335888,28.521999 61.809357,28.166082 62.590050,27.789024 
z"/>
<path fill="#3C9AE9" opacity="1.000000" stroke="none" 
	d="
M150.995132,34.626831 
	C150.533691,34.696457 149.945511,34.489880 149.304840,33.952980 
	C149.791031,33.865318 150.329727,34.107971 150.995132,34.626831 
z"/>
<path fill="#3C9AE9" opacity="1.000000" stroke="none" 
	d="
M176.237305,137.825989 
	C176.164124,137.448257 176.326508,136.891388 176.735107,136.167664 
	C176.811829,136.549484 176.642349,137.098160 176.237305,137.825989 
z"/>
<path fill="#3C9AE9" opacity="1.000000" stroke="none" 
	d="
M136.164673,157.569885 
	C135.921249,157.663696 135.600510,157.491302 135.220734,157.038651 
	C135.470245,156.940170 135.778793,157.121918 136.164673,157.569885 
z"/>
<path fill="#3C9AE9" opacity="1.000000" stroke="none" 
	d="
M156.023102,38.685966 
	C155.811050,38.764999 155.518112,38.587452 155.130798,38.163795 
	C155.338348,38.088253 155.640274,38.258823 156.023102,38.685966 
z"/>
<path fill="#3C9AE9" opacity="1.000000" stroke="none" 
	d="
M61.305695,58.013409 
	C61.233295,57.804924 61.415543,57.515228 61.845131,57.135078 
	C61.915096,57.340481 61.737724,57.636341 61.305695,58.013409 
z"/>
<path fill="#3C9AE9" opacity="1.000000" stroke="none" 
	d="
M42.791702,160.477615 
	C43.046928,160.372696 43.375332,160.536285 43.755577,160.986084 
	C43.493240,161.096909 43.179062,160.921524 42.791702,160.477615 
z"/>
<path fill="#3C9AE9" opacity="1.000000" stroke="none" 
	d="
M40.535412,44.811092 
	C40.635838,45.064373 40.469158,45.386951 40.018696,45.756939 
	C39.912716,45.496365 40.090511,45.188377 40.535412,44.811092 
z"/>
<path fill="#3C9AE9" opacity="1.000000" stroke="none" 
	d="
M41.501633,43.792255 
	C41.612537,44.043819 41.459938,44.373840 41.023529,44.756958 
	C40.905853,44.496937 41.071991,44.183823 41.501633,43.792255 
z"/>
<path fill="#3C9AE9" opacity="1.000000" stroke="none" 
	d="
M142.145599,163.582306 
	C141.901260,163.680878 141.584534,163.510406 141.201035,163.066101 
	C141.447250,162.965927 141.760223,163.139587 142.145599,163.582306 
z"/>
<path fill="#3C9AE9" opacity="1.000000" stroke="none" 
	d="
M149.219177,33.451820 
	C148.973206,33.579212 148.633377,33.448326 148.220123,33.036755 
	C148.472916,32.901894 148.799103,33.047718 149.219177,33.451820 
z"/>
<path fill="#3C9AE9" opacity="1.000000" stroke="none" 
	d="
M141.842072,58.432301 
	C142.079636,58.335793 142.401794,58.502586 142.793579,58.945320 
	C142.551041,59.046040 142.238861,58.870819 141.842072,58.432301 
z"/>
<path fill="#3C9AE9" opacity="1.000000" stroke="none" 
	d="
M48.002800,165.291229 
	C48.202133,165.214172 48.492462,165.384079 48.887936,165.789612 
	C48.693321,165.862885 48.393559,165.700546 48.002800,165.291229 
z"/>
<path fill="#3C9AE9" opacity="1.000000" stroke="none" 
	d="
M44.521519,40.785126 
	C44.616802,41.044930 44.446049,41.367317 43.984756,41.712181 
	C43.881310,41.439007 44.068394,41.143356 44.521519,40.785126 
z"/>
<path fill="#3C9AE9" opacity="1.000000" stroke="none" 
	d="
M145.337036,172.080322 
	C145.267273,171.842361 145.470093,171.549332 145.946274,171.207642 
	C146.016281,171.447723 145.812958,171.736465 145.337036,172.080322 
z"/>
<path fill="#3C9AE9" opacity="1.000000" stroke="none" 
	d="
M45.520546,39.796265 
	C45.623684,40.047798 45.462090,40.375103 45.014404,40.748741 
	C44.904148,40.487396 45.079979,40.179718 45.520546,39.796265 
z"/>
<path fill="#3C9AE9" opacity="1.000000" stroke="none" 
	d="
M58.321426,61.039146 
	C58.239742,60.820107 58.418552,60.527325 58.844620,60.141991 
	C58.921890,60.354763 58.751907,60.660080 58.321426,61.039146 
z"/>
<path fill="#3C9AE9" opacity="1.000000" stroke="none" 
	d="
M155.087662,134.235199 
	C155.347763,134.073288 155.611893,134.253830 155.904205,134.758591 
	C155.720520,134.814438 155.440292,134.646042 155.087662,134.235199 
z"/>
<path fill="#3C9AE9" opacity="1.000000" stroke="none" 
	d="
M54.972847,137.726501 
	C54.760033,137.786301 54.486767,137.585831 54.134914,137.137039 
	C54.341682,137.081207 54.627041,137.273727 54.972847,137.726501 
z"/>
<path fill="#3C9AE9" opacity="1.000000" stroke="none" 
	d="
M175.400421,139.323212 
	C175.267426,139.118225 175.382553,138.732697 175.750885,138.173569 
	C175.885574,138.380875 175.767044,138.761780 175.400421,139.323212 
z"/>
<path fill="#3C9AE9" opacity="1.000000" stroke="none" 
	d="
M174.424103,141.113037 
	C174.298050,140.904800 174.418640,140.582214 174.768692,140.125687 
	C174.889008,140.327377 174.779861,140.663040 174.424103,141.113037 
z"/>
<path fill="#3C9AE9" opacity="1.000000" stroke="none" 
	d="
M58.169838,141.562225 
	C57.927231,141.654633 57.605659,141.482269 57.229439,141.027496 
	C57.480152,140.929214 57.785511,141.113327 58.169838,141.562225 
z"/>
<path fill="#3C9AE9" opacity="1.000000" stroke="none" 
	d="
M59.132999,142.610367 
	C58.893234,142.690216 58.583588,142.501526 58.221584,142.033508 
	C58.467190,141.950058 58.765156,142.145935 59.132999,142.610367 
z"/>
<path fill="#3C9AE9" opacity="1.000000" stroke="none" 
	d="
M49.403915,73.324432 
	C49.278069,73.109535 49.408936,72.725739 49.807442,72.184456 
	C49.936928,72.403160 49.798779,72.779350 49.403915,73.324432 
z"/>
<path fill="#3C9AE9" opacity="1.000000" stroke="none" 
	d="
M29.948601,144.313461 
	C30.186146,144.258774 30.465351,144.476944 30.779758,144.969086 
	C30.540062,145.024139 30.265160,144.805237 29.948601,144.313461 
z"/>
<path fill="#3C9AE9" opacity="1.000000" stroke="none" 
	d="
M135.163696,156.567062 
	C134.921143,156.661301 134.600113,156.490051 134.219482,156.038788 
	C134.468307,155.939713 134.776764,156.120651 135.163696,156.567062 
z"/>
<path fill="#3C9AE9" opacity="1.000000" stroke="none" 
	d="
M142.861145,59.409622 
	C143.097458,59.315498 143.415039,59.487038 143.804993,59.931381 
	C143.565720,60.027889 143.254059,59.851589 142.861145,59.409622 
z"/>
<path fill="#3C9AE9" opacity="1.000000" stroke="none" 
	d="
M59.302361,60.007072 
	C59.233528,59.801708 59.415997,59.513672 59.845303,59.136604 
	C59.912647,59.339848 59.733150,59.632126 59.302361,60.007072 
z"/>
<path fill="#3C9AE9" opacity="1.000000" stroke="none" 
	d="
M37.029648,154.277145 
	C37.246666,154.212646 37.518448,154.409271 37.869728,154.851166 
	C37.660950,154.910400 37.372677,154.724335 37.029648,154.277145 
z"/>
<path fill="#3C9AE9" opacity="1.000000" stroke="none" 
	d="
M156.089691,135.241531 
	C156.348541,135.076233 156.612579,135.253769 156.909088,135.753189 
	C156.726807,135.811127 156.444595,135.647568 156.089691,135.241531 
z"/>
<path fill="#3C9AE9" opacity="1.000000" stroke="none" 
	d="
M60.309914,59.023369 
	C60.232819,58.805069 60.417206,58.517258 60.848549,58.139404 
	C60.920807,58.350857 60.746101,58.652359 60.309914,59.023369 
z"/>
<path fill="#3C9AE9" opacity="1.000000" stroke="none" 
	d="
M140.815643,57.467644 
	C141.058655,57.365318 141.386246,57.524845 141.775757,57.965492 
	C141.525177,58.074242 141.212708,57.901871 140.815643,57.467644 
z"/>
<path fill="#3C9AE9" opacity="1.000000" stroke="none" 
	d="
M134.162018,155.567642 
	C133.919708,155.664032 133.598175,155.493912 133.212921,155.045105 
	C133.460403,154.944672 133.771606,155.122894 134.162018,155.567642 
z"/>
</svg>
