<svg version="1.1" id="Layer_1" xmlns="http://www.w3.org/2000/svg" xmlns:xlink="http://www.w3.org/1999/xlink" x="0px" y="0px"
	 width="100%" viewBox="0 0 200 200" enable-background="new 0 0 200 200" xml:space="preserve">
<path fill="#2655DD" opacity="1.000000" stroke="none" 
	d="
M117.000000,201.000000 
	C109.312424,201.000000 101.624847,201.000000 93.299973,200.682236 
	C91.841171,199.865814 91.077286,199.103104 90.189255,198.909332 
	C81.235901,196.955734 72.262215,195.095306 63.223679,193.244873 
	C63.153122,193.281021 63.075863,193.142548 62.876640,192.840515 
	C60.023849,191.445908 57.370274,190.353333 54.775452,189.249054 
	C54.834209,189.237350 54.853298,189.355637 54.666035,189.065643 
	C53.259281,188.226944 52.039791,187.678238 50.874893,187.114243 
	C50.929482,187.098938 50.958324,187.208603 50.759819,186.977844 
	C50.014099,186.510254 49.466877,186.273438 48.948895,186.024536 
	C48.978130,186.012451 48.973194,186.075531 48.892849,185.733871 
	C46.851688,184.272675 44.890877,183.153122 42.960434,182.023834 
	C42.990803,182.014084 42.991016,182.077881 42.833305,181.807648 
	C41.969360,181.147827 41.263123,180.758224 40.625801,180.337952 
	C40.694717,180.307251 40.593147,180.418823 40.557789,180.078369 
	C39.619884,179.206894 38.717339,178.675842 37.850876,178.131256 
	C37.886955,178.117706 37.868858,178.192627 37.811260,177.837906 
	C36.342606,176.518677 34.931545,175.554169 33.566784,174.526611 
	C33.613083,174.463547 33.481995,174.548981 33.387661,174.326080 
	C33.088875,173.826859 32.816296,173.665848 32.449829,173.617249 
	C32.424061,173.614349 32.404076,173.566483 32.334518,173.289612 
	C31.829582,172.679199 31.394207,172.345657 30.983324,172.003815 
	C31.007818,171.995514 30.995108,172.045654 30.872648,171.827713 
	C30.542942,171.337357 30.280828,171.136581 29.983978,171.001007 
	C30.004108,170.994568 29.985352,171.032440 29.904007,170.733917 
	C29.201027,169.945938 28.579390,169.456467 27.735775,168.880661 
	C27.234529,168.598083 27.080486,168.329910 26.964935,167.702393 
	C26.432001,167.040283 25.985800,166.665588 25.585754,166.292450 
	C25.631908,166.294022 25.621645,166.385818 25.601345,166.064697 
	C24.989649,165.202118 24.398252,164.660645 23.842373,164.116882 
	C23.877888,164.114594 23.860731,164.183670 23.862947,163.807175 
	C22.514664,160.201538 22.304558,156.023361 17.349150,155.680603 
	C17.254034,155.646194 17.283291,155.446014 17.358772,155.076569 
	C14.569939,149.489380 11.705623,144.271637 8.876545,139.066315 
	C8.911782,139.078720 8.885357,139.148605 8.916253,138.738647 
	C8.517044,136.403244 8.082261,134.478836 7.657721,132.552170 
	C6.422124,126.944786 5.258721,121.320351 3.933116,115.734367 
	C3.077137,112.127357 1.985840,108.576195 1.000000,105.000000 
	C1.000000,99.311958 1.000000,93.623917 1.370365,87.300430 
	C2.514562,83.179214 3.138728,79.652191 4.086066,76.214226 
	C11.232141,50.280495 25.768345,29.819513 49.094101,15.901527 
	C49.182358,15.956402 49.405712,15.792984 49.405712,15.792984 
	C49.405712,15.792984 49.350155,15.496935 49.372452,15.412956 
	C49.394749,15.328978 49.565666,15.360378 49.928642,15.453677 
	C51.531155,14.693236 52.770691,13.839497 54.007225,13.003229 
	C54.004219,13.020701 53.973896,13.002303 54.266644,12.966885 
	C55.044155,12.614179 55.528919,12.296892 56.010193,12.001398 
	C56.006699,12.023192 55.969299,11.999739 56.269501,11.955531 
	C57.082718,11.593990 57.595730,11.276658 58.153168,10.864954 
	C58.197590,10.770582 58.401878,10.812823 58.810745,10.837535 
	C61.145115,9.897512 63.070610,8.932778 64.993179,7.991378 
	C64.990242,8.014712 64.955437,7.983076 65.355904,8.006278 
	C67.492371,7.328904 69.228371,6.628327 70.963150,5.960243 
	C70.961929,5.992736 70.917122,5.945598 71.360664,5.974959 
	C78.310570,4.991403 84.827988,4.041144 91.311447,2.898306 
	C92.288803,2.726029 93.107765,1.655188 94.000000,0.999999 
	C129.597809,1.000000 165.195602,1.000000 201.000000,1.000000 
	C201.000000,40.687321 201.000000,80.375000 200.654495,120.646339 
	C199.510117,122.822174 198.452560,124.337067 197.950378,126.017891 
	C186.543182,164.198364 161.847961,188.585037 123.058243,198.461990 
	C120.959488,198.996399 119.015854,200.139999 117.000000,201.000000 
M139.476105,150.026901 
	C128.489807,157.828003 116.305252,162.423599 102.818802,162.871216 
	C80.480293,163.612640 63.035934,153.955002 49.367558,136.799789 
	C47.124241,133.984192 44.604382,132.207214 41.363205,134.662491 
	C38.075405,137.153076 39.194759,140.085831 41.379593,142.908691 
	C74.687050,185.942673 131.619278,180.060394 161.535828,142.798294 
	C163.641739,140.175308 164.594925,137.286118 161.737228,134.859787 
	C158.708374,132.288132 156.181198,133.734955 153.643234,136.445557 
	C149.339233,141.042328 144.609848,145.240799 139.476105,150.026901 
z"/>
<path fill="#FCFDFE" opacity="1.000000" stroke="none" 
	d="
M58.401878,10.812823 
	C58.401878,10.812823 58.197590,10.770582 57.837437,10.876200 
	C56.974621,11.321125 56.471962,11.660432 55.969299,11.999739 
	C55.969299,11.999739 56.006699,12.023192 55.709427,12.011883 
	C54.932735,12.334484 54.453316,12.668394 53.973896,13.002304 
	C53.973896,13.002303 54.004219,13.020701 53.683762,13.028545 
	C52.097424,13.811052 50.831543,14.585715 49.565666,15.360378 
	C49.565666,15.360378 49.394749,15.328978 49.235920,15.450819 
	C49.077091,15.572659 49.005844,15.846654 49.005844,15.846654 
	C25.768345,29.819513 11.232141,50.280495 4.086066,76.214226 
	C3.138728,79.652191 2.514562,83.179214 1.370365,86.832497 
	C1.000000,58.406425 1.000000,29.812853 1.000000,1.000000 
	C29.353851,1.000000 57.708267,1.000000 86.350967,1.343430 
	C81.398544,3.106440 76.157829,4.526019 70.917122,5.945598 
	C70.917122,5.945598 70.961929,5.992736 70.598228,5.940307 
	C68.474831,6.586277 66.715134,7.284677 64.955437,7.983076 
	C64.955437,7.983076 64.990242,8.014712 64.627319,7.995885 
	C62.310223,8.922313 60.356052,9.867568 58.401878,10.812823 
z"/>
<path fill="#FCFEFE" opacity="1.000000" stroke="none" 
	d="
M117.468658,201.000000 
	C119.015854,200.139999 120.959488,198.996399 123.058243,198.461990 
	C161.847961,188.585037 186.543182,164.198364 197.950378,126.017891 
	C198.452560,124.337067 199.510117,122.822174 200.654495,121.114998 
	C201.000000,147.595337 201.000000,174.190689 201.000000,201.000000 
	C173.312805,201.000000 145.625061,201.000000 117.468658,201.000000 
z"/>
<path fill="#FCFDFE" opacity="1.000000" stroke="none" 
	d="
M63.075863,193.142548 
	C63.075863,193.142548 63.153122,193.281021 63.490803,193.527008 
	C68.343330,195.215118 72.841026,196.714188 77.378555,198.081039 
	C80.893204,199.139771 84.457680,200.033127 88.000000,201.000000 
	C59.073521,201.000000 30.147039,201.000000 1.000000,201.000000 
	C1.000000,172.646149 1.000000,144.291733 1.345489,115.645950 
	C4.089103,123.285927 6.487229,131.217270 8.885356,139.148605 
	C8.885357,139.148605 8.911782,139.078720 8.897776,139.440613 
	C11.683611,145.017014 14.483453,150.231522 17.283291,155.446014 
	C17.283291,155.446014 17.254034,155.646194 17.471165,155.985733 
	C19.745775,158.944733 21.803253,161.564209 23.860733,164.183670 
	C23.860731,164.183670 23.877888,164.114594 23.920147,164.407303 
	C24.515486,165.261948 25.068567,165.823883 25.621647,166.385818 
	C25.621645,166.385818 25.631908,166.294022 25.690815,166.570129 
	C26.183701,167.227448 26.617682,167.608643 27.051664,167.989822 
	C27.080486,168.329910 27.234529,168.598083 27.831848,169.167755 
	C28.761713,170.038269 29.373529,170.535355 29.985348,171.032440 
	C29.985352,171.032440 30.004108,170.994568 30.061596,171.253342 
	C30.411089,171.689957 30.703096,171.867813 30.995106,172.045654 
	C30.995108,172.045654 31.007818,171.995514 31.068258,172.264847 
	C31.553823,172.878281 31.978947,173.222382 32.404076,173.566483 
	C32.404076,173.566483 32.424061,173.614349 32.567554,173.823547 
	C32.913471,174.286392 33.170456,174.458466 33.481995,174.548981 
	C33.481995,174.548981 33.613083,174.463547 33.736359,174.792328 
	C35.196041,176.144958 36.532452,177.168793 37.868858,178.192627 
	C37.868858,178.192627 37.886955,178.117706 37.984398,178.408600 
	C38.918945,179.272598 39.756046,179.845718 40.593147,180.418823 
	C40.593147,180.418823 40.694717,180.307251 40.794117,180.595154 
	C41.592686,181.281326 42.291855,181.679596 42.991020,182.077881 
	C42.991016,182.077881 42.990803,182.014084 43.116486,182.319641 
	C45.152508,183.775299 47.062851,184.925415 48.973194,186.075531 
	C48.973194,186.075531 48.978130,186.012451 49.110565,186.289093 
	C49.814774,186.780029 50.386551,186.994308 50.958328,187.208603 
	C50.958324,187.208603 50.929482,187.098938 51.060555,187.395416 
	C52.412186,188.246490 53.632744,188.801056 54.853302,189.355621 
	C54.853298,189.355637 54.834209,189.237350 54.989967,189.521454 
	C57.789104,190.917877 60.432484,192.030212 63.075863,193.142548 
z"/>
<path fill="#3F60C8" opacity="1.000000" stroke="none" 
	d="
M8.916252,138.738647 
	C6.487229,131.217270 4.089103,123.285927 1.345489,115.177292 
	C1.000000,111.969406 1.000000,108.938812 1.000000,105.454109 
	C1.985840,108.576195 3.077137,112.127357 3.933116,115.734367 
	C5.258721,121.320351 6.422124,126.944786 7.657721,132.552170 
	C8.082261,134.478836 8.517044,136.403244 8.916252,138.738647 
z"/>
<path fill="#3F60C8" opacity="1.000000" stroke="none" 
	d="
M88.416664,201.000000 
	C84.457680,200.033127 80.893204,199.139771 77.378555,198.081039 
	C72.841026,196.714188 68.343330,195.215118 63.561363,193.490845 
	C72.262215,195.095306 81.235901,196.955734 90.189255,198.909332 
	C91.077286,199.103104 91.841171,199.865814 92.831337,200.682236 
	C91.611107,201.000000 90.222221,201.000000 88.416664,201.000000 
z"/>
<path fill="#3E60C7" opacity="1.000000" stroke="none" 
	d="
M71.360664,5.974959 
	C76.157829,4.526019 81.398544,3.106440 86.819626,1.343430 
	C89.041664,1.000000 91.083336,1.000000 93.562500,0.999999 
	C93.107765,1.655188 92.288803,2.726029 91.311447,2.898306 
	C84.827988,4.041144 78.310570,4.991403 71.360664,5.974959 
z"/>
<path fill="#F5F9FD" opacity="1.000000" stroke="none" 
	d="
M139.767670,149.816803 
	C144.609848,145.240799 149.339233,141.042328 153.643234,136.445557 
	C156.181198,133.734955 158.708374,132.288132 161.737228,134.859787 
	C164.594925,137.286118 163.641739,140.175308 161.535828,142.798294 
	C131.619278,180.060394 74.687050,185.942673 41.379593,142.908691 
	C39.194759,140.085831 38.075405,137.153076 41.363205,134.662491 
	C44.604382,132.207214 47.124241,133.984192 49.367558,136.799789 
	C63.035934,153.955002 80.480293,163.612640 102.818802,162.871216 
	C116.305252,162.423599 128.489807,157.828003 139.767670,149.816803 
z"/>
<path fill="#3F60C8" opacity="1.000000" stroke="none" 
	d="
M17.358774,155.076569 
	C14.483453,150.231522 11.683611,145.017014 8.862538,139.428223 
	C11.705623,144.271637 14.569939,149.489380 17.358774,155.076569 
z"/>
<path fill="#3F60C8" opacity="1.000000" stroke="none" 
	d="
M23.862949,163.807175 
	C21.803253,161.564209 19.745775,158.944733 17.566280,156.020142 
	C22.304558,156.023361 22.514664,160.201538 23.862949,163.807175 
z"/>
<path fill="#3F60C8" opacity="1.000000" stroke="none" 
	d="
M62.876640,192.840515 
	C60.432484,192.030212 57.789104,190.917877 54.931213,189.533142 
	C57.370274,190.353333 60.023849,191.445908 62.876640,192.840515 
z"/>
<path fill="#3F60C8" opacity="1.000000" stroke="none" 
	d="
M48.892849,185.733871 
	C47.062851,184.925415 45.152508,183.775299 43.086117,182.329376 
	C44.890877,183.153122 46.851688,184.272675 48.892849,185.733871 
z"/>
<path fill="#3E60C7" opacity="1.000000" stroke="none" 
	d="
M58.810745,10.837535 
	C60.356052,9.867568 62.310223,8.922313 64.630249,7.972551 
	C63.070610,8.932778 61.145115,9.897512 58.810745,10.837535 
z"/>
<path fill="#3F60C8" opacity="1.000000" stroke="none" 
	d="
M37.811264,177.837906 
	C36.532452,177.168793 35.196041,176.144958 33.690060,174.855408 
	C34.931545,175.554169 36.342606,176.518677 37.811264,177.837906 
z"/>
<path fill="#3E60C7" opacity="1.000000" stroke="none" 
	d="
M65.355904,8.006278 
	C66.715134,7.284677 68.474831,6.586277 70.599449,5.907814 
	C69.228371,6.628327 67.492371,7.328904 65.355904,8.006278 
z"/>
<path fill="#3E60C7" opacity="1.000000" stroke="none" 
	d="
M49.928642,15.453677 
	C50.831543,14.585715 52.097424,13.811052 53.686764,13.011073 
	C52.770691,13.839497 51.531155,14.693236 49.928642,15.453677 
z"/>
<path fill="#3F60C8" opacity="1.000000" stroke="none" 
	d="
M54.666039,189.065643 
	C53.632744,188.801056 52.412186,188.246490 51.005962,187.410736 
	C52.039791,187.678238 53.259281,188.226944 54.666039,189.065643 
z"/>
<path fill="#3F60C8" opacity="1.000000" stroke="none" 
	d="
M40.557789,180.078369 
	C39.756046,179.845718 38.918945,179.272598 37.948318,178.422150 
	C38.717339,178.675842 39.619884,179.206894 40.557789,180.078369 
z"/>
<path fill="#3F60C8" opacity="1.000000" stroke="none" 
	d="
M25.601345,166.064697 
	C25.068567,165.823883 24.515486,165.261948 23.884632,164.409607 
	C24.398252,164.660645 24.989649,165.202118 25.601345,166.064697 
z"/>
<path fill="#3F60C8" opacity="1.000000" stroke="none" 
	d="
M29.904005,170.733917 
	C29.373529,170.535355 28.761713,170.038269 28.053825,169.254089 
	C28.579390,169.456467 29.201027,169.945938 29.904005,170.733917 
z"/>
<path fill="#3F60C8" opacity="1.000000" stroke="none" 
	d="
M42.833309,181.807648 
	C42.291855,181.679596 41.592686,181.281326 40.725201,180.625854 
	C41.263123,180.758224 41.969360,181.147827 42.833309,181.807648 
z"/>
<path fill="#3F60C8" opacity="1.000000" stroke="none" 
	d="
M32.334518,173.289612 
	C31.978947,173.222382 31.553823,172.878281 31.043764,172.273148 
	C31.394207,172.345657 31.829582,172.679199 32.334518,173.289612 
z"/>
<path fill="#3F60C8" opacity="1.000000" stroke="none" 
	d="
M26.964931,167.702393 
	C26.617682,167.608643 26.183701,167.227448 25.644659,166.568573 
	C25.985800,166.665588 26.432001,167.040283 26.964931,167.702393 
z"/>
<path fill="#3E60C7" opacity="1.000000" stroke="none" 
	d="
M56.269501,11.955532 
	C56.471962,11.660432 56.974621,11.321125 57.793015,10.970572 
	C57.595730,11.276658 57.082718,11.593990 56.269501,11.955532 
z"/>
<path fill="#3E60C7" opacity="1.000000" stroke="none" 
	d="
M54.266644,12.966886 
	C54.453316,12.668394 54.932735,12.334484 55.712921,11.990089 
	C55.528919,12.296892 55.044155,12.614179 54.266644,12.966886 
z"/>
<path fill="#3F60C8" opacity="1.000000" stroke="none" 
	d="
M50.759823,186.977844 
	C50.386551,186.994308 49.814774,186.780029 49.081329,186.301178 
	C49.466877,186.273438 50.014099,186.510254 50.759823,186.977844 
z"/>
<path fill="#3F60C8" opacity="1.000000" stroke="none" 
	d="
M30.872646,171.827728 
	C30.703096,171.867813 30.411089,171.689957 30.041466,171.259781 
	C30.280828,171.136581 30.542942,171.337357 30.872646,171.827728 
z"/>
<path fill="#3F60C8" opacity="1.000000" stroke="none" 
	d="
M33.387661,174.326080 
	C33.170456,174.458466 32.913471,174.286392 32.593323,173.826447 
	C32.816296,173.665848 33.088875,173.826859 33.387661,174.326080 
z"/>
<path fill="#3E60C7" opacity="1.000000" stroke="none" 
	d="
M49.094101,15.901527 
	C49.005844,15.846654 49.077091,15.572659 49.213623,15.534798 
	C49.350155,15.496935 49.405712,15.792984 49.405712,15.792984 
	C49.405712,15.792984 49.182358,15.956402 49.094101,15.901527 
z"/>
</svg>