<svg version="1.1" id="Layer_1" xmlns="http://www.w3.org/2000/svg" xmlns:xlink="http://www.w3.org/1999/xlink" x="0px" y="0px"
	 width="100%" viewBox="0 0 200 200" enable-background="new 0 0 200 200" xml:space="preserve">
<path fill="#FFFFFF" opacity="1.000000" stroke="none" 
	d="
M127.000000,201.000000 
	C84.692825,201.000000 42.885651,201.000000 1.039238,201.000000 
	C1.039238,134.401199 1.039238,67.802368 1.039238,1.101770 
	C67.556999,1.101770 134.114197,1.101770 200.835693,1.101770 
	C200.835693,67.666336 200.835693,134.333130 200.835693,201.000000 
	C176.469315,201.000000 151.984665,201.000000 127.000000,201.000000 
M94.989677,35.997459 
	C94.989677,35.997459 94.965027,35.920242 94.269508,35.939075 
	C92.866241,36.638203 91.462975,37.337334 90.020096,37.993980 
	C90.020096,37.993980 90.018379,38.052044 89.417816,38.085632 
	C89.107323,38.327591 88.796822,38.569553 88.226845,38.750816 
	C88.226845,38.750816 88.015762,38.913494 87.397743,38.933857 
	C86.899414,39.258934 86.401093,39.584011 85.988968,39.975121 
	C85.988968,39.975121 85.939476,39.878468 85.230957,39.907860 
	C83.419571,40.842598 81.608177,41.777336 79.994118,42.714863 
	C79.994118,42.714863 79.799866,42.678082 79.080086,42.692238 
	C77.386597,43.466690 75.693108,44.241142 74.005547,45.003105 
	C74.005547,45.003105 74.019936,45.005913 73.251892,45.406883 
	C73.251892,49.476974 73.251892,53.547066 73.251892,57.648720 
	C92.373032,57.648720 111.091042,57.648720 130.748993,57.648720 
	C130.095169,53.106228 129.508179,49.028084 128.739761,44.787949 
	C128.739761,44.787949 128.502762,44.842564 128.012375,44.289429 
	C125.331383,43.197872 122.650383,42.106316 119.693596,40.843452 
	C119.693596,40.843452 119.368942,40.839924 118.887924,40.295750 
	C117.317093,39.760803 115.746269,39.225853 114.011848,38.961315 
	C114.011848,38.961315 114.199120,38.706779 113.812332,38.153400 
	C111.879578,37.414810 109.946831,36.676220 108.006439,35.999496 
	C108.006439,35.999496 108.058044,35.964504 107.652382,35.438816 
	C106.811752,35.204910 105.971130,34.971004 105.049477,34.879868 
	C105.049477,34.879868 105.180511,34.780979 104.768822,34.210979 
	C102.456467,34.406464 100.144119,34.601948 97.957405,34.883530 
	C97.957405,34.883530 97.881386,34.751545 97.218292,34.759487 
	C96.456612,35.152748 95.694923,35.546009 94.989677,35.997459 
M96.101349,87.569695 
	C97.072464,87.699181 98.043587,87.828674 99.842567,87.922516 
	C101.223061,87.932854 102.603554,87.943192 104.297913,88.577705 
	C106.379639,88.477654 108.461365,88.377609 110.543091,88.277565 
	C110.262398,87.134979 109.981705,85.992386 109.927101,84.298111 
	C110.335579,83.875748 110.744057,83.453384 111.557541,82.755234 
	C111.803810,82.514244 111.935745,82.221672 112.023895,81.396286 
	C112.023895,81.396286 112.242905,80.962013 112.664848,80.571869 
	C112.760689,80.014580 112.856522,79.457298 112.918175,78.100754 
	C112.929611,76.768242 112.941048,75.435730 113.005615,73.265968 
	C112.868988,67.091927 108.684097,63.318737 103.141342,65.135559 
	C101.774155,65.126297 100.406960,65.117035 98.560051,64.517113 
	C92.410423,63.666203 91.004799,64.929390 91.046616,71.650543 
	C91.046616,71.650543 90.819153,72.021057 90.399101,72.369568 
	C90.319992,72.719307 90.240883,73.069046 90.195992,74.211327 
	C90.153267,75.799187 90.110550,77.387039 89.496964,79.447144 
	C88.837715,84.344978 90.295189,85.998962 95.994743,86.972031 
	C95.994743,86.972031 96.066994,86.897858 96.101349,87.569695 
M69.175690,124.770386 
	C69.096870,125.510834 69.018059,126.251289 68.187263,127.015869 
	C67.153816,128.382004 66.042252,129.701447 65.168503,131.163055 
	C65.032539,131.390488 66.268898,132.816788 66.384560,132.756485 
	C67.343025,132.256699 68.187096,131.537506 69.707123,130.953781 
	C70.136681,130.966980 70.566246,130.980194 71.439659,131.538269 
	C75.832901,134.145752 78.359619,132.176880 80.335762,127.868103 
	C80.335762,127.868103 80.711578,127.874458 81.486198,127.962029 
	C83.069397,127.525383 86.123474,130.678574 86.381096,125.914101 
	C86.381096,125.914101 86.797195,125.912712 87.655525,125.978577 
	C90.543823,125.502350 93.432121,125.026123 96.536995,124.514183 
	C97.147896,128.345657 98.806122,128.935410 101.545631,125.984291 
	C102.549477,124.902908 103.820381,124.074547 104.884781,123.043350 
	C109.053467,119.004723 114.296684,118.032578 119.705254,120.305496 
	C120.428345,120.609367 121.231628,120.722412 122.208710,120.979279 
	C123.806755,114.269035 129.147507,113.217476 134.026901,112.614639 
	C134.687668,107.534225 135.749176,102.854172 135.696854,98.186592 
	C135.673523,96.106857 133.407837,94.052254 131.978302,91.308510 
	C131.615295,90.742996 131.252304,90.177475 130.296387,89.209557 
	C122.795258,90.496796 115.292984,91.777512 107.795792,93.087303 
	C107.340195,93.166901 106.833466,93.381577 106.504959,93.695183 
	C102.964554,97.075027 98.449783,98.123276 93.873146,98.995987 
	C90.942612,99.554802 87.866623,99.639603 85.079041,100.590935 
	C80.995628,101.984497 77.061684,105.437263 73.156868,105.303452 
	C68.738075,105.152039 66.775330,106.302536 65.982620,109.850525 
	C66.956390,111.913963 67.437004,114.008003 67.812950,116.120674 
	C68.280594,118.748756 68.661781,121.392220 69.175690,124.770386 
M117.502518,131.058929 
	C102.187157,136.026047 86.858925,140.954391 71.578957,146.028091 
	C70.244316,146.471268 68.314415,147.780472 68.211143,148.838669 
	C67.576401,155.342972 67.387733,161.890793 67.017708,169.061554 
	C89.435135,161.789536 111.053032,154.796738 132.638000,147.703735 
	C133.519958,147.413925 134.732285,146.160706 134.707626,145.391037 
	C134.503876,139.030701 134.044266,132.678574 133.632538,125.832039 
	C128.009125,127.668564 123.140053,129.258728 117.502518,131.058929 
M75.412636,136.600754 
	C73.352188,136.600754 71.291748,136.600754 69.231300,136.600754 
	C69.362267,137.445953 69.493225,138.291138 69.624184,139.136337 
	C71.607430,138.539703 73.590675,137.943069 75.412636,136.600754 
M78.694633,135.979065 
	C79.954430,136.203400 81.214218,136.427750 82.474014,136.652084 
	C82.462624,135.912704 82.451241,135.173309 82.439857,134.433929 
	C81.087463,134.743637 79.735069,135.053345 78.694633,135.979065 
z"/>
<path fill="#597BE9" opacity="1.000000" stroke="none" 
	d="
M117.886749,130.953918 
	C123.140053,129.258728 128.009125,127.668564 133.632538,125.832039 
	C134.044266,132.678574 134.503876,139.030701 134.707626,145.391037 
	C134.732285,146.160706 133.519958,147.413925 132.638000,147.703735 
	C111.053032,154.796738 89.435135,161.789536 67.017708,169.061554 
	C67.387733,161.890793 67.576401,155.342972 68.211143,148.838669 
	C68.314415,147.780472 70.244316,146.471268 71.578957,146.028091 
	C86.858925,140.954391 102.187157,136.026047 117.886749,130.953918 
z"/>
<path fill="#597BEA" opacity="1.000000" stroke="none" 
	d="
M68.939240,126.991737 
	C69.018059,126.251289 69.096870,125.510834 69.336288,124.049026 
	C69.646629,120.686485 70.172096,118.000572 69.864120,115.413895 
	C69.306015,110.726418 71.347755,108.919739 75.694565,107.565544 
	C94.164589,101.811417 112.502899,95.634476 130.889313,89.611954 
	C131.252304,90.177475 131.615295,90.742996 131.990387,92.107826 
	C132.131348,96.893929 131.779068,100.972382 132.516464,104.843239 
	C133.352325,109.230942 131.979218,110.904953 127.801857,112.212738 
	C114.051628,116.517426 100.453651,121.308472 86.797195,125.912712 
	C86.797195,125.912712 86.381096,125.914101 85.838463,125.980621 
	C83.767746,126.656242 82.239662,127.265350 80.711578,127.874458 
	C80.711578,127.874458 80.335762,127.868103 79.788239,127.941589 
	C76.492416,129.007843 73.744110,130.000626 70.995804,130.993393 
	C70.566246,130.980194 70.136681,130.966980 69.390961,130.528549 
	C69.029602,129.066132 68.984421,128.028931 68.939240,126.991737 
z"/>
<path fill="#5779EC" opacity="1.000000" stroke="none" 
	d="
M128.502762,44.842564 
	C128.502762,44.842564 128.739761,44.787949 128.846497,45.332909 
	C128.970703,47.210510 128.996979,48.543110 129.004196,49.875809 
	C129.042664,56.975952 129.041016,56.979549 121.806358,56.981010 
	C109.811264,56.983429 97.815269,57.072342 85.821304,56.955791 
	C72.362198,56.825008 74.047882,59.047630 74.019936,45.005913 
	C74.019936,45.005913 74.005547,45.003105 74.384964,45.019924 
	C76.442871,44.250523 78.121368,43.464302 79.799866,42.678078 
	C79.799866,42.678082 79.994118,42.714863 80.264893,42.780712 
	C82.336945,41.857197 84.138214,40.867832 85.939476,39.878471 
	C85.939476,39.878468 85.988968,39.975121 86.264679,39.958374 
	C87.032181,39.598915 87.523972,39.256203 88.015762,38.913490 
	C88.015762,38.913494 88.226845,38.750816 88.664963,38.776199 
	C89.408188,38.551735 89.713280,38.301888 90.018379,38.052044 
	C90.018379,38.052044 90.020096,37.993980 90.394035,38.013577 
	C92.166992,37.328865 93.566010,36.624554 94.965027,35.920242 
	C94.965027,35.920242 94.989677,35.997459 95.315414,35.993835 
	C96.387894,35.577320 97.134636,35.164433 97.881386,34.751541 
	C97.881386,34.751545 97.957405,34.883530 98.351379,34.914860 
	C100.890404,34.891117 103.035461,34.836048 105.180511,34.780979 
	C105.180511,34.780979 105.049477,34.879868 105.227203,35.133102 
	C106.289307,35.579060 107.173676,35.771782 108.058044,35.964504 
	C108.058044,35.964504 108.006439,35.999496 108.151398,36.295731 
	C110.263939,37.296906 112.231529,38.001842 114.199120,38.706779 
	C114.199120,38.706779 114.011848,38.961315 114.222267,39.171577 
	C116.078102,39.867863 117.723526,40.353893 119.368942,40.839924 
	C119.368942,40.839924 119.693596,40.843452 120.000900,41.240974 
	C123.039726,42.706520 125.771248,43.774544 128.502762,44.842564 
z"/>
<path fill="#5B7CE6" opacity="1.000000" stroke="none" 
	d="
M99.039772,65.107773 
	C100.406960,65.117035 101.774155,65.126297 103.803841,65.345749 
	C107.295052,68.405037 110.123764,71.254128 112.952477,74.103218 
	C112.941048,75.435730 112.929611,76.768242 112.731407,78.704765 
	C112.444061,79.859856 112.343483,80.410934 112.242905,80.962013 
	C112.242905,80.962013 112.023895,81.396286 111.765701,81.756668 
	C111.389183,82.421700 111.270859,82.726357 111.152542,83.031021 
	C110.744057,83.453384 110.335579,83.875748 109.501122,84.670052 
	C107.378113,86.012505 105.681084,86.983017 103.984047,87.953537 
	C102.603554,87.943192 101.223061,87.932854 99.197884,87.716003 
	C97.724464,87.305603 96.895729,87.101730 96.066994,86.897858 
	C96.066994,86.897858 95.994743,86.972031 95.873703,86.660095 
	C93.857719,83.890411 91.962769,81.432655 90.067825,78.974899 
	C90.110550,77.387039 90.153267,75.799187 90.385529,73.635178 
	C90.656433,72.713036 90.737793,72.367050 90.819153,72.021057 
	C90.819153,72.021057 91.046616,71.650543 91.349983,71.235512 
	C94.115494,68.916245 96.577637,67.012009 99.039772,65.107773 
z"/>
<path fill="#F0F7FC" opacity="1.000000" stroke="none" 
	d="
M130.592850,89.410751 
	C112.502899,95.634476 94.164589,101.811417 75.694565,107.565544 
	C71.347755,108.919739 69.306015,110.726418 69.864120,115.413895 
	C70.172096,118.000572 69.646629,120.686485 69.288605,123.678352 
	C68.661781,121.392220 68.280594,118.748756 67.812950,116.120674 
	C67.437004,114.008003 66.956390,111.913963 65.982620,109.850525 
	C66.775330,106.302536 68.738075,105.152039 73.156868,105.303452 
	C77.061684,105.437263 80.995628,101.984497 85.079041,100.590935 
	C87.866623,99.639603 90.942612,99.554802 93.873146,98.995987 
	C98.449783,98.123276 102.964554,97.075027 106.504959,93.695183 
	C106.833466,93.381577 107.340195,93.166901 107.795792,93.087303 
	C115.292984,91.777512 122.795258,90.496796 130.592850,89.410751 
z"/>
<path fill="#F0F7FC" opacity="1.000000" stroke="none" 
	d="
M87.226364,125.945648 
	C100.453651,121.308472 114.051628,116.517426 127.801857,112.212738 
	C131.979218,110.904953 133.352325,109.230942 132.516464,104.843239 
	C131.779068,100.972382 132.131348,96.893929 132.081177,92.446701 
	C133.407837,94.052254 135.673523,96.106857 135.696854,98.186592 
	C135.749176,102.854172 134.687668,107.534225 134.026901,112.614639 
	C129.147507,113.217476 123.806755,114.269035 122.208710,120.979279 
	C121.231628,120.722412 120.428345,120.609367 119.705254,120.305496 
	C114.296684,118.032578 109.053467,119.004723 104.884781,123.043350 
	C103.820381,124.074547 102.549477,124.902908 101.545631,125.984291 
	C98.806122,128.935410 97.147896,128.345657 96.536995,124.514183 
	C93.432121,125.026123 90.543823,125.502350 87.226364,125.945648 
z"/>
<path fill="#7389CC" opacity="1.000000" stroke="none" 
	d="
M73.635910,45.206398 
	C74.047882,59.047630 72.362198,56.825008 85.821304,56.955791 
	C97.815269,57.072342 109.811264,56.983429 121.806358,56.981010 
	C129.041016,56.979549 129.042664,56.975952 129.004196,49.875809 
	C128.996979,48.543110 128.970703,47.210510 128.937225,45.413902 
	C129.508179,49.028084 130.095169,53.106228 130.748993,57.648720 
	C111.091042,57.648720 92.373032,57.648720 73.251892,57.648720 
	C73.251892,53.547066 73.251892,49.476974 73.635910,45.206398 
z"/>
<path fill="#EDF5FC" opacity="1.000000" stroke="none" 
	d="
M98.799911,64.812439 
	C96.577637,67.012009 94.115494,68.916245 91.377731,71.019897 
	C91.004799,64.929390 92.410423,63.666203 98.799911,64.812439 
z"/>
<path fill="#EDF5FC" opacity="1.000000" stroke="none" 
	d="
M112.979050,73.684593 
	C110.123764,71.254128 107.295052,68.405037 104.214127,65.333954 
	C108.684097,63.318737 112.868988,67.091927 112.979050,73.684593 
z"/>
<path fill="#F0F7FC" opacity="1.000000" stroke="none" 
	d="
M71.217728,131.265839 
	C73.744110,130.000626 76.492416,129.007843 79.622452,128.030090 
	C78.359619,132.176880 75.832901,134.145752 71.217728,131.265839 
z"/>
<path fill="#EDF5FC" opacity="1.000000" stroke="none" 
	d="
M104.140976,88.265625 
	C105.681084,86.983017 107.378113,86.012505 109.388077,84.945892 
	C109.981705,85.992386 110.262398,87.134979 110.543091,88.277565 
	C108.461365,88.377609 106.379639,88.477654 104.140976,88.265625 
z"/>
<path fill="#EDF5FC" opacity="1.000000" stroke="none" 
	d="
M89.782394,79.211021 
	C91.962769,81.432655 93.857719,83.890411 95.920189,86.637344 
	C90.295189,85.998962 88.837715,84.344978 89.782394,79.211021 
z"/>
<path fill="#F0F7FC" opacity="1.000000" stroke="none" 
	d="
M68.563248,127.003799 
	C68.984421,128.028931 69.029602,129.066132 69.070282,130.494003 
	C68.187096,131.537506 67.343025,132.256699 66.384560,132.756485 
	C66.268898,132.816788 65.032539,131.390488 65.168503,131.163055 
	C66.042252,129.701447 67.153816,128.382004 68.563248,127.003799 
z"/>
<path fill="#F0F7FC" opacity="1.000000" stroke="none" 
	d="
M75.493279,136.973602 
	C73.590675,137.943069 71.607430,138.539703 69.624184,139.136337 
	C69.493225,138.291138 69.362267,137.445953 69.231300,136.600754 
	C71.291748,136.600754 73.352188,136.600754 75.493279,136.973602 
z"/>
<path fill="#F0F7FC" opacity="1.000000" stroke="none" 
	d="
M78.538651,135.671051 
	C79.735069,135.053345 81.087463,134.743637 82.439857,134.433929 
	C82.451241,135.173309 82.462624,135.912704 82.474014,136.652084 
	C81.214218,136.427750 79.954430,136.203400 78.538651,135.671051 
z"/>
<path fill="#7389CC" opacity="1.000000" stroke="none" 
	d="
M104.974670,34.495979 
	C103.035461,34.836048 100.890404,34.891117 98.288559,34.871811 
	C100.144119,34.601948 102.456467,34.406464 104.974670,34.495979 
z"/>
<path fill="#7389CC" opacity="1.000000" stroke="none" 
	d="
M128.257568,44.565994 
	C125.771248,43.774544 123.039726,42.706520 120.138802,41.326630 
	C122.650383,42.106316 125.331383,43.197872 128.257568,44.565994 
z"/>
<path fill="#F0F7FC" opacity="1.000000" stroke="none" 
	d="
M81.098892,127.918243 
	C82.239662,127.265350 83.767746,126.656242 85.654221,126.077271 
	C86.123474,130.678574 83.069397,127.525383 81.098892,127.918243 
z"/>
<path fill="#7389CC" opacity="1.000000" stroke="none" 
	d="
M114.005722,38.430092 
	C112.231529,38.001842 110.263939,37.296906 108.155212,36.264797 
	C109.946831,36.676220 111.879578,37.414810 114.005722,38.430092 
z"/>
<path fill="#7389CC" opacity="1.000000" stroke="none" 
	d="
M85.585220,39.893166 
	C84.138214,40.867832 82.336945,41.857197 80.166229,42.779320 
	C81.608177,41.777336 83.419571,40.842598 85.585220,39.893166 
z"/>
<path fill="#7389CC" opacity="1.000000" stroke="none" 
	d="
M79.439972,42.685158 
	C78.121368,43.464302 76.442871,44.250523 74.382004,45.026169 
	C75.693108,44.241142 77.386597,43.466690 79.439972,42.685158 
z"/>
<path fill="#EDF5FC" opacity="1.000000" stroke="none" 
	d="
M96.084167,87.233780 
	C96.895729,87.101730 97.724464,87.305603 98.783951,87.733826 
	C98.043587,87.828674 97.072464,87.699181 96.084167,87.233780 
z"/>
<path fill="#7389CC" opacity="1.000000" stroke="none" 
	d="
M119.128433,40.567837 
	C117.723526,40.353893 116.078102,39.867863 114.304062,39.036369 
	C115.746269,39.225853 117.317093,39.760803 119.128433,40.567837 
z"/>
<path fill="#7389CC" opacity="1.000000" stroke="none" 
	d="
M94.617264,35.929657 
	C93.566010,36.624554 92.166992,37.328865 90.413849,38.034817 
	C91.462975,37.337334 92.866241,36.638203 94.617264,35.929657 
z"/>
<path fill="#7389CC" opacity="1.000000" stroke="none" 
	d="
M97.549835,34.755516 
	C97.134636,35.164433 96.387894,35.577320 95.287201,35.964737 
	C95.694923,35.546009 96.456612,35.152748 97.549835,34.755516 
z"/>
<path fill="#7389CC" opacity="1.000000" stroke="none" 
	d="
M107.855209,35.701660 
	C107.173676,35.771782 106.289307,35.579060 105.267715,35.061714 
	C105.971130,34.971004 106.811752,35.204910 107.855209,35.701660 
z"/>
<path fill="#7389CC" opacity="1.000000" stroke="none" 
	d="
M87.706757,38.923676 
	C87.523972,39.256203 87.032181,39.598915 86.221581,39.925354 
	C86.401093,39.584011 86.899414,39.258934 87.706757,38.923676 
z"/>
<path fill="#EDF5FC" opacity="1.000000" stroke="none" 
	d="
M112.453873,80.766937 
	C112.343483,80.410934 112.444061,79.859856 112.748497,79.104393 
	C112.856522,79.457298 112.760689,80.014580 112.453873,80.766937 
z"/>
<path fill="#7389CC" opacity="1.000000" stroke="none" 
	d="
M89.718094,38.068840 
	C89.713280,38.301888 89.408188,38.551735 88.794708,38.806549 
	C88.796822,38.569553 89.107323,38.327591 89.718094,38.068840 
z"/>
<path fill="#EDF5FC" opacity="1.000000" stroke="none" 
	d="
M111.355042,82.893127 
	C111.270859,82.726357 111.389183,82.421700 111.730423,81.997284 
	C111.935745,82.221672 111.803810,82.514244 111.355042,82.893127 
z"/>
<path fill="#EDF5FC" opacity="1.000000" stroke="none" 
	d="
M90.609131,72.195312 
	C90.737793,72.367050 90.656433,72.713036 90.368423,73.238907 
	C90.240883,73.069046 90.319992,72.719307 90.609131,72.195312 
z"/>
</svg>