<svg xmlns="http://www.w3.org/2000/svg" width="500" height="100" fill="none" viewBox="0 -13 100 115">
  <path fill="#00E673" d="m61.49 30.37-1.652 9.37c-1.762 10-11.293 18-21.244 18h-8.159c-10.011 0-16.628-8.09-14.876-18l3.313-18.77h9.42L24.98 39.74a6.992 6.992 0 0 0 1.405 6.088 7.007 7.007 0 0 0 5.713 2.542h8.16a10.77 10.77 0 0 0 6.58-2.553 10.747 10.747 0 0 0 3.58-6.077L52.9 25.67a5.849 5.849 0 0 1 5.536-4.7h17.43l1.081-6.15C78.4 6.63 72.943 0 64.734 0H24.689C16.499 0 8.67 6.63 7.239 14.82l-7.008 40C-1.21 63 4.236 69.63 12.445 69.63H52.49c8.199 0 16.018-6.63 17.45-14.81l4.314-24.45H61.49Z"></path>
  <path fill="#5488F0" d="M87.62 30.37h-4.005l-6.097 34.57c-1.442 8.18-9.26 14.82-17.45 14.82h-36.09l-.951 5.43C21.575 93.37 27.03 100 35.24 100h40.045c8.19 0 16.018-6.63 17.45-14.81l7.008-40c1.531-8.18-3.935-14.82-12.124-14.82Z"></path>
  <path fill="#0F334D" d="m347.79 3-2.253 13.112h-2.97c-5.94 0-6.864.922-8.197 9.22 0 .102-.203.716-.307 1.229h9.63l-2.253 12.497h-9.527c-2.766 15.57-6.863 38.722-6.863 38.722-2.971 17.414-5.634 22.331-20.693 22.331h-6.863l2.253-13.112h2.971c5.532 0 6.864-.922 8.298-9.22l9.219-52.55C323.205 6.073 327.611 3 343.693 3h4.097ZM129.936 26.56c8.093 0 11.474 4.508 9.322 15.571l-2.765 13.932c-1.332 6.556.717 10.346 6.35 10.346 5.123 0 8.708-5.122 10.142-12.497l5.327-27.351h14.341l-6.556 34.009c-.717 3.688-.102 5.02 3.176 5.02h2.048l-2.15 12.19h-6.66c-5.121 0-8.502-1.435-9.936-5.02-3.175 3.688-7.58 6.044-13.624 6.044-12.395.102-19.975-7.785-17.005-22.946l2.561-11.985c.82-3.995 0-5.122-2.868-5.122H120l2.254-12.19h7.682v-.001Zm65.356 52.244c12.6 0 20.692-6.249 22.229-15.263 1.946-11.371-7.273-14.956-15.059-17.312-5.429-1.64-10.243-2.664-9.731-5.327.41-2.459 2.663-4.098 6.453-4.098 4.713 0 8.298 2.356 10.552 5.737l11.37-7.376c-3.79-5.634-11.473-9.629-21.204-9.629-11.064 0-19.566 5.737-21 14.034-2.049 11.78 7.17 15.161 14.956 17.415 5.429 1.536 10.244 2.56 9.731 5.429-.512 2.97-3.175 4.61-6.863 4.61-5.122 0-9.015-2.766-11.576-7.069l-12.087 7.888c3.483 5.839 10.858 10.96 22.229 10.96v.001Zm233.695-52.243c8.093 0 11.27 4.507 9.116 15.57l-2.766 14.137c-1.33 6.863.31 10.346 5.84 10.346 5.326 0 9.22-5.634 10.653-13.112l4.713-26.941h14.24l-5.43 31.55c-.923 5.635 1.127 8.195 5.02 8.195 8.194 0 12.907-8.707 14.854-19.872 1.636-8.912.51-15.161-1.127-19.873h14.443c1.127 5.224 2.357 12.292.51 22.126-2.763 15.468-11.88 30.117-28.886 30.117-8.194 0-12.704-2.561-14.854-7.273-4.61 4.712-10.653 7.273-17.72 7.273-11.986 0-19.463-8.4-16.596-22.946l2.356-11.985c.82-3.995 0-5.122-2.87-5.122h-1.536l2.256-12.19h7.784Zm-40.77 52.243c15.263 0 25.713-10.346 28.273-23.458 2.867-15.264-6.453-29.81-24.277-29.81-14.65 0-25.713 10.346-28.273 23.458-2.87 15.264 6.453 29.81 24.277 29.81ZM233.468 57.19l.052.118-.044-.016c1.23 5.634 5.737 9.322 12.805 9.322 5.02 0 9.117-2.151 12.395-6.351l10.756 7.068c-5.02 6.863-12.087 11.473-23.97 11.473-18.644 0-27.146-14.649-24.483-29.605 2.327-13.03 13.617-21.916 25.65-23.432a25.133 25.133 0 0 1 3.41-.23h.237c.092 0 .18 0 .265.003 15.372.25 24.59 11.935 22.957 26.528l-.574 5.122h-39.456ZM366.64 3l-10.347 58.594c-.513 2.664.307 3.688 2.97 3.688h1.537l-2.253 12.498h-6.35c-11.474 0-11.68-7.069-10.04-16.288L352.4 3h14.24ZM284 26.56c6.658 0 9.116 3.176 9.526 8.093 3.688-5.531 8.912-8.092 15.366-8.092h6.556l-2.561 14.136h-5.634c-7.069 0-11.986 3.176-13.83 12.702l-4.814 24.38h-14.341l6.556-33.906c.922-3.688 0-5.122-3.278-5.122h-1.64l2.152-12.19h5.941l.001-.001Zm104.933 39.234c-7.99 0-12.803-7.273-11.473-15.16 1.23-7.478 7.683-12.293 14.033-12.293 8.197.205 12.807 7.478 11.474 15.366-1.227 7.478-7.374 12.087-14.034 12.087ZM260.05 45.921c-1.248-5.326-5.343-8.092-11.284-8.092-5.941 0-10.816 3.278-13.506 8.092h24.79Z"></path>
</svg>