<svg xmlns="http://www.w3.org/2000/svg" width="123" height="37" viewBox="0 -7 50 37">
    <path fill-rule="evenodd" clip-rule="evenodd" d="M21.7501 0.76882L35.1358 8.29387C36.1586 8.87023 36.7234 9.67645 36.7234 10.5658C36.7234 11.4552 36.1598 12.2614 35.1358 12.8366L21.7501 20.3628C20.8387 20.8745 19.635 21.1575 18.3605 21.1575C17.0872 21.1575 15.8835 20.8757 14.9721 20.3628L1.58638 12.8366C0.563583 12.2614 0 11.4552 0 10.5658C0 9.67645 0.562424 8.87023 1.58638 8.29387L14.9721 0.76882C16.7973 -0.256851 19.9283 -0.255696 21.7501 0.76882ZM21.1402 19.2886L34.5259 11.7624C35.1347 11.4205 35.4826 10.9839 35.4814 10.5658C35.4814 10.1465 35.1324 9.70987 34.5247 9.36798L21.139 1.84178C20.4212 1.43867 19.4077 1.20651 18.3594 1.20651C17.3122 1.20651 16.2987 1.43752 15.5809 1.84178L2.19523 9.36798C1.58758 9.71103 1.23969 10.1465 1.23969 10.5658C1.23969 10.9839 1.58758 11.4205 2.19523 11.7624L15.5809 19.2886C17.0165 20.0971 19.7046 20.0959 21.1402 19.2886Z"/>
    <path d="M35.137 16.1C34.8401 15.9319 34.4621 16.0362 34.2916 16.3353C34.1235 16.6331 34.229 17.011 34.527 17.179C35.1347 17.5221 35.4837 17.9602 35.4837 18.3798C35.4837 18.7993 35.1347 19.2374 34.527 19.5805L21.1413 27.1326C19.6361 27.9822 17.0896 27.9833 15.582 27.1326L2.19635 19.5805C1.5887 19.2374 1.24081 18.7993 1.24081 18.3798C1.24081 17.9602 1.5887 17.5221 2.19635 17.179C2.49438 17.011 2.5999 16.6331 2.43176 16.3353C2.26245 16.0362 1.88325 15.9308 1.58638 16.1C0.562424 16.6772 0 17.4873 0 18.3798C0 19.2722 0.562424 20.0823 1.58638 20.6595L14.9721 28.2116C15.9218 28.7471 17.1417 29.016 18.3605 29.016C19.5805 29.016 20.8004 28.7483 21.7501 28.2116L35.1358 20.6595C36.1598 20.0823 36.7234 19.2722 36.7234 18.3798C36.7234 17.4873 36.1598 16.6772 35.137 16.1Z"/>
    <path d="M35.1358 23.8082C34.839 23.6401 34.4609 23.7444 34.2904 24.0434C34.1223 24.3413 34.2278 24.7191 34.5258 24.8871C35.1335 25.2302 35.4825 25.6683 35.4825 26.0878C35.4825 26.5073 35.1335 26.9454 34.5258 27.2896L21.1402 34.8412C19.635 35.6907 17.0884 35.6918 15.5809 34.8412L2.19519 27.2884C1.58754 26.9454 1.23965 26.5073 1.23965 26.0866C1.23965 25.6671 1.58754 25.229 2.19519 24.886C2.49322 24.7179 2.59874 24.3401 2.4306 24.0423C2.26129 23.7444 1.88209 23.6378 1.58522 23.807C0.563583 24.3853 0 25.1943 0 26.0878C0 26.9813 0.562424 27.7903 1.58638 28.3674L14.9721 35.919C15.9218 36.4544 17.1417 36.7233 18.3605 36.7233C19.5805 36.7233 20.8004 36.4556 21.7501 35.919L35.1358 28.3674C36.1598 27.7891 36.7234 26.9802 36.7234 26.0878C36.7234 25.1954 36.1586 24.3853 35.1358 23.8082Z"/>
    <path d="M63.484 21.874C63.484 24.646 61.9 25.988 59.326 25.988C56.884 25.988 55.212 24.646 55.212 21.874V12.392H53.804V21.896C53.804 25.438 56.004 27.264 59.326 27.264C62.582 27.264 64.848 25.438 64.848 21.896V12.392H63.484V21.874ZM75.6283 18.684C75.4083 15.978 72.9663 15.604 71.5583 15.604C69.6663 15.604 67.6423 16.484 67.6423 18.53C67.6423 22.82 74.4403 20.818 74.4403 24.184C74.4403 25.658 73.1863 26.164 71.5143 26.164C70.1063 26.164 68.7423 25.68 68.5443 24.074H67.2463C67.5103 26.912 70.2383 27.264 71.4923 27.264C74.1763 27.264 75.7603 26.01 75.7603 24.118C75.7603 19.674 68.9623 21.72 68.9623 18.42C68.9623 17.034 70.2383 16.616 71.5803 16.616C72.8123 16.616 74.1983 16.924 74.3743 18.794L75.6283 18.684ZM86.1306 24.074C85.7566 25.394 84.7666 26.12 82.9406 26.12C80.5866 26.12 79.2886 24.492 79.2446 21.698H87.5166L87.5606 20.994C87.5606 17.694 86.0866 15.604 82.9626 15.604C79.8606 15.604 77.8366 17.804 77.8366 21.456C77.8366 25.108 79.6626 27.264 82.9626 27.264C85.4046 27.264 86.8786 26.098 87.4286 24.074H86.1306ZM79.2666 20.642C79.4646 18.156 80.6966 16.726 82.9406 16.726C85.2506 16.726 86.0866 18.2 86.1526 20.642H79.2666ZM92.0115 27V20.708C92.0115 18.31 93.2215 16.924 94.7835 16.924H95.8395V15.758C95.4215 15.626 95.0475 15.604 94.8055 15.604C93.7495 15.604 92.5395 16.308 91.8795 18.31V15.846H90.6475V27H92.0115ZM99.1555 27V11.138H97.7915V27H99.1555ZM104.301 27V15.846H102.937V27H104.301ZM104.367 13.404V11.666H102.871V13.404H104.367ZM115.387 18.684C115.167 15.978 112.725 15.604 111.317 15.604C109.425 15.604 107.401 16.484 107.401 18.53C107.401 22.82 114.199 20.818 114.199 24.184C114.199 25.658 112.945 26.164 111.273 26.164C109.865 26.164 108.501 25.68 108.303 24.074H107.005C107.269 26.912 109.997 27.264 111.251 27.264C113.935 27.264 115.519 26.01 115.519 24.118C115.519 19.674 108.721 21.72 108.721 18.42C108.721 17.034 109.997 16.616 111.339 16.616C112.571 16.616 113.957 16.924 114.133 18.794L115.387 18.684ZM122.7 26.076H121.644C120.082 26.076 119.818 25.284 119.818 23.414V17.012H122.7V15.956H119.818V12.898H118.454V15.956H116.672V17.012H118.454V23.458C118.454 25.702 118.718 27.264 121.534 27.264C121.688 27.264 122.326 27.198 122.7 27.044V26.076Z"/>
    <path fill-rule="evenodd" clip-rule="evenodd" d="M21.7501 0.76882L35.1358 8.29387C36.1586 8.87023 36.7234 9.67645 36.7234 10.5658C36.7234 11.4552 36.1598 12.2614 35.1358 12.8366L21.7501 20.3628C20.8387 20.8745 19.635 21.1575 18.3605 21.1575C17.0872 21.1575 15.8835 20.8757 14.9721 20.3628L1.58638 12.8366C0.563583 12.2614 0 11.4552 0 10.5658C0 9.67645 0.562424 8.87023 1.58638 8.29387L14.9721 0.76882C16.7973 -0.256851 19.9283 -0.255696 21.7501 0.76882ZM21.1402 19.2886L34.5259 11.7624C35.1347 11.4205 35.4826 10.9839 35.4814 10.5658C35.4814 10.1465 35.1324 9.70987 34.5247 9.36798L21.139 1.84178C20.4212 1.43867 19.4077 1.20651 18.3594 1.20651C17.3122 1.20651 16.2987 1.43752 15.5809 1.84178L2.19523 9.36798C1.58758 9.71103 1.23969 10.1465 1.23969 10.5658C1.23969 10.9839 1.58758 11.4205 2.19523 11.7624L15.5809 19.2886C17.0165 20.0971 19.7046 20.0959 21.1402 19.2886Z"/>
    <path d="M35.137 16.1C34.8401 15.9319 34.4621 16.0362 34.2916 16.3353C34.1235 16.6331 34.229 17.011 34.527 17.179C35.1347 17.5221 35.4837 17.9602 35.4837 18.3798C35.4837 18.7993 35.1347 19.2374 34.527 19.5805L21.1413 27.1326C19.6361 27.9822 17.0896 27.9833 15.582 27.1326L2.19635 19.5805C1.5887 19.2374 1.24081 18.7993 1.24081 18.3798C1.24081 17.9602 1.5887 17.5221 2.19635 17.179C2.49438 17.011 2.5999 16.6331 2.43176 16.3353C2.26245 16.0362 1.88325 15.9308 1.58638 16.1C0.562424 16.6772 0 17.4873 0 18.3798C0 19.2722 0.562424 20.0823 1.58638 20.6595L14.9721 28.2116C15.9218 28.7471 17.1417 29.016 18.3605 29.016C19.5805 29.016 20.8004 28.7483 21.7501 28.2116L35.1358 20.6595C36.1598 20.0823 36.7234 19.2722 36.7234 18.3798C36.7234 17.4873 36.1598 16.6772 35.137 16.1Z"/>
    <path d="M35.1358 23.8082C34.839 23.6401 34.4609 23.7444 34.2904 24.0434C34.1223 24.3413 34.2278 24.7191 34.5258 24.8871C35.1335 25.2302 35.4825 25.6683 35.4825 26.0878C35.4825 26.5073 35.1335 26.9454 34.5258 27.2896L21.1402 34.8412C19.635 35.6907 17.0884 35.6918 15.5809 34.8412L2.19519 27.2884C1.58754 26.9454 1.23965 26.5073 1.23965 26.0866C1.23965 25.6671 1.58754 25.229 2.19519 24.886C2.49322 24.7179 2.59874 24.3401 2.4306 24.0423C2.26129 23.7444 1.88209 23.6378 1.58522 23.807C0.563583 24.3853 0 25.1943 0 26.0878C0 26.9813 0.562424 27.7903 1.58638 28.3674L14.9721 35.919C15.9218 36.4544 17.1417 36.7233 18.3605 36.7233C19.5805 36.7233 20.8004 36.4556 21.7501 35.919L35.1358 28.3674C36.1598 27.7891 36.7234 26.9802 36.7234 26.0878C36.7234 25.1954 36.1586 24.3853 35.1358 23.8082Z"/>
    <path d="M63.484 21.874C63.484 24.646 61.9 25.988 59.326 25.988C56.884 25.988 55.212 24.646 55.212 21.874V12.392H53.804V21.896C53.804 25.438 56.004 27.264 59.326 27.264C62.582 27.264 64.848 25.438 64.848 21.896V12.392H63.484V21.874ZM75.6283 18.684C75.4083 15.978 72.9663 15.604 71.5583 15.604C69.6663 15.604 67.6423 16.484 67.6423 18.53C67.6423 22.82 74.4403 20.818 74.4403 24.184C74.4403 25.658 73.1863 26.164 71.5143 26.164C70.1063 26.164 68.7423 25.68 68.5443 24.074H67.2463C67.5103 26.912 70.2383 27.264 71.4923 27.264C74.1763 27.264 75.7603 26.01 75.7603 24.118C75.7603 19.674 68.9623 21.72 68.9623 18.42C68.9623 17.034 70.2383 16.616 71.5803 16.616C72.8123 16.616 74.1983 16.924 74.3743 18.794L75.6283 18.684ZM86.1306 24.074C85.7566 25.394 84.7666 26.12 82.9406 26.12C80.5866 26.12 79.2886 24.492 79.2446 21.698H87.5166L87.5606 20.994C87.5606 17.694 86.0866 15.604 82.9626 15.604C79.8606 15.604 77.8366 17.804 77.8366 21.456C77.8366 25.108 79.6626 27.264 82.9626 27.264C85.4046 27.264 86.8786 26.098 87.4286 24.074H86.1306ZM79.2666 20.642C79.4646 18.156 80.6966 16.726 82.9406 16.726C85.2506 16.726 86.0866 18.2 86.1526 20.642H79.2666ZM92.0115 27V20.708C92.0115 18.31 93.2215 16.924 94.7835 16.924H95.8395V15.758C95.4215 15.626 95.0475 15.604 94.8055 15.604C93.7495 15.604 92.5395 16.308 91.8795 18.31V15.846H90.6475V27H92.0115ZM99.1555 27V11.138H97.7915V27H99.1555ZM104.301 27V15.846H102.937V27H104.301ZM104.367 13.404V11.666H102.871V13.404H104.367ZM115.387 18.684C115.167 15.978 112.725 15.604 111.317 15.604C109.425 15.604 107.401 16.484 107.401 18.53C107.401 22.82 114.199 20.818 114.199 24.184C114.199 25.658 112.945 26.164 111.273 26.164C109.865 26.164 108.501 25.68 108.303 24.074H107.005C107.269 26.912 109.997 27.264 111.251 27.264C113.935 27.264 115.519 26.01 115.519 24.118C115.519 19.674 108.721 21.72 108.721 18.42C108.721 17.034 109.997 16.616 111.339 16.616C112.571 16.616 113.957 16.924 114.133 18.794L115.387 18.684ZM122.7 26.076H121.644C120.082 26.076 119.818 25.284 119.818 23.414V17.012H122.7V15.956H119.818V12.898H118.454V15.956H116.672V17.012H118.454V23.458C118.454 25.702 118.718 27.264 121.534 27.264C121.688 27.264 122.326 27.198 122.7 27.044V26.076ZM134.591 27C139.035 27 141.741 23.59 141.741 19.608C141.741 15.45 139.035 12.392 134.591 12.392H129.641V27H134.591ZM131.049 25.746V13.624H134.503C138.243 13.624 140.245 16.176 140.245 19.608C140.245 22.952 138.265 25.746 134.525 25.746H131.049ZM148.766 27.264C151.912 27.264 153.848 25.064 153.848 21.456C153.848 17.782 151.912 15.604 148.766 15.604C145.62 15.604 143.684 17.782 143.684 21.456C143.684 25.064 145.62 27.264 148.766 27.264ZM148.766 26.12C146.324 26.12 145.07 24.404 145.07 21.456C145.07 18.464 146.324 16.726 148.766 16.726C151.208 16.726 152.462 18.464 152.462 21.456C152.462 24.404 151.208 26.12 148.766 26.12ZM164.041 23.964C163.667 25.372 162.699 26.12 160.939 26.12C158.475 26.12 157.177 24.404 157.177 21.456C157.177 18.464 158.453 16.726 160.939 16.726C162.655 16.726 163.645 17.518 164.019 18.948L165.317 18.816C164.833 16.748 163.315 15.604 160.939 15.604C157.793 15.604 155.791 17.804 155.791 21.456C155.791 25.108 157.683 27.264 160.939 27.264C163.315 27.264 164.811 26.054 165.339 23.964H164.041ZM175.396 18.684C175.176 15.978 172.734 15.604 171.326 15.604C169.434 15.604 167.41 16.484 167.41 18.53C167.41 22.82 174.208 20.818 174.208 24.184C174.208 25.658 172.954 26.164 171.282 26.164C169.874 26.164 168.51 25.68 168.312 24.074H167.014C167.278 26.912 170.006 27.264 171.26 27.264C173.944 27.264 175.528 26.01 175.528 24.118C175.528 19.674 168.73 21.72 168.73 18.42C168.73 17.034 170.006 16.616 171.348 16.616C172.58 16.616 173.966 16.924 174.142 18.794L175.396 18.684Z"/>

</svg>