<svg version="1.1" id="Layer_1" xmlns="http://www.w3.org/2000/svg" xmlns:xlink="http://www.w3.org/1999/xlink" x="0px" y="0px"
	 width="100%" viewBox="0 0 200 200" enable-background="new 0 0 200 200" xml:space="preserve">
<path fill="#3B336F" opacity="1.000000" stroke="none" 
	d="
M132.000000,201.000000 
	C88.000000,201.000000 44.500004,201.000000 1.000006,201.000000 
	C1.000004,134.333344 1.000004,67.666679 1.000002,1.000015 
	C67.666656,1.000010 134.333313,1.000010 200.999969,1.000005 
	C200.999985,67.666649 200.999985,134.333298 201.000000,200.999969 
	C178.166672,201.000000 155.333328,201.000000 132.000000,201.000000 
M106.004829,74.011681 
	C106.004829,74.011681 105.967659,74.052727 105.866150,73.461868 
	C105.485588,73.020996 105.105026,72.580124 104.809090,72.144661 
	C104.809090,72.144661 104.793091,72.227936 104.871834,71.442963 
	C105.035294,68.510529 103.986282,66.508850 100.908264,66.092178 
	C100.908264,66.092178 100.842239,66.187843 100.897598,65.386864 
	C100.583519,61.950096 100.277702,58.506767 95.373459,58.568851 
	C95.373459,58.568851 95.377434,58.425884 95.594078,57.676804 
	C94.328339,56.148258 93.062607,54.619709 91.357918,52.890442 
	C91.116592,52.649223 90.996429,52.358013 90.957535,51.336414 
	C90.261055,50.586330 89.564568,49.836246 88.953560,49.054047 
	C88.953560,49.054047 88.902962,49.130051 88.906990,48.374462 
	C88.246902,43.690945 85.634796,41.189877 80.909935,41.081516 
	C80.909935,41.081516 80.872520,41.181229 80.644127,40.467251 
	C79.280014,40.034100 77.915909,39.600948 76.235886,39.217243 
	C76.235886,39.217243 75.994530,39.007507 75.825768,38.473873 
	C73.873627,38.379803 71.921478,38.285732 69.264954,38.522022 
	C68.502556,38.653507 67.740150,38.784992 66.446396,38.561546 
	C64.979164,39.409012 63.511932,40.256477 61.815018,41.553207 
	C61.516251,41.691887 61.217484,41.830566 60.222092,42.041889 
	C59.541290,42.834373 58.860489,43.626854 58.099304,44.783897 
	C57.972191,45.021656 57.775543,45.161968 56.783913,45.299183 
	C56.247635,46.264832 55.711361,47.230480 55.144886,48.121319 
	C55.144886,48.121319 55.225143,48.129551 54.843376,48.465672 
	C54.749744,48.785904 54.656116,49.106136 54.531330,49.604919 
	C54.531330,49.604919 54.350140,49.609573 53.744232,49.387760 
	C52.817207,49.680969 51.890186,49.974178 50.199089,50.632469 
	C48.797791,50.723557 47.396492,50.814644 45.628910,50.622467 
	C45.086254,50.752213 44.543602,50.881958 43.234886,51.307652 
	C37.486980,52.825298 30.738602,51.409401 25.355507,57.227211 
	C33.243679,58.933029 40.129650,60.786827 47.137146,61.800865 
	C51.348480,62.410275 52.266048,64.531357 52.971840,68.181503 
	C54.703041,77.134674 56.255219,86.221848 59.136768,94.834435 
	C67.572205,120.046921 83.669151,138.549500 111.092575,141.088196 
	C127.858727,142.640289 139.856659,150.222656 151.615295,160.284836 
	C152.499725,161.041656 153.380005,161.872986 154.407013,162.371155 
	C155.209503,162.760406 156.420074,163.084808 157.135284,162.755661 
	C163.284943,159.925461 169.363159,156.940048 175.934845,153.773453 
	C166.942474,147.721115 158.747330,141.695221 150.050079,136.511780 
	C142.995239,132.307190 138.291641,126.481361 134.889999,118.577164 
	C134.221054,117.735405 133.552124,116.893654 132.438080,115.798904 
	C132.233475,115.338593 132.028854,114.878281 132.006561,113.634583 
	C132.359451,112.343140 132.712341,111.051704 133.640152,109.669312 
	C134.422119,109.112595 135.204102,108.555878 136.720169,107.961510 
	C137.809845,106.628929 138.899536,105.296349 140.212448,103.336472 
	C141.799927,101.222099 143.387390,99.107727 145.314453,96.602188 
	C145.413223,96.274734 145.511978,95.947289 145.873856,95.975670 
	C145.873856,95.975670 145.601562,95.618637 146.335907,95.555489 
	C149.710602,92.139328 149.433075,88.144699 148.013733,83.254555 
	C148.014084,82.501778 148.014435,81.749001 148.422287,80.419067 
	C149.394592,77.794426 149.101364,75.751846 145.517197,74.657349 
	C145.332245,74.136108 145.147293,73.614861 144.946442,72.404564 
	C144.267181,71.622139 143.587906,70.839722 142.984848,70.025284 
	C142.984848,70.025284 142.936035,70.091995 142.924377,69.334732 
	C142.523102,65.667313 140.041565,64.903969 136.437790,65.009323 
	C136.437790,65.009323 136.015930,64.774002 135.825027,64.087166 
	C132.208099,59.747643 126.788376,59.718506 123.771530,64.236000 
	C123.771530,64.236000 123.457184,64.172340 122.793518,64.156036 
	C122.194725,64.415070 121.595932,64.674103 120.703003,65.153107 
	C120.703003,65.153107 120.336212,65.134018 119.568481,65.075172 
	C118.388252,65.733261 117.208023,66.391350 115.638260,67.531441 
	C114.712616,67.966118 113.786980,68.400803 112.111679,68.600212 
	C111.119553,69.485016 110.127426,70.369827 109.206818,71.916580 
	C109.889008,73.245781 110.571198,74.574982 110.611641,76.189919 
	C109.722855,76.470146 108.834068,76.750374 107.496628,76.759827 
	C107.283714,76.291107 107.070801,75.822388 106.663757,74.841866 
	C106.425865,74.567841 106.187973,74.293823 106.004829,74.011681 
z"/>
<path fill="#FCFBFC" opacity="1.000000" stroke="none" 
	d="
M131.824249,114.417969 
	C132.028854,114.878281 132.233475,115.338593 132.708923,116.249023 
	C133.612015,117.565010 134.244263,118.430870 134.876511,119.296730 
	C138.291641,126.481361 142.995239,132.307190 150.050079,136.511780 
	C158.747330,141.695221 166.942474,147.721115 175.934845,153.773453 
	C169.363159,156.940048 163.284943,159.925461 157.135284,162.755661 
	C156.420074,163.084808 155.209503,162.760406 154.407013,162.371155 
	C153.380005,161.872986 152.499725,161.041656 151.615295,160.284836 
	C139.856659,150.222656 127.858727,142.640289 111.092575,141.088196 
	C83.669151,138.549500 67.572205,120.046921 59.136768,94.834435 
	C56.255219,86.221848 54.703041,77.134674 52.971840,68.181503 
	C52.266048,64.531357 51.348480,62.410275 47.137146,61.800865 
	C40.129650,60.786827 33.243679,58.933029 25.355507,57.227211 
	C30.738602,51.409401 37.486980,52.825298 43.951065,51.225910 
	C45.109894,51.064690 45.552544,50.985210 45.995193,50.905731 
	C47.396492,50.814644 48.797791,50.723557 50.864948,50.545940 
	C52.470585,50.176132 53.410362,49.892853 54.350140,49.609573 
	C54.350140,49.609573 54.531330,49.604919 54.735592,49.346359 
	C55.034946,48.768383 55.130043,48.448967 55.225143,48.129551 
	C55.225143,48.129551 55.144886,48.121319 55.437454,47.995892 
	C56.323135,46.981922 56.916252,46.093376 57.509365,45.204834 
	C57.775543,45.161968 57.972191,45.021656 58.422920,44.473553 
	C59.470592,43.431889 60.194656,42.700569 60.918716,41.969250 
	C61.217484,41.830566 61.516251,41.691887 62.266788,41.266159 
	C64.138290,40.291569 65.558022,39.604023 66.977753,38.916477 
	C67.740150,38.784992 68.502556,38.653507 70.026443,38.508038 
	C72.523468,38.665203 74.259003,38.836353 75.994530,39.007507 
	C75.994530,39.007507 76.235886,39.217243 76.633408,39.443886 
	C78.311462,40.174099 79.591988,40.677662 80.872520,41.181229 
	C80.872520,41.181229 80.909935,41.081516 81.041634,41.400665 
	C83.749878,44.189896 86.326416,46.659973 88.902962,49.130051 
	C88.902962,49.130051 88.953560,49.054047 88.984299,49.373234 
	C89.675835,50.467213 90.336632,51.242008 90.997429,52.016804 
	C90.996429,52.358013 91.116592,52.649223 91.660980,53.311409 
	C93.101837,55.296879 94.239632,56.861382 95.377434,58.425884 
	C95.377434,58.425884 95.373459,58.568851 95.582542,58.886276 
	C97.475166,61.531750 99.158699,63.859795 100.842239,66.187843 
	C100.842239,66.187843 100.908264,66.092178 100.931602,66.449066 
	C102.234322,68.613274 103.513710,70.420609 104.793091,72.227936 
	C104.793091,72.227936 104.809090,72.144661 104.827263,72.434517 
	C105.219513,73.167152 105.593590,73.609940 105.967659,74.052727 
	C105.967659,74.052727 106.004829,74.011681 106.015671,74.304932 
	C106.303642,74.850006 106.580772,75.101837 106.857895,75.353668 
	C107.070801,75.822388 107.283714,76.291107 107.787651,77.237282 
	C115.993866,89.949150 123.909058,102.183556 131.824249,114.417969 
M82.863792,100.259872 
	C85.551651,118.625061 107.465530,124.892609 123.517166,114.320534 
	C115.869499,101.521133 108.215927,88.711861 100.271744,75.416206 
	C91.464615,81.555489 83.038979,87.402885 82.863792,100.259872 
M71.090843,58.652588 
	C73.092094,58.067886 75.493721,57.951210 76.938141,56.715591 
	C77.750069,56.021038 77.521858,53.157879 76.757156,51.867233 
	C76.117912,50.788349 73.975006,49.989845 72.572578,50.091949 
	C68.855324,50.362576 68.054131,53.763153 71.090843,58.652588 
z"/>
<path fill="#FCFCFD" opacity="1.000000" stroke="none" 
	d="
M112.861336,68.835487 
	C113.786980,68.400803 114.712616,67.966118 116.177643,67.268570 
	C117.923424,66.381805 119.129814,65.757912 120.336212,65.134018 
	C120.336212,65.134018 120.703003,65.153107 121.187965,65.066193 
	C122.267677,64.710297 122.862434,64.441322 123.457184,64.172340 
	C123.457184,64.172340 123.771530,64.236000 124.340485,64.158157 
	C128.611603,64.311554 132.313766,64.542778 136.015930,64.774002 
	C136.015930,64.774002 136.437790,65.009323 136.878418,65.286423 
	C139.191376,67.073006 141.063705,68.582497 142.936035,70.091995 
	C142.936035,70.091995 142.984848,70.025284 143.021393,70.345428 
	C143.692734,71.474922 144.327545,72.284271 144.962341,73.093620 
	C145.147293,73.614861 145.332245,74.136108 145.755417,75.199005 
	C146.667343,77.492523 147.341049,79.244377 148.014771,80.996223 
	C148.014435,81.749001 148.014084,82.501778 148.019226,84.035446 
	C147.216995,88.417107 146.409271,92.017868 145.601562,95.618637 
	C145.601562,95.618637 145.873856,95.975670 145.529175,95.963730 
	C145.114609,96.298988 145.044739,96.646172 144.974854,96.993362 
	C143.387390,99.107727 141.799927,101.222099 139.811874,103.787865 
	C138.269547,105.492554 137.127808,106.745857 135.986069,107.999161 
	C135.204102,108.555878 134.422119,109.112595 133.217621,109.408829 
	C125.614510,98.066963 118.433945,86.985573 111.253380,75.904182 
	C110.571198,74.574982 109.889008,73.245781 109.478378,71.492950 
	C110.787079,70.324707 111.824203,69.580093 112.861336,68.835487 
z"/>
<path fill="#494170" opacity="1.000000" stroke="none" 
	d="
M110.932510,76.047050 
	C118.433945,86.985573 125.614510,98.066963 132.930145,109.454315 
	C132.712341,111.051704 132.359451,112.343140 131.915405,114.026276 
	C123.909058,102.183556 115.993866,89.949150 108.011978,77.372665 
	C108.834068,76.750374 109.722855,76.470146 110.932510,76.047050 
z"/>
<path fill="#494170" opacity="1.000000" stroke="none" 
	d="
M135.920471,64.430588 
	C132.313766,64.542778 128.611603,64.311554 124.460670,64.051987 
	C126.788376,59.718506 132.208099,59.747643 135.920471,64.430588 
z"/>
<path fill="#494170" opacity="1.000000" stroke="none" 
	d="
M88.904976,48.752258 
	C86.326416,46.659973 83.749878,44.189896 80.999199,41.432838 
	C85.634796,41.189877 88.246902,43.690945 88.904976,48.752258 
z"/>
<path fill="#494170" opacity="1.000000" stroke="none" 
	d="
M100.869919,65.787354 
	C99.158699,63.859795 97.475166,61.531750 95.651047,58.906784 
	C100.277702,58.506767 100.583519,61.950096 100.869919,65.787354 
z"/>
<path fill="#494170" opacity="1.000000" stroke="none" 
	d="
M145.968719,95.587067 
	C146.409271,92.017868 147.216995,88.417107 148.095947,84.404938 
	C149.433075,88.144699 149.710602,92.139328 145.968719,95.587067 
z"/>
<path fill="#494170" opacity="1.000000" stroke="none" 
	d="
M104.832458,71.835449 
	C103.513710,70.420609 102.234322,68.613274 100.879684,66.475189 
	C103.986282,66.508850 105.035294,68.510529 104.832458,71.835449 
z"/>
<path fill="#494170" opacity="1.000000" stroke="none" 
	d="
M148.218536,80.707642 
	C147.341049,79.244377 146.667343,77.492523 145.968033,75.383987 
	C149.101364,75.751846 149.394592,77.794426 148.218536,80.707642 
z"/>
<path fill="#494170" opacity="1.000000" stroke="none" 
	d="
M142.930206,69.713364 
	C141.063705,68.582497 139.191376,67.073006 137.119629,65.298668 
	C140.041565,64.903969 142.523102,65.667313 142.930206,69.713364 
z"/>
<path fill="#494170" opacity="1.000000" stroke="none" 
	d="
M95.485756,58.051346 
	C94.239632,56.861382 93.101837,55.296879 91.880455,53.411766 
	C93.062607,54.619709 94.328339,56.148258 95.485756,58.051346 
z"/>
<path fill="#494170" opacity="1.000000" stroke="none" 
	d="
M75.910149,38.740692 
	C74.259003,38.836353 72.523468,38.665203 70.378639,38.342857 
	C71.921478,38.285732 73.873627,38.379803 75.910149,38.740692 
z"/>
<path fill="#494170" opacity="1.000000" stroke="none" 
	d="
M66.712074,38.739014 
	C65.558022,39.604023 64.138290,40.291569 62.381630,41.041527 
	C63.511932,40.256477 64.979164,39.409012 66.712074,38.739014 
z"/>
<path fill="#494170" opacity="1.000000" stroke="none" 
	d="
M136.353119,107.980331 
	C137.127808,106.745857 138.269547,105.492554 139.700256,104.101509 
	C138.899536,105.296349 137.809845,106.628929 136.353119,107.980331 
z"/>
<path fill="#494170" opacity="1.000000" stroke="none" 
	d="
M112.486511,68.717850 
	C111.824203,69.580093 110.787079,70.324707 109.442627,71.161972 
	C110.127426,70.369827 111.119553,69.485016 112.486511,68.717850 
z"/>
<path fill="#494170" opacity="1.000000" stroke="none" 
	d="
M80.758324,40.824242 
	C79.591988,40.677662 78.311462,40.174099 76.791367,39.419167 
	C77.915909,39.600948 79.280014,40.034100 80.758324,40.824242 
z"/>
<path fill="#494170" opacity="1.000000" stroke="none" 
	d="
M119.952347,65.104599 
	C119.129814,65.757912 117.923424,66.381805 116.372406,67.027573 
	C117.208023,66.391350 118.388252,65.733261 119.952347,65.104599 
z"/>
<path fill="#494170" opacity="1.000000" stroke="none" 
	d="
M134.883255,118.936951 
	C134.244263,118.430870 133.612015,117.565010 132.931458,116.375519 
	C133.552124,116.893654 134.221054,117.735405 134.883255,118.936951 
z"/>
<path fill="#494170" opacity="1.000000" stroke="none" 
	d="
M57.146637,45.252007 
	C56.916252,46.093376 56.323135,46.981922 55.452553,48.033295 
	C55.711361,47.230480 56.247635,46.264832 57.146637,45.252007 
z"/>
<path fill="#494170" opacity="1.000000" stroke="none" 
	d="
M144.954391,72.749092 
	C144.327545,72.284271 143.692734,71.474922 142.983276,70.361443 
	C143.587906,70.839722 144.267181,71.622139 144.954391,72.749092 
z"/>
<path fill="#494170" opacity="1.000000" stroke="none" 
	d="
M60.570404,42.005569 
	C60.194656,42.700569 59.470592,43.431889 58.463112,44.291271 
	C58.860489,43.626854 59.541290,42.834373 60.570404,42.005569 
z"/>
<path fill="#494170" opacity="1.000000" stroke="none" 
	d="
M90.977478,51.676609 
	C90.336632,51.242008 89.675835,50.467213 88.941559,49.389290 
	C89.564568,49.836246 90.261055,50.586330 90.977478,51.676609 
z"/>
<path fill="#494170" opacity="1.000000" stroke="none" 
	d="
M54.047188,49.498665 
	C53.410362,49.892853 52.470585,50.176132 51.246986,50.363400 
	C51.890186,49.974178 52.817207,49.680969 54.047188,49.498665 
z"/>
<path fill="#494170" opacity="1.000000" stroke="none" 
	d="
M105.916901,73.757294 
	C105.593590,73.609940 105.219513,73.167152 104.784950,72.431808 
	C105.105026,72.580124 105.485588,73.020996 105.916901,73.757294 
z"/>
<path fill="#494170" opacity="1.000000" stroke="none" 
	d="
M123.125351,64.164185 
	C122.862434,64.441322 122.267677,64.710297 121.335037,64.956207 
	C121.595932,64.674103 122.194725,64.415070 123.125351,64.164185 
z"/>
<path fill="#494170" opacity="1.000000" stroke="none" 
	d="
M45.812050,50.764099 
	C45.552544,50.985210 45.109894,51.064690 44.334095,51.077934 
	C44.543602,50.881958 45.086254,50.752213 45.812050,50.764099 
z"/>
<path fill="#494170" opacity="1.000000" stroke="none" 
	d="
M106.760826,75.097763 
	C106.580772,75.101837 106.303642,74.850006 105.988297,74.308990 
	C106.187973,74.293823 106.425865,74.567841 106.760826,75.097763 
z"/>
<path fill="#494170" opacity="1.000000" stroke="none" 
	d="
M145.144653,96.797775 
	C145.044739,96.646172 145.114609,96.298988 145.397614,95.785812 
	C145.511978,95.947289 145.413223,96.274734 145.144653,96.797775 
z"/>
<path fill="#494170" opacity="1.000000" stroke="none" 
	d="
M55.034256,48.297611 
	C55.130043,48.448967 55.034946,48.768383 54.751171,49.257088 
	C54.656116,49.106136 54.749744,48.785904 55.034256,48.297611 
z"/>
<path fill="#3E366F" opacity="1.000000" stroke="none" 
	d="
M82.832077,99.827866 
	C83.038979,87.402885 91.464615,81.555489 100.271744,75.416206 
	C108.215927,88.711861 115.869499,101.521133 123.517166,114.320534 
	C107.465530,124.892609 85.551651,118.625061 82.832077,99.827866 
z"/>
<path fill="#453D6D" opacity="1.000000" stroke="none" 
	d="
M70.779465,58.393528 
	C68.054131,53.763153 68.855324,50.362576 72.572578,50.091949 
	C73.975006,49.989845 76.117912,50.788349 76.757156,51.867233 
	C77.521858,53.157879 77.750069,56.021038 76.938141,56.715591 
	C75.493721,57.951210 73.092094,58.067886 70.779465,58.393528 
z"/>
</svg>
