<svg version="1.1" id="Layer_1" xmlns="http://www.w3.org/2000/svg" xmlns:xlink="http://www.w3.org/1999/xlink" x="0px" y="0px"
	 width="100%" viewBox="0 0 200 200" enable-background="new 0 0 200 200" xml:space="preserve">
<path fill="#FDFEFE" opacity="1.000000" stroke="none" 
	d="
M1.000000,148.000000 
	C1.000000,99.041573 1.000000,50.083138 1.000000,1.062354 
	C67.568489,1.062354 134.137054,1.062354 201.000000,1.062354 
	C201.000000,57.020550 201.000000,113.041618 200.698318,169.348633 
	C200.162857,168.842911 200.005112,168.018799 199.683395,167.264633 
	C196.818024,160.547150 190.300003,156.673645 183.392212,157.549255 
	C175.872955,158.502396 170.159821,164.039536 169.122101,171.379776 
	C168.027008,179.125580 171.912308,186.300156 178.803802,189.257996 
	C185.561752,192.158524 192.147415,190.528870 196.978729,184.509216 
	C198.563049,182.535233 199.673080,180.180588 201.000000,178.000000 
	C201.000000,185.651367 201.000000,193.302734 201.000000,200.972961 
	C134.333328,200.972961 67.666664,200.972961 1.000000,200.972961 
	C1.000000,197.619263 1.000000,194.292587 1.468415,190.464691 
	C12.217599,189.963455 22.498369,189.963455 32.905712,189.963455 
	C32.905712,187.001709 32.905712,184.606613 32.905712,181.929611 
	C29.778189,181.929611 26.985020,181.929611 23.887085,181.767517 
	C21.202066,181.484329 18.821815,181.363220 15.861987,181.212646 
	C19.029663,175.237457 21.830490,169.981644 24.605459,164.712204 
	C27.430445,159.347839 30.229973,153.970047 33.353603,148.000000 
	C21.941559,148.000000 11.470779,148.000000 1.000000,148.000000 
M61.681252,68.694695 
	C61.681252,68.694695 61.608383,68.684143 61.153290,68.824417 
	C60.861725,69.009087 60.705051,69.273666 60.674667,69.687134 
	C60.674667,69.687134 60.605232,69.683655 60.151112,69.822495 
	C59.860279,70.006500 59.704018,70.270271 59.671246,70.683388 
	C59.671246,70.683388 59.600780,70.682472 59.148693,70.820335 
	C58.859066,71.003067 58.703091,71.265320 58.743500,71.833351 
	C58.743500,71.833351 58.624187,71.631134 58.077488,71.759537 
	C57.717827,72.174706 57.358170,72.589874 57.000519,73.000610 
	C57.000519,73.000610 57.005032,72.998535 56.475582,73.214081 
	C56.194607,73.687805 55.913631,74.161530 55.810158,74.821938 
	C55.810158,74.821938 55.594139,74.681587 55.143658,74.819138 
	C54.855770,75.002617 54.701569,75.264778 54.665115,75.676491 
	C54.665115,75.676491 54.592709,75.682533 54.141819,75.820297 
	C53.853382,76.003929 53.699451,76.266464 53.667194,76.678490 
	C53.667194,76.678490 53.595490,76.680725 53.144840,76.815231 
	C52.855415,76.995552 52.699589,77.255875 52.657818,77.668533 
	C52.657818,77.668533 52.583500,77.678055 52.136509,77.815857 
	C51.851418,77.998146 51.697372,78.258125 51.657562,78.668495 
	C51.657562,78.668495 51.583374,78.676521 51.137440,78.816620 
	C50.852825,78.998795 50.698444,79.258446 50.656887,79.668236 
	C50.656887,79.668236 50.582577,79.676163 50.138100,79.816940 
	C49.854111,79.998215 49.699520,80.256859 49.706020,80.653229 
	C49.706020,80.653229 49.645638,80.684845 49.010670,80.931435 
	C46.797852,83.626350 46.575962,86.337418 48.993378,89.007347 
	C48.993378,89.007347 48.919193,89.034363 49.045357,89.668289 
	C49.985451,90.499596 50.925545,91.330902 51.965782,92.095566 
	C51.965782,92.095566 51.845707,92.102684 52.014458,92.609169 
	C52.309376,92.790924 52.604290,92.972679 52.941708,93.054977 
	C52.941708,93.054977 52.845112,93.103630 53.012352,93.611076 
	C53.307652,93.792419 53.602951,93.973755 53.942230,94.055183 
	C53.942230,94.055183 53.844826,94.104469 54.012146,94.610893 
	C54.306252,94.793243 54.600353,94.975586 54.943413,95.062500 
	C54.943413,95.062500 54.843536,95.101608 55.018848,95.626091 
	C55.312431,95.839348 55.606014,96.052612 56.233200,96.824936 
	C63.645706,104.245682 70.881638,111.857681 78.581665,118.967018 
	C80.801888,121.016914 84.320427,122.598503 87.308006,122.712654 
	C98.613892,123.144615 109.949646,123.063423 121.267776,122.843040 
	C137.894730,122.519295 152.283005,110.837105 156.463867,94.381943 
	C156.902390,91.507866 157.340912,88.633781 157.852051,85.283791 
	C155.780563,85.283791 154.366928,85.283791 152.031326,85.152000 
	C143.353302,85.196304 134.675293,85.240608 125.499023,85.153084 
	C125.332397,85.194969 125.165779,85.236847 124.259102,85.150200 
	C123.510567,85.180855 122.762039,85.211502 121.501137,85.111000 
	C121.330963,85.157051 121.160782,85.203102 120.198799,85.146179 
	C119.137222,85.183510 118.075638,85.220833 116.504486,85.136467 
	C116.335930,85.182167 116.167381,85.227867 115.069260,85.155983 
	C106.047989,85.159569 97.026711,85.163147 87.397896,84.878281 
	C86.381386,84.464958 85.364868,84.051643 84.245049,83.948578 
	C84.245049,83.948578 84.310265,83.628174 84.158836,83.174576 
	C83.971703,82.886559 83.707306,82.724770 83.048157,82.696358 
	C83.048157,82.696358 83.366463,82.664978 83.215492,81.875183 
	C82.866341,79.606819 82.258293,77.343292 82.215836,75.069199 
	C82.080055,67.796692 82.233429,60.518940 82.111488,53.245956 
	C82.055344,49.897209 81.694519,49.804871 78.697754,51.582855 
	C78.697754,51.582855 78.643051,51.638741 78.088066,51.748402 
	C77.727295,52.168892 77.366531,52.589382 77.000305,53.000153 
	C77.000305,53.000153 77.009804,53.006153 76.454887,53.209740 
	C75.961441,53.807899 75.468002,54.406059 74.415733,55.297951 
	C73.283646,56.534019 72.151558,57.770088 70.487999,59.228497 
	C70.210396,59.709072 69.932800,60.189648 69.934074,60.931015 
	C69.934074,60.931015 69.632896,60.696350 69.168350,60.822002 
	C68.866676,61.002117 68.707878,61.267681 68.748413,61.841415 
	C68.748413,61.841415 68.635605,61.641254 68.083786,61.757954 
	C67.720848,62.172852 67.357910,62.587749 67.000610,63.000610 
	C67.000610,63.000610 67.002632,62.994934 66.474930,63.213699 
	C66.193695,63.688175 65.912453,64.162651 65.835678,64.820160 
	C65.835678,64.820160 65.597733,64.683464 65.152756,64.830948 
	C64.869614,65.014595 64.712837,65.274498 64.667847,65.680443 
	C64.667847,65.680443 64.596573,65.681084 64.144867,65.825058 
	C63.857418,66.012009 63.702637,66.276604 63.680099,66.692719 
	C63.680099,66.692719 63.606804,66.683449 63.152409,66.825958 
	C62.862309,67.011986 62.705757,67.276955 62.681915,67.695175 
	C62.681915,67.695175 62.608414,67.684196 62.153378,67.825966 
	C61.862442,68.011620 61.705750,68.276657 61.681252,68.694695 
M131.000015,21.387957 
	C130.689926,21.205605 130.379837,21.023252 130.072632,20.933125 
	C130.072632,20.933125 130.149948,20.882769 129.884048,20.315342 
	C129.353165,20.079447 128.822296,19.843552 128.398087,19.616497 
	C128.398087,19.616497 128.400864,19.509487 128.348892,18.891027 
	C127.265152,17.826040 126.181412,16.761055 124.863396,15.172450 
	C124.011147,14.420087 123.158897,13.667725 122.003113,12.434490 
	C121.677483,12.256463 121.351852,12.078435 121.025047,11.978326 
	C121.025047,11.978326 121.092934,11.940064 120.737259,11.354959 
	C119.865448,11.140387 118.993645,10.925814 118.046364,10.772665 
	C118.046364,10.772665 118.116058,10.840572 117.531128,10.216716 
	C104.761337,10.148879 91.991554,10.062643 79.221718,10.051682 
	C78.301163,10.050892 77.380127,10.599041 75.690536,10.740923 
	C58.092739,12.751050 43.679382,29.779089 45.005527,47.745731 
	C46.716152,47.745731 48.483662,47.745819 50.251175,47.745720 
	C70.381882,47.744553 90.512627,47.718124 110.643265,47.756138 
	C117.497993,47.769085 119.818542,50.178089 119.855583,57.128029 
	C119.891930,63.948986 119.840515,70.770439 119.886314,77.591286 
	C119.896698,79.137520 120.149323,80.682129 120.315010,82.496567 
	C121.619400,82.210747 122.449272,82.285759 122.829315,81.908104 
	C132.614151,72.184692 142.486633,62.542160 151.994263,52.552818 
	C154.112946,50.326809 155.762024,46.976593 152.574326,43.741207 
	C146.768814,37.848862 141.065720,31.855595 135.047058,25.395016 
	C134.720703,25.208920 134.394348,25.022821 134.067841,24.942179 
	C134.067841,24.942179 134.169876,24.915539 133.998901,24.388073 
	C133.690521,24.204527 133.382156,24.020981 133.062515,23.938530 
	C133.062515,23.938530 133.162994,23.922644 132.996277,23.394672 
	C132.686676,23.211885 132.377075,23.029099 132.059418,22.945210 
	C132.059418,22.945210 132.157196,22.928314 131.999161,22.394920 
	C131.690582,22.209888 131.381989,22.024858 131.062790,21.939564 
	C131.062790,21.939564 131.161743,21.923262 131.000015,21.387957 
M75.000916,189.000000 
	C75.000916,189.000000 75.011765,188.991959 75.071541,189.589142 
	C75.727051,189.689774 76.382561,189.790405 77.723404,189.942856 
	C78.166512,190.055649 78.609612,190.168427 79.485703,190.694580 
	C80.074173,190.758957 80.662643,190.823334 81.994766,190.759201 
	C85.854919,189.481827 89.715073,188.204453 94.259674,186.700592 
	C94.779686,186.944244 96.184692,187.602554 98.234253,188.562897 
	C98.234253,174.127670 98.234253,160.373383 98.234253,146.430145 
	C95.643356,146.430145 93.252373,146.430145 90.115562,146.430145 
	C90.115562,150.481750 90.115562,154.246735 89.334435,158.002823 
	C88.554451,158.002930 87.774460,158.003052 86.281647,157.964661 
	C85.821114,157.850037 85.360580,157.735413 84.347656,157.219757 
	C82.587257,157.387222 80.826866,157.554703 78.373055,157.964325 
	C73.158852,159.638855 69.541504,163.032303 67.230125,168.335144 
	C67.092476,168.526978 67.013573,168.740540 66.994888,169.670502 
	C66.903107,170.122360 66.811325,170.574234 66.470245,171.182510 
	C66.266068,171.452652 66.297279,171.702759 66.668755,172.744904 
	C66.596977,173.557617 66.525200,174.370316 66.137085,175.764282 
	C66.210243,179.294769 64.268303,180.397079 60.551231,179.754166 
	C59.638325,179.495834 58.725418,179.237503 57.175789,178.903824 
	C56.463745,177.968201 55.751701,177.032593 55.243011,175.522583 
	C56.084675,174.647171 56.926342,173.771759 58.570038,172.940613 
	C59.374954,171.615250 60.179874,170.289902 61.213711,168.367706 
	C62.194374,167.239639 63.175041,166.111572 64.446594,164.826309 
	C64.676590,164.515350 64.616791,164.250702 63.901627,163.430786 
	C60.913677,161.535416 57.925728,159.640060 54.379005,157.285080 
	C52.274914,157.433502 50.170822,157.581924 47.443748,157.941254 
	C47.007812,157.977402 46.571877,158.013535 45.704865,158.115601 
	C45.418320,158.215851 45.198715,158.397156 44.413670,158.980408 
	C37.589790,162.822159 34.602303,168.756577 35.643711,176.396774 
	C36.568340,183.180267 40.343071,188.084061 47.143219,189.931519 
	C54.084179,191.817215 59.847633,189.689774 64.720612,183.509171 
	C65.847168,182.991837 66.973724,182.474518 68.558205,182.313934 
	C68.803810,182.837280 69.049416,183.360611 68.711586,184.234787 
	C68.386856,187.650238 70.595528,188.004730 73.644585,188.033966 
	C73.644585,188.033966 74.045982,188.317215 74.279808,188.648376 
	C74.483032,188.843994 74.724815,188.957642 75.000916,189.000000 
M159.694351,158.342224 
	C159.108154,158.450241 158.521957,158.558243 157.434998,158.784058 
	C157.276749,158.850098 157.118484,158.916138 156.460541,159.313339 
	C156.525497,160.218948 156.590469,161.124573 156.745453,162.950043 
	C156.799591,167.300369 156.853729,171.650696 156.743393,176.639328 
	C156.699844,177.076477 156.656296,177.513641 156.230087,178.574432 
	C156.357849,180.732010 156.485611,182.889603 156.658142,185.668381 
	C156.639618,186.082764 156.621078,186.497162 156.369995,187.164307 
	C156.335846,187.273270 156.248108,187.400864 156.278229,187.487473 
	C156.350433,187.695114 156.478043,187.883469 156.802475,188.894760 
	C161.088806,190.838150 162.999557,190.599411 164.733963,187.054108 
	C164.683975,184.391205 164.633987,181.728302 164.799133,178.367554 
	C164.728500,177.891388 164.657867,177.415207 164.724136,176.316177 
	C164.679382,175.895874 164.634644,175.475555 164.820602,174.251556 
	C164.744293,173.149094 164.667984,172.046616 164.746307,170.066696 
	C164.693893,167.397217 164.641495,164.727737 164.811813,161.383591 
	C164.560730,160.532883 164.309631,159.682159 163.858643,158.535416 
	C163.550461,158.577103 163.242264,158.618790 162.216278,158.708267 
	C161.497772,158.694504 160.779282,158.680740 159.694351,158.342224 
M104.101555,180.990311 
	C109.601959,191.489243 117.534912,193.103516 130.107910,186.174026 
	C131.451401,187.168213 132.854370,188.206421 134.704926,189.575836 
	C134.704926,179.388107 134.704926,169.840775 134.704926,161.332840 
	C129.889481,160.052826 125.545006,158.834641 121.162560,157.773239 
	C119.912102,157.470383 118.527367,157.433044 117.245079,157.595856 
	C106.210693,158.996964 100.692810,168.378006 104.101555,180.990311 
M155.366043,151.133484 
	C155.811508,152.011475 156.203430,152.921860 156.711624,153.761902 
	C159.021896,157.580826 161.925781,155.664886 164.153091,154.030701 
	C166.872101,152.035751 166.780167,149.057358 164.517044,146.676636 
	C162.278122,144.321396 159.454102,144.149628 157.059799,146.494568 
	C156.097061,147.437454 155.817810,149.078217 155.366043,151.133484 
M147.738266,182.471237 
	C144.492737,181.389557 141.722229,182.318069 141.200897,185.658264 
	C140.922668,187.440857 142.247528,190.301880 143.753036,191.269760 
	C144.934509,192.029312 148.057159,191.235397 149.340836,190.062637 
	C151.954025,187.675201 151.023468,184.982239 147.738266,182.471237 
z"/>
<path fill="#6375DE" opacity="1.000000" stroke="none" 
	d="
M1.000000,148.444168 
	C11.470779,148.000000 21.941559,148.000000 33.353603,148.000000 
	C30.229973,153.970047 27.430445,159.347839 24.605459,164.712204 
	C21.830490,169.981644 19.029663,175.237457 15.861987,181.212646 
	C18.821815,181.363220 21.202066,181.484329 23.578825,181.824203 
	C23.419943,182.262619 23.255373,182.477081 23.124487,182.710464 
	C23.112450,182.731918 23.314064,182.947189 23.418550,182.948959 
	C25.080978,182.977051 26.859545,182.622375 28.371973,183.105408 
	C29.727264,183.538254 31.516155,184.691833 31.835501,185.873016 
	C32.584129,188.642090 30.486240,189.042053 28.222414,189.010895 
	C21.318739,188.915802 14.405070,189.071793 7.517445,188.709198 
	C6.229305,188.641388 5.043713,186.625626 3.870131,185.173935 
	C8.723311,175.655228 13.517158,166.471375 18.983067,156.000000 
	C12.140604,156.000000 6.570302,156.000000 1.000000,156.000000 
	C1.000000,153.629440 1.000000,151.258896 1.000000,148.444168 
z"/>
<path fill="#6576DD" opacity="1.000000" stroke="none" 
	d="
M201.000000,177.555832 
	C199.673080,180.180588 198.563049,182.535233 196.978729,184.509216 
	C192.147415,190.528870 185.561752,192.158524 178.803802,189.257996 
	C171.912308,186.300156 168.027008,179.125580 169.122101,171.379776 
	C170.159821,164.039536 175.872955,158.502396 183.392212,157.549255 
	C190.300003,156.673645 196.818024,160.547150 199.683395,167.264633 
	C200.005112,168.018799 200.162857,168.842911 200.698318,169.817291 
	C201.000000,172.370560 201.000000,174.741104 201.000000,177.555832 
M192.934906,174.380508 
	C192.749359,169.946899 191.090317,166.585938 186.268280,165.874420 
	C182.401917,165.303925 179.441879,166.679260 177.817108,170.443130 
	C175.834534,175.035919 177.929092,180.357620 182.410172,182.011856 
	C187.182373,183.773560 190.919128,181.335953 192.934906,174.380508 
z"/>
<path fill="#F6F8FD" opacity="1.000000" stroke="none" 
	d="
M1.000000,156.468658 
	C6.570302,156.000000 12.140604,156.000000 18.983067,156.000000 
	C13.517158,166.471375 8.723311,175.655228 3.611072,185.385010 
	C2.528452,186.953964 1.764225,187.976990 0.999999,189.000000 
	C1.000000,178.312439 1.000000,167.624878 1.000000,156.468658 
z"/>
<path fill="#6A77C8" opacity="1.000000" stroke="none" 
	d="
M0.999999,189.250000 
	C1.764225,187.976990 2.528452,186.953964 3.551738,185.719879 
	C5.043713,186.625626 6.229305,188.641388 7.517445,188.709198 
	C14.405070,189.071793 21.318739,188.915802 28.222414,189.010895 
	C30.486240,189.042053 32.584129,188.642090 31.835501,185.873016 
	C31.516155,184.691833 29.727264,183.538254 28.371973,183.105408 
	C26.859545,182.622375 25.080978,182.977051 23.418550,182.948959 
	C23.314064,182.947189 23.112450,182.731918 23.124487,182.710464 
	C23.255373,182.477081 23.419943,182.262619 23.883591,181.986298 
	C26.985020,181.929611 29.778189,181.929611 32.905712,181.929611 
	C32.905712,184.606613 32.905712,187.001709 32.905712,189.963455 
	C22.498369,189.963455 12.217599,189.963455 1.468415,189.981720 
	C1.000000,190.000000 1.000000,189.500000 0.999999,189.250000 
z"/>
<path fill="#6173E2" opacity="1.000000" stroke="none" 
	d="
M135.319901,25.904436 
	C141.065720,31.855595 146.768814,37.848862 152.574326,43.741207 
	C155.762024,46.976593 154.112946,50.326809 151.994263,52.552818 
	C142.486633,62.542160 132.614151,72.184692 122.829315,81.908104 
	C122.449272,82.285759 121.619400,82.210747 120.315010,82.496567 
	C120.149323,80.682129 119.896698,79.137520 119.886314,77.591286 
	C119.840515,70.770439 119.891930,63.948986 119.855583,57.128029 
	C119.818542,50.178089 117.497993,47.769085 110.643265,47.756138 
	C90.512627,47.718124 70.381882,47.744553 50.251175,47.745720 
	C48.483662,47.745819 46.716152,47.745731 45.005527,47.745731 
	C43.679382,29.779089 58.092739,12.751050 76.589531,10.846766 
	C91.031036,10.915262 104.573547,10.877917 118.116058,10.840572 
	C118.116058,10.840572 118.046364,10.772665 118.222168,11.072918 
	C119.296295,11.562134 120.194611,11.751099 121.092934,11.940063 
	C121.092934,11.940064 121.025047,11.978326 121.152359,12.201784 
	C121.622002,12.588614 121.964333,12.751987 122.306656,12.915361 
	C123.158897,13.667725 124.011147,14.420087 124.974533,15.819843 
	C126.190727,17.481321 127.295792,18.495405 128.400864,19.509487 
	C128.400864,19.509487 128.398087,19.616497 128.380005,19.948872 
	C128.957932,20.481754 129.553940,20.682261 130.149948,20.882767 
	C130.149948,20.882769 130.072632,20.933125 130.159332,21.149052 
	C130.551254,21.551071 130.856506,21.737165 131.161743,21.923260 
	C131.161743,21.923262 131.062790,21.939564 131.154816,22.151764 
	C131.550293,22.552084 131.853745,22.740200 132.157196,22.928316 
	C132.157196,22.928314 132.059418,22.945210 132.154022,23.156063 
	C132.553421,23.552158 132.858200,23.737402 133.162994,23.922646 
	C133.162994,23.922644 133.062515,23.938530 133.156479,24.150356 
	C133.556915,24.546633 133.863403,24.731085 134.169876,24.915539 
	C134.169876,24.915539 134.067841,24.942179 134.181061,25.163021 
	C134.636154,25.557388 134.978027,25.730911 135.319901,25.904436 
z"/>
<path fill="#6073E2" opacity="1.000000" stroke="none" 
	d="
M122.013504,85.242157 
	C122.762039,85.211502 123.510567,85.180855 124.727631,85.345108 
	C125.196152,85.540016 125.647415,85.605484 125.647415,85.605484 
	C125.647415,85.605484 125.997276,85.284920 125.997276,85.284920 
	C134.675293,85.240608 143.353302,85.196304 152.599426,85.559952 
	C157.469040,87.919655 155.636353,91.796425 155.997223,94.984810 
	C152.283005,110.837105 137.894730,122.519295 121.267776,122.843040 
	C109.949646,123.063423 98.613892,123.144615 87.308006,122.712654 
	C84.320427,122.598503 80.801888,121.016914 78.581665,118.967018 
	C70.881638,111.857681 63.645706,104.245682 55.998810,96.267708 
	C55.457458,95.507523 55.150497,95.304565 54.843536,95.101608 
	C54.843536,95.101608 54.943413,95.062500 54.844570,94.849594 
	C54.445427,94.459282 54.145126,94.281876 53.844826,94.104469 
	C53.844826,94.104469 53.942230,94.055183 53.844528,93.845001 
	C53.446251,93.457756 53.145679,93.280693 52.845108,93.103638 
	C52.845112,93.103630 52.941708,93.054977 52.844395,92.844704 
	C52.446625,92.457176 52.146168,92.279930 51.845711,92.102684 
	C51.845707,92.102684 51.965782,92.095566 51.922966,91.790611 
	C50.893162,90.668564 49.906178,89.851463 48.919193,89.034363 
	C48.919193,89.034363 48.993378,89.007347 48.991821,88.608307 
	C49.208721,85.701134 49.427181,83.192986 49.645638,80.684845 
	C49.645638,80.684845 49.706020,80.653229 49.973328,80.645119 
	C50.354614,80.316727 50.468597,79.996445 50.582581,79.676163 
	C50.582577,79.676163 50.656887,79.668236 50.948906,79.653053 
	C51.355076,79.317421 51.469223,78.996971 51.583374,78.676521 
	C51.583374,78.676521 51.657562,78.668495 51.949127,78.653534 
	C52.354961,78.318398 52.469231,77.998222 52.583500,77.678055 
	C52.583500,77.678055 52.657818,77.668533 52.950333,77.653725 
	C53.360397,77.319519 53.477943,77.000122 53.595490,76.680725 
	C53.595490,76.680725 53.667194,76.678490 53.956177,76.660110 
	C54.361008,76.322006 54.476856,76.002266 54.592709,75.682533 
	C54.592709,75.682533 54.665115,75.676491 54.955528,75.658295 
	C55.362007,75.320587 55.478073,75.001091 55.594139,74.681587 
	C55.594139,74.681587 55.810158,74.821938 56.038383,74.719696 
	C56.512753,74.077812 56.758892,73.538170 57.005032,72.998535 
	C57.005032,72.998535 57.000519,73.000610 57.312706,72.976730 
	C57.957989,72.512283 58.291088,72.071709 58.624191,71.631134 
	C58.624187,71.631134 58.743500,71.833351 58.995132,71.737839 
	C59.364769,71.322380 59.482777,71.002426 59.600780,70.682472 
	C59.600780,70.682472 59.671246,70.683388 59.959938,70.663895 
	C60.367500,70.324150 60.486366,70.003906 60.605232,69.683655 
	C60.605232,69.683655 60.674667,69.687134 60.962166,69.666260 
	C61.369240,69.324974 61.488811,69.004555 61.608383,68.684143 
	C61.608383,68.684143 61.681252,68.694695 61.965515,68.670197 
	C62.369320,68.325195 62.488865,68.004692 62.608414,67.684196 
	C62.608414,67.684196 62.681915,67.695175 62.965717,67.670242 
	C63.368614,67.324692 63.487709,67.004074 63.606804,66.683449 
	C63.606804,66.683449 63.680099,66.692719 63.963886,66.668678 
	C64.363968,66.323456 64.480270,66.002266 64.596573,65.681084 
	C64.596573,65.681084 64.667847,65.680443 64.957680,65.661530 
	C65.364250,65.322899 65.480995,65.003181 65.597733,64.683464 
	C65.597733,64.683464 65.835678,64.820160 66.051483,64.719681 
	C66.512405,64.077782 66.757515,63.536358 67.002632,62.994934 
	C67.002632,62.994934 67.000610,63.000610 67.311752,62.978760 
	C67.960457,62.518356 68.298027,62.079803 68.635605,61.641251 
	C68.635605,61.641254 68.748413,61.841415 69.002419,61.746151 
	C69.381912,61.332706 69.507401,61.014530 69.632896,60.696350 
	C69.632896,60.696350 69.934074,60.931015 70.110062,60.780327 
	C70.530525,60.088478 70.775002,59.547318 71.019478,59.006157 
	C72.151558,57.770088 73.283646,56.534019 75.019165,55.115009 
	C76.084999,54.290096 76.547401,53.648125 77.009804,53.006153 
	C77.009804,53.006153 77.000305,53.000153 77.314911,52.977928 
	C77.967361,52.516716 78.305206,52.077728 78.643051,51.638741 
	C78.643051,51.638741 78.697754,51.582855 79.102448,51.761997 
	C80.008018,53.548615 80.904793,55.147137 80.941376,56.765114 
	C81.101669,63.854801 80.875252,70.954910 81.121361,78.039688 
	C81.175758,79.605560 82.582458,81.124451 83.366463,82.664978 
	C83.366463,82.664978 83.048157,82.696358 83.198929,82.975784 
	C83.669884,83.379539 83.990074,83.503860 84.310265,83.628174 
	C84.310265,83.628174 84.245049,83.948578 84.294083,84.137497 
	C85.563889,84.606522 86.784660,84.886627 88.005440,85.166733 
	C97.026711,85.163147 106.047989,85.159569 115.635948,85.346306 
	C116.202637,85.536629 116.662987,85.591713 116.662987,85.591713 
	C116.662987,85.591713 117.014061,85.258163 117.014061,85.258163 
	C118.075638,85.220833 119.137222,85.183510 120.696457,85.332924 
	C121.467247,85.427170 121.740379,85.334663 122.013504,85.242157 
z"/>
<path fill="#6778DD" opacity="1.000000" stroke="none" 
	d="
M79.052719,190.281219 
	C78.609612,190.168427 78.166512,190.055649 77.200912,189.686279 
	C76.122871,189.283798 75.567322,189.137878 75.011765,188.991959 
	C75.011765,188.991959 75.000916,189.000000 74.894226,188.816040 
	C74.596184,188.395599 74.348999,188.290649 74.045982,188.317215 
	C74.045982,188.317215 73.644585,188.033966 73.241745,187.707245 
	C71.657608,186.214981 70.476311,185.049469 69.295013,183.883957 
	C69.049416,183.360611 68.803810,182.837280 68.285072,181.749786 
	C67.492432,179.184784 66.972923,177.183899 66.453423,175.183029 
	C66.525200,174.370316 66.596977,173.557617 66.718430,172.123047 
	C66.768112,171.501190 66.719543,171.026093 66.719543,171.026093 
	C66.811325,170.574234 66.903107,170.122360 67.154938,169.223694 
	C67.539062,168.587692 67.591309,168.359253 67.471710,168.091583 
	C69.541504,163.032303 73.158852,159.638855 79.135040,157.888306 
	C81.564697,157.748459 83.232376,157.684616 84.900055,157.620789 
	C85.360580,157.735413 85.821114,157.850037 86.815536,158.214386 
	C88.243118,158.139893 89.761505,161.635406 90.115562,158.011703 
	C90.115562,154.246735 90.115562,150.481750 90.115562,146.430145 
	C93.252373,146.430145 95.643356,146.430145 98.234253,146.430145 
	C98.234253,160.373383 98.234253,174.127670 98.234253,188.562897 
	C96.184692,187.602554 94.779686,186.944244 94.259674,186.700592 
	C89.715073,188.204453 85.854919,189.481827 81.391922,190.630920 
	C80.210289,190.428833 79.631500,190.355026 79.052719,190.281219 
M74.815681,174.406021 
	C75.837860,180.053970 78.496490,182.593826 83.067551,182.289169 
	C87.357903,182.003235 90.354485,178.459427 90.254982,173.789185 
	C90.162613,169.453522 87.126938,166.092499 83.040222,165.801178 
	C78.306023,165.463699 75.775566,167.854370 74.815681,174.406021 
z"/>
<path fill="#6677DD" opacity="1.000000" stroke="none" 
	d="
M103.990234,180.604630 
	C100.692810,168.378006 106.210693,158.996964 117.245079,157.595856 
	C118.527367,157.433044 119.912102,157.470383 121.162560,157.773239 
	C125.545006,158.834641 129.889481,160.052826 134.704926,161.332840 
	C134.704926,169.840775 134.704926,179.388107 134.704926,189.575836 
	C132.854370,188.206421 131.451401,187.168213 130.107910,186.174026 
	C117.534912,193.103516 109.601959,191.489243 103.990234,180.604630 
M125.446991,179.768204 
	C125.909988,178.376648 127.045517,176.786591 126.704803,175.632248 
	C125.824234,172.648834 124.980209,168.989517 122.802940,167.263855 
	C121.053154,165.877029 116.580040,165.843063 114.760063,167.178192 
	C112.687096,168.698883 111.304985,172.384552 111.242714,175.165543 
	C111.117180,180.772354 117.365829,185.386276 125.446991,179.768204 
z"/>
<path fill="#6676DC" opacity="1.000000" stroke="none" 
	d="
M64.234848,183.951080 
	C59.847633,189.689774 54.084179,191.817215 47.143219,189.931519 
	C40.343071,188.084061 36.568340,183.180267 35.643711,176.396774 
	C34.602303,168.756577 37.589790,162.822159 44.955521,158.822845 
	C45.795090,158.548157 46.007946,158.342957 46.135941,158.049683 
	C46.571877,158.013535 47.007812,157.977402 48.182819,157.873947 
	C50.927185,157.785995 52.932480,157.765350 54.937775,157.744705 
	C57.925728,159.640060 60.913677,161.535416 64.025475,163.965683 
	C64.149323,164.500580 64.155701,164.983490 64.155701,164.983490 
	C63.175041,166.111572 62.194374,167.239639 60.815178,168.816223 
	C59.533768,170.475281 58.650887,171.685806 57.768005,172.896332 
	C56.926342,173.771759 56.084675,174.647171 54.857830,175.972931 
	C52.987625,178.235565 51.502602,180.047852 50.017578,181.860123 
	C50.388065,182.335220 50.758556,182.810303 51.129047,183.285385 
	C53.356869,181.849976 55.584690,180.414566 57.812511,178.979156 
	C58.725418,179.237503 59.638325,179.495834 60.924404,180.160919 
	C62.276669,181.695465 63.255756,182.823273 64.234848,183.951080 
M48.885658,166.030411 
	C43.742546,169.074432 42.836555,171.510132 44.857597,177.587280 
	C47.688118,173.791031 50.375046,170.187347 53.578663,165.890686 
	C51.576836,165.890686 50.616116,165.890686 48.885658,166.030411 
z"/>
<path fill="#6072E0" opacity="1.000000" stroke="none" 
	d="
M164.589890,175.055252 
	C164.634644,175.475555 164.679382,175.895874 164.407562,176.692444 
	C164.255325,177.734268 164.419662,178.399841 164.584000,179.065399 
	C164.633987,181.728302 164.683975,184.391205 164.277649,187.526382 
	C162.117767,188.337524 160.414215,188.676376 157.974869,189.161606 
	C157.974869,186.359451 158.113632,184.229050 157.935379,182.125504 
	C157.761185,180.069748 157.263535,178.041397 156.907867,176.001022 
	C156.853729,171.650696 156.799591,167.300369 156.829147,162.249725 
	C156.960144,161.374008 157.007446,161.198608 157.381714,160.852966 
	C160.002136,161.141251 162.295624,161.599762 164.589096,162.058258 
	C164.641495,164.727737 164.693893,167.397217 164.372498,170.604980 
	C164.195755,172.447250 164.392822,173.751251 164.589890,175.055252 
z"/>
<path fill="#6977D9" opacity="1.000000" stroke="none" 
	d="
M155.296768,150.767426 
	C155.817810,149.078217 156.097061,147.437454 157.059799,146.494568 
	C159.454102,144.149628 162.278122,144.321396 164.517044,146.676636 
	C166.780167,149.057358 166.872101,152.035751 164.153091,154.030701 
	C161.925781,155.664886 159.021896,157.580826 156.711624,153.761902 
	C156.203430,152.921860 155.811508,152.011475 155.296768,150.767426 
z"/>
<path fill="#6A78D7" opacity="1.000000" stroke="none" 
	d="
M148.069305,182.670746 
	C151.023468,184.982239 151.954025,187.675201 149.340836,190.062637 
	C148.057159,191.235397 144.934509,192.029312 143.753036,191.269760 
	C142.247528,190.301880 140.922668,187.440857 141.200897,185.658264 
	C141.722229,182.318069 144.492737,181.389557 148.069305,182.670746 
z"/>
<path fill="#6C79BE" opacity="1.000000" stroke="none" 
	d="
M117.823593,10.528644 
	C104.573547,10.877917 91.031036,10.915262 76.973923,10.922283 
	C77.380127,10.599041 78.301163,10.050892 79.221718,10.051682 
	C91.991554,10.062643 104.761337,10.148879 117.823593,10.528644 
z"/>
<path fill="#7A86D2" opacity="1.000000" stroke="none" 
	d="
M83.290977,82.270081 
	C82.582458,81.124451 81.175758,79.605560 81.121361,78.039688 
	C80.875252,70.954910 81.101669,63.854801 80.941376,56.765114 
	C80.904793,55.147137 80.008018,53.548615 79.107147,51.723179 
	C81.694519,49.804871 82.055344,49.897209 82.111488,53.245956 
	C82.233429,60.518940 82.080055,67.796692 82.215836,75.069199 
	C82.258293,77.343292 82.866341,79.606819 83.290977,82.270081 
z"/>
<path fill="#F0F5FE" opacity="1.000000" stroke="none" 
	d="
M57.494148,178.941498 
	C55.584690,180.414566 53.356869,181.849976 51.129047,183.285385 
	C50.758556,182.810303 50.388065,182.335220 50.017578,181.860123 
	C51.502602,180.047852 52.987625,178.235565 54.756153,176.260132 
	C55.751701,177.032593 56.463745,177.968201 57.494148,178.941498 
z"/>
<path fill="#7D87D6" opacity="1.000000" stroke="none" 
	d="
M156.825623,176.320175 
	C157.263535,178.041397 157.761185,180.069748 157.935379,182.125504 
	C158.113632,184.229050 157.974869,186.359451 157.974869,189.161606 
	C160.414215,188.676376 162.117767,188.337524 164.191376,187.961975 
	C162.999557,190.599411 161.088806,190.838150 156.771469,188.196259 
	C156.694504,187.302353 156.648529,187.106949 156.602539,186.911545 
	C156.621078,186.497162 156.639618,186.082764 156.745483,184.924088 
	C156.759460,182.103455 156.686096,180.027130 156.612732,177.950790 
	C156.656296,177.513641 156.699844,177.076477 156.825623,176.320175 
z"/>
<path fill="#F0F5FE" opacity="1.000000" stroke="none" 
	d="
M64.477730,183.730133 
	C63.255756,182.823273 62.276669,181.695465 61.179825,180.271790 
	C64.268303,180.397079 66.210243,179.294769 66.295258,175.473663 
	C66.972923,177.183899 67.492432,179.184784 68.056107,181.571426 
	C66.973724,182.474518 65.847168,182.991837 64.477730,183.730133 
z"/>
<path fill="#7A86D2" opacity="1.000000" stroke="none" 
	d="
M156.230545,94.683380 
	C155.636353,91.796425 157.469040,87.919655 153.060425,85.625854 
	C154.366928,85.283791 155.780563,85.283791 157.852051,85.283791 
	C157.340912,88.633781 156.902390,91.507866 156.230545,94.683380 
z"/>
<path fill="#7D87D6" opacity="1.000000" stroke="none" 
	d="
M164.700455,161.720917 
	C162.295624,161.599762 160.002136,161.141251 157.334320,160.514801 
	C156.960052,159.891968 156.960144,159.437073 156.960220,158.982178 
	C157.118484,158.916138 157.276749,158.850098 158.035461,158.820236 
	C159.110870,158.793259 159.585831,158.730118 160.060776,158.666962 
	C160.779282,158.680740 161.497772,158.694504 162.848267,158.780350 
	C163.673004,158.845428 163.865768,158.838440 164.058533,158.831436 
	C164.309631,159.682159 164.560730,160.532883 164.700455,161.720917 
z"/>
<path fill="#7A86D2" opacity="1.000000" stroke="none" 
	d="
M49.328156,80.808136 
	C49.427181,83.192986 49.208721,85.701134 48.967468,88.639381 
	C46.575962,86.337418 46.797852,83.626350 49.328156,80.808136 
z"/>
<path fill="#F0F5FE" opacity="1.000000" stroke="none" 
	d="
M69.003296,184.059372 
	C70.476311,185.049469 71.657608,186.214981 73.002594,187.651123 
	C70.595528,188.004730 68.386856,187.650238 69.003296,184.059372 
z"/>
<path fill="#F0F5FE" opacity="1.000000" stroke="none" 
	d="
M58.169022,172.918472 
	C58.650887,171.685806 59.533768,170.475281 60.700722,169.114655 
	C60.179874,170.289902 59.374954,171.615250 58.169022,172.918472 
z"/>
<path fill="#7D87D6" opacity="1.000000" stroke="none" 
	d="
M164.705231,174.653412 
	C164.392822,173.751251 164.195755,172.447250 164.295181,171.043701 
	C164.667984,172.046616 164.744293,173.149094 164.705231,174.653412 
z"/>
<path fill="#F0F5FE" opacity="1.000000" stroke="none" 
	d="
M54.658390,157.514893 
	C52.932480,157.765350 50.927185,157.785995 48.494312,157.768494 
	C50.170822,157.581924 52.274914,157.433502 54.658390,157.514893 
z"/>
<path fill="#C9D1F9" opacity="1.000000" stroke="none" 
	d="
M156.421417,178.262604 
	C156.686096,180.027130 156.759460,182.103455 156.723114,184.613495 
	C156.485611,182.889603 156.357849,180.732010 156.421417,178.262604 
z"/>
<path fill="#6774CB" opacity="1.000000" stroke="none" 
	d="
M128.374878,19.200258 
	C127.295792,18.495405 126.190727,17.481321 125.091667,16.081654 
	C126.181412,16.761055 127.265152,17.826040 128.374878,19.200258 
z"/>
<path fill="#F0F5FE" opacity="1.000000" stroke="none" 
	d="
M84.623856,157.420273 
	C83.232376,157.684616 81.564697,157.748459 79.481743,157.767242 
	C80.826866,157.554703 82.587257,157.387222 84.623856,157.420273 
z"/>
<path fill="#7A86D2" opacity="1.000000" stroke="none" 
	d="
M48.982277,89.351326 
	C49.906178,89.851463 50.893162,90.668564 51.872894,91.823929 
	C50.925545,91.330902 49.985451,90.499596 48.982277,89.351326 
z"/>
<path fill="#7A86D2" opacity="1.000000" stroke="none" 
	d="
M87.701668,85.022507 
	C86.784660,84.886627 85.563889,84.606522 84.345734,83.982361 
	C85.364868,84.051643 86.381386,84.464958 87.701668,85.022507 
z"/>
<path fill="#F0F5FE" opacity="1.000000" stroke="none" 
	d="
M89.724998,158.007263 
	C89.761505,161.635406 88.243118,158.139893 87.171951,158.233627 
	C87.774460,158.003052 88.554451,158.002930 89.724998,158.007263 
z"/>
<path fill="#F0F5FE" opacity="1.000000" stroke="none" 
	d="
M75.041656,189.290558 
	C75.567322,189.137878 76.122871,189.283798 76.858246,189.660370 
	C76.382561,189.790405 75.727051,189.689774 75.041656,189.290558 
z"/>
<path fill="#7D87D6" opacity="1.000000" stroke="none" 
	d="
M164.691559,178.716476 
	C164.419662,178.399841 164.255325,177.734268 164.339111,177.003876 
	C164.657867,177.415207 164.728500,177.891388 164.691559,178.716476 
z"/>
<path fill="#6C79BE" opacity="1.000000" stroke="none" 
	d="
M120.915100,11.647511 
	C120.194611,11.751099 119.296295,11.562134 118.259903,11.042206 
	C118.993645,10.925814 119.865448,11.140387 120.915100,11.647511 
z"/>
<path fill="#C9D1F9" opacity="1.000000" stroke="none" 
	d="
M156.710388,159.147766 
	C156.960144,159.437073 156.960052,159.891968 157.007370,160.685028 
	C157.007446,161.198608 156.960144,161.374008 156.784134,161.789795 
	C156.590469,161.124573 156.525497,160.218948 156.710388,159.147766 
z"/>
<path fill="#7A86D2" opacity="1.000000" stroke="none" 
	d="
M76.732346,53.107948 
	C76.547401,53.648125 76.084999,54.290096 75.298576,54.968143 
	C75.468002,54.406059 75.961441,53.807899 76.732346,53.107948 
z"/>
<path fill="#F0F5FE" opacity="1.000000" stroke="none" 
	d="
M79.269211,190.487900 
	C79.631500,190.355026 80.210289,190.428833 81.020096,190.695190 
	C80.662643,190.823334 80.074173,190.758957 79.269211,190.487900 
z"/>
<path fill="#7A86D2" opacity="1.000000" stroke="none" 
	d="
M66.738785,63.104317 
	C66.757515,63.536358 66.512405,64.077782 65.949249,64.628166 
	C65.912453,64.162651 66.193695,63.688175 66.738785,63.104317 
z"/>
<path fill="#7A86D2" opacity="1.000000" stroke="none" 
	d="
M68.359695,61.699600 
	C68.298027,62.079803 67.960457,62.518356 67.308929,62.979778 
	C67.357910,62.587749 67.720848,62.172852 68.359695,61.699600 
z"/>
<path fill="#C9D1F9" opacity="1.000000" stroke="none" 
	d="
M159.877563,158.504608 
	C159.585831,158.730118 159.110870,158.793259 158.285843,158.761322 
	C158.521957,158.558243 159.108154,158.450241 159.877563,158.504608 
z"/>
<path fill="#7A86D2" opacity="1.000000" stroke="none" 
	d="
M70.753738,59.117325 
	C70.775002,59.547318 70.530525,60.088478 69.970627,60.649933 
	C69.932800,60.189648 70.210396,59.709072 70.753738,59.117325 
z"/>
<path fill="#7A86D2" opacity="1.000000" stroke="none" 
	d="
M78.365555,51.693573 
	C78.305206,52.077728 77.967361,52.516716 77.317642,52.982788 
	C77.366531,52.589382 77.727295,52.168892 78.365555,51.693573 
z"/>
<path fill="#7A86D2" opacity="1.000000" stroke="none" 
	d="
M58.350838,71.695335 
	C58.291088,72.071709 57.957989,72.512283 57.311699,72.978943 
	C57.358170,72.589874 57.717827,72.174706 58.350838,71.695335 
z"/>
<path fill="#7A86D2" opacity="1.000000" stroke="none" 
	d="
M56.740307,73.106308 
	C56.758892,73.538170 56.512753,74.077812 55.949635,74.626343 
	C55.913631,74.161530 56.194607,73.687805 56.740307,73.106308 
z"/>
<path fill="#6774CB" opacity="1.000000" stroke="none" 
	d="
M130.016998,20.599054 
	C129.553940,20.682261 128.957932,20.481754 128.326660,19.944454 
	C128.822296,19.843552 129.353165,20.079447 130.016998,20.599054 
z"/>
<path fill="#6774CB" opacity="1.000000" stroke="none" 
	d="
M135.183472,25.649727 
	C134.978027,25.730911 134.636154,25.557388 134.181137,25.110294 
	C134.394348,25.022821 134.720703,25.208920 135.183472,25.649727 
z"/>
<path fill="#6774CB" opacity="1.000000" stroke="none" 
	d="
M134.084381,24.651806 
	C133.863403,24.731085 133.556915,24.546633 133.162109,24.099808 
	C133.382156,24.020981 133.690521,24.204527 134.084381,24.651806 
z"/>
<path fill="#6774CB" opacity="1.000000" stroke="none" 
	d="
M133.079636,23.658659 
	C132.858200,23.737402 132.553421,23.552158 132.158051,23.106613 
	C132.377075,23.029099 132.686676,23.211885 133.079636,23.658659 
z"/>
<path fill="#6774CB" opacity="1.000000" stroke="none" 
	d="
M132.078186,22.661619 
	C131.853745,22.740200 131.550293,22.552084 131.160126,22.101896 
	C131.381989,22.024858 131.690582,22.209888 132.078186,22.661619 
z"/>
<path fill="#6774CB" opacity="1.000000" stroke="none" 
	d="
M131.080872,21.655609 
	C130.856506,21.737165 130.551254,21.551071 130.157883,21.102940 
	C130.379837,21.023252 130.689926,21.205605 131.080872,21.655609 
z"/>
<path fill="#6C79BE" opacity="1.000000" stroke="none" 
	d="
M122.154884,12.674925 
	C121.964333,12.751987 121.622002,12.588614 121.152954,12.162825 
	C121.351852,12.078435 121.677483,12.256463 122.154884,12.674925 
z"/>
<path fill="#F0F5FE" opacity="1.000000" stroke="none" 
	d="
M66.594894,171.104309 
	C66.719543,171.026093 66.768112,171.501190 66.666000,171.717010 
	C66.297279,171.702759 66.266068,171.452652 66.594894,171.104309 
z"/>
<path fill="#C9D1F9" opacity="1.000000" stroke="none" 
	d="
M156.486267,187.037933 
	C156.648529,187.106949 156.694504,187.302353 156.661865,187.788681 
	C156.478043,187.883469 156.350433,187.695114 156.278229,187.487473 
	C156.248108,187.400864 156.335846,187.273270 156.486267,187.037933 
z"/>
<path fill="#7A86D2" opacity="1.000000" stroke="none" 
	d="
M69.400620,60.759178 
	C69.507401,61.014530 69.381912,61.332706 68.974197,61.634792 
	C68.707878,61.267681 68.866676,61.002117 69.400620,60.759178 
z"/>
<path fill="#F0F5FE" opacity="1.000000" stroke="none" 
	d="
M67.350922,168.213364 
	C67.591309,168.359253 67.539062,168.587692 67.154205,168.876373 
	C67.013573,168.740540 67.092476,168.526978 67.350922,168.213364 
z"/>
<path fill="#F0F5FE" opacity="1.000000" stroke="none" 
	d="
M74.162895,188.482788 
	C74.348999,188.290649 74.596184,188.395599 74.896347,188.810699 
	C74.724815,188.957642 74.483032,188.843994 74.162895,188.482788 
z"/>
<path fill="#7A86D2" opacity="1.000000" stroke="none" 
	d="
M63.379608,66.754700 
	C63.487709,67.004074 63.368614,67.324692 62.966141,67.633087 
	C62.705757,67.276955 62.862309,67.011986 63.379608,66.754700 
z"/>
<path fill="#7A86D2" opacity="1.000000" stroke="none" 
	d="
M65.375244,64.757202 
	C65.480995,65.003181 65.364250,65.322899 64.964966,65.626640 
	C64.712837,65.274498 64.869614,65.014595 65.375244,64.757202 
z"/>
<path fill="#7A86D2" opacity="1.000000" stroke="none" 
	d="
M54.931194,95.363846 
	C55.150497,95.304565 55.457458,95.507523 55.832005,95.988174 
	C55.606014,96.052612 55.312431,95.839348 54.931194,95.363846 
z"/>
<path fill="#7A86D2" opacity="1.000000" stroke="none" 
	d="
M50.360340,79.746552 
	C50.468597,79.996445 50.354614,80.316727 49.957481,80.614944 
	C49.699520,80.256859 49.854111,79.998215 50.360340,79.746552 
z"/>
<path fill="#7A86D2" opacity="1.000000" stroke="none" 
	d="
M116.759277,85.197311 
	C117.014061,85.258163 116.662987,85.591713 116.662987,85.591713 
	C116.662987,85.591713 116.202637,85.536629 116.100739,85.405098 
	C116.167381,85.227867 116.335930,85.182167 116.759277,85.197311 
z"/>
<path fill="#7A86D2" opacity="1.000000" stroke="none" 
	d="
M121.757324,85.176575 
	C121.740379,85.334663 121.467247,85.427170 121.092361,85.384407 
	C121.160782,85.203102 121.330963,85.157051 121.757324,85.176575 
z"/>
<path fill="#7A86D2" opacity="1.000000" stroke="none" 
	d="
M125.748154,85.219002 
	C125.997276,85.284920 125.647415,85.605484 125.647415,85.605484 
	C125.647415,85.605484 125.196152,85.540016 125.097656,85.409363 
	C125.165779,85.236847 125.332397,85.194969 125.748154,85.219002 
z"/>
<path fill="#7A86D2" opacity="1.000000" stroke="none" 
	d="
M51.360405,78.746567 
	C51.469223,78.996971 51.355076,79.317421 50.957611,79.616714 
	C50.698444,79.258446 50.852825,78.998795 51.360405,78.746567 
z"/>
<path fill="#7A86D2" opacity="1.000000" stroke="none" 
	d="
M52.360004,77.746956 
	C52.469231,77.998222 52.354961,78.318398 51.957535,78.617180 
	C51.697372,78.258125 51.851418,77.998146 52.360004,77.746956 
z"/>
<path fill="#7A86D2" opacity="1.000000" stroke="none" 
	d="
M53.370167,76.747978 
	C53.477943,77.000122 53.360397,77.319519 52.960106,77.617554 
	C52.699589,77.255875 52.855415,76.995552 53.370167,76.747978 
z"/>
<path fill="#7A86D2" opacity="1.000000" stroke="none" 
	d="
M51.930084,92.355927 
	C52.146168,92.279930 52.446625,92.457176 52.823143,92.894432 
	C52.604290,92.972679 52.309376,92.790924 51.930084,92.355927 
z"/>
<path fill="#7A86D2" opacity="1.000000" stroke="none" 
	d="
M52.928730,93.357361 
	C53.145679,93.280693 53.446251,93.457756 53.822536,93.894958 
	C53.602951,93.973755 53.307652,93.792419 52.928730,93.357361 
z"/>
<path fill="#7A86D2" opacity="1.000000" stroke="none" 
	d="
M53.928486,94.357681 
	C54.145126,94.281876 54.445427,94.459282 54.820091,94.897308 
	C54.600353,94.975586 54.306252,94.793243 53.928486,94.357681 
z"/>
<path fill="#7A86D2" opacity="1.000000" stroke="none" 
	d="
M64.370720,65.753067 
	C64.480270,66.002266 64.363968,66.323456 63.964096,66.631744 
	C63.702637,66.276604 63.857418,66.012009 64.370720,65.753067 
z"/>
<path fill="#7A86D2" opacity="1.000000" stroke="none" 
	d="
M54.367264,75.751419 
	C54.476856,76.002266 54.361008,76.322006 53.962593,76.624817 
	C53.699451,76.266464 53.853382,76.003929 54.367264,75.751419 
z"/>
<path fill="#7A86D2" opacity="1.000000" stroke="none" 
	d="
M55.368896,74.750366 
	C55.478073,75.001091 55.362007,75.320587 54.963501,75.622849 
	C54.701569,75.264778 54.855770,75.002617 55.368896,74.750366 
z"/>
<path fill="#7A86D2" opacity="1.000000" stroke="none" 
	d="
M59.374737,70.751404 
	C59.482777,71.002426 59.364769,71.322380 58.963768,71.624710 
	C58.703091,71.265320 58.859066,71.003067 59.374737,70.751404 
z"/>
<path fill="#7A86D2" opacity="1.000000" stroke="none" 
	d="
M60.378174,69.753075 
	C60.486366,70.003906 60.367500,70.324150 59.965485,70.629097 
	C59.704018,70.270271 59.860279,70.006500 60.378174,69.753075 
z"/>
<path fill="#F0F5FE" opacity="1.000000" stroke="none" 
	d="
M45.920403,158.082642 
	C46.007946,158.342957 45.795090,158.548157 45.271709,158.662384 
	C45.198715,158.397156 45.418320,158.215851 45.920403,158.082642 
z"/>
<path fill="#C9D1F9" opacity="1.000000" stroke="none" 
	d="
M163.958588,158.683426 
	C163.865768,158.838440 163.673004,158.845428 163.207169,158.756454 
	C163.242264,158.618790 163.550461,158.577103 163.958588,158.683426 
z"/>
<path fill="#7A86D2" opacity="1.000000" stroke="none" 
	d="
M61.380836,68.754280 
	C61.488811,69.004555 61.369240,69.324974 60.966469,69.631767 
	C60.705051,69.273666 60.861725,69.009087 61.380836,68.754280 
z"/>
<path fill="#7A86D2" opacity="1.000000" stroke="none" 
	d="
M62.380898,67.755081 
	C62.488865,68.004692 62.369320,68.325195 61.966537,68.633392 
	C61.705750,68.276657 61.862442,68.011620 62.380898,67.755081 
z"/>
<path fill="#7A86D2" opacity="1.000000" stroke="none" 
	d="
M84.234550,83.401375 
	C83.990074,83.503860 83.669884,83.379539 83.357681,82.972206 
	C83.707306,82.724770 83.971703,82.886559 84.234550,83.401375 
z"/>
<path fill="#F0F5FE" opacity="1.000000" stroke="none" 
	d="
M64.301147,164.904907 
	C64.155701,164.983490 64.149323,164.500580 64.208260,164.266479 
	C64.616791,164.250702 64.676590,164.515350 64.301147,164.904907 
z"/>
<path fill="#F7F9FD" opacity="1.000000" stroke="none" 
	d="
M192.913254,174.777527 
	C190.919128,181.335953 187.182373,183.773560 182.410172,182.011856 
	C177.929092,180.357620 175.834534,175.035919 177.817108,170.443130 
	C179.441879,166.679260 182.401917,165.303925 186.268280,165.874420 
	C191.090317,166.585938 192.749359,169.946899 192.913254,174.777527 
z"/>
<path fill="#F7FAFD" opacity="1.000000" stroke="none" 
	d="
M74.818031,173.986481 
	C75.775566,167.854370 78.306023,165.463699 83.040222,165.801178 
	C87.126938,166.092499 90.162613,169.453522 90.254982,173.789185 
	C90.354485,178.459427 87.357903,182.003235 83.067551,182.289169 
	C78.496490,182.593826 75.837860,180.053970 74.818031,173.986481 
z"/>
<path fill="#F7FAFD" opacity="1.000000" stroke="none" 
	d="
M125.186707,180.057190 
	C117.365829,185.386276 111.117180,180.772354 111.242714,175.165543 
	C111.304985,172.384552 112.687096,168.698883 114.760063,167.178192 
	C116.580040,165.843063 121.053154,165.877029 122.802940,167.263855 
	C124.980209,168.989517 125.824234,172.648834 126.704803,175.632248 
	C127.045517,176.786591 125.909988,178.376648 125.186707,180.057190 
z"/>
<path fill="#EFF4FE" opacity="1.000000" stroke="none" 
	d="
M49.270527,165.960541 
	C50.616116,165.890686 51.576836,165.890686 53.578663,165.890686 
	C50.375046,170.187347 47.688118,173.791031 44.857597,177.587280 
	C42.836555,171.510132 43.742546,169.074432 49.270527,165.960541 
z"/>
</svg>
